<?xml version="1.0" encoding="UTF-8" standalone="no"?>
<svg xmlns="http://www.w3.org/2000/svg" xmlns:xlink="http://www.w3.org/1999/xlink" contentStyleType="text/css" height="893px" preserveAspectRatio="none" style="width:1081px;height:893px;background:#FFFFFF;" version="1.1" viewBox="0 0 1081 893" width="1081px" zoomAndPan="magnify"><defs/><g><!--MD5=[5a55b731792d22909a2631efc8afae35]
cluster configuration--><g id="cluster_configuration"><path d="M592.5,754 L704.5,754 A3.75,3.75 0 0 1 707,756.5 L714,776.2969 L1071.5,776.2969 A2.5,2.5 0 0 1 1074,778.7969 L1074,883.5 A2.5,2.5 0 0 1 1071.5,886 L592.5,886 A2.5,2.5 0 0 1 590,883.5 L590,756.5 A2.5,2.5 0 0 1 592.5,754 " style="stroke:#000000;stroke-width:1.5;fill:none;"/><line style="stroke:#000000;stroke-width:1.5;fill:none;" x1="590" x2="714" y1="776.2969" y2="776.2969"/><text fill="#000000" font-family="sans-serif" font-size="14" font-weight="bold" lengthAdjust="spacing" textLength="111" x="594" y="768.9951">configuration</text></g><!--MD5=[10ea673caf457862023e152271927b45]
cluster controller--><g id="cluster_controller"><path d="M531.5,6 L612.5,6 A3.75,3.75 0 0 1 615,8.5 L622,28.2969 L1058.5,28.2969 A2.5,2.5 0 0 1 1061,30.7969 L1061,135.5 A2.5,2.5 0 0 1 1058.5,138 L531.5,138 A2.5,2.5 0 0 1 529,135.5 L529,8.5 A2.5,2.5 0 0 1 531.5,6 " style="stroke:#000000;stroke-width:1.5;fill:none;"/><line style="stroke:#000000;stroke-width:1.5;fill:none;" x1="529" x2="622" y1="28.2969" y2="28.2969"/><text fill="#000000" font-family="sans-serif" font-size="14" font-weight="bold" lengthAdjust="spacing" textLength="80" x="533" y="20.9951">controller</text></g><!--MD5=[7579d5565d2521d5936cec86ed3dadee]
cluster service--><g id="cluster_service"><path d="M337.5,171 L395.5,171 A3.75,3.75 0 0 1 398,173.5 L405,193.2969 L919.5,193.2969 A2.5,2.5 0 0 1 922,195.7969 L922,332.5 A2.5,2.5 0 0 1 919.5,335 L337.5,335 A2.5,2.5 0 0 1 335,332.5 L335,173.5 A2.5,2.5 0 0 1 337.5,171 " style="stroke:#000000;stroke-width:1.5;fill:none;"/><line style="stroke:#000000;stroke-width:1.5;fill:none;" x1="335" x2="405" y1="193.2969" y2="193.2969"/><text fill="#000000" font-family="sans-serif" font-size="14" font-weight="bold" lengthAdjust="spacing" textLength="57" x="339" y="185.9951">service</text></g><!--MD5=[5d4cd377749310b66bf14896f5cd8d9b]
cluster model--><g id="cluster_model"><path d="M8.5,203.5 L58.5,203.5 A3.75,3.75 0 0 1 61,206 L68,225.7969 L292.5,225.7969 A2.5,2.5 0 0 1 295,228.2969 L295,883.5 A2.5,2.5 0 0 1 292.5,886 L8.5,886 A2.5,2.5 0 0 1 6,883.5 L6,206 A2.5,2.5 0 0 1 8.5,203.5 " style="stroke:#000000;stroke-width:1.5;fill:none;"/><line style="stroke:#000000;stroke-width:1.5;fill:none;" x1="6" x2="68" y1="225.7969" y2="225.7969"/><text fill="#000000" font-family="sans-serif" font-size="14" font-weight="bold" lengthAdjust="spacing" textLength="49" x="10" y="218.4951">model</text></g><!--MD5=[bd0bd4c41e0e5269e37474fd45a6abb7]
cluster repository--><g id="cluster_repository"><path d="M329.5,376 L414.5,376 A3.75,3.75 0 0 1 417,378.5 L424,398.2969 L923.5,398.2969 A2.5,2.5 0 0 1 926,400.7969 L926,521.5 A2.5,2.5 0 0 1 923.5,524 L329.5,524 A2.5,2.5 0 0 1 327,521.5 L327,378.5 A2.5,2.5 0 0 1 329.5,376 " style="stroke:#000000;stroke-width:1.5;fill:none;"/><line style="stroke:#000000;stroke-width:1.5;fill:none;" x1="327" x2="424" y1="398.2969" y2="398.2969"/><text fill="#000000" font-family="sans-serif" font-size="14" font-weight="bold" lengthAdjust="spacing" textLength="84" x="331" y="390.9951">repository</text></g><!--MD5=[f12d22dd70a79c501d3eb00951149527]
class SpringSecurityConfig--><g id="elem_SpringSecurityConfig"><rect codeLine="17" fill="#F1F1F1" height="80.5938" id="SpringSecurityConfig" rx="2.5" ry="2.5" style="stroke:#181818;stroke-width:0.5;" width="205" x="606.5" y="789"/><ellipse cx="621.5" cy="805" fill="#ADD1B2" rx="11" ry="11" style="stroke:#181818;stroke-width:1.0;"/><path d="M623.8438,800.6719 C622.9063,800.2344 622.3125,800.0938 621.4375,800.0938 C618.8125,800.0938 616.8125,802.1719 616.8125,804.8906 L616.8125,806.0156 C616.8125,808.5938 618.9219,810.4844 621.8125,810.4844 C623.0313,810.4844 624.1875,810.1875 624.9375,809.6406 C625.5156,809.2344 625.8438,808.7813 625.8438,808.3906 C625.8438,807.9375 625.4531,807.5469 624.9844,807.5469 C624.7656,807.5469 624.5625,807.625 624.375,807.8125 C623.9219,808.2969 623.9219,808.2969 623.7344,808.3906 C623.3125,808.6563 622.625,808.7813 621.8594,808.7813 C619.8125,808.7813 618.5156,807.6875 618.5156,805.9844 L618.5156,804.8906 C618.5156,803.1094 619.7656,801.7969 621.5,801.7969 C622.0781,801.7969 622.6875,801.9531 623.1563,802.2031 C623.6406,802.4844 623.8125,802.7031 623.9063,803.1094 C623.9688,803.5156 624,803.6406 624.1406,803.7656 C624.2813,803.9063 624.5156,804.0156 624.7344,804.0156 C625,804.0156 625.2656,803.875 625.4375,803.6563 C625.5469,803.5 625.5781,803.3125 625.5781,802.8906 L625.5781,801.4688 C625.5781,801.0313 625.5625,800.9063 625.4688,800.75 C625.3125,800.4844 625.0313,800.3438 624.7344,800.3438 C624.4375,800.3438 624.2344,800.4375 624.0156,800.75 L623.8438,800.6719 Z " fill="#000000"/><text fill="#000000" font-family="sans-serif" font-size="14" lengthAdjust="spacing" textLength="153" x="635.5" y="809.8467">SpringSecurityConfig</text><rect fill="#FFFFFF" height="15.9688" style="stroke:#000000;stroke-width:1.0;stroke-dasharray:2.0,2.0;" width="18" x="796.5" y="786"/><text fill="#000000" font-family="sans-serif" font-size="12" font-style="italic" lengthAdjust="spacing" textLength="8" x="801.5" y="798.1387">1</text><line style="stroke:#181818;stroke-width:0.5;" x1="607.5" x2="810.5" y1="821" y2="821"/><line style="stroke:#181818;stroke-width:0.5;" x1="607.5" x2="810.5" y1="829" y2="829"/><ellipse cx="617.5" cy="840" fill="#84BE84" rx="3" ry="3" style="stroke:#038048;stroke-width:1.0;"/><text fill="#000000" font-family="sans-serif" font-size="14" lengthAdjust="spacing" textLength="145" x="626.5" y="845.9951">securityFilterChain()</text><ellipse cx="617.5" cy="856.2969" fill="#84BE84" rx="3" ry="3" style="stroke:#038048;stroke-width:1.0;"/><text fill="#000000" font-family="sans-serif" font-size="14" lengthAdjust="spacing" textLength="160" x="626.5" y="862.292">getPasswordEncoder()</text></g><!--MD5=[49f83f187a91d2c081fc3779443fea89]
class WebMvcConfiguration--><g id="elem_WebMvcConfiguration"><rect codeLine="21" fill="#F1F1F1" height="48" id="WebMvcConfiguration" rx="2.5" ry="2.5" style="stroke:#181818;stroke-width:0.5;" width="211" x="846.5" y="805.5"/><ellipse cx="861.5" cy="821.5" fill="#ADD1B2" rx="11" ry="11" style="stroke:#181818;stroke-width:1.0;"/><path d="M863.8438,817.1719 C862.9063,816.7344 862.3125,816.5938 861.4375,816.5938 C858.8125,816.5938 856.8125,818.6719 856.8125,821.3906 L856.8125,822.5156 C856.8125,825.0938 858.9219,826.9844 861.8125,826.9844 C863.0313,826.9844 864.1875,826.6875 864.9375,826.1406 C865.5156,825.7344 865.8438,825.2813 865.8438,824.8906 C865.8438,824.4375 865.4531,824.0469 864.9844,824.0469 C864.7656,824.0469 864.5625,824.125 864.375,824.3125 C863.9219,824.7969 863.9219,824.7969 863.7344,824.8906 C863.3125,825.1563 862.625,825.2813 861.8594,825.2813 C859.8125,825.2813 858.5156,824.1875 858.5156,822.4844 L858.5156,821.3906 C858.5156,819.6094 859.7656,818.2969 861.5,818.2969 C862.0781,818.2969 862.6875,818.4531 863.1563,818.7031 C863.6406,818.9844 863.8125,819.2031 863.9063,819.6094 C863.9688,820.0156 864,820.1406 864.1406,820.2656 C864.2813,820.4063 864.5156,820.5156 864.7344,820.5156 C865,820.5156 865.2656,820.375 865.4375,820.1563 C865.5469,820 865.5781,819.8125 865.5781,819.3906 L865.5781,817.9688 C865.5781,817.5313 865.5625,817.4063 865.4688,817.25 C865.3125,816.9844 865.0313,816.8438 864.7344,816.8438 C864.4375,816.8438 864.2344,816.9375 864.0156,817.25 L863.8438,817.1719 Z " fill="#000000"/><text fill="#000000" font-family="sans-serif" font-size="14" lengthAdjust="spacing" textLength="159" x="875.5" y="826.3467">WebMvcConfiguration</text><rect fill="#FFFFFF" height="15.9688" style="stroke:#000000;stroke-width:1.0;stroke-dasharray:2.0,2.0;" width="18" x="1042.5" y="802.5"/><text fill="#000000" font-family="sans-serif" font-size="12" font-style="italic" lengthAdjust="spacing" textLength="8" x="1047.5" y="814.6387">1</text><line style="stroke:#181818;stroke-width:0.5;" x1="847.5" x2="1056.5" y1="837.5" y2="837.5"/><line style="stroke:#181818;stroke-width:0.5;" x1="847.5" x2="1056.5" y1="845.5" y2="845.5"/></g><!--MD5=[82df4e216db0a7ab93a3a7ac6cfd7708]
class TransferViewController--><g id="elem_TransferViewController"><rect codeLine="26" fill="#F1F1F1" height="80.5938" id="TransferViewController" rx="2.5" ry="2.5" style="stroke:#181818;stroke-width:0.5;" width="219" x="545.5" y="41"/><ellipse cx="560.5" cy="57" fill="#ADD1B2" rx="11" ry="11" style="stroke:#181818;stroke-width:1.0;"/><path d="M562.8438,52.6719 C561.9063,52.2344 561.3125,52.0938 560.4375,52.0938 C557.8125,52.0938 555.8125,54.1719 555.8125,56.8906 L555.8125,58.0156 C555.8125,60.5938 557.9219,62.4844 560.8125,62.4844 C562.0313,62.4844 563.1875,62.1875 563.9375,61.6406 C564.5156,61.2344 564.8438,60.7813 564.8438,60.3906 C564.8438,59.9375 564.4531,59.5469 563.9844,59.5469 C563.7656,59.5469 563.5625,59.625 563.375,59.8125 C562.9219,60.2969 562.9219,60.2969 562.7344,60.3906 C562.3125,60.6563 561.625,60.7813 560.8594,60.7813 C558.8125,60.7813 557.5156,59.6875 557.5156,57.9844 L557.5156,56.8906 C557.5156,55.1094 558.7656,53.7969 560.5,53.7969 C561.0781,53.7969 561.6875,53.9531 562.1563,54.2031 C562.6406,54.4844 562.8125,54.7031 562.9063,55.1094 C562.9688,55.5156 563,55.6406 563.1406,55.7656 C563.2813,55.9063 563.5156,56.0156 563.7344,56.0156 C564,56.0156 564.2656,55.875 564.4375,55.6563 C564.5469,55.5 564.5781,55.3125 564.5781,54.8906 L564.5781,53.4688 C564.5781,53.0313 564.5625,52.9063 564.4688,52.75 C564.3125,52.4844 564.0313,52.3438 563.7344,52.3438 C563.4375,52.3438 563.2344,52.4375 563.0156,52.75 L562.8438,52.6719 Z " fill="#000000"/><text fill="#000000" font-family="sans-serif" font-size="14" lengthAdjust="spacing" textLength="167" x="574.5" y="61.8467">TransferViewController</text><rect fill="#FFFFFF" height="15.9688" style="stroke:#000000;stroke-width:1.0;stroke-dasharray:2.0,2.0;" width="18" x="749.5" y="38"/><text fill="#000000" font-family="sans-serif" font-size="12" font-style="italic" lengthAdjust="spacing" textLength="8" x="754.5" y="50.1387">1</text><line style="stroke:#181818;stroke-width:0.5;" x1="546.5" x2="763.5" y1="73" y2="73"/><line style="stroke:#181818;stroke-width:0.5;" x1="546.5" x2="763.5" y1="81" y2="81"/><ellipse cx="556.5" cy="92" fill="#84BE84" rx="3" ry="3" style="stroke:#038048;stroke-width:1.0;"/><text fill="#000000" font-family="sans-serif" font-size="14" lengthAdjust="spacing" textLength="70" x="565.5" y="97.9951">getPage()</text><ellipse cx="556.5" cy="108.2969" fill="#84BE84" rx="3" ry="3" style="stroke:#038048;stroke-width:1.0;"/><text fill="#000000" font-family="sans-serif" font-size="14" lengthAdjust="spacing" textLength="68" x="565.5" y="114.292">postPay()</text></g><!--MD5=[701628ee1aa4418f390bdb2c9905e70a]
class AddContactViewController--><g id="elem_AddContactViewController"><rect codeLine="30" fill="#F1F1F1" height="80.5938" id="AddContactViewController" rx="2.5" ry="2.5" style="stroke:#181818;stroke-width:0.5;" width="245" x="799.5" y="41"/><ellipse cx="814.5" cy="57" fill="#ADD1B2" rx="11" ry="11" style="stroke:#181818;stroke-width:1.0;"/><path d="M816.8438,52.6719 C815.9063,52.2344 815.3125,52.0938 814.4375,52.0938 C811.8125,52.0938 809.8125,54.1719 809.8125,56.8906 L809.8125,58.0156 C809.8125,60.5938 811.9219,62.4844 814.8125,62.4844 C816.0313,62.4844 817.1875,62.1875 817.9375,61.6406 C818.5156,61.2344 818.8438,60.7813 818.8438,60.3906 C818.8438,59.9375 818.4531,59.5469 817.9844,59.5469 C817.7656,59.5469 817.5625,59.625 817.375,59.8125 C816.9219,60.2969 816.9219,60.2969 816.7344,60.3906 C816.3125,60.6563 815.625,60.7813 814.8594,60.7813 C812.8125,60.7813 811.5156,59.6875 811.5156,57.9844 L811.5156,56.8906 C811.5156,55.1094 812.7656,53.7969 814.5,53.7969 C815.0781,53.7969 815.6875,53.9531 816.1563,54.2031 C816.6406,54.4844 816.8125,54.7031 816.9063,55.1094 C816.9688,55.5156 817,55.6406 817.1406,55.7656 C817.2813,55.9063 817.5156,56.0156 817.7344,56.0156 C818,56.0156 818.2656,55.875 818.4375,55.6563 C818.5469,55.5 818.5781,55.3125 818.5781,54.8906 L818.5781,53.4688 C818.5781,53.0313 818.5625,52.9063 818.4688,52.75 C818.3125,52.4844 818.0313,52.3438 817.7344,52.3438 C817.4375,52.3438 817.2344,52.4375 817.0156,52.75 L816.8438,52.6719 Z " fill="#000000"/><text fill="#000000" font-family="sans-serif" font-size="14" lengthAdjust="spacing" textLength="193" x="828.5" y="61.8467">AddContactViewController</text><rect fill="#FFFFFF" height="15.9688" style="stroke:#000000;stroke-width:1.0;stroke-dasharray:2.0,2.0;" width="18" x="1029.5" y="38"/><text fill="#000000" font-family="sans-serif" font-size="12" font-style="italic" lengthAdjust="spacing" textLength="8" x="1034.5" y="50.1387">1</text><line style="stroke:#181818;stroke-width:0.5;" x1="800.5" x2="1043.5" y1="73" y2="73"/><line style="stroke:#181818;stroke-width:0.5;" x1="800.5" x2="1043.5" y1="81" y2="81"/><ellipse cx="810.5" cy="92" fill="#84BE84" rx="3" ry="3" style="stroke:#038048;stroke-width:1.0;"/><text fill="#000000" font-family="sans-serif" font-size="14" lengthAdjust="spacing" textLength="70" x="819.5" y="97.9951">getPage()</text><ellipse cx="810.5" cy="108.2969" fill="#84BE84" rx="3" ry="3" style="stroke:#038048;stroke-width:1.0;"/><text fill="#000000" font-family="sans-serif" font-size="14" lengthAdjust="spacing" textLength="71" x="819.5" y="114.292">postAdd()</text></g><!--MD5=[e4ac4745f81aec2db60ad4ddae80b659]
class UserService--><g id="elem_UserService"><rect codeLine="37" fill="#F1F1F1" height="48" id="UserService" rx="2.5" ry="2.5" style="stroke:#181818;stroke-width:0.5;" width="136" x="351" y="238.5"/><ellipse cx="366" cy="254.5" fill="#ADD1B2" rx="11" ry="11" style="stroke:#181818;stroke-width:1.0;"/><path d="M368.3438,250.1719 C367.4063,249.7344 366.8125,249.5938 365.9375,249.5938 C363.3125,249.5938 361.3125,251.6719 361.3125,254.3906 L361.3125,255.5156 C361.3125,258.0938 363.4219,259.9844 366.3125,259.9844 C367.5313,259.9844 368.6875,259.6875 369.4375,259.1406 C370.0156,258.7344 370.3438,258.2813 370.3438,257.8906 C370.3438,257.4375 369.9531,257.0469 369.4844,257.0469 C369.2656,257.0469 369.0625,257.125 368.875,257.3125 C368.4219,257.7969 368.4219,257.7969 368.2344,257.8906 C367.8125,258.1563 367.125,258.2813 366.3594,258.2813 C364.3125,258.2813 363.0156,257.1875 363.0156,255.4844 L363.0156,254.3906 C363.0156,252.6094 364.2656,251.2969 366,251.2969 C366.5781,251.2969 367.1875,251.4531 367.6563,251.7031 C368.1406,251.9844 368.3125,252.2031 368.4063,252.6094 C368.4688,253.0156 368.5,253.1406 368.6406,253.2656 C368.7813,253.4063 369.0156,253.5156 369.2344,253.5156 C369.5,253.5156 369.7656,253.375 369.9375,253.1563 C370.0469,253 370.0781,252.8125 370.0781,252.3906 L370.0781,250.9688 C370.0781,250.5313 370.0625,250.4063 369.9688,250.25 C369.8125,249.9844 369.5313,249.8438 369.2344,249.8438 C368.9375,249.8438 368.7344,249.9375 368.5156,250.25 L368.3438,250.1719 Z " fill="#000000"/><text fill="#000000" font-family="sans-serif" font-size="14" lengthAdjust="spacing" textLength="84" x="380" y="259.3467">UserService</text><rect fill="#FFFFFF" height="15.9688" style="stroke:#000000;stroke-width:1.0;stroke-dasharray:2.0,2.0;" width="18" x="472" y="235.5"/><text fill="#000000" font-family="sans-serif" font-size="12" font-style="italic" lengthAdjust="spacing" textLength="8" x="477" y="247.6387">1</text><line style="stroke:#181818;stroke-width:0.5;" x1="352" x2="486" y1="270.5" y2="270.5"/><line style="stroke:#181818;stroke-width:0.5;" x1="352" x2="486" y1="278.5" y2="278.5"/></g><!--MD5=[fd19d5ad0cc08ec15ff275655ff5e7e3]
class WalletService--><g id="elem_WalletService"><rect codeLine="39" fill="#F1F1F1" height="113.1875" id="WalletService" rx="2.5" ry="2.5" style="stroke:#181818;stroke-width:0.5;" width="151" x="754.5" y="206"/><ellipse cx="769.5" cy="222" fill="#ADD1B2" rx="11" ry="11" style="stroke:#181818;stroke-width:1.0;"/><path d="M771.8438,217.6719 C770.9063,217.2344 770.3125,217.0938 769.4375,217.0938 C766.8125,217.0938 764.8125,219.1719 764.8125,221.8906 L764.8125,223.0156 C764.8125,225.5938 766.9219,227.4844 769.8125,227.4844 C771.0313,227.4844 772.1875,227.1875 772.9375,226.6406 C773.5156,226.2344 773.8438,225.7813 773.8438,225.3906 C773.8438,224.9375 773.4531,224.5469 772.9844,224.5469 C772.7656,224.5469 772.5625,224.625 772.375,224.8125 C771.9219,225.2969 771.9219,225.2969 771.7344,225.3906 C771.3125,225.6563 770.625,225.7813 769.8594,225.7813 C767.8125,225.7813 766.5156,224.6875 766.5156,222.9844 L766.5156,221.8906 C766.5156,220.1094 767.7656,218.7969 769.5,218.7969 C770.0781,218.7969 770.6875,218.9531 771.1563,219.2031 C771.6406,219.4844 771.8125,219.7031 771.9063,220.1094 C771.9688,220.5156 772,220.6406 772.1406,220.7656 C772.2813,220.9063 772.5156,221.0156 772.7344,221.0156 C773,221.0156 773.2656,220.875 773.4375,220.6563 C773.5469,220.5 773.5781,220.3125 773.5781,219.8906 L773.5781,218.4688 C773.5781,218.0313 773.5625,217.9063 773.4688,217.75 C773.3125,217.4844 773.0313,217.3438 772.7344,217.3438 C772.4375,217.3438 772.2344,217.4375 772.0156,217.75 L771.8438,217.6719 Z " fill="#000000"/><text fill="#000000" font-family="sans-serif" font-size="14" lengthAdjust="spacing" textLength="99" x="783.5" y="226.8467">WalletService</text><rect fill="#FFFFFF" height="15.9688" style="stroke:#000000;stroke-width:1.0;stroke-dasharray:2.0,2.0;" width="18" x="890.5" y="203"/><text fill="#000000" font-family="sans-serif" font-size="12" font-style="italic" lengthAdjust="spacing" textLength="8" x="895.5" y="215.1387">1</text><line style="stroke:#181818;stroke-width:0.5;" x1="755.5" x2="904.5" y1="238" y2="238"/><line style="stroke:#181818;stroke-width:0.5;" x1="755.5" x2="904.5" y1="246" y2="246"/><ellipse cx="765.5" cy="257" fill="#84BE84" rx="3" ry="3" style="stroke:#038048;stroke-width:1.0;"/><text fill="#000000" font-family="sans-serif" font-size="14" lengthAdjust="spacing" textLength="100" x="774.5" y="262.9951">getContacts()</text><ellipse cx="765.5" cy="273.2969" fill="#84BE84" rx="3" ry="3" style="stroke:#038048;stroke-width:1.0;"/><text fill="#000000" font-family="sans-serif" font-size="14" lengthAdjust="spacing" textLength="102" x="774.5" y="279.292">getTransfers()</text><ellipse cx="765.5" cy="289.5938" fill="#84BE84" rx="3" ry="3" style="stroke:#038048;stroke-width:1.0;"/><text fill="#000000" font-family="sans-serif" font-size="14" lengthAdjust="spacing" textLength="94" x="774.5" y="295.5889">addContact()</text><ellipse cx="765.5" cy="305.8906" fill="#84BE84" rx="3" ry="3" style="stroke:#038048;stroke-width:1.0;"/><text fill="#000000" font-family="sans-serif" font-size="14" lengthAdjust="spacing" textLength="88" x="774.5" y="311.8857">doTransfer()</text></g><!--MD5=[c5e906f87014b27473f35ba27de49c6c]
class TransferService--><g id="elem_TransferService"><rect codeLine="45" fill="#F1F1F1" height="80.5938" id="TransferService" rx="2.5" ry="2.5" style="stroke:#181818;stroke-width:0.5;" width="197" x="522.5" y="222"/><ellipse cx="551.9" cy="238" fill="#ADD1B2" rx="11" ry="11" style="stroke:#181818;stroke-width:1.0;"/><path d="M554.2438,233.6719 C553.3063,233.2344 552.7125,233.0938 551.8375,233.0938 C549.2125,233.0938 547.2125,235.1719 547.2125,237.8906 L547.2125,239.0156 C547.2125,241.5938 549.3219,243.4844 552.2125,243.4844 C553.4313,243.4844 554.5875,243.1875 555.3375,242.6406 C555.9156,242.2344 556.2438,241.7813 556.2438,241.3906 C556.2438,240.9375 555.8531,240.5469 555.3844,240.5469 C555.1656,240.5469 554.9625,240.625 554.775,240.8125 C554.3219,241.2969 554.3219,241.2969 554.1344,241.3906 C553.7125,241.6563 553.025,241.7813 552.2594,241.7813 C550.2125,241.7813 548.9156,240.6875 548.9156,238.9844 L548.9156,237.8906 C548.9156,236.1094 550.1656,234.7969 551.9,234.7969 C552.4781,234.7969 553.0875,234.9531 553.5563,235.2031 C554.0406,235.4844 554.2125,235.7031 554.3063,236.1094 C554.3688,236.5156 554.4,236.6406 554.5406,236.7656 C554.6813,236.9063 554.9156,237.0156 555.1344,237.0156 C555.4,237.0156 555.6656,236.875 555.8375,236.6563 C555.9469,236.5 555.9781,236.3125 555.9781,235.8906 L555.9781,234.4688 C555.9781,234.0313 555.9625,233.9063 555.8688,233.75 C555.7125,233.4844 555.4313,233.3438 555.1344,233.3438 C554.8375,233.3438 554.6344,233.4375 554.4156,233.75 L554.2438,233.6719 Z " fill="#000000"/><text fill="#000000" font-family="sans-serif" font-size="14" lengthAdjust="spacing" textLength="113" x="569.1" y="242.8467">TransferService</text><rect fill="#FFFFFF" height="15.9688" style="stroke:#000000;stroke-width:1.0;stroke-dasharray:2.0,2.0;" width="18" x="704.5" y="219"/><text fill="#000000" font-family="sans-serif" font-size="12" font-style="italic" lengthAdjust="spacing" textLength="8" x="709.5" y="231.1387">1</text><line style="stroke:#181818;stroke-width:0.5;" x1="523.5" x2="718.5" y1="254" y2="254"/><line style="stroke:#181818;stroke-width:0.5;" x1="523.5" x2="718.5" y1="262" y2="262"/><ellipse cx="533.5" cy="273" fill="#84BE84" rx="3" ry="3" style="stroke:#038048;stroke-width:1.0;"/><text fill="#000000" font-family="sans-serif" font-size="14" lengthAdjust="spacing" textLength="171" x="542.5" y="278.9951">getTransfersForWallet()</text><ellipse cx="533.5" cy="289.2969" fill="#84BE84" rx="3" ry="3" style="stroke:#038048;stroke-width:1.0;"/><text fill="#000000" font-family="sans-serif" font-size="14" lengthAdjust="spacing" textLength="96" x="542.5" y="295.292">addTransfer()</text></g><!--MD5=[654d3ef673e7ea817b409bc91ff6b56e]
class UserPrincipal--><g id="elem_UserPrincipal"><rect codeLine="52" fill="#F1F1F1" height="48" id="UserPrincipal" rx="2.5" ry="2.5" style="stroke:#181818;stroke-width:0.5;" width="125" x="141.5" y="238.5"/><ellipse cx="156.5" cy="254.5" fill="#ADD1B2" rx="11" ry="11" style="stroke:#181818;stroke-width:1.0;"/><path d="M158.8438,250.1719 C157.9063,249.7344 157.3125,249.5938 156.4375,249.5938 C153.8125,249.5938 151.8125,251.6719 151.8125,254.3906 L151.8125,255.5156 C151.8125,258.0938 153.9219,259.9844 156.8125,259.9844 C158.0313,259.9844 159.1875,259.6875 159.9375,259.1406 C160.5156,258.7344 160.8438,258.2813 160.8438,257.8906 C160.8438,257.4375 160.4531,257.0469 159.9844,257.0469 C159.7656,257.0469 159.5625,257.125 159.375,257.3125 C158.9219,257.7969 158.9219,257.7969 158.7344,257.8906 C158.3125,258.1563 157.625,258.2813 156.8594,258.2813 C154.8125,258.2813 153.5156,257.1875 153.5156,255.4844 L153.5156,254.3906 C153.5156,252.6094 154.7656,251.2969 156.5,251.2969 C157.0781,251.2969 157.6875,251.4531 158.1563,251.7031 C158.6406,251.9844 158.8125,252.2031 158.9063,252.6094 C158.9688,253.0156 159,253.1406 159.1406,253.2656 C159.2813,253.4063 159.5156,253.5156 159.7344,253.5156 C160,253.5156 160.2656,253.375 160.4375,253.1563 C160.5469,253 160.5781,252.8125 160.5781,252.3906 L160.5781,250.9688 C160.5781,250.5313 160.5625,250.4063 160.4688,250.25 C160.3125,249.9844 160.0313,249.8438 159.7344,249.8438 C159.4375,249.8438 159.2344,249.9375 159.0156,250.25 L158.8438,250.1719 Z " fill="#000000"/><text fill="#000000" font-family="sans-serif" font-size="14" lengthAdjust="spacing" textLength="93" x="170.5" y="259.3467">UserPrincipal</text><line style="stroke:#181818;stroke-width:0.5;" x1="142.5" x2="265.5" y1="270.5" y2="270.5"/><line style="stroke:#181818;stroke-width:0.5;" x1="142.5" x2="265.5" y1="278.5" y2="278.5"/></g><!--MD5=[3fd616f346a44cd59a91eb10b19e157c]
class User--><g id="elem_User"><rect codeLine="55" fill="#E4F7E6" height="96.8906" id="User" rx="2.5" ry="2.5" style="stroke:#181818;stroke-width:0.5;" width="150" x="115" y="411"/><ellipse cx="170.25" cy="427" fill="#ADD1B2" rx="11" ry="11" style="stroke:#181818;stroke-width:1.0;"/><path d="M169.0469,427.875 L170.5,427.875 L170.5,427.9844 C170.5,428.3906 170.5313,428.5469 170.6094,428.7031 C170.7656,428.9531 171.0469,429.1094 171.3438,429.1094 C171.5938,429.1094 171.8594,428.9688 172.0156,428.75 C172.1406,428.5938 172.1719,428.4375 172.1719,427.9844 L172.1719,426.0625 C172.1719,425.9063 172.1719,425.8594 172.1563,425.7031 C172.0938,425.2344 171.7813,424.9219 171.3281,424.9219 C171.0781,424.9219 170.8125,425.0625 170.6406,425.2813 C170.5313,425.4531 170.5,425.6094 170.5,426.0625 L170.5,426.1875 L169.0469,426.1875 L169.0469,423.7813 L173.0313,423.7813 L173.0313,424.6406 C173.0313,425.0469 173.0625,425.2188 173.1406,425.375 C173.3125,425.625 173.5938,425.7813 173.875,425.7813 C174.1406,425.7813 174.4063,425.6406 174.5781,425.4219 C174.6875,425.25 174.7188,425.1094 174.7188,424.6406 L174.7188,422.0938 L167.0938,422.0938 C166.6563,422.0938 166.5313,422.1094 166.375,422.2031 C166.125,422.3594 165.9688,422.6563 165.9688,422.9375 C165.9688,423.2188 166.1094,423.4688 166.3281,423.6406 C166.4844,423.75 166.6719,423.7813 167.0938,423.7813 L167.3438,423.7813 L167.3438,430.2969 L167.0938,430.2969 C166.6875,430.2969 166.5313,430.3125 166.375,430.4219 C166.125,430.5938 165.9688,430.8594 165.9688,431.1563 C165.9688,431.4219 166.1094,431.6719 166.3281,431.8281 C166.4688,431.9531 166.7031,432 167.0938,432 L175.0938,432 L175.0938,429.4219 C175.0938,428.9844 175.0625,428.8438 174.9844,428.6875 C174.8125,428.4375 174.5313,428.2813 174.25,428.2813 C173.9844,428.2813 173.7188,428.3906 173.5469,428.6406 C173.4375,428.7969 173.4063,428.9375 173.4063,429.4219 L173.4063,430.2969 L169.0469,430.2969 L169.0469,427.875 Z " fill="#000000"/><text fill="#000000" font-family="sans-serif" font-size="14" lengthAdjust="spacing" textLength="31" x="190.75" y="431.8467">User</text><line style="stroke:#181818;stroke-width:0.5;" x1="116" x2="264" y1="443" y2="443"/><ellipse cx="126" cy="454" fill="none" rx="3" ry="3" style="stroke:#038048;stroke-width:1.0;"/><text fill="#000000" font-family="sans-serif" font-size="14" lengthAdjust="spacing" textLength="61" x="135" y="459.9951">id : Long</text><ellipse cx="126" cy="470.2969" fill="none" rx="3" ry="3" style="stroke:#038048;stroke-width:1.0;"/><text fill="#000000" font-family="sans-serif" font-size="14" lengthAdjust="spacing" textLength="96" x="135" y="476.292">email : String</text><ellipse cx="126" cy="486.5938" fill="none" rx="3" ry="3" style="stroke:#038048;stroke-width:1.0;"/><text fill="#000000" font-family="sans-serif" font-size="14" lengthAdjust="spacing" textLength="124" x="135" y="492.5889">password : String</text><line style="stroke:#181818;stroke-width:0.5;" x1="116" x2="264" y1="499.8906" y2="499.8906"/></g><!--MD5=[9f070bf9f108c27faa2eb76515c78fb3]
class Wallet--><g id="elem_Wallet"><rect codeLine="61" fill="#E4F7E6" height="96.8906" id="Wallet" rx="2.5" ry="2.5" style="stroke:#181818;stroke-width:0.5;" width="172" x="22" y="579"/><ellipse cx="80.75" cy="595" fill="#ADD1B2" rx="11" ry="11" style="stroke:#181818;stroke-width:1.0;"/><path d="M79.5469,595.875 L81,595.875 L81,595.9844 C81,596.3906 81.0313,596.5469 81.1094,596.7031 C81.2656,596.9531 81.5469,597.1094 81.8438,597.1094 C82.0938,597.1094 82.3594,596.9688 82.5156,596.75 C82.6406,596.5938 82.6719,596.4375 82.6719,595.9844 L82.6719,594.0625 C82.6719,593.9063 82.6719,593.8594 82.6563,593.7031 C82.5938,593.2344 82.2813,592.9219 81.8281,592.9219 C81.5781,592.9219 81.3125,593.0625 81.1406,593.2813 C81.0313,593.4531 81,593.6094 81,594.0625 L81,594.1875 L79.5469,594.1875 L79.5469,591.7813 L83.5313,591.7813 L83.5313,592.6406 C83.5313,593.0469 83.5625,593.2188 83.6406,593.375 C83.8125,593.625 84.0938,593.7813 84.375,593.7813 C84.6406,593.7813 84.9063,593.6406 85.0781,593.4219 C85.1875,593.25 85.2188,593.1094 85.2188,592.6406 L85.2188,590.0938 L77.5938,590.0938 C77.1563,590.0938 77.0313,590.1094 76.875,590.2031 C76.625,590.3594 76.4688,590.6563 76.4688,590.9375 C76.4688,591.2188 76.6094,591.4688 76.8281,591.6406 C76.9844,591.75 77.1719,591.7813 77.5938,591.7813 L77.8438,591.7813 L77.8438,598.2969 L77.5938,598.2969 C77.1875,598.2969 77.0313,598.3125 76.875,598.4219 C76.625,598.5938 76.4688,598.8594 76.4688,599.1563 C76.4688,599.4219 76.6094,599.6719 76.8281,599.8281 C76.9688,599.9531 77.2031,600 77.5938,600 L85.5938,600 L85.5938,597.4219 C85.5938,596.9844 85.5625,596.8438 85.4844,596.6875 C85.3125,596.4375 85.0313,596.2813 84.75,596.2813 C84.4844,596.2813 84.2188,596.3906 84.0469,596.6406 C83.9375,596.7969 83.9063,596.9375 83.9063,597.4219 L83.9063,598.2969 L79.5469,598.2969 L79.5469,595.875 Z " fill="#000000"/><text fill="#000000" font-family="sans-serif" font-size="14" lengthAdjust="spacing" textLength="46" x="101.25" y="599.8467">Wallet</text><line style="stroke:#181818;stroke-width:0.5;" x1="23" x2="193" y1="611" y2="611"/><ellipse cx="33" cy="622" fill="none" rx="3" ry="3" style="stroke:#038048;stroke-width:1.0;"/><text fill="#000000" font-family="sans-serif" font-size="14" lengthAdjust="spacing" textLength="61" x="42" y="627.9951">id : Long</text><ellipse cx="33" cy="638.2969" fill="none" rx="3" ry="3" style="stroke:#038048;stroke-width:1.0;"/><text fill="#000000" font-family="sans-serif" font-size="14" lengthAdjust="spacing" textLength="146" x="42" y="644.292">profileName : String</text><ellipse cx="33" cy="654.5938" fill="none" rx="3" ry="3" style="stroke:#038048;stroke-width:1.0;"/><text fill="#000000" font-family="sans-serif" font-size="14" lengthAdjust="spacing" textLength="144" x="42" y="660.5889">balanceInCents : int</text><line style="stroke:#181818;stroke-width:0.5;" x1="23" x2="193" y1="667.8906" y2="667.8906"/></g><!--MD5=[02f52dd76b6d93c484e98adf8cb1a92d]
class Transfer--><g id="elem_Transfer"><rect codeLine="67" fill="#E4F7E6" height="80.5938" id="Transfer" rx="2.5" ry="2.5" style="stroke:#181818;stroke-width:0.5;" width="114" x="136" y="789"/><ellipse cx="160.9" cy="805" fill="#ADD1B2" rx="11" ry="11" style="stroke:#181818;stroke-width:1.0;"/><path d="M159.6969,805.875 L161.15,805.875 L161.15,805.9844 C161.15,806.3906 161.1813,806.5469 161.2594,806.7031 C161.4156,806.9531 161.6969,807.1094 161.9938,807.1094 C162.2438,807.1094 162.5094,806.9688 162.6656,806.75 C162.7906,806.5938 162.8219,806.4375 162.8219,805.9844 L162.8219,804.0625 C162.8219,803.9063 162.8219,803.8594 162.8063,803.7031 C162.7438,803.2344 162.4313,802.9219 161.9781,802.9219 C161.7281,802.9219 161.4625,803.0625 161.2906,803.2813 C161.1813,803.4531 161.15,803.6094 161.15,804.0625 L161.15,804.1875 L159.6969,804.1875 L159.6969,801.7813 L163.6813,801.7813 L163.6813,802.6406 C163.6813,803.0469 163.7125,803.2188 163.7906,803.375 C163.9625,803.625 164.2438,803.7813 164.525,803.7813 C164.7906,803.7813 165.0563,803.6406 165.2281,803.4219 C165.3375,803.25 165.3688,803.1094 165.3688,802.6406 L165.3688,800.0938 L157.7438,800.0938 C157.3063,800.0938 157.1813,800.1094 157.025,800.2031 C156.775,800.3594 156.6188,800.6563 156.6188,800.9375 C156.6188,801.2188 156.7594,801.4688 156.9781,801.6406 C157.1344,801.75 157.3219,801.7813 157.7438,801.7813 L157.9938,801.7813 L157.9938,808.2969 L157.7438,808.2969 C157.3375,808.2969 157.1813,808.3125 157.025,808.4219 C156.775,808.5938 156.6188,808.8594 156.6188,809.1563 C156.6188,809.4219 156.7594,809.6719 156.9781,809.8281 C157.1188,809.9531 157.3531,810 157.7438,810 L165.7438,810 L165.7438,807.4219 C165.7438,806.9844 165.7125,806.8438 165.6344,806.6875 C165.4625,806.4375 165.1813,806.2813 164.9,806.2813 C164.6344,806.2813 164.3688,806.3906 164.1969,806.6406 C164.0875,806.7969 164.0563,806.9375 164.0563,807.4219 L164.0563,808.2969 L159.6969,808.2969 L159.6969,805.875 Z " fill="#000000"/><text fill="#000000" font-family="sans-serif" font-size="14" lengthAdjust="spacing" textLength="60" x="177.1" y="809.8467">Transfer</text><line style="stroke:#181818;stroke-width:0.5;" x1="137" x2="249" y1="821" y2="821"/><ellipse cx="147" cy="832" fill="none" rx="3" ry="3" style="stroke:#038048;stroke-width:1.0;"/><text fill="#000000" font-family="sans-serif" font-size="14" lengthAdjust="spacing" textLength="61" x="156" y="837.9951">id : Long</text><ellipse cx="147" cy="848.2969" fill="none" rx="3" ry="3" style="stroke:#038048;stroke-width:1.0;"/><text fill="#000000" font-family="sans-serif" font-size="14" lengthAdjust="spacing" textLength="88" x="156" y="854.292">amount : int</text><line style="stroke:#181818;stroke-width:0.5;" x1="137" x2="249" y1="861.5938" y2="861.5938"/></g><!--MD5=[093c210125347143eef5bb9199eae634]
class UserRepository--><g id="elem_UserRepository"><rect codeLine="74" fill="#F1F1F1" height="64.2969" id="UserRepository" rx="2.5" ry="2.5" style="stroke:#181818;stroke-width:0.5;" width="140" x="370" y="427.5"/><ellipse cx="385" cy="443.5" fill="#B4A7E5" rx="11" ry="11" style="stroke:#181818;stroke-width:1.0;"/><path d="M385.9531,440.2813 L387.6719,440.2813 C388.0625,440.2813 388.25,440.25 388.375,440.1719 C388.6406,440.0156 388.7813,439.7344 388.7813,439.4375 C388.7813,439.1719 388.6719,438.9063 388.4375,438.7344 C388.2656,438.625 388.125,438.5938 387.6719,438.5938 L382.5313,438.5938 C382.0938,438.5938 381.9688,438.6094 381.8125,438.7031 C381.5625,438.8594 381.4063,439.1563 381.4063,439.4375 C381.4063,439.7188 381.5469,439.9688 381.7656,440.1406 C381.9219,440.25 382.1094,440.2813 382.5313,440.2813 L384.25,440.2813 L384.25,446.7969 L382.5313,446.7969 C382.0938,446.7969 381.9688,446.8125 381.8125,446.9219 C381.5625,447.0781 381.4063,447.3594 381.4063,447.6563 C381.4063,447.9063 381.5469,448.1719 381.7656,448.3281 C381.9219,448.4531 382.125,448.5 382.5313,448.5 L387.6719,448.5 C388.4219,448.5 388.7813,448.2188 388.7813,447.6563 C388.7813,447.375 388.6719,447.125 388.4375,446.9531 C388.2656,446.8281 388.125,446.7969 387.6719,446.7969 L385.9531,446.7969 L385.9531,440.2813 Z " fill="#000000"/><text fill="#000000" font-family="sans-serif" font-size="14" font-style="italic" lengthAdjust="spacing" textLength="108" x="399" y="448.3467">UserRepository</text><line style="stroke:#181818;stroke-width:0.5;" x1="371" x2="509" y1="459.5" y2="459.5"/><line style="stroke:#181818;stroke-width:0.5;" x1="371" x2="509" y1="467.5" y2="467.5"/><ellipse cx="381" cy="478.5" fill="#84BE84" rx="3" ry="3" style="stroke:#038048;stroke-width:1.0;"/><text fill="#000000" font-family="sans-serif" font-size="14" lengthAdjust="spacing" textLength="95" x="390" y="484.4951">findByEmail()</text></g><!--MD5=[f11d4d4ca99735300641110a0d70624f]
class TransferRepository--><g id="elem_TransferRepository"><rect codeLine="77" fill="#F1F1F1" height="80.5938" id="TransferRepository" rx="2.5" ry="2.5" style="stroke:#181818;stroke-width:0.5;" width="168" x="545" y="419"/><ellipse cx="560" cy="435" fill="#B4A7E5" rx="11" ry="11" style="stroke:#181818;stroke-width:1.0;"/><path d="M560.9531,431.7813 L562.6719,431.7813 C563.0625,431.7813 563.25,431.75 563.375,431.6719 C563.6406,431.5156 563.7813,431.2344 563.7813,430.9375 C563.7813,430.6719 563.6719,430.4063 563.4375,430.2344 C563.2656,430.125 563.125,430.0938 562.6719,430.0938 L557.5313,430.0938 C557.0938,430.0938 556.9688,430.1094 556.8125,430.2031 C556.5625,430.3594 556.4063,430.6563 556.4063,430.9375 C556.4063,431.2188 556.5469,431.4688 556.7656,431.6406 C556.9219,431.75 557.1094,431.7813 557.5313,431.7813 L559.25,431.7813 L559.25,438.2969 L557.5313,438.2969 C557.0938,438.2969 556.9688,438.3125 556.8125,438.4219 C556.5625,438.5781 556.4063,438.8594 556.4063,439.1563 C556.4063,439.4063 556.5469,439.6719 556.7656,439.8281 C556.9219,439.9531 557.125,440 557.5313,440 L562.6719,440 C563.4219,440 563.7813,439.7188 563.7813,439.1563 C563.7813,438.875 563.6719,438.625 563.4375,438.4531 C563.2656,438.3281 563.125,438.2969 562.6719,438.2969 L560.9531,438.2969 L560.9531,431.7813 Z " fill="#000000"/><text fill="#000000" font-family="sans-serif" font-size="14" font-style="italic" lengthAdjust="spacing" textLength="136" x="574" y="439.8467">TransferRepository</text><line style="stroke:#181818;stroke-width:0.5;" x1="546" x2="712" y1="451" y2="451"/><line style="stroke:#181818;stroke-width:0.5;" x1="546" x2="712" y1="459" y2="459"/><ellipse cx="556" cy="470" fill="#84BE84" rx="3" ry="3" style="stroke:#038048;stroke-width:1.0;"/><text fill="#000000" font-family="sans-serif" font-size="14" lengthAdjust="spacing" textLength="107" x="565" y="475.9951">findBySender()</text><ellipse cx="556" cy="486.2969" fill="#84BE84" rx="3" ry="3" style="stroke:#038048;stroke-width:1.0;"/><text fill="#000000" font-family="sans-serif" font-size="14" lengthAdjust="spacing" textLength="119" x="565" y="492.292">findByReceiver()</text></g><!--MD5=[fc70648a5dfee0e9da908f8ada3105fd]
class WalletRepository--><g id="elem_WalletRepository"><rect codeLine="81" fill="#F1F1F1" height="48" id="WalletRepository" rx="2.5" ry="2.5" style="stroke:#181818;stroke-width:0.5;" width="153" x="748.5" y="435.5"/><ellipse cx="763.5" cy="451.5" fill="#B4A7E5" rx="11" ry="11" style="stroke:#181818;stroke-width:1.0;"/><path d="M764.4531,448.2813 L766.1719,448.2813 C766.5625,448.2813 766.75,448.25 766.875,448.1719 C767.1406,448.0156 767.2813,447.7344 767.2813,447.4375 C767.2813,447.1719 767.1719,446.9063 766.9375,446.7344 C766.7656,446.625 766.625,446.5938 766.1719,446.5938 L761.0313,446.5938 C760.5938,446.5938 760.4688,446.6094 760.3125,446.7031 C760.0625,446.8594 759.9063,447.1563 759.9063,447.4375 C759.9063,447.7188 760.0469,447.9688 760.2656,448.1406 C760.4219,448.25 760.6094,448.2813 761.0313,448.2813 L762.75,448.2813 L762.75,454.7969 L761.0313,454.7969 C760.5938,454.7969 760.4688,454.8125 760.3125,454.9219 C760.0625,455.0781 759.9063,455.3594 759.9063,455.6563 C759.9063,455.9063 760.0469,456.1719 760.2656,456.3281 C760.4219,456.4531 760.625,456.5 761.0313,456.5 L766.1719,456.5 C766.9219,456.5 767.2813,456.2188 767.2813,455.6563 C767.2813,455.375 767.1719,455.125 766.9375,454.9531 C766.7656,454.8281 766.625,454.7969 766.1719,454.7969 L764.4531,454.7969 L764.4531,448.2813 Z " fill="#000000"/><text fill="#000000" font-family="sans-serif" font-size="14" font-style="italic" lengthAdjust="spacing" textLength="121" x="777.5" y="456.3467">WalletRepository</text><line style="stroke:#181818;stroke-width:0.5;" x1="749.5" x2="900.5" y1="467.5" y2="467.5"/><line style="stroke:#181818;stroke-width:0.5;" x1="749.5" x2="900.5" y1="475.5" y2="475.5"/></g><!--MD5=[46be0f02d3ccb60e27af689741ef5b84]
class UserDetails--><g id="elem_UserDetails"><rect codeLine="1" fill="#F1F1F1" height="80.5938" id="UserDetails" rx="2.5" ry="2.5" style="stroke:#181818;stroke-width:0.5;" width="133" x="141.5" y="41"/><ellipse cx="165.5" cy="57" fill="#B4A7E5" rx="11" ry="11" style="stroke:#181818;stroke-width:1.0;"/><path d="M166.4531,53.7813 L168.1719,53.7813 C168.5625,53.7813 168.75,53.75 168.875,53.6719 C169.1406,53.5156 169.2813,53.2344 169.2813,52.9375 C169.2813,52.6719 169.1719,52.4063 168.9375,52.2344 C168.7656,52.125 168.625,52.0938 168.1719,52.0938 L163.0313,52.0938 C162.5938,52.0938 162.4688,52.1094 162.3125,52.2031 C162.0625,52.3594 161.9063,52.6563 161.9063,52.9375 C161.9063,53.2188 162.0469,53.4688 162.2656,53.6406 C162.4219,53.75 162.6094,53.7813 163.0313,53.7813 L164.75,53.7813 L164.75,60.2969 L163.0313,60.2969 C162.5938,60.2969 162.4688,60.3125 162.3125,60.4219 C162.0625,60.5781 161.9063,60.8594 161.9063,61.1563 C161.9063,61.4063 162.0469,61.6719 162.2656,61.8281 C162.4219,61.9531 162.625,62 163.0313,62 L168.1719,62 C168.9219,62 169.2813,61.7188 169.2813,61.1563 C169.2813,60.875 169.1719,60.625 168.9375,60.4531 C168.7656,60.3281 168.625,60.2969 168.1719,60.2969 L166.4531,60.2969 L166.4531,53.7813 Z " fill="#000000"/><text fill="#000000" font-family="sans-serif" font-size="14" font-style="italic" lengthAdjust="spacing" textLength="81" x="181.5" y="61.8467">UserDetails</text><line style="stroke:#181818;stroke-width:0.5;" x1="142.5" x2="273.5" y1="73" y2="73"/><line style="stroke:#181818;stroke-width:0.5;" x1="142.5" x2="273.5" y1="81" y2="81"/><ellipse cx="152.5" cy="92" fill="#84BE84" rx="3" ry="3" style="stroke:#038048;stroke-width:1.0;"/><text fill="#000000" font-family="sans-serif" font-size="14" lengthAdjust="spacing" textLength="101" x="161.5" y="97.9951">getPassword()</text><ellipse cx="152.5" cy="108.2969" fill="#84BE84" rx="3" ry="3" style="stroke:#038048;stroke-width:1.0;"/><text fill="#000000" font-family="sans-serif" font-size="14" lengthAdjust="spacing" textLength="107" x="161.5" y="114.292">getUserName()</text></g><!--MD5=[d56ded55cff2e72b4920954b80e938e0]
class UserDetailService--><g id="elem_UserDetailService"><rect codeLine="5" fill="#F1F1F1" height="64.2969" id="UserDetailService" rx="2.5" ry="2.5" style="stroke:#181818;stroke-width:0.5;" width="186" x="311" y="49.5"/><ellipse cx="338.15" cy="65.5" fill="#B4A7E5" rx="11" ry="11" style="stroke:#181818;stroke-width:1.0;"/><path d="M339.1031,62.2813 L340.8219,62.2813 C341.2125,62.2813 341.4,62.25 341.525,62.1719 C341.7906,62.0156 341.9313,61.7344 341.9313,61.4375 C341.9313,61.1719 341.8219,60.9063 341.5875,60.7344 C341.4156,60.625 341.275,60.5938 340.8219,60.5938 L335.6813,60.5938 C335.2438,60.5938 335.1188,60.6094 334.9625,60.7031 C334.7125,60.8594 334.5563,61.1563 334.5563,61.4375 C334.5563,61.7188 334.6969,61.9688 334.9156,62.1406 C335.0719,62.25 335.2594,62.2813 335.6813,62.2813 L337.4,62.2813 L337.4,68.7969 L335.6813,68.7969 C335.2438,68.7969 335.1188,68.8125 334.9625,68.9219 C334.7125,69.0781 334.5563,69.3594 334.5563,69.6563 C334.5563,69.9063 334.6969,70.1719 334.9156,70.3281 C335.0719,70.4531 335.275,70.5 335.6813,70.5 L340.8219,70.5 C341.5719,70.5 341.9313,70.2188 341.9313,69.6563 C341.9313,69.375 341.8219,69.125 341.5875,68.9531 C341.4156,68.8281 341.275,68.7969 340.8219,68.7969 L339.1031,68.7969 L339.1031,62.2813 Z " fill="#000000"/><text fill="#000000" font-family="sans-serif" font-size="14" font-style="italic" lengthAdjust="spacing" textLength="127" x="354.85" y="70.3467">UserDetailService</text><line style="stroke:#181818;stroke-width:0.5;" x1="312" x2="496" y1="81.5" y2="81.5"/><line style="stroke:#181818;stroke-width:0.5;" x1="312" x2="496" y1="89.5" y2="89.5"/><ellipse cx="322" cy="100.5" fill="#84BE84" rx="3" ry="3" style="stroke:#038048;stroke-width:1.0;"/><text fill="#000000" font-family="sans-serif" font-size="14" lengthAdjust="spacing" textLength="160" x="331" y="106.4951">loadUserByUsername()</text></g><!--MD5=[a22c849ed96258a4b20be860721aede8]
class WebMvcConfigurer--><g id="elem_WebMvcConfigurer"><rect codeLine="8" fill="#F1F1F1" height="64.2969" id="WebMvcConfigurer" rx="2.5" ry="2.5" style="stroke:#181818;stroke-width:0.5;" width="224" x="840" y="595.5"/><ellipse cx="880.2" cy="611.5" fill="#B4A7E5" rx="11" ry="11" style="stroke:#181818;stroke-width:1.0;"/><path d="M881.1531,608.2813 L882.8719,608.2813 C883.2625,608.2813 883.45,608.25 883.575,608.1719 C883.8406,608.0156 883.9813,607.7344 883.9813,607.4375 C883.9813,607.1719 883.8719,606.9063 883.6375,606.7344 C883.4656,606.625 883.325,606.5938 882.8719,606.5938 L877.7313,606.5938 C877.2938,606.5938 877.1688,606.6094 877.0125,606.7031 C876.7625,606.8594 876.6063,607.1563 876.6063,607.4375 C876.6063,607.7188 876.7469,607.9688 876.9656,608.1406 C877.1219,608.25 877.3094,608.2813 877.7313,608.2813 L879.45,608.2813 L879.45,614.7969 L877.7313,614.7969 C877.2938,614.7969 877.1688,614.8125 877.0125,614.9219 C876.7625,615.0781 876.6063,615.3594 876.6063,615.6563 C876.6063,615.9063 876.7469,616.1719 876.9656,616.3281 C877.1219,616.4531 877.325,616.5 877.7313,616.5 L882.8719,616.5 C883.6219,616.5 883.9813,616.2188 883.9813,615.6563 C883.9813,615.375 883.8719,615.125 883.6375,614.9531 C883.4656,614.8281 883.325,614.7969 882.8719,614.7969 L881.1531,614.7969 L881.1531,608.2813 Z " fill="#000000"/><text fill="#000000" font-family="sans-serif" font-size="14" font-style="italic" lengthAdjust="spacing" textLength="136" x="899.8" y="616.3467">WebMvcConfigurer</text><line style="stroke:#181818;stroke-width:0.5;" x1="841" x2="1063" y1="627.5" y2="627.5"/><line style="stroke:#181818;stroke-width:0.5;" x1="841" x2="1063" y1="635.5" y2="635.5"/><ellipse cx="851" cy="646.5" fill="#84BE84" rx="3" ry="3" style="stroke:#038048;stroke-width:1.0;"/><text fill="#000000" font-family="sans-serif" font-size="14" lengthAdjust="spacing" textLength="198" x="860" y="652.4951">public addViewControllers()</text></g><!--MD5=[5d9d7f361cf9aacac4ee237afb90f58a]
class JpaRepository--><g id="elem_JpaRepository"><rect codeLine="11" fill="#F1F1F1" height="64.2969" id="JpaRepository" rx="2.5" ry="2.5" style="stroke:#181818;stroke-width:0.5;" width="134" x="562" y="595.5"/><ellipse cx="578.8" cy="611.5" fill="#B4A7E5" rx="11" ry="11" style="stroke:#181818;stroke-width:1.0;"/><path d="M579.7531,608.2813 L581.4719,608.2813 C581.8625,608.2813 582.05,608.25 582.175,608.1719 C582.4406,608.0156 582.5813,607.7344 582.5813,607.4375 C582.5813,607.1719 582.4719,606.9063 582.2375,606.7344 C582.0656,606.625 581.925,606.5938 581.4719,606.5938 L576.3313,606.5938 C575.8938,606.5938 575.7688,606.6094 575.6125,606.7031 C575.3625,606.8594 575.2063,607.1563 575.2063,607.4375 C575.2063,607.7188 575.3469,607.9688 575.5656,608.1406 C575.7219,608.25 575.9094,608.2813 576.3313,608.2813 L578.05,608.2813 L578.05,614.7969 L576.3313,614.7969 C575.8938,614.7969 575.7688,614.8125 575.6125,614.9219 C575.3625,615.0781 575.2063,615.3594 575.2063,615.6563 C575.2063,615.9063 575.3469,616.1719 575.5656,616.3281 C575.7219,616.4531 575.925,616.5 576.3313,616.5 L581.4719,616.5 C582.2219,616.5 582.5813,616.2188 582.5813,615.6563 C582.5813,615.375 582.4719,615.125 582.2375,614.9531 C582.0656,614.8281 581.925,614.7969 581.4719,614.7969 L579.7531,614.7969 L579.7531,608.2813 Z " fill="#000000"/><text fill="#000000" font-family="sans-serif" font-size="14" font-style="italic" lengthAdjust="spacing" textLength="98" x="593.2" y="616.3467">JpaRepository</text><line style="stroke:#181818;stroke-width:0.5;" x1="563" x2="695" y1="627.5" y2="627.5"/><line style="stroke:#181818;stroke-width:0.5;" x1="563" x2="695" y1="635.5" y2="635.5"/><ellipse cx="573" cy="646.5" fill="#84BE84" rx="3" ry="3" style="stroke:#038048;stroke-width:1.0;"/><text fill="#000000" font-family="sans-serif" font-size="14" lengthAdjust="spacing" textLength="108" x="582" y="652.4951">CRUD methods</text></g><!--MD5=[b4b656aa6a2eed74038f2efd880f9bc1]
class space--><!--MD5=[54c79813a866b8206d079d73afa8a1f3]
reverse link WebMvcConfigurer to WebMvcConfiguration--><g id="link_WebMvcConfigurer_WebMvcConfiguration"><path d="M952,679.97 C952,720.389 952,774.771 952,805.2641 " fill="none" id="WebMvcConfigurer-backto-WebMvcConfiguration" style="stroke:#181818;stroke-width:1.0;stroke-dasharray:7.0,7.0;"/><polygon fill="none" points="945,679.75,952,659.75,959,679.75,945,679.75" style="stroke:#181818;stroke-width:1.0;"/></g><!--MD5=[40500d079abad8955bebcc5e7556d08e]
reverse link UserDetailService to UserService--><g id="link_UserDetailService_UserService"><path d="M408.291,133.702 C411.18,168.186 414.853,212.018 417.061,238.357 " fill="none" id="UserDetailService-backto-UserService" style="stroke:#181818;stroke-width:1.0;stroke-dasharray:7.0,7.0;"/><polygon fill="none" points="401.307,134.194,406.613,113.679,415.259,133.025,401.307,134.194" style="stroke:#181818;stroke-width:1.0;"/></g><!--MD5=[fba60fc5472b7ff96612f119de625d14]
reverse link UserDetails to UserPrincipal--><g id="link_UserDetails_UserPrincipal"><path d="M206.665,142.248 C205.93,175.149 205.059,214.101 204.518,238.311 " fill="none" id="UserDetails-backto-UserPrincipal" style="stroke:#181818;stroke-width:1.0;stroke-dasharray:7.0,7.0;"/><polygon fill="none" points="199.667,142.064,207.112,122.226,213.664,142.377,199.667,142.064" style="stroke:#181818;stroke-width:1.0;"/></g><!--MD5=[c2c0fbd2207e409a3917dc34662f2928]
link TransferViewController to WalletService--><g id="link_TransferViewController_WalletService"><path codeLine="85" d="M704.7375,130.7354 C704.7375,130.7354 726.947,152.749 737,163 C747.444,173.649 758.421,185.068 769.026,196.22 " fill="none" id="TransferViewController-WalletService" style="stroke:#181818;stroke-width:1.0;"/><polygon fill="#181818" points="778.227,205.927,774.9392,196.6431,774.7875,202.298,769.1327,202.1463,778.227,205.927" style="stroke:#181818;stroke-width:1.0;"/><line style="stroke:#181818;stroke-width:1.0;" x1="774.7875" x2="769.2835" y1="202.298" y2="196.492"/><polygon fill="#181818" points="696.178,122.325,697.6542,129.3834,704.7375,130.7354,703.2612,123.6771,696.178,122.325" style="stroke:#181818;stroke-width:1.0;"/></g><!--MD5=[dcc81ba93d61e664aa49cdda16a92e04]
link AddContactViewController to WalletService--><g id="link_AddContactViewController_WalletService"><path codeLine="86" d="M896.096,132.8986 C896.096,132.8986 874.885,174.17 864.645,194.093 " fill="none" id="AddContactViewController-WalletService" style="stroke:#181818;stroke-width:1.0;"/><polygon fill="#181818" points="858.56,205.932,866.232,199.7562,860.8458,201.4851,859.1169,196.0989,858.56,205.932" style="stroke:#181818;stroke-width:1.0;"/><line style="stroke:#181818;stroke-width:1.0;" x1="860.8458" x2="864.5025" y1="201.4851" y2="194.37"/><polygon fill="#181818" points="901.582,122.226,895.2815,125.7336,896.096,132.8986,902.3965,129.391,901.582,122.226" style="stroke:#181818;stroke-width:1.0;"/></g><!--MD5=[9d133f4be1aa855a0f7e9812cd84d12c]
link TransferService to WalletService--><g id="link_TransferService_WalletService"><path codeLine="88" d="M731.785,262.5 C731.785,262.5 738.284,262.5 740.942,262.5 " fill="none" id="TransferService-WalletService" style="stroke:#181818;stroke-width:1.0;"/><polygon fill="#181818" points="754.227,262.5,745.227,258.5,749.227,262.5,745.227,266.5,754.227,262.5" style="stroke:#181818;stroke-width:1.0;"/><line style="stroke:#181818;stroke-width:1.0;" x1="749.227" x2="741.227" y1="262.5" y2="262.5"/><polygon fill="#181818" points="719.785,262.5,725.785,266.5,731.785,262.5,725.785,258.5,719.785,262.5" style="stroke:#181818;stroke-width:1.0;"/></g><!--MD5=[7920165c3d2c7c57eda68972ca54daec]
reverse link UserPrincipal to UserService--><g id="link_UserPrincipal_UserService"><path codeLine="89" d="M272.08,262.5 C297.237,262.5 325.736,262.5 350.895,262.5 " fill="none" id="UserPrincipal-backto-UserService" style="stroke:#181818;stroke-width:1.0;stroke-dasharray:7.0,7.0;"/><polygon fill="#181818" points="266.765,262.5,275.765,266.5,271.765,262.5,275.765,258.5,266.765,262.5" style="stroke:#181818;stroke-width:1.0;"/><text fill="#000000" font-family="sans-serif" font-size="13" lengthAdjust="spacing" textLength="48" x="284.75" y="255.5669">creates</text></g><!--MD5=[716d7c6e97d70bef18dbe3eea74a0dde]
link UserPrincipal to User--><g id="link_UserPrincipal_User"><path codeLine="90" d="M201.4805,298.6042 C201.4805,298.6042 196.675,365.532 194.375,397.557 " fill="none" id="UserPrincipal-User" style="stroke:#181818;stroke-width:1.0;"/><polygon fill="#181818" points="193.421,410.856,198.0546,402.1652,193.7787,405.8688,190.0751,401.5929,193.421,410.856" style="stroke:#181818;stroke-width:1.0;"/><line style="stroke:#181818;stroke-width:1.0;" x1="193.7787" x2="194.3515" y1="405.8688" y2="397.8895"/><polygon fill="#181818" points="202.339,286.635,197.92,292.3334,201.4805,298.6042,205.8995,292.9058,202.339,286.635" style="stroke:#181818;stroke-width:1.0;"/><text fill="#000000" font-family="sans-serif" font-size="13" lengthAdjust="spacing" textLength="4" x="197.4466" y="306.4291"></text><text fill="#000000" font-family="sans-serif" font-size="13" lengthAdjust="spacing" textLength="8" x="176.7771" y="400.0447">1</text></g><!--MD5=[c6100b592e29ab2a9436cfea8d37588a]
link User to Wallet--><g id="link_User_Wallet"><path codeLine="91" d="M161.1867,518.8276 C161.1867,518.8276 144.985,551.627 137.422,566.938 " fill="none" id="User-Wallet" style="stroke:#181818;stroke-width:1.0;"/><polygon fill="#181818" points="131.501,578.924,139.074,572.6272,133.7159,574.4414,131.9018,569.0833,131.501,578.924" style="stroke:#181818;stroke-width:1.0;"/><line style="stroke:#181818;stroke-width:1.0;" x1="133.7159" x2="137.259" y1="574.4414" y2="567.2685"/><polygon fill="#181818" points="166.502,508.069,160.2581,511.6765,161.1867,518.8276,167.4305,515.2201,166.502,508.069" style="stroke:#181818;stroke-width:1.0;"/><text fill="#000000" font-family="sans-serif" font-size="13" lengthAdjust="spacing" textLength="8" x="141.7913" y="528.0376">1</text><text fill="#000000" font-family="sans-serif" font-size="13" lengthAdjust="spacing" textLength="8" x="122.0715" y="567.7725">1</text></g><!--MD5=[75f4e9f67daccebfc332227ffe701565]
link Wallet to Transfer--><g id="link_Wallet_Transfer"><path codeLine="92" d="M133.398,688.259 C145.398,716.496 171.4956,777.9043 171.4956,777.9043 " fill="none" id="Wallet-Transfer" style="stroke:#181818;stroke-width:1.0;"/><polygon fill="#181818" points="176.19,788.948,177.524,781.8614,171.4956,777.9043,170.1616,784.991,176.19,788.948" style="stroke:#181818;stroke-width:1.0;"/><polygon fill="#181818" points="128.252,676.151,128.0916,685.9986,130.208,680.7525,135.454,682.869,128.252,676.151" style="stroke:#181818;stroke-width:1.0;"/><line style="stroke:#181818;stroke-width:1.0;" x1="130.208" x2="133.3365" y1="680.7525" y2="688.115"/><text fill="#000000" font-family="sans-serif" font-size="13" lengthAdjust="spacing" textLength="52" x="155" y="719.0669">sender /</text><text fill="#000000" font-family="sans-serif" font-size="13" lengthAdjust="spacing" textLength="52" x="165" y="734.1997">receiver</text><text fill="#000000" font-family="sans-serif" font-size="13" lengthAdjust="spacing" textLength="8" x="113.9749" y="696.1312">2</text><text fill="#000000" font-family="sans-serif" font-size="13" lengthAdjust="spacing" textLength="23" x="139.293" y="777.8023">0..*</text></g><!--MD5=[4694440557e5a0df2804fb58b4fbd8a9]
link Wallet to Wallet--><g id="link_Wallet_Wallet"><path codeLine="93" d="M206.1226,614.4878 C206.1226,614.4878 229,621.114 229,627.5 C229,633.886 220.349,638.181 207.296,640.384 " fill="none" id="Wallet-Wallet" style="stroke:#181818;stroke-width:1.0;"/><polygon fill="#181818" points="194.194,641.819,203.5761,644.8151,199.1643,641.2745,202.7049,636.8627,194.194,641.819" style="stroke:#181818;stroke-width:1.0;"/><line style="stroke:#181818;stroke-width:1.0;" x1="199.1643" x2="207.1165" y1="641.2745" y2="640.404"/><polygon fill="none" points="194.194,613.181,199.7227,617.8106,206.1226,614.4878,200.5939,609.8582,194.194,613.181" style="stroke:#181818;stroke-width:1.0;"/><text fill="#000000" font-family="sans-serif" font-size="13" lengthAdjust="spacing" textLength="55" x="235" y="624.5669">contacts</text><text fill="#000000" font-family="sans-serif" font-size="13" lengthAdjust="spacing" textLength="23" x="251" y="639.6997">0..*</text></g><!--MD5=[5fb5cea8d0ced273abb0825de5d33651]
link UserService to UserRepository--><g id="link_UserService_UserRepository"><path codeLine="94" d="M422.7755,298.5661 C422.7755,298.5661 431.511,379.674 435.242,414.319 " fill="none" id="UserService-UserRepository" style="stroke:#181818;stroke-width:1.0;"/><polygon fill="#181818" points="436.647,427.364,439.6608,417.9876,436.1119,422.3927,431.7067,418.8438,436.647,427.364" style="stroke:#181818;stroke-width:1.0;"/><line style="stroke:#181818;stroke-width:1.0;" x1="436.1119" x2="435.255" y1="422.3927" y2="414.439"/><polygon fill="#181818" points="421.491,286.635,418.1562,293.0287,422.7755,298.5661,426.1103,292.1724,421.491,286.635" style="stroke:#181818;stroke-width:1.0;"/></g><!--MD5=[c702a32cdacb65ca046b8cc70fad2ec4]
link WalletService to WalletRepository--><g id="link_WalletService_WalletRepository"><path codeLine="95" d="M828.2654,331.114 C828.2654,331.114 826.579,396.922 825.935,422.044 " fill="none" id="WalletService-WalletRepository" style="stroke:#181818;stroke-width:1.0;"/><polygon fill="#181818" points="825.594,435.339,829.8241,426.4448,825.7226,430.3407,821.8268,426.2391,825.594,435.339" style="stroke:#181818;stroke-width:1.0;"/><line style="stroke:#181818;stroke-width:1.0;" x1="825.7226" x2="825.9275" y1="430.3407" y2="422.343"/><polygon fill="#181818" points="828.574,319.118,824.421,325.0132,828.2654,331.114,832.4184,325.2189,828.574,319.118" style="stroke:#181818;stroke-width:1.0;"/></g><!--MD5=[8dbeb6a0e09c31a77de62a5b2a1eae03]
link TransferService to TransferRepository--><g id="link_TransferService_TransferRepository"><path codeLine="96" d="M623.1299,315.4219 C623.1299,315.4219 625.709,378.278 626.843,405.93 " fill="none" id="TransferService-TransferRepository" style="stroke:#181818;stroke-width:1.0;"/><polygon fill="#181818" points="627.378,418.955,631.0058,409.7986,627.1731,413.9592,623.0125,410.1265,627.378,418.955" style="stroke:#181818;stroke-width:1.0;"/><line style="stroke:#181818;stroke-width:1.0;" x1="627.1731" x2="626.8445" y1="413.9592" y2="405.9665"/><polygon fill="#181818" points="622.638,303.432,618.8873,309.5909,623.1299,315.4219,626.8806,309.263,622.638,303.432" style="stroke:#181818;stroke-width:1.0;"/></g><!--MD5=[fa4da2e1c5845a66f9239b65b96d49c7]
link repository to User--><g id="link_repository_User"><path codeLine="97" d="M326.9242,459.5 C326.7569,459.5 326.5896,459.5 326.4223,459.5 C323.745,459.5 321.0678,459.5 318.3905,459.5 C313.036,459.5 307.6815,459.5 302.327,459.5 C291.618,459.5 280.909,459.5 270.2,459.5 " fill="none" id="repository-to-User" style="stroke:#181818;stroke-width:1.0;stroke-dasharray:7.0,7.0;"/><polygon fill="#181818" points="265.049,459.5,274.049,463.5,270.049,459.5,274.049,455.5,265.049,459.5" style="stroke:#181818;stroke-width:1.0;"/></g><!--MD5=[8fe639c730721ff0ed1d2662bb0724fe]
link repository to Wallet--><g id="link_repository_Wallet"><path codeLine="98" d="M326.9101,486.6746 C326.8649,486.7952 326.8195,486.916 326.7739,487.0371 C326.5915,487.5212 326.4058,488.0091 326.2169,488.5003 C325.8392,489.4828 325.4484,490.479 325.0446,491.4866 C318.5835,507.609 308.7685,526.6775 295,540 C268.294,565.842 232.466,584.955 199.319,598.545 " fill="none" id="repository-to-Wallet" style="stroke:#181818;stroke-width:1.0;stroke-dasharray:7.0,7.0;"/><polygon fill="#181818" points="194.449,600.51,204.2919,600.8511,199.0856,598.6388,201.298,593.4325,194.449,600.51" style="stroke:#181818;stroke-width:1.0;"/></g><!--MD5=[8e9856e3cee86d228bdd6131930cb3f6]
link repository to Transfer--><g id="link_repository_Transfer"><path codeLine="99" d="M330.3686,524.8521 C330.2306,526.106 330.0887,527.3719 329.9425,528.6495 C329.6502,531.2045 329.3413,533.8056 329.0148,536.4482 C323.79,578.7303 314.06,631.628 296,676 C279.871,715.627 252.432,755.526 229.929,784.568 " fill="none" id="repository-to-Transfer" style="stroke:#181818;stroke-width:1.0;stroke-dasharray:7.0,7.0;"/><polygon fill="#181818" points="226.646,788.773,235.3374,784.1405,229.7229,784.8319,229.0315,779.2174,226.646,788.773" style="stroke:#181818;stroke-width:1.0;"/><text fill="#000000" font-family="sans-serif" font-size="13" lengthAdjust="spacing" textLength="99" x="324" y="632.0669">creates entities</text></g><!--MD5=[0e7528f3b6af38a8f1d02c67f27796bc]
link UserRepository to JpaRepository--><g id="link_UserRepository_JpaRepository"><path codeLine="101" d="M473.616,491.752 C489.653,506.523 509.186,524.317 527,540 C542.651,553.778 559.873,568.535 575.638,581.887 " fill="none" id="UserRepository-to-JpaRepository" style="stroke:#181818;stroke-width:1.0;"/><polygon fill="none" points="580.639,576.947,591.413,595.194,571.612,587.649,580.639,576.947" style="stroke:#181818;stroke-width:1.0;"/></g><!--MD5=[467b53136cf9303ce0df21f70747812b]
link TransferRepository to JpaRepository--><g id="link_TransferRepository_JpaRepository"><path codeLine="102" d="M629,500.261 C629,522.7 629,550.988 629,575.096 " fill="none" id="TransferRepository-to-JpaRepository" style="stroke:#181818;stroke-width:1.0;"/><polygon fill="none" points="636,575.362,629,595.362,622,575.362,636,575.362" style="stroke:#181818;stroke-width:1.0;"/></g><!--MD5=[c589b19a0a1b47a5e4ffff4c9c36e4ff]
link WalletRepository to JpaRepository--><g id="link_WalletRepository_JpaRepository"><path codeLine="103" d="M797.747,483.582 C767.651,509.071 718.493,550.705 680.977,582.479 " fill="none" id="WalletRepository-to-JpaRepository" style="stroke:#181818;stroke-width:1.0;"/><polygon fill="none" points="685.487,587.832,665.701,595.417,676.439,577.149,685.487,587.832" style="stroke:#181818;stroke-width:1.0;"/></g><!--MD5=[a87d42d7a139ebd305ae5e65bc6aa8f2]
link UserService to TransferService--><!--MD5=[5036acc05792d4804a297614c2434e11]
link UserDetails to UserDetailService--><!--MD5=[4f0d84a0a1419f405b8ef9cce96ae075]
link SpringSecurityConfig to WebMvcConfiguration--><!--MD5=[6c200bb5f30a017c98c828d567aa9440]
link JpaRepository to space--><!--MD5=[b063aab851781146aea5bf6ec97179e5]
link space to WebMvcConfigurer--><!--MD5=[194dcc31a89802b4d9afd9faef416ef8]
@startuml
interface UserDetails {
  +getPassword()
  +getUserName()
}
interface UserDetailService {
  +loadUserByUsername()
}
interface WebMvcConfigurer {
  +public addViewControllers()
}
interface JpaRepository {
  +{method} CRUD methods
}


package configuration {
  class SpringSecurityConfig< 1 > {
    +securityFilterChain()
    +getPasswordEncoder()
  }
    class WebMvcConfiguration< 1 > implements WebMvcConfigurer{
  }
}

package controller {
  class TransferViewController< 1 > {
    +getPage()
    +postPay()
  }
  class AddContactViewController< 1 > {
    +getPage()
    +postAdd()
  }
}

package service {
  class UserService< 1 > implements UserDetailService {
  }
  class WalletService< 1 > {
    +getContacts()
    +getTransfers()
    +addContact()
    +doTransfer()
  }
  class TransferService< 1 > {
    +getTransfersForWallet()
    +addTransfer()
  }
}

package model {
  class UserPrincipal implements UserDetails {
  }
  
  entity User #e4f7e6 {
    +id : Long
    +email : String
    +password : String
  }
  
  entity Wallet #e4f7e6 {
    +id : Long
    +profileName : String
    +balanceInCents : int
  }
  
  entity Transfer #e4f7e6 {
    +id : Long
    +amount : int
  }
}

package repository {
  interface UserRepository {
    +findByEmail()
  }
  interface TransferRepository {
    +findBySender()
    +findByReceiver()
  }
  interface WalletRepository {
  }
}

TransferViewController *- -> WalletService
AddContactViewController *- -> WalletService

TransferService *-> WalletService
UserPrincipal <. UserService : creates
UserPrincipal " " *- -> "1  " User
User "1   " *- -> "1 "Wallet
Wallet "2  " <- -* " 0..*  " Transfer : sender /    \n receiver
Wallet o-> Wallet : contacts\n0..*   
UserService *- -> UserRepository
WalletService *- -> WalletRepository
TransferService *- -> TransferRepository
repository ..> User
repository ..> Wallet
repository ..> Transfer : creates entities

UserRepository - -|> JpaRepository
TransferRepository - -|> JpaRepository
WalletRepository - -|> JpaRepository

UserService .[hidden]> TransferService
UserDetails .[hidden]> UserDetailService
SpringSecurityConfig .[hidden]> WebMvcConfiguration
JpaRepository .[hidden]> space
space .[hidden]> WebMvcConfigurer
hide space
@enduml

PlantUML version 1.2022.7beta2(Unknown compile time)
(GPL source distribution)
Java Runtime: Java(TM) SE Runtime Environment
JVM: Java HotSpot(TM) 64-Bit Server VM
Default Encoding: UTF-8
Language: en
Country: US
--></g></svg>