<?xml version="1.0" encoding="UTF-8" standalone="no"?>
<svg xmlns="http://www.w3.org/2000/svg" xmlns:xlink="http://www.w3.org/1999/xlink" contentStyleType="text/css" height="936px" preserveAspectRatio="none" style="width:1109px;height:936px;background:#FFFFFF;" version="1.1" viewBox="0 0 1109 936" width="1109px" zoomAndPan="magnify"><defs/><g><!--MD5=[5a55b731792d22909a2631efc8afae35]
cluster configuration--><g id="cluster_configuration"><path d="M592.5,773 L704.5,773 A3.75,3.75 0 0 1 707,775.5 L714,795.2969 L1071.5,795.2969 A2.5,2.5 0 0 1 1074,797.7969 L1074,902.5 A2.5,2.5 0 0 1 1071.5,905 L592.5,905 A2.5,2.5 0 0 1 590,902.5 L590,775.5 A2.5,2.5 0 0 1 592.5,773 " style="stroke:#000000;stroke-width:1.5;fill:none;"/><line style="stroke:#000000;stroke-width:1.5;fill:none;" x1="590" x2="714" y1="795.2969" y2="795.2969"/><text fill="#000000" font-family="sans-serif" font-size="14" font-weight="bold" lengthAdjust="spacing" textLength="111" x="594" y="787.9951">configuration</text></g><!--MD5=[10ea673caf457862023e152271927b45]
cluster controller--><g id="cluster_controller"><path d="M621.5,6 L702.5,6 A3.75,3.75 0 0 1 705,8.5 L712,28.2969 L820.5,28.2969 A2.5,2.5 0 0 1 823,30.7969 L823,135.5 A2.5,2.5 0 0 1 820.5,138 L621.5,138 A2.5,2.5 0 0 1 619,135.5 L619,8.5 A2.5,2.5 0 0 1 621.5,6 " style="stroke:#000000;stroke-width:1.5;fill:none;"/><line style="stroke:#000000;stroke-width:1.5;fill:none;" x1="619" x2="712" y1="28.2969" y2="28.2969"/><text fill="#000000" font-family="sans-serif" font-size="14" font-weight="bold" lengthAdjust="spacing" textLength="80" x="623" y="20.9951">controller</text></g><!--MD5=[7579d5565d2521d5936cec86ed3dadee]
cluster service--><g id="cluster_service"><path d="M343.5,171 L401.5,171 A3.75,3.75 0 0 1 404,173.5 L411,193.2969 L1099.5,193.2969 A2.5,2.5 0 0 1 1102,195.7969 L1102,332.5 A2.5,2.5 0 0 1 1099.5,335 L343.5,335 A2.5,2.5 0 0 1 341,332.5 L341,173.5 A2.5,2.5 0 0 1 343.5,171 " style="stroke:#000000;stroke-width:1.5;fill:none;"/><line style="stroke:#000000;stroke-width:1.5;fill:none;" x1="341" x2="411" y1="193.2969" y2="193.2969"/><text fill="#000000" font-family="sans-serif" font-size="14" font-weight="bold" lengthAdjust="spacing" textLength="57" x="345" y="185.9951">service</text></g><!--MD5=[5d4cd377749310b66bf14896f5cd8d9b]
cluster model--><g id="cluster_model"><path d="M8.5,203.5 L58.5,203.5 A3.75,3.75 0 0 1 61,206 L68,225.7969 L314.5,225.7969 A2.5,2.5 0 0 1 317,228.2969 L317,926.5 A2.5,2.5 0 0 1 314.5,929 L8.5,929 A2.5,2.5 0 0 1 6,926.5 L6,206 A2.5,2.5 0 0 1 8.5,203.5 " style="stroke:#000000;stroke-width:1.5;fill:none;"/><line style="stroke:#000000;stroke-width:1.5;fill:none;" x1="6" x2="68" y1="225.7969" y2="225.7969"/><text fill="#000000" font-family="sans-serif" font-size="14" font-weight="bold" lengthAdjust="spacing" textLength="49" x="10" y="218.4951">model</text></g><!--MD5=[bd0bd4c41e0e5269e37474fd45a6abb7]
cluster repository--><g id="cluster_repository"><path d="M360.5,376 L445.5,376 A3.75,3.75 0 0 1 448,378.5 L455,398.2969 L954.5,398.2969 A2.5,2.5 0 0 1 957,400.7969 L957,521.5 A2.5,2.5 0 0 1 954.5,524 L360.5,524 A2.5,2.5 0 0 1 358,521.5 L358,378.5 A2.5,2.5 0 0 1 360.5,376 " style="stroke:#000000;stroke-width:1.5;fill:none;"/><line style="stroke:#000000;stroke-width:1.5;fill:none;" x1="358" x2="455" y1="398.2969" y2="398.2969"/><text fill="#000000" font-family="sans-serif" font-size="14" font-weight="bold" lengthAdjust="spacing" textLength="84" x="362" y="390.9951">repository</text></g><!--MD5=[f12d22dd70a79c501d3eb00951149527]
class SpringSecurityConfig--><g id="elem_SpringSecurityConfig"><rect codeLine="16" fill="#F1F1F1" height="80.5938" id="SpringSecurityConfig" rx="2.5" ry="2.5" style="stroke:#181818;stroke-width:0.5;" width="205" x="606.5" y="808"/><ellipse cx="621.5" cy="824" fill="#ADD1B2" rx="11" ry="11" style="stroke:#181818;stroke-width:1.0;"/><path d="M623.8438,819.6719 C622.9063,819.2344 622.3125,819.0938 621.4375,819.0938 C618.8125,819.0938 616.8125,821.1719 616.8125,823.8906 L616.8125,825.0156 C616.8125,827.5938 618.9219,829.4844 621.8125,829.4844 C623.0313,829.4844 624.1875,829.1875 624.9375,828.6406 C625.5156,828.2344 625.8438,827.7813 625.8438,827.3906 C625.8438,826.9375 625.4531,826.5469 624.9844,826.5469 C624.7656,826.5469 624.5625,826.625 624.375,826.8125 C623.9219,827.2969 623.9219,827.2969 623.7344,827.3906 C623.3125,827.6563 622.625,827.7813 621.8594,827.7813 C619.8125,827.7813 618.5156,826.6875 618.5156,824.9844 L618.5156,823.8906 C618.5156,822.1094 619.7656,820.7969 621.5,820.7969 C622.0781,820.7969 622.6875,820.9531 623.1563,821.2031 C623.6406,821.4844 623.8125,821.7031 623.9063,822.1094 C623.9688,822.5156 624,822.6406 624.1406,822.7656 C624.2813,822.9063 624.5156,823.0156 624.7344,823.0156 C625,823.0156 625.2656,822.875 625.4375,822.6563 C625.5469,822.5 625.5781,822.3125 625.5781,821.8906 L625.5781,820.4688 C625.5781,820.0313 625.5625,819.9063 625.4688,819.75 C625.3125,819.4844 625.0313,819.3438 624.7344,819.3438 C624.4375,819.3438 624.2344,819.4375 624.0156,819.75 L623.8438,819.6719 Z " fill="#000000"/><text fill="#000000" font-family="sans-serif" font-size="14" lengthAdjust="spacing" textLength="153" x="635.5" y="828.8467">SpringSecurityConfig</text><rect fill="#FFFFFF" height="15.9688" style="stroke:#000000;stroke-width:1.0;stroke-dasharray:2.0,2.0;" width="18" x="796.5" y="805"/><text fill="#000000" font-family="sans-serif" font-size="12" font-style="italic" lengthAdjust="spacing" textLength="8" x="801.5" y="817.1387">1</text><line style="stroke:#181818;stroke-width:0.5;" x1="607.5" x2="810.5" y1="840" y2="840"/><line style="stroke:#181818;stroke-width:0.5;" x1="607.5" x2="810.5" y1="848" y2="848"/><ellipse cx="617.5" cy="859" fill="#84BE84" rx="3" ry="3" style="stroke:#038048;stroke-width:1.0;"/><text fill="#000000" font-family="sans-serif" font-size="14" lengthAdjust="spacing" textLength="145" x="626.5" y="864.9951">securityFilterChain()</text><ellipse cx="617.5" cy="875.2969" fill="#84BE84" rx="3" ry="3" style="stroke:#038048;stroke-width:1.0;"/><text fill="#000000" font-family="sans-serif" font-size="14" lengthAdjust="spacing" textLength="160" x="626.5" y="881.292">getPasswordEncoder()</text></g><!--MD5=[49f83f187a91d2c081fc3779443fea89]
class WebMvcConfiguration--><g id="elem_WebMvcConfiguration"><rect codeLine="20" fill="#F1F1F1" height="48" id="WebMvcConfiguration" rx="2.5" ry="2.5" style="stroke:#181818;stroke-width:0.5;" width="211" x="846.5" y="824.5"/><ellipse cx="861.5" cy="840.5" fill="#ADD1B2" rx="11" ry="11" style="stroke:#181818;stroke-width:1.0;"/><path d="M863.8438,836.1719 C862.9063,835.7344 862.3125,835.5938 861.4375,835.5938 C858.8125,835.5938 856.8125,837.6719 856.8125,840.3906 L856.8125,841.5156 C856.8125,844.0938 858.9219,845.9844 861.8125,845.9844 C863.0313,845.9844 864.1875,845.6875 864.9375,845.1406 C865.5156,844.7344 865.8438,844.2813 865.8438,843.8906 C865.8438,843.4375 865.4531,843.0469 864.9844,843.0469 C864.7656,843.0469 864.5625,843.125 864.375,843.3125 C863.9219,843.7969 863.9219,843.7969 863.7344,843.8906 C863.3125,844.1563 862.625,844.2813 861.8594,844.2813 C859.8125,844.2813 858.5156,843.1875 858.5156,841.4844 L858.5156,840.3906 C858.5156,838.6094 859.7656,837.2969 861.5,837.2969 C862.0781,837.2969 862.6875,837.4531 863.1563,837.7031 C863.6406,837.9844 863.8125,838.2031 863.9063,838.6094 C863.9688,839.0156 864,839.1406 864.1406,839.2656 C864.2813,839.4063 864.5156,839.5156 864.7344,839.5156 C865,839.5156 865.2656,839.375 865.4375,839.1563 C865.5469,839 865.5781,838.8125 865.5781,838.3906 L865.5781,836.9688 C865.5781,836.5313 865.5625,836.4063 865.4688,836.25 C865.3125,835.9844 865.0313,835.8438 864.7344,835.8438 C864.4375,835.8438 864.2344,835.9375 864.0156,836.25 L863.8438,836.1719 Z " fill="#000000"/><text fill="#000000" font-family="sans-serif" font-size="14" lengthAdjust="spacing" textLength="159" x="875.5" y="845.3467">WebMvcConfiguration</text><rect fill="#FFFFFF" height="15.9688" style="stroke:#000000;stroke-width:1.0;stroke-dasharray:2.0,2.0;" width="18" x="1042.5" y="821.5"/><text fill="#000000" font-family="sans-serif" font-size="12" font-style="italic" lengthAdjust="spacing" textLength="8" x="1047.5" y="833.6387">1</text><line style="stroke:#181818;stroke-width:0.5;" x1="847.5" x2="1056.5" y1="856.5" y2="856.5"/><line style="stroke:#181818;stroke-width:0.5;" x1="847.5" x2="1056.5" y1="864.5" y2="864.5"/></g><!--MD5=[578b131cd62493b9bb7d16399b138938]
class WalletController--><g id="elem_WalletController"><rect codeLine="25" fill="#F1F1F1" height="80.5938" id="WalletController" rx="2.5" ry="2.5" style="stroke:#181818;stroke-width:0.5;" width="171" x="635.5" y="41"/><ellipse cx="650.5" cy="57" fill="#ADD1B2" rx="11" ry="11" style="stroke:#181818;stroke-width:1.0;"/><path d="M652.8438,52.6719 C651.9063,52.2344 651.3125,52.0938 650.4375,52.0938 C647.8125,52.0938 645.8125,54.1719 645.8125,56.8906 L645.8125,58.0156 C645.8125,60.5938 647.9219,62.4844 650.8125,62.4844 C652.0313,62.4844 653.1875,62.1875 653.9375,61.6406 C654.5156,61.2344 654.8438,60.7813 654.8438,60.3906 C654.8438,59.9375 654.4531,59.5469 653.9844,59.5469 C653.7656,59.5469 653.5625,59.625 653.375,59.8125 C652.9219,60.2969 652.9219,60.2969 652.7344,60.3906 C652.3125,60.6563 651.625,60.7813 650.8594,60.7813 C648.8125,60.7813 647.5156,59.6875 647.5156,57.9844 L647.5156,56.8906 C647.5156,55.1094 648.7656,53.7969 650.5,53.7969 C651.0781,53.7969 651.6875,53.9531 652.1563,54.2031 C652.6406,54.4844 652.8125,54.7031 652.9063,55.1094 C652.9688,55.5156 653,55.6406 653.1406,55.7656 C653.2813,55.9063 653.5156,56.0156 653.7344,56.0156 C654,56.0156 654.2656,55.875 654.4375,55.6563 C654.5469,55.5 654.5781,55.3125 654.5781,54.8906 L654.5781,53.4688 C654.5781,53.0313 654.5625,52.9063 654.4688,52.75 C654.3125,52.4844 654.0313,52.3438 653.7344,52.3438 C653.4375,52.3438 653.2344,52.4375 653.0156,52.75 L652.8438,52.6719 Z " fill="#000000"/><text fill="#000000" font-family="sans-serif" font-size="14" lengthAdjust="spacing" textLength="119" x="664.5" y="61.8467">WalletController</text><rect fill="#FFFFFF" height="15.9688" style="stroke:#000000;stroke-width:1.0;stroke-dasharray:2.0,2.0;" width="18" x="791.5" y="38"/><text fill="#000000" font-family="sans-serif" font-size="12" font-style="italic" lengthAdjust="spacing" textLength="8" x="796.5" y="50.1387">1</text><line style="stroke:#181818;stroke-width:0.5;" x1="636.5" x2="805.5" y1="73" y2="73"/><line style="stroke:#181818;stroke-width:0.5;" x1="636.5" x2="805.5" y1="81" y2="81"/><ellipse cx="646.5" cy="92" fill="#84BE84" rx="3" ry="3" style="stroke:#038048;stroke-width:1.0;"/><text fill="#000000" font-family="sans-serif" font-size="14" lengthAdjust="spacing" textLength="130" x="655.5" y="97.9951">getTransferPage()</text><ellipse cx="646.5" cy="108.2969" fill="#84BE84" rx="3" ry="3" style="stroke:#038048;stroke-width:1.0;"/><text fill="#000000" font-family="sans-serif" font-size="14" lengthAdjust="spacing" textLength="68" x="655.5" y="114.292">postPay()</text></g><!--MD5=[e4ac4745f81aec2db60ad4ddae80b659]
class UserService--><g id="elem_UserService"><rect codeLine="32" fill="#F1F1F1" height="64.2969" id="UserService" rx="2.5" ry="2.5" style="stroke:#181818;stroke-width:0.5;" width="196" x="357" y="230.5"/><ellipse cx="399" cy="246.5" fill="#ADD1B2" rx="11" ry="11" style="stroke:#181818;stroke-width:1.0;"/><path d="M401.3438,242.1719 C400.4063,241.7344 399.8125,241.5938 398.9375,241.5938 C396.3125,241.5938 394.3125,243.6719 394.3125,246.3906 L394.3125,247.5156 C394.3125,250.0938 396.4219,251.9844 399.3125,251.9844 C400.5313,251.9844 401.6875,251.6875 402.4375,251.1406 C403.0156,250.7344 403.3438,250.2813 403.3438,249.8906 C403.3438,249.4375 402.9531,249.0469 402.4844,249.0469 C402.2656,249.0469 402.0625,249.125 401.875,249.3125 C401.4219,249.7969 401.4219,249.7969 401.2344,249.8906 C400.8125,250.1563 400.125,250.2813 399.3594,250.2813 C397.3125,250.2813 396.0156,249.1875 396.0156,247.4844 L396.0156,246.3906 C396.0156,244.6094 397.2656,243.2969 399,243.2969 C399.5781,243.2969 400.1875,243.4531 400.6563,243.7031 C401.1406,243.9844 401.3125,244.2031 401.4063,244.6094 C401.4688,245.0156 401.5,245.1406 401.6406,245.2656 C401.7813,245.4063 402.0156,245.5156 402.2344,245.5156 C402.5,245.5156 402.7656,245.375 402.9375,245.1563 C403.0469,245 403.0781,244.8125 403.0781,244.3906 L403.0781,242.9688 C403.0781,242.5313 403.0625,242.4063 402.9688,242.25 C402.8125,241.9844 402.5313,241.8438 402.2344,241.8438 C401.9375,241.8438 401.7344,241.9375 401.5156,242.25 L401.3438,242.1719 Z " fill="#000000"/><text fill="#000000" font-family="sans-serif" font-size="14" lengthAdjust="spacing" textLength="84" x="419" y="251.3467">UserService</text><rect fill="#FFFFFF" height="15.9688" style="stroke:#000000;stroke-width:1.0;stroke-dasharray:2.0,2.0;" width="18" x="538" y="227.5"/><text fill="#000000" font-family="sans-serif" font-size="12" font-style="italic" lengthAdjust="spacing" textLength="8" x="543" y="239.6387">1</text><line style="stroke:#181818;stroke-width:0.5;" x1="358" x2="552" y1="262.5" y2="262.5"/><line style="stroke:#181818;stroke-width:0.5;" x1="358" x2="552" y1="270.5" y2="270.5"/><ellipse cx="368" cy="281.5" fill="#84BE84" rx="3" ry="3" style="stroke:#038048;stroke-width:1.0;"/><text fill="#000000" font-family="sans-serif" font-size="14" lengthAdjust="spacing" textLength="170" x="377" y="287.4951">getAuthenticatedUser()</text></g><!--MD5=[fd19d5ad0cc08ec15ff275655ff5e7e3]
class WalletService--><g id="elem_WalletService"><rect codeLine="35" fill="#F1F1F1" height="113.1875" id="WalletService" rx="2.5" ry="2.5" style="stroke:#181818;stroke-width:0.5;" width="265" x="588.5" y="206"/><ellipse cx="657.25" cy="222" fill="#ADD1B2" rx="11" ry="11" style="stroke:#181818;stroke-width:1.0;"/><path d="M659.5938,217.6719 C658.6563,217.2344 658.0625,217.0938 657.1875,217.0938 C654.5625,217.0938 652.5625,219.1719 652.5625,221.8906 L652.5625,223.0156 C652.5625,225.5938 654.6719,227.4844 657.5625,227.4844 C658.7813,227.4844 659.9375,227.1875 660.6875,226.6406 C661.2656,226.2344 661.5938,225.7813 661.5938,225.3906 C661.5938,224.9375 661.2031,224.5469 660.7344,224.5469 C660.5156,224.5469 660.3125,224.625 660.125,224.8125 C659.6719,225.2969 659.6719,225.2969 659.4844,225.3906 C659.0625,225.6563 658.375,225.7813 657.6094,225.7813 C655.5625,225.7813 654.2656,224.6875 654.2656,222.9844 L654.2656,221.8906 C654.2656,220.1094 655.5156,218.7969 657.25,218.7969 C657.8281,218.7969 658.4375,218.9531 658.9063,219.2031 C659.3906,219.4844 659.5625,219.7031 659.6563,220.1094 C659.7188,220.5156 659.75,220.6406 659.8906,220.7656 C660.0313,220.9063 660.2656,221.0156 660.4844,221.0156 C660.75,221.0156 661.0156,220.875 661.1875,220.6563 C661.2969,220.5 661.3281,220.3125 661.3281,219.8906 L661.3281,218.4688 C661.3281,218.0313 661.3125,217.9063 661.2188,217.75 C661.0625,217.4844 660.7813,217.3438 660.4844,217.3438 C660.1875,217.3438 659.9844,217.4375 659.7656,217.75 L659.5938,217.6719 Z " fill="#000000"/><text fill="#000000" font-family="sans-serif" font-size="14" lengthAdjust="spacing" textLength="99" x="677.75" y="226.8467">WalletService</text><rect fill="#FFFFFF" height="15.9688" style="stroke:#000000;stroke-width:1.0;stroke-dasharray:2.0,2.0;" width="18" x="838.5" y="203"/><text fill="#000000" font-family="sans-serif" font-size="12" font-style="italic" lengthAdjust="spacing" textLength="8" x="843.5" y="215.1387">1</text><line style="stroke:#181818;stroke-width:0.5;" x1="589.5" x2="852.5" y1="238" y2="238"/><line style="stroke:#181818;stroke-width:0.5;" x1="589.5" x2="852.5" y1="246" y2="246"/><ellipse cx="599.5" cy="257" fill="#84BE84" rx="3" ry="3" style="stroke:#038048;stroke-width:1.0;"/><text fill="#000000" font-family="sans-serif" font-size="14" lengthAdjust="spacing" textLength="135" x="608.5" y="262.9951">getWalletForUser()</text><ellipse cx="599.5" cy="273.2969" fill="#84BE84" rx="3" ry="3" style="stroke:#038048;stroke-width:1.0;"/><text fill="#000000" font-family="sans-serif" font-size="14" lengthAdjust="spacing" textLength="239" x="608.5" y="279.292">getWalletForAuthenticatedUser()</text><ellipse cx="599.5" cy="289.5938" fill="#84BE84" rx="3" ry="3" style="stroke:#038048;stroke-width:1.0;"/><text fill="#000000" font-family="sans-serif" font-size="14" lengthAdjust="spacing" textLength="119" x="608.5" y="295.5889">addConnection()</text><ellipse cx="599.5" cy="305.8906" fill="#84BE84" rx="3" ry="3" style="stroke:#038048;stroke-width:1.0;"/><text fill="#000000" font-family="sans-serif" font-size="14" lengthAdjust="spacing" textLength="88" x="608.5" y="311.8857">doTransfer()</text></g><!--MD5=[c5e906f87014b27473f35ba27de49c6c]
class TransferService--><g id="elem_TransferService"><rect codeLine="41" fill="#F1F1F1" height="80.5938" id="TransferService" rx="2.5" ry="2.5" style="stroke:#181818;stroke-width:0.5;" width="197" x="888.5" y="222"/><ellipse cx="917.9" cy="238" fill="#ADD1B2" rx="11" ry="11" style="stroke:#181818;stroke-width:1.0;"/><path d="M920.2438,233.6719 C919.3063,233.2344 918.7125,233.0938 917.8375,233.0938 C915.2125,233.0938 913.2125,235.1719 913.2125,237.8906 L913.2125,239.0156 C913.2125,241.5938 915.3219,243.4844 918.2125,243.4844 C919.4313,243.4844 920.5875,243.1875 921.3375,242.6406 C921.9156,242.2344 922.2438,241.7813 922.2438,241.3906 C922.2438,240.9375 921.8531,240.5469 921.3844,240.5469 C921.1656,240.5469 920.9625,240.625 920.775,240.8125 C920.3219,241.2969 920.3219,241.2969 920.1344,241.3906 C919.7125,241.6563 919.025,241.7813 918.2594,241.7813 C916.2125,241.7813 914.9156,240.6875 914.9156,238.9844 L914.9156,237.8906 C914.9156,236.1094 916.1656,234.7969 917.9,234.7969 C918.4781,234.7969 919.0875,234.9531 919.5563,235.2031 C920.0406,235.4844 920.2125,235.7031 920.3063,236.1094 C920.3688,236.5156 920.4,236.6406 920.5406,236.7656 C920.6813,236.9063 920.9156,237.0156 921.1344,237.0156 C921.4,237.0156 921.6656,236.875 921.8375,236.6563 C921.9469,236.5 921.9781,236.3125 921.9781,235.8906 L921.9781,234.4688 C921.9781,234.0313 921.9625,233.9063 921.8688,233.75 C921.7125,233.4844 921.4313,233.3438 921.1344,233.3438 C920.8375,233.3438 920.6344,233.4375 920.4156,233.75 L920.2438,233.6719 Z " fill="#000000"/><text fill="#000000" font-family="sans-serif" font-size="14" lengthAdjust="spacing" textLength="113" x="935.1" y="242.8467">TransferService</text><rect fill="#FFFFFF" height="15.9688" style="stroke:#000000;stroke-width:1.0;stroke-dasharray:2.0,2.0;" width="18" x="1070.5" y="219"/><text fill="#000000" font-family="sans-serif" font-size="12" font-style="italic" lengthAdjust="spacing" textLength="8" x="1075.5" y="231.1387">1</text><line style="stroke:#181818;stroke-width:0.5;" x1="889.5" x2="1084.5" y1="254" y2="254"/><line style="stroke:#181818;stroke-width:0.5;" x1="889.5" x2="1084.5" y1="262" y2="262"/><ellipse cx="899.5" cy="273" fill="#84BE84" rx="3" ry="3" style="stroke:#038048;stroke-width:1.0;"/><text fill="#000000" font-family="sans-serif" font-size="14" lengthAdjust="spacing" textLength="171" x="908.5" y="278.9951">getTransfersForWallet()</text><ellipse cx="899.5" cy="289.2969" fill="#84BE84" rx="3" ry="3" style="stroke:#038048;stroke-width:1.0;"/><text fill="#000000" font-family="sans-serif" font-size="14" lengthAdjust="spacing" textLength="96" x="908.5" y="295.292">addTransfer()</text></g><!--MD5=[654d3ef673e7ea817b409bc91ff6b56e]
class UserPrincipal--><g id="elem_UserPrincipal"><rect codeLine="48" fill="#F1F1F1" height="48" id="UserPrincipal" rx="2.5" ry="2.5" style="stroke:#181818;stroke-width:0.5;" width="125" x="147.5" y="238.5"/><ellipse cx="162.5" cy="254.5" fill="#ADD1B2" rx="11" ry="11" style="stroke:#181818;stroke-width:1.0;"/><path d="M164.8438,250.1719 C163.9063,249.7344 163.3125,249.5938 162.4375,249.5938 C159.8125,249.5938 157.8125,251.6719 157.8125,254.3906 L157.8125,255.5156 C157.8125,258.0938 159.9219,259.9844 162.8125,259.9844 C164.0313,259.9844 165.1875,259.6875 165.9375,259.1406 C166.5156,258.7344 166.8438,258.2813 166.8438,257.8906 C166.8438,257.4375 166.4531,257.0469 165.9844,257.0469 C165.7656,257.0469 165.5625,257.125 165.375,257.3125 C164.9219,257.7969 164.9219,257.7969 164.7344,257.8906 C164.3125,258.1563 163.625,258.2813 162.8594,258.2813 C160.8125,258.2813 159.5156,257.1875 159.5156,255.4844 L159.5156,254.3906 C159.5156,252.6094 160.7656,251.2969 162.5,251.2969 C163.0781,251.2969 163.6875,251.4531 164.1563,251.7031 C164.6406,251.9844 164.8125,252.2031 164.9063,252.6094 C164.9688,253.0156 165,253.1406 165.1406,253.2656 C165.2813,253.4063 165.5156,253.5156 165.7344,253.5156 C166,253.5156 166.2656,253.375 166.4375,253.1563 C166.5469,253 166.5781,252.8125 166.5781,252.3906 L166.5781,250.9688 C166.5781,250.5313 166.5625,250.4063 166.4688,250.25 C166.3125,249.9844 166.0313,249.8438 165.7344,249.8438 C165.4375,249.8438 165.2344,249.9375 165.0156,250.25 L164.8438,250.1719 Z " fill="#000000"/><text fill="#000000" font-family="sans-serif" font-size="14" lengthAdjust="spacing" textLength="93" x="176.5" y="259.3467">UserPrincipal</text><line style="stroke:#181818;stroke-width:0.5;" x1="148.5" x2="271.5" y1="270.5" y2="270.5"/><line style="stroke:#181818;stroke-width:0.5;" x1="148.5" x2="271.5" y1="278.5" y2="278.5"/></g><!--MD5=[3fd616f346a44cd59a91eb10b19e157c]
class User--><g id="elem_User"><rect codeLine="51" fill="#E4F7E6" height="96.8906" id="User" rx="2.5" ry="2.5" style="stroke:#181818;stroke-width:0.5;" width="150" x="135" y="411"/><ellipse cx="190.25" cy="427" fill="#ADD1B2" rx="11" ry="11" style="stroke:#181818;stroke-width:1.0;"/><path d="M189.0469,427.875 L190.5,427.875 L190.5,427.9844 C190.5,428.3906 190.5313,428.5469 190.6094,428.7031 C190.7656,428.9531 191.0469,429.1094 191.3438,429.1094 C191.5938,429.1094 191.8594,428.9688 192.0156,428.75 C192.1406,428.5938 192.1719,428.4375 192.1719,427.9844 L192.1719,426.0625 C192.1719,425.9063 192.1719,425.8594 192.1563,425.7031 C192.0938,425.2344 191.7813,424.9219 191.3281,424.9219 C191.0781,424.9219 190.8125,425.0625 190.6406,425.2813 C190.5313,425.4531 190.5,425.6094 190.5,426.0625 L190.5,426.1875 L189.0469,426.1875 L189.0469,423.7813 L193.0313,423.7813 L193.0313,424.6406 C193.0313,425.0469 193.0625,425.2188 193.1406,425.375 C193.3125,425.625 193.5938,425.7813 193.875,425.7813 C194.1406,425.7813 194.4063,425.6406 194.5781,425.4219 C194.6875,425.25 194.7188,425.1094 194.7188,424.6406 L194.7188,422.0938 L187.0938,422.0938 C186.6563,422.0938 186.5313,422.1094 186.375,422.2031 C186.125,422.3594 185.9688,422.6563 185.9688,422.9375 C185.9688,423.2188 186.1094,423.4688 186.3281,423.6406 C186.4844,423.75 186.6719,423.7813 187.0938,423.7813 L187.3438,423.7813 L187.3438,430.2969 L187.0938,430.2969 C186.6875,430.2969 186.5313,430.3125 186.375,430.4219 C186.125,430.5938 185.9688,430.8594 185.9688,431.1563 C185.9688,431.4219 186.1094,431.6719 186.3281,431.8281 C186.4688,431.9531 186.7031,432 187.0938,432 L195.0938,432 L195.0938,429.4219 C195.0938,428.9844 195.0625,428.8438 194.9844,428.6875 C194.8125,428.4375 194.5313,428.2813 194.25,428.2813 C193.9844,428.2813 193.7188,428.3906 193.5469,428.6406 C193.4375,428.7969 193.4063,428.9375 193.4063,429.4219 L193.4063,430.2969 L189.0469,430.2969 L189.0469,427.875 Z " fill="#000000"/><text fill="#000000" font-family="sans-serif" font-size="14" lengthAdjust="spacing" textLength="31" x="210.75" y="431.8467">User</text><line style="stroke:#181818;stroke-width:0.5;" x1="136" x2="284" y1="443" y2="443"/><ellipse cx="146" cy="454" fill="none" rx="3" ry="3" style="stroke:#038048;stroke-width:1.0;"/><text fill="#000000" font-family="sans-serif" font-size="14" lengthAdjust="spacing" textLength="61" x="155" y="459.9951">id : Long</text><ellipse cx="146" cy="470.2969" fill="none" rx="3" ry="3" style="stroke:#038048;stroke-width:1.0;"/><text fill="#000000" font-family="sans-serif" font-size="14" lengthAdjust="spacing" textLength="96" x="155" y="476.292">email : String</text><ellipse cx="146" cy="486.5938" fill="none" rx="3" ry="3" style="stroke:#038048;stroke-width:1.0;"/><text fill="#000000" font-family="sans-serif" font-size="14" lengthAdjust="spacing" textLength="124" x="155" y="492.5889">password : String</text><line style="stroke:#181818;stroke-width:0.5;" x1="136" x2="284" y1="499.8906" y2="499.8906"/></g><!--MD5=[9f070bf9f108c27faa2eb76515c78fb3]
class Wallet--><g id="elem_Wallet"><rect codeLine="57" fill="#E4F7E6" height="113.1875" id="Wallet" rx="2.5" ry="2.5" style="stroke:#181818;stroke-width:0.5;" width="172" x="22" y="579"/><ellipse cx="80.75" cy="595" fill="#ADD1B2" rx="11" ry="11" style="stroke:#181818;stroke-width:1.0;"/><path d="M79.5469,595.875 L81,595.875 L81,595.9844 C81,596.3906 81.0313,596.5469 81.1094,596.7031 C81.2656,596.9531 81.5469,597.1094 81.8438,597.1094 C82.0938,597.1094 82.3594,596.9688 82.5156,596.75 C82.6406,596.5938 82.6719,596.4375 82.6719,595.9844 L82.6719,594.0625 C82.6719,593.9063 82.6719,593.8594 82.6563,593.7031 C82.5938,593.2344 82.2813,592.9219 81.8281,592.9219 C81.5781,592.9219 81.3125,593.0625 81.1406,593.2813 C81.0313,593.4531 81,593.6094 81,594.0625 L81,594.1875 L79.5469,594.1875 L79.5469,591.7813 L83.5313,591.7813 L83.5313,592.6406 C83.5313,593.0469 83.5625,593.2188 83.6406,593.375 C83.8125,593.625 84.0938,593.7813 84.375,593.7813 C84.6406,593.7813 84.9063,593.6406 85.0781,593.4219 C85.1875,593.25 85.2188,593.1094 85.2188,592.6406 L85.2188,590.0938 L77.5938,590.0938 C77.1563,590.0938 77.0313,590.1094 76.875,590.2031 C76.625,590.3594 76.4688,590.6563 76.4688,590.9375 C76.4688,591.2188 76.6094,591.4688 76.8281,591.6406 C76.9844,591.75 77.1719,591.7813 77.5938,591.7813 L77.8438,591.7813 L77.8438,598.2969 L77.5938,598.2969 C77.1875,598.2969 77.0313,598.3125 76.875,598.4219 C76.625,598.5938 76.4688,598.8594 76.4688,599.1563 C76.4688,599.4219 76.6094,599.6719 76.8281,599.8281 C76.9688,599.9531 77.2031,600 77.5938,600 L85.5938,600 L85.5938,597.4219 C85.5938,596.9844 85.5625,596.8438 85.4844,596.6875 C85.3125,596.4375 85.0313,596.2813 84.75,596.2813 C84.4844,596.2813 84.2188,596.3906 84.0469,596.6406 C83.9375,596.7969 83.9063,596.9375 83.9063,597.4219 L83.9063,598.2969 L79.5469,598.2969 L79.5469,595.875 Z " fill="#000000"/><text fill="#000000" font-family="sans-serif" font-size="14" lengthAdjust="spacing" textLength="46" x="101.25" y="599.8467">Wallet</text><line style="stroke:#181818;stroke-width:0.5;" x1="23" x2="193" y1="611" y2="611"/><ellipse cx="33" cy="622" fill="none" rx="3" ry="3" style="stroke:#038048;stroke-width:1.0;"/><text fill="#000000" font-family="sans-serif" font-size="14" lengthAdjust="spacing" textLength="61" x="42" y="627.9951">id : Long</text><ellipse cx="33" cy="638.2969" fill="none" rx="3" ry="3" style="stroke:#038048;stroke-width:1.0;"/><text fill="#000000" font-family="sans-serif" font-size="14" lengthAdjust="spacing" textLength="146" x="42" y="644.292">profileName : String</text><ellipse cx="33" cy="654.5938" fill="none" rx="3" ry="3" style="stroke:#038048;stroke-width:1.0;"/><text fill="#000000" font-family="sans-serif" font-size="14" lengthAdjust="spacing" textLength="144" x="42" y="660.5889">balanceInCents : int</text><line style="stroke:#181818;stroke-width:0.5;" x1="23" x2="193" y1="667.8906" y2="667.8906"/><ellipse cx="33" cy="678.8906" fill="#84BE84" rx="3" ry="3" style="stroke:#038048;stroke-width:1.0;"/><text fill="#000000" font-family="sans-serif" font-size="14" lengthAdjust="spacing" textLength="143" x="42" y="684.8857">getBalanceInEuros()</text></g><!--MD5=[02f52dd76b6d93c484e98adf8cb1a92d]
class Transfer--><g id="elem_Transfer"><rect codeLine="64" fill="#E4F7E6" height="129.4844" id="Transfer" rx="2.5" ry="2.5" style="stroke:#181818;stroke-width:0.5;" width="236" x="43" y="784"/><ellipse cx="126.75" cy="800" fill="#ADD1B2" rx="11" ry="11" style="stroke:#181818;stroke-width:1.0;"/><path d="M125.5469,800.875 L127,800.875 L127,800.9844 C127,801.3906 127.0313,801.5469 127.1094,801.7031 C127.2656,801.9531 127.5469,802.1094 127.8438,802.1094 C128.0938,802.1094 128.3594,801.9688 128.5156,801.75 C128.6406,801.5938 128.6719,801.4375 128.6719,800.9844 L128.6719,799.0625 C128.6719,798.9063 128.6719,798.8594 128.6563,798.7031 C128.5938,798.2344 128.2813,797.9219 127.8281,797.9219 C127.5781,797.9219 127.3125,798.0625 127.1406,798.2813 C127.0313,798.4531 127,798.6094 127,799.0625 L127,799.1875 L125.5469,799.1875 L125.5469,796.7813 L129.5313,796.7813 L129.5313,797.6406 C129.5313,798.0469 129.5625,798.2188 129.6406,798.375 C129.8125,798.625 130.0938,798.7813 130.375,798.7813 C130.6406,798.7813 130.9063,798.6406 131.0781,798.4219 C131.1875,798.25 131.2188,798.1094 131.2188,797.6406 L131.2188,795.0938 L123.5938,795.0938 C123.1563,795.0938 123.0313,795.1094 122.875,795.2031 C122.625,795.3594 122.4688,795.6563 122.4688,795.9375 C122.4688,796.2188 122.6094,796.4688 122.8281,796.6406 C122.9844,796.75 123.1719,796.7813 123.5938,796.7813 L123.8438,796.7813 L123.8438,803.2969 L123.5938,803.2969 C123.1875,803.2969 123.0313,803.3125 122.875,803.4219 C122.625,803.5938 122.4688,803.8594 122.4688,804.1563 C122.4688,804.4219 122.6094,804.6719 122.8281,804.8281 C122.9688,804.9531 123.2031,805 123.5938,805 L131.5938,805 L131.5938,802.4219 C131.5938,801.9844 131.5625,801.8438 131.4844,801.6875 C131.3125,801.4375 131.0313,801.2813 130.75,801.2813 C130.4844,801.2813 130.2188,801.3906 130.0469,801.6406 C129.9375,801.7969 129.9063,801.9375 129.9063,802.4219 L129.9063,803.2969 L125.5469,803.2969 L125.5469,800.875 Z " fill="#000000"/><text fill="#000000" font-family="sans-serif" font-size="14" lengthAdjust="spacing" textLength="60" x="147.25" y="804.8467">Transfer</text><line style="stroke:#181818;stroke-width:0.5;" x1="44" x2="278" y1="816" y2="816"/><ellipse cx="54" cy="827" fill="none" rx="3" ry="3" style="stroke:#038048;stroke-width:1.0;"/><text fill="#000000" font-family="sans-serif" font-size="14" lengthAdjust="spacing" textLength="61" x="63" y="832.9951">id : Long</text><ellipse cx="54" cy="843.2969" fill="none" rx="3" ry="3" style="stroke:#038048;stroke-width:1.0;"/><text fill="#000000" font-family="sans-serif" font-size="14" lengthAdjust="spacing" textLength="139" x="63" y="849.292">description : String</text><ellipse cx="54" cy="859.5938" fill="none" rx="3" ry="3" style="stroke:#038048;stroke-width:1.0;"/><text fill="#000000" font-family="sans-serif" font-size="14" lengthAdjust="spacing" textLength="143" x="63" y="865.5889">amountInCents : int</text><ellipse cx="54" cy="875.8906" fill="none" rx="3" ry="3" style="stroke:#038048;stroke-width:1.0;"/><text fill="#000000" font-family="sans-serif" font-size="14" lengthAdjust="spacing" textLength="210" x="63" y="881.8857">timeCompleted : Timestamp</text><line style="stroke:#181818;stroke-width:0.5;" x1="44" x2="278" y1="889.1875" y2="889.1875"/><ellipse cx="54" cy="900.1875" fill="#84BE84" rx="3" ry="3" style="stroke:#038048;stroke-width:1.0;"/><text fill="#000000" font-family="sans-serif" font-size="14" lengthAdjust="spacing" textLength="144" x="63" y="906.1826">getAmountInEuros()</text></g><!--MD5=[093c210125347143eef5bb9199eae634]
class UserRepository--><g id="elem_UserRepository"><rect codeLine="74" fill="#F1F1F1" height="64.2969" id="UserRepository" rx="2.5" ry="2.5" style="stroke:#181818;stroke-width:0.5;" width="140" x="401" y="427.5"/><ellipse cx="416" cy="443.5" fill="#B4A7E5" rx="11" ry="11" style="stroke:#181818;stroke-width:1.0;"/><path d="M416.9531,440.2813 L418.6719,440.2813 C419.0625,440.2813 419.25,440.25 419.375,440.1719 C419.6406,440.0156 419.7813,439.7344 419.7813,439.4375 C419.7813,439.1719 419.6719,438.9063 419.4375,438.7344 C419.2656,438.625 419.125,438.5938 418.6719,438.5938 L413.5313,438.5938 C413.0938,438.5938 412.9688,438.6094 412.8125,438.7031 C412.5625,438.8594 412.4063,439.1563 412.4063,439.4375 C412.4063,439.7188 412.5469,439.9688 412.7656,440.1406 C412.9219,440.25 413.1094,440.2813 413.5313,440.2813 L415.25,440.2813 L415.25,446.7969 L413.5313,446.7969 C413.0938,446.7969 412.9688,446.8125 412.8125,446.9219 C412.5625,447.0781 412.4063,447.3594 412.4063,447.6563 C412.4063,447.9063 412.5469,448.1719 412.7656,448.3281 C412.9219,448.4531 413.125,448.5 413.5313,448.5 L418.6719,448.5 C419.4219,448.5 419.7813,448.2188 419.7813,447.6563 C419.7813,447.375 419.6719,447.125 419.4375,446.9531 C419.2656,446.8281 419.125,446.7969 418.6719,446.7969 L416.9531,446.7969 L416.9531,440.2813 Z " fill="#000000"/><text fill="#000000" font-family="sans-serif" font-size="14" font-style="italic" lengthAdjust="spacing" textLength="108" x="430" y="448.3467">UserRepository</text><line style="stroke:#181818;stroke-width:0.5;" x1="402" x2="540" y1="459.5" y2="459.5"/><line style="stroke:#181818;stroke-width:0.5;" x1="402" x2="540" y1="467.5" y2="467.5"/><ellipse cx="412" cy="478.5" fill="#84BE84" rx="3" ry="3" style="stroke:#038048;stroke-width:1.0;"/><text fill="#000000" font-family="sans-serif" font-size="14" lengthAdjust="spacing" textLength="95" x="421" y="484.4951">findByEmail()</text></g><!--MD5=[f11d4d4ca99735300641110a0d70624f]
class TransferRepository--><g id="elem_TransferRepository"><rect codeLine="77" fill="#F1F1F1" height="80.5938" id="TransferRepository" rx="2.5" ry="2.5" style="stroke:#181818;stroke-width:0.5;" width="168" x="765" y="419"/><ellipse cx="780" cy="435" fill="#B4A7E5" rx="11" ry="11" style="stroke:#181818;stroke-width:1.0;"/><path d="M780.9531,431.7813 L782.6719,431.7813 C783.0625,431.7813 783.25,431.75 783.375,431.6719 C783.6406,431.5156 783.7813,431.2344 783.7813,430.9375 C783.7813,430.6719 783.6719,430.4063 783.4375,430.2344 C783.2656,430.125 783.125,430.0938 782.6719,430.0938 L777.5313,430.0938 C777.0938,430.0938 776.9688,430.1094 776.8125,430.2031 C776.5625,430.3594 776.4063,430.6563 776.4063,430.9375 C776.4063,431.2188 776.5469,431.4688 776.7656,431.6406 C776.9219,431.75 777.1094,431.7813 777.5313,431.7813 L779.25,431.7813 L779.25,438.2969 L777.5313,438.2969 C777.0938,438.2969 776.9688,438.3125 776.8125,438.4219 C776.5625,438.5781 776.4063,438.8594 776.4063,439.1563 C776.4063,439.4063 776.5469,439.6719 776.7656,439.8281 C776.9219,439.9531 777.125,440 777.5313,440 L782.6719,440 C783.4219,440 783.7813,439.7188 783.7813,439.1563 C783.7813,438.875 783.6719,438.625 783.4375,438.4531 C783.2656,438.3281 783.125,438.2969 782.6719,438.2969 L780.9531,438.2969 L780.9531,431.7813 Z " fill="#000000"/><text fill="#000000" font-family="sans-serif" font-size="14" font-style="italic" lengthAdjust="spacing" textLength="136" x="794" y="439.8467">TransferRepository</text><line style="stroke:#181818;stroke-width:0.5;" x1="766" x2="932" y1="451" y2="451"/><line style="stroke:#181818;stroke-width:0.5;" x1="766" x2="932" y1="459" y2="459"/><ellipse cx="776" cy="470" fill="#84BE84" rx="3" ry="3" style="stroke:#038048;stroke-width:1.0;"/><text fill="#000000" font-family="sans-serif" font-size="14" lengthAdjust="spacing" textLength="107" x="785" y="475.9951">findBySender()</text><ellipse cx="776" cy="486.2969" fill="#84BE84" rx="3" ry="3" style="stroke:#038048;stroke-width:1.0;"/><text fill="#000000" font-family="sans-serif" font-size="14" lengthAdjust="spacing" textLength="119" x="785" y="492.292">findByReceiver()</text></g><!--MD5=[fc70648a5dfee0e9da908f8ada3105fd]
class WalletRepository--><g id="elem_WalletRepository"><rect codeLine="81" fill="#F1F1F1" height="64.2969" id="WalletRepository" rx="2.5" ry="2.5" style="stroke:#181818;stroke-width:0.5;" width="153" x="576.5" y="427.5"/><ellipse cx="591.5" cy="443.5" fill="#B4A7E5" rx="11" ry="11" style="stroke:#181818;stroke-width:1.0;"/><path d="M592.4531,440.2813 L594.1719,440.2813 C594.5625,440.2813 594.75,440.25 594.875,440.1719 C595.1406,440.0156 595.2813,439.7344 595.2813,439.4375 C595.2813,439.1719 595.1719,438.9063 594.9375,438.7344 C594.7656,438.625 594.625,438.5938 594.1719,438.5938 L589.0313,438.5938 C588.5938,438.5938 588.4688,438.6094 588.3125,438.7031 C588.0625,438.8594 587.9063,439.1563 587.9063,439.4375 C587.9063,439.7188 588.0469,439.9688 588.2656,440.1406 C588.4219,440.25 588.6094,440.2813 589.0313,440.2813 L590.75,440.2813 L590.75,446.7969 L589.0313,446.7969 C588.5938,446.7969 588.4688,446.8125 588.3125,446.9219 C588.0625,447.0781 587.9063,447.3594 587.9063,447.6563 C587.9063,447.9063 588.0469,448.1719 588.2656,448.3281 C588.4219,448.4531 588.625,448.5 589.0313,448.5 L594.1719,448.5 C594.9219,448.5 595.2813,448.2188 595.2813,447.6563 C595.2813,447.375 595.1719,447.125 594.9375,446.9531 C594.7656,446.8281 594.625,446.7969 594.1719,446.7969 L592.4531,446.7969 L592.4531,440.2813 Z " fill="#000000"/><text fill="#000000" font-family="sans-serif" font-size="14" font-style="italic" lengthAdjust="spacing" textLength="121" x="605.5" y="448.3467">WalletRepository</text><line style="stroke:#181818;stroke-width:0.5;" x1="577.5" x2="728.5" y1="459.5" y2="459.5"/><line style="stroke:#181818;stroke-width:0.5;" x1="577.5" x2="728.5" y1="467.5" y2="467.5"/><ellipse cx="587.5" cy="478.5" fill="#84BE84" rx="3" ry="3" style="stroke:#038048;stroke-width:1.0;"/><text fill="#000000" font-family="sans-serif" font-size="14" lengthAdjust="spacing" textLength="87" x="596.5" y="484.4951">findByUser()</text></g><!--MD5=[46be0f02d3ccb60e27af689741ef5b84]
class UserDetails--><g id="elem_UserDetails"><rect codeLine="1" fill="#F1F1F1" height="80.5938" id="UserDetails" rx="2.5" ry="2.5" style="stroke:#181818;stroke-width:0.5;" width="133" x="153.5" y="41"/><ellipse cx="177.5" cy="57" fill="#B4A7E5" rx="11" ry="11" style="stroke:#181818;stroke-width:1.0;"/><path d="M178.4531,53.7813 L180.1719,53.7813 C180.5625,53.7813 180.75,53.75 180.875,53.6719 C181.1406,53.5156 181.2813,53.2344 181.2813,52.9375 C181.2813,52.6719 181.1719,52.4063 180.9375,52.2344 C180.7656,52.125 180.625,52.0938 180.1719,52.0938 L175.0313,52.0938 C174.5938,52.0938 174.4688,52.1094 174.3125,52.2031 C174.0625,52.3594 173.9063,52.6563 173.9063,52.9375 C173.9063,53.2188 174.0469,53.4688 174.2656,53.6406 C174.4219,53.75 174.6094,53.7813 175.0313,53.7813 L176.75,53.7813 L176.75,60.2969 L175.0313,60.2969 C174.5938,60.2969 174.4688,60.3125 174.3125,60.4219 C174.0625,60.5781 173.9063,60.8594 173.9063,61.1563 C173.9063,61.4063 174.0469,61.6719 174.2656,61.8281 C174.4219,61.9531 174.625,62 175.0313,62 L180.1719,62 C180.9219,62 181.2813,61.7188 181.2813,61.1563 C181.2813,60.875 181.1719,60.625 180.9375,60.4531 C180.7656,60.3281 180.625,60.2969 180.1719,60.2969 L178.4531,60.2969 L178.4531,53.7813 Z " fill="#000000"/><text fill="#000000" font-family="sans-serif" font-size="14" font-style="italic" lengthAdjust="spacing" textLength="81" x="193.5" y="61.8467">UserDetails</text><line style="stroke:#181818;stroke-width:0.5;" x1="154.5" x2="285.5" y1="73" y2="73"/><line style="stroke:#181818;stroke-width:0.5;" x1="154.5" x2="285.5" y1="81" y2="81"/><ellipse cx="164.5" cy="92" fill="#84BE84" rx="3" ry="3" style="stroke:#038048;stroke-width:1.0;"/><text fill="#000000" font-family="sans-serif" font-size="14" lengthAdjust="spacing" textLength="101" x="173.5" y="97.9951">getPassword()</text><ellipse cx="164.5" cy="108.2969" fill="#84BE84" rx="3" ry="3" style="stroke:#038048;stroke-width:1.0;"/><text fill="#000000" font-family="sans-serif" font-size="14" lengthAdjust="spacing" textLength="107" x="173.5" y="114.292">getUserName()</text></g><!--MD5=[d56ded55cff2e72b4920954b80e938e0]
class UserDetailService--><g id="elem_UserDetailService"><rect codeLine="5" fill="#F1F1F1" height="64.2969" id="UserDetailService" rx="2.5" ry="2.5" style="stroke:#181818;stroke-width:0.5;" width="186" x="325" y="49.5"/><ellipse cx="352.15" cy="65.5" fill="#B4A7E5" rx="11" ry="11" style="stroke:#181818;stroke-width:1.0;"/><path d="M353.1031,62.2813 L354.8219,62.2813 C355.2125,62.2813 355.4,62.25 355.525,62.1719 C355.7906,62.0156 355.9313,61.7344 355.9313,61.4375 C355.9313,61.1719 355.8219,60.9063 355.5875,60.7344 C355.4156,60.625 355.275,60.5938 354.8219,60.5938 L349.6813,60.5938 C349.2438,60.5938 349.1188,60.6094 348.9625,60.7031 C348.7125,60.8594 348.5563,61.1563 348.5563,61.4375 C348.5563,61.7188 348.6969,61.9688 348.9156,62.1406 C349.0719,62.25 349.2594,62.2813 349.6813,62.2813 L351.4,62.2813 L351.4,68.7969 L349.6813,68.7969 C349.2438,68.7969 349.1188,68.8125 348.9625,68.9219 C348.7125,69.0781 348.5563,69.3594 348.5563,69.6563 C348.5563,69.9063 348.6969,70.1719 348.9156,70.3281 C349.0719,70.4531 349.275,70.5 349.6813,70.5 L354.8219,70.5 C355.5719,70.5 355.9313,70.2188 355.9313,69.6563 C355.9313,69.375 355.8219,69.125 355.5875,68.9531 C355.4156,68.8281 355.275,68.7969 354.8219,68.7969 L353.1031,68.7969 L353.1031,62.2813 Z " fill="#000000"/><text fill="#000000" font-family="sans-serif" font-size="14" font-style="italic" lengthAdjust="spacing" textLength="127" x="368.85" y="70.3467">UserDetailService</text><line style="stroke:#181818;stroke-width:0.5;" x1="326" x2="510" y1="81.5" y2="81.5"/><line style="stroke:#181818;stroke-width:0.5;" x1="326" x2="510" y1="89.5" y2="89.5"/><ellipse cx="336" cy="100.5" fill="#84BE84" rx="3" ry="3" style="stroke:#038048;stroke-width:1.0;"/><text fill="#000000" font-family="sans-serif" font-size="14" lengthAdjust="spacing" textLength="160" x="345" y="106.4951">loadUserByUsername()</text></g><!--MD5=[a22c849ed96258a4b20be860721aede8]
class WebMvcConfigurer--><g id="elem_WebMvcConfigurer"><rect codeLine="8" fill="#F1F1F1" height="64.2969" id="WebMvcConfigurer" rx="2.5" ry="2.5" style="stroke:#181818;stroke-width:0.5;" width="176" x="864" y="603.5"/><ellipse cx="882.6" cy="619.5" fill="#B4A7E5" rx="11" ry="11" style="stroke:#181818;stroke-width:1.0;"/><path d="M883.5531,616.2813 L885.2719,616.2813 C885.6625,616.2813 885.85,616.25 885.975,616.1719 C886.2406,616.0156 886.3813,615.7344 886.3813,615.4375 C886.3813,615.1719 886.2719,614.9063 886.0375,614.7344 C885.8656,614.625 885.725,614.5938 885.2719,614.5938 L880.1313,614.5938 C879.6938,614.5938 879.5688,614.6094 879.4125,614.7031 C879.1625,614.8594 879.0063,615.1563 879.0063,615.4375 C879.0063,615.7188 879.1469,615.9688 879.3656,616.1406 C879.5219,616.25 879.7094,616.2813 880.1313,616.2813 L881.85,616.2813 L881.85,622.7969 L880.1313,622.7969 C879.6938,622.7969 879.5688,622.8125 879.4125,622.9219 C879.1625,623.0781 879.0063,623.3594 879.0063,623.6563 C879.0063,623.9063 879.1469,624.1719 879.3656,624.3281 C879.5219,624.4531 879.725,624.5 880.1313,624.5 L885.2719,624.5 C886.0219,624.5 886.3813,624.2188 886.3813,623.6563 C886.3813,623.375 886.2719,623.125 886.0375,622.9531 C885.8656,622.8281 885.725,622.7969 885.2719,622.7969 L883.5531,622.7969 L883.5531,616.2813 Z " fill="#000000"/><text fill="#000000" font-family="sans-serif" font-size="14" font-style="italic" lengthAdjust="spacing" textLength="136" x="897.4" y="624.3467">WebMvcConfigurer</text><line style="stroke:#181818;stroke-width:0.5;" x1="865" x2="1039" y1="635.5" y2="635.5"/><line style="stroke:#181818;stroke-width:0.5;" x1="865" x2="1039" y1="643.5" y2="643.5"/><ellipse cx="875" cy="654.5" fill="#84BE84" rx="3" ry="3" style="stroke:#038048;stroke-width:1.0;"/><text fill="#000000" font-family="sans-serif" font-size="14" lengthAdjust="spacing" textLength="150" x="884" y="660.4951">addViewControllers()</text></g><!--MD5=[5d9d7f361cf9aacac4ee237afb90f58a]
class JpaRepository--><g id="elem_JpaRepository"><rect codeLine="11" fill="#F1F1F1" height="64.2969" id="JpaRepository" rx="2.5" ry="2.5" style="stroke:#181818;stroke-width:0.5;" width="134" x="586" y="603.5"/><ellipse cx="602.8" cy="619.5" fill="#B4A7E5" rx="11" ry="11" style="stroke:#181818;stroke-width:1.0;"/><path d="M603.7531,616.2813 L605.4719,616.2813 C605.8625,616.2813 606.05,616.25 606.175,616.1719 C606.4406,616.0156 606.5813,615.7344 606.5813,615.4375 C606.5813,615.1719 606.4719,614.9063 606.2375,614.7344 C606.0656,614.625 605.925,614.5938 605.4719,614.5938 L600.3313,614.5938 C599.8938,614.5938 599.7688,614.6094 599.6125,614.7031 C599.3625,614.8594 599.2063,615.1563 599.2063,615.4375 C599.2063,615.7188 599.3469,615.9688 599.5656,616.1406 C599.7219,616.25 599.9094,616.2813 600.3313,616.2813 L602.05,616.2813 L602.05,622.7969 L600.3313,622.7969 C599.8938,622.7969 599.7688,622.8125 599.6125,622.9219 C599.3625,623.0781 599.2063,623.3594 599.2063,623.6563 C599.2063,623.9063 599.3469,624.1719 599.5656,624.3281 C599.7219,624.4531 599.925,624.5 600.3313,624.5 L605.4719,624.5 C606.2219,624.5 606.5813,624.2188 606.5813,623.6563 C606.5813,623.375 606.4719,623.125 606.2375,622.9531 C606.0656,622.8281 605.925,622.7969 605.4719,622.7969 L603.7531,622.7969 L603.7531,616.2813 Z " fill="#000000"/><text fill="#000000" font-family="sans-serif" font-size="14" font-style="italic" lengthAdjust="spacing" textLength="98" x="617.2" y="624.3467">JpaRepository</text><line style="stroke:#181818;stroke-width:0.5;" x1="587" x2="719" y1="635.5" y2="635.5"/><line style="stroke:#181818;stroke-width:0.5;" x1="587" x2="719" y1="643.5" y2="643.5"/><ellipse cx="597" cy="654.5" fill="#84BE84" rx="3" ry="3" style="stroke:#038048;stroke-width:1.0;"/><text fill="#000000" font-family="sans-serif" font-size="14" lengthAdjust="spacing" textLength="108" x="606" y="660.4951">CRUD methods</text></g><!--MD5=[b4b656aa6a2eed74038f2efd880f9bc1]
class space--><!--MD5=[54c79813a866b8206d079d73afa8a1f3]
reverse link WebMvcConfigurer to WebMvcConfiguration--><g id="link_WebMvcConfigurer_WebMvcConfiguration"><path d="M952,687.74 C952,731.272 952,791.74 952,824.382 " fill="none" id="WebMvcConfigurer-backto-WebMvcConfiguration" style="stroke:#181818;stroke-width:1.0;stroke-dasharray:7.0,7.0;"/><polygon fill="none" points="945,687.634,952,667.634,959,687.634,945,687.634" style="stroke:#181818;stroke-width:1.0;"/></g><!--MD5=[40500d079abad8955bebcc5e7556d08e]
reverse link UserDetailService to UserService--><g id="link_UserDetailService_UserService"><path d="M428.512,133.358 C434.974,164.615 443.043,203.655 448.567,230.378 " fill="none" id="UserDetailService-backto-UserService" style="stroke:#181818;stroke-width:1.0;stroke-dasharray:7.0,7.0;"/><polygon fill="none" points="421.638,134.682,424.445,113.679,435.349,131.848,421.638,134.682" style="stroke:#181818;stroke-width:1.0;"/></g><!--MD5=[fba60fc5472b7ff96612f119de625d14]
reverse link UserDetails to UserPrincipal--><g id="link_UserDetails_UserPrincipal"><path d="M216.662,142.248 C214.824,175.149 212.648,214.101 211.295,238.311 " fill="none" id="UserDetails-backto-UserPrincipal" style="stroke:#181818;stroke-width:1.0;stroke-dasharray:7.0,7.0;"/><polygon fill="none" points="209.676,141.804,217.781,122.226,223.654,142.585,209.676,141.804" style="stroke:#181818;stroke-width:1.0;"/></g><!--MD5=[ab923e055e0460ede83f69d6f73b9f9d]
link WalletController to WalletService--><g id="link_WalletController_WalletService"><path codeLine="86" d="M721,134.226 C721,134.226 721,173.743 721,192.723 " fill="none" id="WalletController-WalletService" style="stroke:#181818;stroke-width:1.0;"/><polygon fill="#181818" points="721,205.932,725,196.932,721,200.932,717,196.932,721,205.932" style="stroke:#181818;stroke-width:1.0;"/><line style="stroke:#181818;stroke-width:1.0;" x1="721" x2="721" y1="200.932" y2="192.932"/><polygon fill="none" points="721,122.226,717,128.226,721,134.226,725,128.226,721,122.226" style="stroke:#181818;stroke-width:1.0;"/></g><!--MD5=[1e935fea4ec8524d3ebf56578bd6c37a]
link WalletService to TransferService--><g id="link_WalletService_TransferService"><path codeLine="88" d="M865.74,262.5 C865.74,262.5 872.556,262.5 875.337,262.5 " fill="none" id="WalletService-TransferService" style="stroke:#181818;stroke-width:1.0;"/><polygon fill="#181818" points="888.357,262.5,879.357,258.5,883.357,262.5,879.357,266.5,888.357,262.5" style="stroke:#181818;stroke-width:1.0;"/><line style="stroke:#181818;stroke-width:1.0;" x1="883.357" x2="875.357" y1="262.5" y2="262.5"/><polygon fill="none" points="853.74,262.5,859.74,266.5,865.74,262.5,859.74,258.5,853.74,262.5" style="stroke:#181818;stroke-width:1.0;"/></g><!--MD5=[7e58ce59497bd82a8d06014619268955]
link UserService to WalletService--><g id="link_UserService_WalletService"><path codeLine="89" d="M566.342,262.5 C569.311,262.5 576.261,262.5 576.261,262.5 " fill="none" id="UserService-WalletService" style="stroke:#181818;stroke-width:1.0;"/><polygon fill="none" points="588.261,262.5,582.261,258.5,576.261,262.5,582.261,266.5,588.261,262.5" style="stroke:#181818;stroke-width:1.0;"/><polygon fill="#181818" points="553.191,262.5,562.191,266.5,558.191,262.5,562.191,258.5,553.191,262.5" style="stroke:#181818;stroke-width:1.0;"/><line style="stroke:#181818;stroke-width:1.0;" x1="558.191" x2="566.191" y1="262.5" y2="262.5"/></g><!--MD5=[7920165c3d2c7c57eda68972ca54daec]
reverse link UserPrincipal to UserService--><g id="link_UserPrincipal_UserService"><path codeLine="90" d="M277.918,262.5 C302.285,262.5 330.273,262.5 356.697,262.5 " fill="none" id="UserPrincipal-backto-UserService" style="stroke:#181818;stroke-width:1.0;stroke-dasharray:7.0,7.0;"/><polygon fill="#181818" points="272.775,262.5,281.775,266.5,277.775,262.5,281.775,258.5,272.775,262.5" style="stroke:#181818;stroke-width:1.0;"/><text fill="#000000" font-family="sans-serif" font-size="13" lengthAdjust="spacing" textLength="48" x="290.75" y="255.5669">creates</text></g><!--MD5=[716d7c6e97d70bef18dbe3eea74a0dde]
link UserPrincipal to User--><g id="link_UserPrincipal_User"><path codeLine="91" d="M210,298.635 C210,298.635 210,365.532 210,397.557 " fill="none" id="UserPrincipal-User" style="stroke:#181818;stroke-width:1.0;"/><polygon fill="#181818" points="210,410.856,214,401.856,210,405.856,206,401.856,210,410.856" style="stroke:#181818;stroke-width:1.0;"/><line style="stroke:#181818;stroke-width:1.0;" x1="210" x2="210" y1="405.856" y2="397.856"/><polygon fill="none" points="210,286.635,206,292.635,210,298.635,214,292.635,210,286.635" style="stroke:#181818;stroke-width:1.0;"/><text fill="#000000" font-family="sans-serif" font-size="13" lengthAdjust="spacing" textLength="4" x="205.5125" y="306.4291"> </text></g><!--MD5=[c6100b592e29ab2a9436cfea8d37588a]
link User to Wallet--><g id="link_User_Wallet"><path codeLine="92" d="M175.459,519.423 C166.374,534.921 146.6043,568.6444 146.6043,568.6444 " fill="none" id="User-Wallet" style="stroke:#181818;stroke-width:1.0;"/><polygon fill="none" points="140.536,578.997,147.021,575.8435,146.6043,568.6444,140.1193,571.7979,140.536,578.997" style="stroke:#181818;stroke-width:1.0;"/><polygon fill="#181818" points="182.128,508.046,174.1259,513.7876,179.5995,512.3596,181.0276,517.8332,182.128,508.046" style="stroke:#181818;stroke-width:1.0;"/><line style="stroke:#181818;stroke-width:1.0;" x1="179.5995" x2="175.5535" y1="512.3596" y2="519.261"/></g><!--MD5=[75f4e9f67daccebfc332227ffe701565]
link Wallet to Transfer--><g id="link_Wallet_Transfer"><path codeLine="93" d="M125.228,705.086 C130.505,726.093 142.0325,771.9876 142.0325,771.9876 " fill="none" id="Wallet-Transfer" style="stroke:#181818;stroke-width:1.0;"/><polygon fill="none" points="144.956,783.626,147.3738,776.8323,142.0325,771.9876,139.6148,778.7813,144.956,783.626" style="stroke:#181818;stroke-width:1.0;"/><polygon fill="#181818" points="121.994,692.214,120.3074,701.9174,123.2122,697.0633,128.0663,699.9682,121.994,692.214" style="stroke:#181818;stroke-width:1.0;"/><line style="stroke:#181818;stroke-width:1.0;" x1="123.2122" x2="125.1615" y1="697.0633" y2="704.8225"/><text fill="#000000" font-family="sans-serif" font-size="13" lengthAdjust="spacing" textLength="52" x="138" y="735.0669">sender /</text><text fill="#000000" font-family="sans-serif" font-size="13" lengthAdjust="spacing" textLength="52" x="148" y="750.1997">receiver</text><text fill="#000000" font-family="sans-serif" font-size="13" lengthAdjust="spacing" textLength="24" x="89.7501" y="712.1036">1..2</text><text fill="#000000" font-family="sans-serif" font-size="13" lengthAdjust="spacing" textLength="7" x="127.1621" y="772.7578">*</text></g><!--MD5=[4694440557e5a0df2804fb58b4fbd8a9]
link Wallet to Wallet--><g id="link_Wallet_Wallet"><path codeLine="94" d="M206.1074,621.1507 C206.1074,621.1507 229,628.459 229,635.5 C229,642.541 220.349,647.276 207.296,649.705 " fill="none" id="Wallet-Wallet" style="stroke:#181818;stroke-width:1.0;"/><polygon fill="#181818" points="194.194,651.288,203.6087,654.1801,199.1579,650.6885,202.6495,646.2378,194.194,651.288" style="stroke:#181818;stroke-width:1.0;"/><line style="stroke:#181818;stroke-width:1.0;" x1="199.1579" x2="207.0995" y1="650.6885" y2="649.729"/><polygon fill="none" points="194.194,619.712,199.6711,624.4025,206.1074,621.1507,200.6303,616.4602,194.194,619.712" style="stroke:#181818;stroke-width:1.0;"/><text fill="#000000" font-family="sans-serif" font-size="13" lengthAdjust="spacing" textLength="77" x="235" y="640.0669">connections</text><text fill="#000000" font-family="sans-serif" font-size="13" lengthAdjust="spacing" textLength="7" x="214.1331" y="665.1358">*</text></g><!--MD5=[5fb5cea8d0ced273abb0825de5d33651]
link UserService to UserRepository--><g id="link_UserService_UserRepository"><path codeLine="95" d="M458.5534,306.7897 C458.5534,306.7897 464.74,382.208 467.344,413.936 " fill="none" id="UserService-UserRepository" style="stroke:#181818;stroke-width:1.0;"/><polygon fill="#181818" points="468.436,427.248,471.6867,417.9511,468.0272,422.2647,463.7135,418.6052,468.436,427.248" style="stroke:#181818;stroke-width:1.0;"/><line style="stroke:#181818;stroke-width:1.0;" x1="468.0272" x2="467.3725" y1="422.2647" y2="414.291"/><polygon fill="#181818" points="457.571,294.83,454.0756,301.1373,458.5534,306.7897,462.0488,300.4824,457.571,294.83" style="stroke:#181818;stroke-width:1.0;"/></g><!--MD5=[c702a32cdacb65ca046b8cc70fad2ec4]
link WalletService to WalletRepository--><g id="link_WalletService_WalletRepository"><path codeLine="96" d="M697.6544,330.449 C697.6544,330.449 676.73,390.451 668.203,414.903 " fill="none" id="WalletService-WalletRepository" style="stroke:#181818;stroke-width:1.0;"/><polygon fill="#181818" points="663.849,427.389,670.5897,420.2083,665.4956,422.6679,663.036,417.5738,663.849,427.389" style="stroke:#181818;stroke-width:1.0;"/><line style="stroke:#181818;stroke-width:1.0;" x1="665.4956" x2="668.1295" y1="422.6679" y2="415.1145"/><polygon fill="#181818" points="701.605,319.118,695.8527,323.4666,697.6544,330.449,703.4067,326.1004,701.605,319.118" style="stroke:#181818;stroke-width:1.0;"/></g><!--MD5=[8dbeb6a0e09c31a77de62a5b2a1eae03]
link TransferService to TransferRepository--><g id="link_TransferService_TransferRepository"><path codeLine="97" d="M951.8087,313.2271 C951.8087,313.2271 905.017,379.346 884.553,408.262 " fill="none" id="TransferService-TransferRepository" style="stroke:#181818;stroke-width:1.0;"/><polygon fill="#181818" points="876.985,418.955,885.4492,413.9194,879.8734,414.8737,878.9192,409.2979,876.985,418.955" style="stroke:#181818;stroke-width:1.0;"/><line style="stroke:#181818;stroke-width:1.0;" x1="879.8734" x2="884.495" y1="414.8737" y2="408.3435"/><polygon fill="#181818" points="958.741,303.432,952.0098,306.0188,951.8087,313.2271,958.5399,310.6403,958.741,303.432" style="stroke:#181818;stroke-width:1.0;"/></g><!--MD5=[fa4da2e1c5845a66f9239b65b96d49c7]
link repository to User--><g id="link_repository_User"><path codeLine="98" d="M357.7412,459.5 C357.5456,459.5 357.35,459.5 357.1544,459.5 C356.7633,459.5 356.3721,459.5 355.9809,459.5 C352.8516,459.5 349.7222,459.5 346.5929,459.5 C340.3343,459.5 334.0756,459.5 327.817,459.5 C315.2998,459.5 302.7825,459.5 290.265,459.5 " fill="none" id="repository-to-User" style="stroke:#181818;stroke-width:1.0;stroke-dasharray:7.0,7.0;"/><polygon fill="#181818" points="285.258,459.5,294.258,463.5,290.258,459.5,294.258,455.5,285.258,459.5" style="stroke:#181818;stroke-width:1.0;"/></g><!--MD5=[8fe639c730721ff0ed1d2662bb0724fe]
link repository to Wallet--><g id="link_repository_Wallet"><path codeLine="99" d="M357.9474,480.1079 C356.3281,483.6379 354.4732,487.4876 352.391,491.5208 C344.062,507.6533 332.094,526.7205 317,540 C283.171,569.763 238.416,591.677 199.003,606.866 " fill="none" id="repository-to-Wallet" style="stroke:#181818;stroke-width:1.0;stroke-dasharray:7.0,7.0;"/><polygon fill="#181818" points="194.224,608.685,204.0582,609.2219,198.897,606.9064,201.2124,601.7451,194.224,608.685" style="stroke:#181818;stroke-width:1.0;"/></g><!--MD5=[8e9856e3cee86d228bdd6131930cb3f6]
link repository to Transfer--><g id="link_repository_Transfer"><path codeLine="101" d="M362.7382,524.1227 C362.7058,524.4528 362.673,524.7837 362.64,525.1155 C362.5739,525.7791 362.5065,526.4462 362.4378,527.1165 C361.8883,532.4793 361.255,538.0546 360.5251,543.7993 C354.6865,589.7563 342.673,646.547 318,692 C300.207,724.778 273.286,755.087 246.736,780.074 " fill="none" id="repository-to-Transfer" style="stroke:#181818;stroke-width:1.0;stroke-dasharray:7.0,7.0;"/><polygon fill="#181818" points="242.822,783.722,252.1336,780.5137,246.4803,780.3137,246.6803,774.6603,242.822,783.722" style="stroke:#181818;stroke-width:1.0;"/><text fill="#000000" font-family="sans-serif" font-size="13" lengthAdjust="spacing" textLength="99" x="357" y="640.0669">creates entities</text></g><!--MD5=[5036acc05792d4804a297614c2434e11]
link UserDetails to UserDetailService--><!--MD5=[0e7528f3b6af38a8f1d02c67f27796bc]
link UserRepository to JpaRepository--><g id="link_UserRepository_JpaRepository"><path codeLine="104" d="M503.538,491.608 C532.048,518.865 573.835,558.815 605.981,589.548 " fill="none" id="UserRepository-to-JpaRepository" style="stroke:#181818;stroke-width:1.0;"/><polygon fill="none" points="610.818,584.488,620.437,603.369,601.144,594.608,610.818,584.488" style="stroke:#181818;stroke-width:1.0;"/></g><!--MD5=[467b53136cf9303ce0df21f70747812b]
link TransferRepository to JpaRepository--><g id="link_TransferRepository_JpaRepository"><path codeLine="105" d="M804.034,500.419 C773.868,527.199 734.109,562.495 702.956,590.151 " fill="none" id="TransferRepository-to-JpaRepository" style="stroke:#181818;stroke-width:1.0;"/><polygon fill="none" points="707.595,595.393,687.991,603.436,698.301,584.924,707.595,595.393" style="stroke:#181818;stroke-width:1.0;"/></g><!--MD5=[c589b19a0a1b47a5e4ffff4c9c36e4ff]
link WalletRepository to JpaRepository--><g id="link_WalletRepository_JpaRepository"><path codeLine="106" d="M653,491.608 C653,517.015 653,553.45 653,583.169 " fill="none" id="WalletRepository-to-JpaRepository" style="stroke:#181818;stroke-width:1.0;"/><polygon fill="none" points="660,583.369,653,603.369,646,583.369,660,583.369" style="stroke:#181818;stroke-width:1.0;"/></g><!--MD5=[4f0d84a0a1419f405b8ef9cce96ae075]
link SpringSecurityConfig to WebMvcConfiguration--><!--MD5=[6c200bb5f30a017c98c828d567aa9440]
link JpaRepository to space--><!--MD5=[b063aab851781146aea5bf6ec97179e5]
link space to WebMvcConfigurer--><!--MD5=[ddbfc960a024425408a980adb7694cb2]
@startuml
interface UserDetails {
  +getPassword()
  +getUserName()
}
interface UserDetailService {
  +loadUserByUsername()
}
interface WebMvcConfigurer {
  +addViewControllers()
}
interface JpaRepository {
  +{method} CRUD methods
}

package configuration {
  class SpringSecurityConfig< 1 > {
    +securityFilterChain()
    +getPasswordEncoder()
  }
    class WebMvcConfiguration< 1 > implements WebMvcConfigurer{
  }
}

package controller {
  class WalletController< 1 > {
    +getTransferPage()
    +postPay()
  }
}

package service {
  class UserService< 1 > implements UserDetailService {
    +getAuthenticatedUser()
  }
  class WalletService< 1 > {
    +getWalletForUser()
    +getWalletForAuthenticatedUser()
    +addConnection()
    +doTransfer()
  }
  class TransferService< 1 > {
    +getTransfersForWallet()
    +addTransfer()
  }
}

package model {
  class UserPrincipal implements UserDetails {
  }
  
  entity User #e4f7e6 {
    +id : Long
    +email : String
    +password : String
  }
  
  entity Wallet #e4f7e6 {
    +id : Long
    +profileName : String
    +balanceInCents : int
    +getBalanceInEuros()
  }
  
  entity Transfer #e4f7e6 {
    +id : Long
    +description : String
    +amountInCents : int
    +timeCompleted : Timestamp
    +getAmountInEuros()
  }
}

package repository {
  interface UserRepository {
    +findByEmail()
  }
  interface TransferRepository {
    +findBySender()
    +findByReceiver()
  }
  interface WalletRepository {
    +findByUser()
  }
}

WalletController o- -> WalletService

WalletService o-> TransferService
UserService <-o WalletService
UserPrincipal <. UserService : creates
UserPrincipal " " o- -> User
User <- -o Wallet
Wallet "1..2  " <- -o " *  " Transfer : sender /    \n receiver
Wallet o-> "   *    " Wallet : connections
UserService *- -> UserRepository
WalletService *- -> WalletRepository
TransferService *- -> TransferRepository
repository ..> User
repository ..> Wallet

repository ..> Transfer : creates entities

UserDetails -[hidden]>UserDetailService
UserRepository - -|> JpaRepository
TransferRepository - -|> JpaRepository
WalletRepository - -|> JpaRepository

''' layout helpers
SpringSecurityConfig .[hidden]> WebMvcConfiguration
JpaRepository .[hidden]> space
space .[hidden]> WebMvcConfigurer
hide space
@enduml

@startuml
interface UserDetails {
  +getPassword()
  +getUserName()
}
interface UserDetailService {
  +loadUserByUsername()
}
interface WebMvcConfigurer {
  +addViewControllers()
}
interface JpaRepository {
  +{method} CRUD methods
}

package configuration {
  class SpringSecurityConfig< 1 > {
    +securityFilterChain()
    +getPasswordEncoder()
  }
    class WebMvcConfiguration< 1 > implements WebMvcConfigurer{
  }
}

package controller {
  class WalletController< 1 > {
    +getTransferPage()
    +postPay()
  }
}

package service {
  class UserService< 1 > implements UserDetailService {
    +getAuthenticatedUser()
  }
  class WalletService< 1 > {
    +getWalletForUser()
    +getWalletForAuthenticatedUser()
    +addConnection()
    +doTransfer()
  }
  class TransferService< 1 > {
    +getTransfersForWallet()
    +addTransfer()
  }
}

package model {
  class UserPrincipal implements UserDetails {
  }
  
  entity User #e4f7e6 {
    +id : Long
    +email : String
    +password : String
  }
  
  entity Wallet #e4f7e6 {
    +id : Long
    +profileName : String
    +balanceInCents : int
    +getBalanceInEuros()
  }
  
  entity Transfer #e4f7e6 {
    +id : Long
    +description : String
    +amountInCents : int
    +timeCompleted : Timestamp
    +getAmountInEuros()
  }
}

package repository {
  interface UserRepository {
    +findByEmail()
  }
  interface TransferRepository {
    +findBySender()
    +findByReceiver()
  }
  interface WalletRepository {
    +findByUser()
  }
}

WalletController o- -> WalletService

WalletService o-> TransferService
UserService <-o WalletService
UserPrincipal <. UserService : creates
UserPrincipal " " o- -> User
User <- -o Wallet
Wallet "1..2  " <- -o " *  " Transfer : sender /    \n receiver
Wallet o-> "   *    " Wallet : connections
UserService *- -> UserRepository
WalletService *- -> WalletRepository
TransferService *- -> TransferRepository
repository ..> User
repository ..> Wallet

repository ..> Transfer : creates entities

UserDetails -[hidden]>UserDetailService
UserRepository - -|> JpaRepository
TransferRepository - -|> JpaRepository
WalletRepository - -|> JpaRepository

SpringSecurityConfig .[hidden]> WebMvcConfiguration
JpaRepository .[hidden]> space
space .[hidden]> WebMvcConfigurer
hide space
@enduml

PlantUML version 1.2022.7beta2(Unknown compile time)
(GPL source distribution)
Java Runtime: Java(TM) SE Runtime Environment
JVM: Java HotSpot(TM) 64-Bit Server VM
Default Encoding: UTF-8
Language: en
Country: US
--></g></svg>