<?xml version="1.0" encoding="UTF-8" standalone="no"?>
<svg xmlns="http://www.w3.org/2000/svg" xmlns:xlink="http://www.w3.org/1999/xlink" contentStyleType="text/css" height="901px" preserveAspectRatio="none" style="width:1119px;height:901px;background:#FFFFFF;" version="1.1" viewBox="0 0 1119 901" width="1119px" zoomAndPan="magnify"><defs/><g><!--MD5=[5a55b731792d22909a2631efc8afae35]
cluster configuration--><g id="cluster_configuration"><path d="M630.5,754 L742.5,754 A3.75,3.75 0 0 1 745,756.5 L752,776.2969 L1109.5,776.2969 A2.5,2.5 0 0 1 1112,778.7969 L1112,883.5 A2.5,2.5 0 0 1 1109.5,886 L630.5,886 A2.5,2.5 0 0 1 628,883.5 L628,756.5 A2.5,2.5 0 0 1 630.5,754 " style="stroke:#000000;stroke-width:1.5;fill:none;"/><line style="stroke:#000000;stroke-width:1.5;fill:none;" x1="628" x2="752" y1="776.2969" y2="776.2969"/><text fill="#000000" font-family="sans-serif" font-size="14" font-weight="bold" lengthAdjust="spacing" textLength="111" x="632" y="768.9951">configuration</text></g><!--MD5=[10ea673caf457862023e152271927b45]
cluster controller--><g id="cluster_controller"><path d="M569.5,6 L650.5,6 A3.75,3.75 0 0 1 653,8.5 L660,28.2969 L1096.5,28.2969 A2.5,2.5 0 0 1 1099,30.7969 L1099,135.5 A2.5,2.5 0 0 1 1096.5,138 L569.5,138 A2.5,2.5 0 0 1 567,135.5 L567,8.5 A2.5,2.5 0 0 1 569.5,6 " style="stroke:#000000;stroke-width:1.5;fill:none;"/><line style="stroke:#000000;stroke-width:1.5;fill:none;" x1="567" x2="660" y1="28.2969" y2="28.2969"/><text fill="#000000" font-family="sans-serif" font-size="14" font-weight="bold" lengthAdjust="spacing" textLength="80" x="571" y="20.9951">controller</text></g><!--MD5=[7579d5565d2521d5936cec86ed3dadee]
cluster service--><g id="cluster_service"><path d="M375.5,171 L433.5,171 A3.75,3.75 0 0 1 436,173.5 L443,193.2969 L957.5,193.2969 A2.5,2.5 0 0 1 960,195.7969 L960,332.5 A2.5,2.5 0 0 1 957.5,335 L375.5,335 A2.5,2.5 0 0 1 373,332.5 L373,173.5 A2.5,2.5 0 0 1 375.5,171 " style="stroke:#000000;stroke-width:1.5;fill:none;"/><line style="stroke:#000000;stroke-width:1.5;fill:none;" x1="373" x2="443" y1="193.2969" y2="193.2969"/><text fill="#000000" font-family="sans-serif" font-size="14" font-weight="bold" lengthAdjust="spacing" textLength="57" x="377" y="185.9951">service</text></g><!--MD5=[5d4cd377749310b66bf14896f5cd8d9b]
cluster model--><g id="cluster_model"><path d="M8.5,203.5 L58.5,203.5 A3.75,3.75 0 0 1 61,206 L68,225.7969 L330.5,225.7969 A2.5,2.5 0 0 1 333,228.2969 L333,891.5 A2.5,2.5 0 0 1 330.5,894 L8.5,894 A2.5,2.5 0 0 1 6,891.5 L6,206 A2.5,2.5 0 0 1 8.5,203.5 " style="stroke:#000000;stroke-width:1.5;fill:none;"/><line style="stroke:#000000;stroke-width:1.5;fill:none;" x1="6" x2="68" y1="225.7969" y2="225.7969"/><text fill="#000000" font-family="sans-serif" font-size="14" font-weight="bold" lengthAdjust="spacing" textLength="49" x="10" y="218.4951">model</text></g><!--MD5=[bd0bd4c41e0e5269e37474fd45a6abb7]
cluster repository--><g id="cluster_repository"><path d="M367.5,376 L452.5,376 A3.75,3.75 0 0 1 455,378.5 L462,398.2969 L961.5,398.2969 A2.5,2.5 0 0 1 964,400.7969 L964,521.5 A2.5,2.5 0 0 1 961.5,524 L367.5,524 A2.5,2.5 0 0 1 365,521.5 L365,378.5 A2.5,2.5 0 0 1 367.5,376 " style="stroke:#000000;stroke-width:1.5;fill:none;"/><line style="stroke:#000000;stroke-width:1.5;fill:none;" x1="365" x2="462" y1="398.2969" y2="398.2969"/><text fill="#000000" font-family="sans-serif" font-size="14" font-weight="bold" lengthAdjust="spacing" textLength="84" x="369" y="390.9951">repository</text></g><!--MD5=[f12d22dd70a79c501d3eb00951149527]
class SpringSecurityConfig--><g id="elem_SpringSecurityConfig"><rect codeLine="16" fill="#F1F1F1" height="80.5938" id="SpringSecurityConfig" rx="2.5" ry="2.5" style="stroke:#181818;stroke-width:0.5;" width="205" x="644.5" y="789"/><ellipse cx="659.5" cy="805" fill="#ADD1B2" rx="11" ry="11" style="stroke:#181818;stroke-width:1.0;"/><path d="M661.8438,800.6719 C660.9063,800.2344 660.3125,800.0938 659.4375,800.0938 C656.8125,800.0938 654.8125,802.1719 654.8125,804.8906 L654.8125,806.0156 C654.8125,808.5938 656.9219,810.4844 659.8125,810.4844 C661.0313,810.4844 662.1875,810.1875 662.9375,809.6406 C663.5156,809.2344 663.8438,808.7813 663.8438,808.3906 C663.8438,807.9375 663.4531,807.5469 662.9844,807.5469 C662.7656,807.5469 662.5625,807.625 662.375,807.8125 C661.9219,808.2969 661.9219,808.2969 661.7344,808.3906 C661.3125,808.6563 660.625,808.7813 659.8594,808.7813 C657.8125,808.7813 656.5156,807.6875 656.5156,805.9844 L656.5156,804.8906 C656.5156,803.1094 657.7656,801.7969 659.5,801.7969 C660.0781,801.7969 660.6875,801.9531 661.1563,802.2031 C661.6406,802.4844 661.8125,802.7031 661.9063,803.1094 C661.9688,803.5156 662,803.6406 662.1406,803.7656 C662.2813,803.9063 662.5156,804.0156 662.7344,804.0156 C663,804.0156 663.2656,803.875 663.4375,803.6563 C663.5469,803.5 663.5781,803.3125 663.5781,802.8906 L663.5781,801.4688 C663.5781,801.0313 663.5625,800.9063 663.4688,800.75 C663.3125,800.4844 663.0313,800.3438 662.7344,800.3438 C662.4375,800.3438 662.2344,800.4375 662.0156,800.75 L661.8438,800.6719 Z " fill="#000000"/><text fill="#000000" font-family="sans-serif" font-size="14" lengthAdjust="spacing" textLength="153" x="673.5" y="809.8467">SpringSecurityConfig</text><rect fill="#FFFFFF" height="15.9688" style="stroke:#000000;stroke-width:1.0;stroke-dasharray:2.0,2.0;" width="18" x="834.5" y="786"/><text fill="#000000" font-family="sans-serif" font-size="12" font-style="italic" lengthAdjust="spacing" textLength="8" x="839.5" y="798.1387">1</text><line style="stroke:#181818;stroke-width:0.5;" x1="645.5" x2="848.5" y1="821" y2="821"/><line style="stroke:#181818;stroke-width:0.5;" x1="645.5" x2="848.5" y1="829" y2="829"/><ellipse cx="655.5" cy="840" fill="#84BE84" rx="3" ry="3" style="stroke:#038048;stroke-width:1.0;"/><text fill="#000000" font-family="sans-serif" font-size="14" lengthAdjust="spacing" textLength="145" x="664.5" y="845.9951">securityFilterChain()</text><ellipse cx="655.5" cy="856.2969" fill="#84BE84" rx="3" ry="3" style="stroke:#038048;stroke-width:1.0;"/><text fill="#000000" font-family="sans-serif" font-size="14" lengthAdjust="spacing" textLength="160" x="664.5" y="862.292">getPasswordEncoder()</text></g><!--MD5=[49f83f187a91d2c081fc3779443fea89]
class WebMvcConfiguration--><g id="elem_WebMvcConfiguration"><rect codeLine="20" fill="#F1F1F1" height="48" id="WebMvcConfiguration" rx="2.5" ry="2.5" style="stroke:#181818;stroke-width:0.5;" width="211" x="884.5" y="805.5"/><ellipse cx="899.5" cy="821.5" fill="#ADD1B2" rx="11" ry="11" style="stroke:#181818;stroke-width:1.0;"/><path d="M901.8438,817.1719 C900.9063,816.7344 900.3125,816.5938 899.4375,816.5938 C896.8125,816.5938 894.8125,818.6719 894.8125,821.3906 L894.8125,822.5156 C894.8125,825.0938 896.9219,826.9844 899.8125,826.9844 C901.0313,826.9844 902.1875,826.6875 902.9375,826.1406 C903.5156,825.7344 903.8438,825.2813 903.8438,824.8906 C903.8438,824.4375 903.4531,824.0469 902.9844,824.0469 C902.7656,824.0469 902.5625,824.125 902.375,824.3125 C901.9219,824.7969 901.9219,824.7969 901.7344,824.8906 C901.3125,825.1563 900.625,825.2813 899.8594,825.2813 C897.8125,825.2813 896.5156,824.1875 896.5156,822.4844 L896.5156,821.3906 C896.5156,819.6094 897.7656,818.2969 899.5,818.2969 C900.0781,818.2969 900.6875,818.4531 901.1563,818.7031 C901.6406,818.9844 901.8125,819.2031 901.9063,819.6094 C901.9688,820.0156 902,820.1406 902.1406,820.2656 C902.2813,820.4063 902.5156,820.5156 902.7344,820.5156 C903,820.5156 903.2656,820.375 903.4375,820.1563 C903.5469,820 903.5781,819.8125 903.5781,819.3906 L903.5781,817.9688 C903.5781,817.5313 903.5625,817.4063 903.4688,817.25 C903.3125,816.9844 903.0313,816.8438 902.7344,816.8438 C902.4375,816.8438 902.2344,816.9375 902.0156,817.25 L901.8438,817.1719 Z " fill="#000000"/><text fill="#000000" font-family="sans-serif" font-size="14" lengthAdjust="spacing" textLength="159" x="913.5" y="826.3467">WebMvcConfiguration</text><rect fill="#FFFFFF" height="15.9688" style="stroke:#000000;stroke-width:1.0;stroke-dasharray:2.0,2.0;" width="18" x="1080.5" y="802.5"/><text fill="#000000" font-family="sans-serif" font-size="12" font-style="italic" lengthAdjust="spacing" textLength="8" x="1085.5" y="814.6387">1</text><line style="stroke:#181818;stroke-width:0.5;" x1="885.5" x2="1094.5" y1="837.5" y2="837.5"/><line style="stroke:#181818;stroke-width:0.5;" x1="885.5" x2="1094.5" y1="845.5" y2="845.5"/></g><!--MD5=[82df4e216db0a7ab93a3a7ac6cfd7708]
class TransferViewController--><g id="elem_TransferViewController"><rect codeLine="25" fill="#F1F1F1" height="80.5938" id="TransferViewController" rx="2.5" ry="2.5" style="stroke:#181818;stroke-width:0.5;" width="219" x="583.5" y="41"/><ellipse cx="598.5" cy="57" fill="#ADD1B2" rx="11" ry="11" style="stroke:#181818;stroke-width:1.0;"/><path d="M600.8438,52.6719 C599.9063,52.2344 599.3125,52.0938 598.4375,52.0938 C595.8125,52.0938 593.8125,54.1719 593.8125,56.8906 L593.8125,58.0156 C593.8125,60.5938 595.9219,62.4844 598.8125,62.4844 C600.0313,62.4844 601.1875,62.1875 601.9375,61.6406 C602.5156,61.2344 602.8438,60.7813 602.8438,60.3906 C602.8438,59.9375 602.4531,59.5469 601.9844,59.5469 C601.7656,59.5469 601.5625,59.625 601.375,59.8125 C600.9219,60.2969 600.9219,60.2969 600.7344,60.3906 C600.3125,60.6563 599.625,60.7813 598.8594,60.7813 C596.8125,60.7813 595.5156,59.6875 595.5156,57.9844 L595.5156,56.8906 C595.5156,55.1094 596.7656,53.7969 598.5,53.7969 C599.0781,53.7969 599.6875,53.9531 600.1563,54.2031 C600.6406,54.4844 600.8125,54.7031 600.9063,55.1094 C600.9688,55.5156 601,55.6406 601.1406,55.7656 C601.2813,55.9063 601.5156,56.0156 601.7344,56.0156 C602,56.0156 602.2656,55.875 602.4375,55.6563 C602.5469,55.5 602.5781,55.3125 602.5781,54.8906 L602.5781,53.4688 C602.5781,53.0313 602.5625,52.9063 602.4688,52.75 C602.3125,52.4844 602.0313,52.3438 601.7344,52.3438 C601.4375,52.3438 601.2344,52.4375 601.0156,52.75 L600.8438,52.6719 Z " fill="#000000"/><text fill="#000000" font-family="sans-serif" font-size="14" lengthAdjust="spacing" textLength="167" x="612.5" y="61.8467">TransferViewController</text><rect fill="#FFFFFF" height="15.9688" style="stroke:#000000;stroke-width:1.0;stroke-dasharray:2.0,2.0;" width="18" x="787.5" y="38"/><text fill="#000000" font-family="sans-serif" font-size="12" font-style="italic" lengthAdjust="spacing" textLength="8" x="792.5" y="50.1387">1</text><line style="stroke:#181818;stroke-width:0.5;" x1="584.5" x2="801.5" y1="73" y2="73"/><line style="stroke:#181818;stroke-width:0.5;" x1="584.5" x2="801.5" y1="81" y2="81"/><ellipse cx="594.5" cy="92" fill="#84BE84" rx="3" ry="3" style="stroke:#038048;stroke-width:1.0;"/><text fill="#000000" font-family="sans-serif" font-size="14" lengthAdjust="spacing" textLength="70" x="603.5" y="97.9951">getPage()</text><ellipse cx="594.5" cy="108.2969" fill="#84BE84" rx="3" ry="3" style="stroke:#038048;stroke-width:1.0;"/><text fill="#000000" font-family="sans-serif" font-size="14" lengthAdjust="spacing" textLength="68" x="603.5" y="114.292">postPay()</text></g><!--MD5=[701628ee1aa4418f390bdb2c9905e70a]
class AddContactViewController--><g id="elem_AddContactViewController"><rect codeLine="29" fill="#F1F1F1" height="80.5938" id="AddContactViewController" rx="2.5" ry="2.5" style="stroke:#181818;stroke-width:0.5;" width="245" x="837.5" y="41"/><ellipse cx="852.5" cy="57" fill="#ADD1B2" rx="11" ry="11" style="stroke:#181818;stroke-width:1.0;"/><path d="M854.8438,52.6719 C853.9063,52.2344 853.3125,52.0938 852.4375,52.0938 C849.8125,52.0938 847.8125,54.1719 847.8125,56.8906 L847.8125,58.0156 C847.8125,60.5938 849.9219,62.4844 852.8125,62.4844 C854.0313,62.4844 855.1875,62.1875 855.9375,61.6406 C856.5156,61.2344 856.8438,60.7813 856.8438,60.3906 C856.8438,59.9375 856.4531,59.5469 855.9844,59.5469 C855.7656,59.5469 855.5625,59.625 855.375,59.8125 C854.9219,60.2969 854.9219,60.2969 854.7344,60.3906 C854.3125,60.6563 853.625,60.7813 852.8594,60.7813 C850.8125,60.7813 849.5156,59.6875 849.5156,57.9844 L849.5156,56.8906 C849.5156,55.1094 850.7656,53.7969 852.5,53.7969 C853.0781,53.7969 853.6875,53.9531 854.1563,54.2031 C854.6406,54.4844 854.8125,54.7031 854.9063,55.1094 C854.9688,55.5156 855,55.6406 855.1406,55.7656 C855.2813,55.9063 855.5156,56.0156 855.7344,56.0156 C856,56.0156 856.2656,55.875 856.4375,55.6563 C856.5469,55.5 856.5781,55.3125 856.5781,54.8906 L856.5781,53.4688 C856.5781,53.0313 856.5625,52.9063 856.4688,52.75 C856.3125,52.4844 856.0313,52.3438 855.7344,52.3438 C855.4375,52.3438 855.2344,52.4375 855.0156,52.75 L854.8438,52.6719 Z " fill="#000000"/><text fill="#000000" font-family="sans-serif" font-size="14" lengthAdjust="spacing" textLength="193" x="866.5" y="61.8467">AddContactViewController</text><rect fill="#FFFFFF" height="15.9688" style="stroke:#000000;stroke-width:1.0;stroke-dasharray:2.0,2.0;" width="18" x="1067.5" y="38"/><text fill="#000000" font-family="sans-serif" font-size="12" font-style="italic" lengthAdjust="spacing" textLength="8" x="1072.5" y="50.1387">1</text><line style="stroke:#181818;stroke-width:0.5;" x1="838.5" x2="1081.5" y1="73" y2="73"/><line style="stroke:#181818;stroke-width:0.5;" x1="838.5" x2="1081.5" y1="81" y2="81"/><ellipse cx="848.5" cy="92" fill="#84BE84" rx="3" ry="3" style="stroke:#038048;stroke-width:1.0;"/><text fill="#000000" font-family="sans-serif" font-size="14" lengthAdjust="spacing" textLength="70" x="857.5" y="97.9951">getPage()</text><ellipse cx="848.5" cy="108.2969" fill="#84BE84" rx="3" ry="3" style="stroke:#038048;stroke-width:1.0;"/><text fill="#000000" font-family="sans-serif" font-size="14" lengthAdjust="spacing" textLength="71" x="857.5" y="114.292">postAdd()</text></g><!--MD5=[e4ac4745f81aec2db60ad4ddae80b659]
class UserService--><g id="elem_UserService"><rect codeLine="36" fill="#F1F1F1" height="48" id="UserService" rx="2.5" ry="2.5" style="stroke:#181818;stroke-width:0.5;" width="136" x="389" y="238.5"/><ellipse cx="404" cy="254.5" fill="#ADD1B2" rx="11" ry="11" style="stroke:#181818;stroke-width:1.0;"/><path d="M406.3438,250.1719 C405.4063,249.7344 404.8125,249.5938 403.9375,249.5938 C401.3125,249.5938 399.3125,251.6719 399.3125,254.3906 L399.3125,255.5156 C399.3125,258.0938 401.4219,259.9844 404.3125,259.9844 C405.5313,259.9844 406.6875,259.6875 407.4375,259.1406 C408.0156,258.7344 408.3438,258.2813 408.3438,257.8906 C408.3438,257.4375 407.9531,257.0469 407.4844,257.0469 C407.2656,257.0469 407.0625,257.125 406.875,257.3125 C406.4219,257.7969 406.4219,257.7969 406.2344,257.8906 C405.8125,258.1563 405.125,258.2813 404.3594,258.2813 C402.3125,258.2813 401.0156,257.1875 401.0156,255.4844 L401.0156,254.3906 C401.0156,252.6094 402.2656,251.2969 404,251.2969 C404.5781,251.2969 405.1875,251.4531 405.6563,251.7031 C406.1406,251.9844 406.3125,252.2031 406.4063,252.6094 C406.4688,253.0156 406.5,253.1406 406.6406,253.2656 C406.7813,253.4063 407.0156,253.5156 407.2344,253.5156 C407.5,253.5156 407.7656,253.375 407.9375,253.1563 C408.0469,253 408.0781,252.8125 408.0781,252.3906 L408.0781,250.9688 C408.0781,250.5313 408.0625,250.4063 407.9688,250.25 C407.8125,249.9844 407.5313,249.8438 407.2344,249.8438 C406.9375,249.8438 406.7344,249.9375 406.5156,250.25 L406.3438,250.1719 Z " fill="#000000"/><text fill="#000000" font-family="sans-serif" font-size="14" lengthAdjust="spacing" textLength="84" x="418" y="259.3467">UserService</text><rect fill="#FFFFFF" height="15.9688" style="stroke:#000000;stroke-width:1.0;stroke-dasharray:2.0,2.0;" width="18" x="510" y="235.5"/><text fill="#000000" font-family="sans-serif" font-size="12" font-style="italic" lengthAdjust="spacing" textLength="8" x="515" y="247.6387">1</text><line style="stroke:#181818;stroke-width:0.5;" x1="390" x2="524" y1="270.5" y2="270.5"/><line style="stroke:#181818;stroke-width:0.5;" x1="390" x2="524" y1="278.5" y2="278.5"/></g><!--MD5=[fd19d5ad0cc08ec15ff275655ff5e7e3]
class WalletService--><g id="elem_WalletService"><rect codeLine="38" fill="#F1F1F1" height="113.1875" id="WalletService" rx="2.5" ry="2.5" style="stroke:#181818;stroke-width:0.5;" width="151" x="792.5" y="206"/><ellipse cx="807.5" cy="222" fill="#ADD1B2" rx="11" ry="11" style="stroke:#181818;stroke-width:1.0;"/><path d="M809.8438,217.6719 C808.9063,217.2344 808.3125,217.0938 807.4375,217.0938 C804.8125,217.0938 802.8125,219.1719 802.8125,221.8906 L802.8125,223.0156 C802.8125,225.5938 804.9219,227.4844 807.8125,227.4844 C809.0313,227.4844 810.1875,227.1875 810.9375,226.6406 C811.5156,226.2344 811.8438,225.7813 811.8438,225.3906 C811.8438,224.9375 811.4531,224.5469 810.9844,224.5469 C810.7656,224.5469 810.5625,224.625 810.375,224.8125 C809.9219,225.2969 809.9219,225.2969 809.7344,225.3906 C809.3125,225.6563 808.625,225.7813 807.8594,225.7813 C805.8125,225.7813 804.5156,224.6875 804.5156,222.9844 L804.5156,221.8906 C804.5156,220.1094 805.7656,218.7969 807.5,218.7969 C808.0781,218.7969 808.6875,218.9531 809.1563,219.2031 C809.6406,219.4844 809.8125,219.7031 809.9063,220.1094 C809.9688,220.5156 810,220.6406 810.1406,220.7656 C810.2813,220.9063 810.5156,221.0156 810.7344,221.0156 C811,221.0156 811.2656,220.875 811.4375,220.6563 C811.5469,220.5 811.5781,220.3125 811.5781,219.8906 L811.5781,218.4688 C811.5781,218.0313 811.5625,217.9063 811.4688,217.75 C811.3125,217.4844 811.0313,217.3438 810.7344,217.3438 C810.4375,217.3438 810.2344,217.4375 810.0156,217.75 L809.8438,217.6719 Z " fill="#000000"/><text fill="#000000" font-family="sans-serif" font-size="14" lengthAdjust="spacing" textLength="99" x="821.5" y="226.8467">WalletService</text><rect fill="#FFFFFF" height="15.9688" style="stroke:#000000;stroke-width:1.0;stroke-dasharray:2.0,2.0;" width="18" x="928.5" y="203"/><text fill="#000000" font-family="sans-serif" font-size="12" font-style="italic" lengthAdjust="spacing" textLength="8" x="933.5" y="215.1387">1</text><line style="stroke:#181818;stroke-width:0.5;" x1="793.5" x2="942.5" y1="238" y2="238"/><line style="stroke:#181818;stroke-width:0.5;" x1="793.5" x2="942.5" y1="246" y2="246"/><ellipse cx="803.5" cy="257" fill="#84BE84" rx="3" ry="3" style="stroke:#038048;stroke-width:1.0;"/><text fill="#000000" font-family="sans-serif" font-size="14" lengthAdjust="spacing" textLength="100" x="812.5" y="262.9951">getContacts()</text><ellipse cx="803.5" cy="273.2969" fill="#84BE84" rx="3" ry="3" style="stroke:#038048;stroke-width:1.0;"/><text fill="#000000" font-family="sans-serif" font-size="14" lengthAdjust="spacing" textLength="102" x="812.5" y="279.292">getTransfers()</text><ellipse cx="803.5" cy="289.5938" fill="#84BE84" rx="3" ry="3" style="stroke:#038048;stroke-width:1.0;"/><text fill="#000000" font-family="sans-serif" font-size="14" lengthAdjust="spacing" textLength="94" x="812.5" y="295.5889">addContact()</text><ellipse cx="803.5" cy="305.8906" fill="#84BE84" rx="3" ry="3" style="stroke:#038048;stroke-width:1.0;"/><text fill="#000000" font-family="sans-serif" font-size="14" lengthAdjust="spacing" textLength="88" x="812.5" y="311.8857">doTransfer()</text></g><!--MD5=[c5e906f87014b27473f35ba27de49c6c]
class TransferService--><g id="elem_TransferService"><rect codeLine="44" fill="#F1F1F1" height="80.5938" id="TransferService" rx="2.5" ry="2.5" style="stroke:#181818;stroke-width:0.5;" width="197" x="560.5" y="222"/><ellipse cx="589.9" cy="238" fill="#ADD1B2" rx="11" ry="11" style="stroke:#181818;stroke-width:1.0;"/><path d="M592.2438,233.6719 C591.3063,233.2344 590.7125,233.0938 589.8375,233.0938 C587.2125,233.0938 585.2125,235.1719 585.2125,237.8906 L585.2125,239.0156 C585.2125,241.5938 587.3219,243.4844 590.2125,243.4844 C591.4313,243.4844 592.5875,243.1875 593.3375,242.6406 C593.9156,242.2344 594.2438,241.7813 594.2438,241.3906 C594.2438,240.9375 593.8531,240.5469 593.3844,240.5469 C593.1656,240.5469 592.9625,240.625 592.775,240.8125 C592.3219,241.2969 592.3219,241.2969 592.1344,241.3906 C591.7125,241.6563 591.025,241.7813 590.2594,241.7813 C588.2125,241.7813 586.9156,240.6875 586.9156,238.9844 L586.9156,237.8906 C586.9156,236.1094 588.1656,234.7969 589.9,234.7969 C590.4781,234.7969 591.0875,234.9531 591.5563,235.2031 C592.0406,235.4844 592.2125,235.7031 592.3063,236.1094 C592.3688,236.5156 592.4,236.6406 592.5406,236.7656 C592.6813,236.9063 592.9156,237.0156 593.1344,237.0156 C593.4,237.0156 593.6656,236.875 593.8375,236.6563 C593.9469,236.5 593.9781,236.3125 593.9781,235.8906 L593.9781,234.4688 C593.9781,234.0313 593.9625,233.9063 593.8688,233.75 C593.7125,233.4844 593.4313,233.3438 593.1344,233.3438 C592.8375,233.3438 592.6344,233.4375 592.4156,233.75 L592.2438,233.6719 Z " fill="#000000"/><text fill="#000000" font-family="sans-serif" font-size="14" lengthAdjust="spacing" textLength="113" x="607.1" y="242.8467">TransferService</text><rect fill="#FFFFFF" height="15.9688" style="stroke:#000000;stroke-width:1.0;stroke-dasharray:2.0,2.0;" width="18" x="742.5" y="219"/><text fill="#000000" font-family="sans-serif" font-size="12" font-style="italic" lengthAdjust="spacing" textLength="8" x="747.5" y="231.1387">1</text><line style="stroke:#181818;stroke-width:0.5;" x1="561.5" x2="756.5" y1="254" y2="254"/><line style="stroke:#181818;stroke-width:0.5;" x1="561.5" x2="756.5" y1="262" y2="262"/><ellipse cx="571.5" cy="273" fill="#84BE84" rx="3" ry="3" style="stroke:#038048;stroke-width:1.0;"/><text fill="#000000" font-family="sans-serif" font-size="14" lengthAdjust="spacing" textLength="171" x="580.5" y="278.9951">getTransfersForWallet()</text><ellipse cx="571.5" cy="289.2969" fill="#84BE84" rx="3" ry="3" style="stroke:#038048;stroke-width:1.0;"/><text fill="#000000" font-family="sans-serif" font-size="14" lengthAdjust="spacing" textLength="96" x="580.5" y="295.292">addTransfer()</text></g><!--MD5=[654d3ef673e7ea817b409bc91ff6b56e]
class UserPrincipal--><g id="elem_UserPrincipal"><rect codeLine="51" fill="#F1F1F1" height="48" id="UserPrincipal" rx="2.5" ry="2.5" style="stroke:#181818;stroke-width:0.5;" width="125" x="179.5" y="238.5"/><ellipse cx="194.5" cy="254.5" fill="#ADD1B2" rx="11" ry="11" style="stroke:#181818;stroke-width:1.0;"/><path d="M196.8438,250.1719 C195.9063,249.7344 195.3125,249.5938 194.4375,249.5938 C191.8125,249.5938 189.8125,251.6719 189.8125,254.3906 L189.8125,255.5156 C189.8125,258.0938 191.9219,259.9844 194.8125,259.9844 C196.0313,259.9844 197.1875,259.6875 197.9375,259.1406 C198.5156,258.7344 198.8438,258.2813 198.8438,257.8906 C198.8438,257.4375 198.4531,257.0469 197.9844,257.0469 C197.7656,257.0469 197.5625,257.125 197.375,257.3125 C196.9219,257.7969 196.9219,257.7969 196.7344,257.8906 C196.3125,258.1563 195.625,258.2813 194.8594,258.2813 C192.8125,258.2813 191.5156,257.1875 191.5156,255.4844 L191.5156,254.3906 C191.5156,252.6094 192.7656,251.2969 194.5,251.2969 C195.0781,251.2969 195.6875,251.4531 196.1563,251.7031 C196.6406,251.9844 196.8125,252.2031 196.9063,252.6094 C196.9688,253.0156 197,253.1406 197.1406,253.2656 C197.2813,253.4063 197.5156,253.5156 197.7344,253.5156 C198,253.5156 198.2656,253.375 198.4375,253.1563 C198.5469,253 198.5781,252.8125 198.5781,252.3906 L198.5781,250.9688 C198.5781,250.5313 198.5625,250.4063 198.4688,250.25 C198.3125,249.9844 198.0313,249.8438 197.7344,249.8438 C197.4375,249.8438 197.2344,249.9375 197.0156,250.25 L196.8438,250.1719 Z " fill="#000000"/><text fill="#000000" font-family="sans-serif" font-size="14" lengthAdjust="spacing" textLength="93" x="208.5" y="259.3467">UserPrincipal</text><line style="stroke:#181818;stroke-width:0.5;" x1="180.5" x2="303.5" y1="270.5" y2="270.5"/><line style="stroke:#181818;stroke-width:0.5;" x1="180.5" x2="303.5" y1="278.5" y2="278.5"/></g><!--MD5=[3fd616f346a44cd59a91eb10b19e157c]
class User--><g id="elem_User"><rect codeLine="54" fill="#E4F7E6" height="96.8906" id="User" rx="2.5" ry="2.5" style="stroke:#181818;stroke-width:0.5;" width="150" x="153" y="411"/><ellipse cx="208.25" cy="427" fill="#ADD1B2" rx="11" ry="11" style="stroke:#181818;stroke-width:1.0;"/><path d="M207.0469,427.875 L208.5,427.875 L208.5,427.9844 C208.5,428.3906 208.5313,428.5469 208.6094,428.7031 C208.7656,428.9531 209.0469,429.1094 209.3438,429.1094 C209.5938,429.1094 209.8594,428.9688 210.0156,428.75 C210.1406,428.5938 210.1719,428.4375 210.1719,427.9844 L210.1719,426.0625 C210.1719,425.9063 210.1719,425.8594 210.1563,425.7031 C210.0938,425.2344 209.7813,424.9219 209.3281,424.9219 C209.0781,424.9219 208.8125,425.0625 208.6406,425.2813 C208.5313,425.4531 208.5,425.6094 208.5,426.0625 L208.5,426.1875 L207.0469,426.1875 L207.0469,423.7813 L211.0313,423.7813 L211.0313,424.6406 C211.0313,425.0469 211.0625,425.2188 211.1406,425.375 C211.3125,425.625 211.5938,425.7813 211.875,425.7813 C212.1406,425.7813 212.4063,425.6406 212.5781,425.4219 C212.6875,425.25 212.7188,425.1094 212.7188,424.6406 L212.7188,422.0938 L205.0938,422.0938 C204.6563,422.0938 204.5313,422.1094 204.375,422.2031 C204.125,422.3594 203.9688,422.6563 203.9688,422.9375 C203.9688,423.2188 204.1094,423.4688 204.3281,423.6406 C204.4844,423.75 204.6719,423.7813 205.0938,423.7813 L205.3438,423.7813 L205.3438,430.2969 L205.0938,430.2969 C204.6875,430.2969 204.5313,430.3125 204.375,430.4219 C204.125,430.5938 203.9688,430.8594 203.9688,431.1563 C203.9688,431.4219 204.1094,431.6719 204.3281,431.8281 C204.4688,431.9531 204.7031,432 205.0938,432 L213.0938,432 L213.0938,429.4219 C213.0938,428.9844 213.0625,428.8438 212.9844,428.6875 C212.8125,428.4375 212.5313,428.2813 212.25,428.2813 C211.9844,428.2813 211.7188,428.3906 211.5469,428.6406 C211.4375,428.7969 211.4063,428.9375 211.4063,429.4219 L211.4063,430.2969 L207.0469,430.2969 L207.0469,427.875 Z " fill="#000000"/><text fill="#000000" font-family="sans-serif" font-size="14" lengthAdjust="spacing" textLength="31" x="228.75" y="431.8467">User</text><line style="stroke:#181818;stroke-width:0.5;" x1="154" x2="302" y1="443" y2="443"/><ellipse cx="164" cy="454" fill="none" rx="3" ry="3" style="stroke:#038048;stroke-width:1.0;"/><text fill="#000000" font-family="sans-serif" font-size="14" lengthAdjust="spacing" textLength="61" x="173" y="459.9951">id : Long</text><ellipse cx="164" cy="470.2969" fill="none" rx="3" ry="3" style="stroke:#038048;stroke-width:1.0;"/><text fill="#000000" font-family="sans-serif" font-size="14" lengthAdjust="spacing" textLength="96" x="173" y="476.292">email : String</text><ellipse cx="164" cy="486.5938" fill="none" rx="3" ry="3" style="stroke:#038048;stroke-width:1.0;"/><text fill="#000000" font-family="sans-serif" font-size="14" lengthAdjust="spacing" textLength="124" x="173" y="492.5889">password : String</text><line style="stroke:#181818;stroke-width:0.5;" x1="154" x2="302" y1="499.8906" y2="499.8906"/></g><!--MD5=[9f070bf9f108c27faa2eb76515c78fb3]
class Wallet--><g id="elem_Wallet"><rect codeLine="60" fill="#E4F7E6" height="96.8906" id="Wallet" rx="2.5" ry="2.5" style="stroke:#181818;stroke-width:0.5;" width="172" x="134" y="579"/><ellipse cx="192.75" cy="595" fill="#ADD1B2" rx="11" ry="11" style="stroke:#181818;stroke-width:1.0;"/><path d="M191.5469,595.875 L193,595.875 L193,595.9844 C193,596.3906 193.0313,596.5469 193.1094,596.7031 C193.2656,596.9531 193.5469,597.1094 193.8438,597.1094 C194.0938,597.1094 194.3594,596.9688 194.5156,596.75 C194.6406,596.5938 194.6719,596.4375 194.6719,595.9844 L194.6719,594.0625 C194.6719,593.9063 194.6719,593.8594 194.6563,593.7031 C194.5938,593.2344 194.2813,592.9219 193.8281,592.9219 C193.5781,592.9219 193.3125,593.0625 193.1406,593.2813 C193.0313,593.4531 193,593.6094 193,594.0625 L193,594.1875 L191.5469,594.1875 L191.5469,591.7813 L195.5313,591.7813 L195.5313,592.6406 C195.5313,593.0469 195.5625,593.2188 195.6406,593.375 C195.8125,593.625 196.0938,593.7813 196.375,593.7813 C196.6406,593.7813 196.9063,593.6406 197.0781,593.4219 C197.1875,593.25 197.2188,593.1094 197.2188,592.6406 L197.2188,590.0938 L189.5938,590.0938 C189.1563,590.0938 189.0313,590.1094 188.875,590.2031 C188.625,590.3594 188.4688,590.6563 188.4688,590.9375 C188.4688,591.2188 188.6094,591.4688 188.8281,591.6406 C188.9844,591.75 189.1719,591.7813 189.5938,591.7813 L189.8438,591.7813 L189.8438,598.2969 L189.5938,598.2969 C189.1875,598.2969 189.0313,598.3125 188.875,598.4219 C188.625,598.5938 188.4688,598.8594 188.4688,599.1563 C188.4688,599.4219 188.6094,599.6719 188.8281,599.8281 C188.9688,599.9531 189.2031,600 189.5938,600 L197.5938,600 L197.5938,597.4219 C197.5938,596.9844 197.5625,596.8438 197.4844,596.6875 C197.3125,596.4375 197.0313,596.2813 196.75,596.2813 C196.4844,596.2813 196.2188,596.3906 196.0469,596.6406 C195.9375,596.7969 195.9063,596.9375 195.9063,597.4219 L195.9063,598.2969 L191.5469,598.2969 L191.5469,595.875 Z " fill="#000000"/><text fill="#000000" font-family="sans-serif" font-size="14" lengthAdjust="spacing" textLength="46" x="213.25" y="599.8467">Wallet</text><line style="stroke:#181818;stroke-width:0.5;" x1="135" x2="305" y1="611" y2="611"/><ellipse cx="145" cy="622" fill="none" rx="3" ry="3" style="stroke:#038048;stroke-width:1.0;"/><text fill="#000000" font-family="sans-serif" font-size="14" lengthAdjust="spacing" textLength="61" x="154" y="627.9951">id : Long</text><ellipse cx="145" cy="638.2969" fill="none" rx="3" ry="3" style="stroke:#038048;stroke-width:1.0;"/><text fill="#000000" font-family="sans-serif" font-size="14" lengthAdjust="spacing" textLength="146" x="154" y="644.292">profileName : String</text><ellipse cx="145" cy="654.5938" fill="none" rx="3" ry="3" style="stroke:#038048;stroke-width:1.0;"/><text fill="#000000" font-family="sans-serif" font-size="14" lengthAdjust="spacing" textLength="144" x="154" y="660.5889">balanceInCents : int</text><line style="stroke:#181818;stroke-width:0.5;" x1="135" x2="305" y1="667.8906" y2="667.8906"/></g><!--MD5=[72ce1314beffbcf60a64ee91fbbc10dc]
class Contact--><g id="elem_Contact"><rect codeLine="66" fill="#E4F7E6" height="48" id="Contact" rx="2.5" ry="2.5" style="stroke:#181818;stroke-width:0.5;" width="90" x="22" y="805.5"/><ellipse cx="37" cy="821.5" fill="#ADD1B2" rx="11" ry="11" style="stroke:#181818;stroke-width:1.0;"/><path d="M35.7969,822.375 L37.25,822.375 L37.25,822.4844 C37.25,822.8906 37.2813,823.0469 37.3594,823.2031 C37.5156,823.4531 37.7969,823.6094 38.0938,823.6094 C38.3438,823.6094 38.6094,823.4688 38.7656,823.25 C38.8906,823.0938 38.9219,822.9375 38.9219,822.4844 L38.9219,820.5625 C38.9219,820.4063 38.9219,820.3594 38.9063,820.2031 C38.8438,819.7344 38.5313,819.4219 38.0781,819.4219 C37.8281,819.4219 37.5625,819.5625 37.3906,819.7813 C37.2813,819.9531 37.25,820.1094 37.25,820.5625 L37.25,820.6875 L35.7969,820.6875 L35.7969,818.2813 L39.7813,818.2813 L39.7813,819.1406 C39.7813,819.5469 39.8125,819.7188 39.8906,819.875 C40.0625,820.125 40.3438,820.2813 40.625,820.2813 C40.8906,820.2813 41.1563,820.1406 41.3281,819.9219 C41.4375,819.75 41.4688,819.6094 41.4688,819.1406 L41.4688,816.5938 L33.8438,816.5938 C33.4063,816.5938 33.2813,816.6094 33.125,816.7031 C32.875,816.8594 32.7188,817.1563 32.7188,817.4375 C32.7188,817.7188 32.8594,817.9688 33.0781,818.1406 C33.2344,818.25 33.4219,818.2813 33.8438,818.2813 L34.0938,818.2813 L34.0938,824.7969 L33.8438,824.7969 C33.4375,824.7969 33.2813,824.8125 33.125,824.9219 C32.875,825.0938 32.7188,825.3594 32.7188,825.6563 C32.7188,825.9219 32.8594,826.1719 33.0781,826.3281 C33.2188,826.4531 33.4531,826.5 33.8438,826.5 L41.8438,826.5 L41.8438,823.9219 C41.8438,823.4844 41.8125,823.3438 41.7344,823.1875 C41.5625,822.9375 41.2813,822.7813 41,822.7813 C40.7344,822.7813 40.4688,822.8906 40.2969,823.1406 C40.1875,823.2969 40.1563,823.4375 40.1563,823.9219 L40.1563,824.7969 L35.7969,824.7969 L35.7969,822.375 Z " fill="#000000"/><text fill="#000000" font-family="sans-serif" font-size="14" lengthAdjust="spacing" textLength="58" x="51" y="826.3467">Contact</text><line style="stroke:#181818;stroke-width:0.5;" x1="23" x2="111" y1="837.5" y2="837.5"/><line style="stroke:#181818;stroke-width:0.5;" x1="23" x2="111" y1="845.5" y2="845.5"/></g><!--MD5=[02f52dd76b6d93c484e98adf8cb1a92d]
class Transfer--><g id="elem_Transfer"><rect codeLine="69" fill="#E4F7E6" height="96.8906" id="Transfer" rx="2.5" ry="2.5" style="stroke:#181818;stroke-width:0.5;" width="169" x="147.5" y="781"/><ellipse cx="197.75" cy="797" fill="#ADD1B2" rx="11" ry="11" style="stroke:#181818;stroke-width:1.0;"/><path d="M196.5469,797.875 L198,797.875 L198,797.9844 C198,798.3906 198.0313,798.5469 198.1094,798.7031 C198.2656,798.9531 198.5469,799.1094 198.8438,799.1094 C199.0938,799.1094 199.3594,798.9688 199.5156,798.75 C199.6406,798.5938 199.6719,798.4375 199.6719,797.9844 L199.6719,796.0625 C199.6719,795.9063 199.6719,795.8594 199.6563,795.7031 C199.5938,795.2344 199.2813,794.9219 198.8281,794.9219 C198.5781,794.9219 198.3125,795.0625 198.1406,795.2813 C198.0313,795.4531 198,795.6094 198,796.0625 L198,796.1875 L196.5469,796.1875 L196.5469,793.7813 L200.5313,793.7813 L200.5313,794.6406 C200.5313,795.0469 200.5625,795.2188 200.6406,795.375 C200.8125,795.625 201.0938,795.7813 201.375,795.7813 C201.6406,795.7813 201.9063,795.6406 202.0781,795.4219 C202.1875,795.25 202.2188,795.1094 202.2188,794.6406 L202.2188,792.0938 L194.5938,792.0938 C194.1563,792.0938 194.0313,792.1094 193.875,792.2031 C193.625,792.3594 193.4688,792.6563 193.4688,792.9375 C193.4688,793.2188 193.6094,793.4688 193.8281,793.6406 C193.9844,793.75 194.1719,793.7813 194.5938,793.7813 L194.8438,793.7813 L194.8438,800.2969 L194.5938,800.2969 C194.1875,800.2969 194.0313,800.3125 193.875,800.4219 C193.625,800.5938 193.4688,800.8594 193.4688,801.1563 C193.4688,801.4219 193.6094,801.6719 193.8281,801.8281 C193.9688,801.9531 194.2031,802 194.5938,802 L202.5938,802 L202.5938,799.4219 C202.5938,798.9844 202.5625,798.8438 202.4844,798.6875 C202.3125,798.4375 202.0313,798.2813 201.75,798.2813 C201.4844,798.2813 201.2188,798.3906 201.0469,798.6406 C200.9375,798.7969 200.9063,798.9375 200.9063,799.4219 L200.9063,800.2969 L196.5469,800.2969 L196.5469,797.875 Z " fill="#000000"/><text fill="#000000" font-family="sans-serif" font-size="14" lengthAdjust="spacing" textLength="60" x="218.25" y="801.8467">Transfer</text><line style="stroke:#181818;stroke-width:0.5;" x1="148.5" x2="315.5" y1="813" y2="813"/><ellipse cx="158.5" cy="824" fill="none" rx="3" ry="3" style="stroke:#038048;stroke-width:1.0;"/><text fill="#000000" font-family="sans-serif" font-size="14" lengthAdjust="spacing" textLength="61" x="167.5" y="829.9951">id : Long</text><ellipse cx="158.5" cy="840.2969" fill="none" rx="3" ry="3" style="stroke:#038048;stroke-width:1.0;"/><text fill="#000000" font-family="sans-serif" font-size="14" lengthAdjust="spacing" textLength="143" x="167.5" y="846.292">amountInCents : int</text><ellipse cx="158.5" cy="856.5938" fill="none" rx="3" ry="3" style="stroke:#038048;stroke-width:1.0;"/><text fill="#000000" font-family="sans-serif" font-size="14" lengthAdjust="spacing" textLength="129" x="167.5" y="862.5889">time : Timestamp</text><line style="stroke:#181818;stroke-width:0.5;" x1="148.5" x2="315.5" y1="869.8906" y2="869.8906"/></g><!--MD5=[093c210125347143eef5bb9199eae634]
class UserRepository--><g id="elem_UserRepository"><rect codeLine="77" fill="#F1F1F1" height="64.2969" id="UserRepository" rx="2.5" ry="2.5" style="stroke:#181818;stroke-width:0.5;" width="140" x="408" y="427.5"/><ellipse cx="423" cy="443.5" fill="#B4A7E5" rx="11" ry="11" style="stroke:#181818;stroke-width:1.0;"/><path d="M423.9531,440.2813 L425.6719,440.2813 C426.0625,440.2813 426.25,440.25 426.375,440.1719 C426.6406,440.0156 426.7813,439.7344 426.7813,439.4375 C426.7813,439.1719 426.6719,438.9063 426.4375,438.7344 C426.2656,438.625 426.125,438.5938 425.6719,438.5938 L420.5313,438.5938 C420.0938,438.5938 419.9688,438.6094 419.8125,438.7031 C419.5625,438.8594 419.4063,439.1563 419.4063,439.4375 C419.4063,439.7188 419.5469,439.9688 419.7656,440.1406 C419.9219,440.25 420.1094,440.2813 420.5313,440.2813 L422.25,440.2813 L422.25,446.7969 L420.5313,446.7969 C420.0938,446.7969 419.9688,446.8125 419.8125,446.9219 C419.5625,447.0781 419.4063,447.3594 419.4063,447.6563 C419.4063,447.9063 419.5469,448.1719 419.7656,448.3281 C419.9219,448.4531 420.125,448.5 420.5313,448.5 L425.6719,448.5 C426.4219,448.5 426.7813,448.2188 426.7813,447.6563 C426.7813,447.375 426.6719,447.125 426.4375,446.9531 C426.2656,446.8281 426.125,446.7969 425.6719,446.7969 L423.9531,446.7969 L423.9531,440.2813 Z " fill="#000000"/><text fill="#000000" font-family="sans-serif" font-size="14" font-style="italic" lengthAdjust="spacing" textLength="108" x="437" y="448.3467">UserRepository</text><line style="stroke:#181818;stroke-width:0.5;" x1="409" x2="547" y1="459.5" y2="459.5"/><line style="stroke:#181818;stroke-width:0.5;" x1="409" x2="547" y1="467.5" y2="467.5"/><ellipse cx="419" cy="478.5" fill="#84BE84" rx="3" ry="3" style="stroke:#038048;stroke-width:1.0;"/><text fill="#000000" font-family="sans-serif" font-size="14" lengthAdjust="spacing" textLength="95" x="428" y="484.4951">findByEmail()</text></g><!--MD5=[f11d4d4ca99735300641110a0d70624f]
class TransferRepository--><g id="elem_TransferRepository"><rect codeLine="80" fill="#F1F1F1" height="80.5938" id="TransferRepository" rx="2.5" ry="2.5" style="stroke:#181818;stroke-width:0.5;" width="168" x="583" y="419"/><ellipse cx="598" cy="435" fill="#B4A7E5" rx="11" ry="11" style="stroke:#181818;stroke-width:1.0;"/><path d="M598.9531,431.7813 L600.6719,431.7813 C601.0625,431.7813 601.25,431.75 601.375,431.6719 C601.6406,431.5156 601.7813,431.2344 601.7813,430.9375 C601.7813,430.6719 601.6719,430.4063 601.4375,430.2344 C601.2656,430.125 601.125,430.0938 600.6719,430.0938 L595.5313,430.0938 C595.0938,430.0938 594.9688,430.1094 594.8125,430.2031 C594.5625,430.3594 594.4063,430.6563 594.4063,430.9375 C594.4063,431.2188 594.5469,431.4688 594.7656,431.6406 C594.9219,431.75 595.1094,431.7813 595.5313,431.7813 L597.25,431.7813 L597.25,438.2969 L595.5313,438.2969 C595.0938,438.2969 594.9688,438.3125 594.8125,438.4219 C594.5625,438.5781 594.4063,438.8594 594.4063,439.1563 C594.4063,439.4063 594.5469,439.6719 594.7656,439.8281 C594.9219,439.9531 595.125,440 595.5313,440 L600.6719,440 C601.4219,440 601.7813,439.7188 601.7813,439.1563 C601.7813,438.875 601.6719,438.625 601.4375,438.4531 C601.2656,438.3281 601.125,438.2969 600.6719,438.2969 L598.9531,438.2969 L598.9531,431.7813 Z " fill="#000000"/><text fill="#000000" font-family="sans-serif" font-size="14" font-style="italic" lengthAdjust="spacing" textLength="136" x="612" y="439.8467">TransferRepository</text><line style="stroke:#181818;stroke-width:0.5;" x1="584" x2="750" y1="451" y2="451"/><line style="stroke:#181818;stroke-width:0.5;" x1="584" x2="750" y1="459" y2="459"/><ellipse cx="594" cy="470" fill="#84BE84" rx="3" ry="3" style="stroke:#038048;stroke-width:1.0;"/><text fill="#000000" font-family="sans-serif" font-size="14" lengthAdjust="spacing" textLength="107" x="603" y="475.9951">findBySender()</text><ellipse cx="594" cy="486.2969" fill="#84BE84" rx="3" ry="3" style="stroke:#038048;stroke-width:1.0;"/><text fill="#000000" font-family="sans-serif" font-size="14" lengthAdjust="spacing" textLength="119" x="603" y="492.292">findByReceiver()</text></g><!--MD5=[fc70648a5dfee0e9da908f8ada3105fd]
class WalletRepository--><g id="elem_WalletRepository"><rect codeLine="84" fill="#F1F1F1" height="48" id="WalletRepository" rx="2.5" ry="2.5" style="stroke:#181818;stroke-width:0.5;" width="153" x="786.5" y="435.5"/><ellipse cx="801.5" cy="451.5" fill="#B4A7E5" rx="11" ry="11" style="stroke:#181818;stroke-width:1.0;"/><path d="M802.4531,448.2813 L804.1719,448.2813 C804.5625,448.2813 804.75,448.25 804.875,448.1719 C805.1406,448.0156 805.2813,447.7344 805.2813,447.4375 C805.2813,447.1719 805.1719,446.9063 804.9375,446.7344 C804.7656,446.625 804.625,446.5938 804.1719,446.5938 L799.0313,446.5938 C798.5938,446.5938 798.4688,446.6094 798.3125,446.7031 C798.0625,446.8594 797.9063,447.1563 797.9063,447.4375 C797.9063,447.7188 798.0469,447.9688 798.2656,448.1406 C798.4219,448.25 798.6094,448.2813 799.0313,448.2813 L800.75,448.2813 L800.75,454.7969 L799.0313,454.7969 C798.5938,454.7969 798.4688,454.8125 798.3125,454.9219 C798.0625,455.0781 797.9063,455.3594 797.9063,455.6563 C797.9063,455.9063 798.0469,456.1719 798.2656,456.3281 C798.4219,456.4531 798.625,456.5 799.0313,456.5 L804.1719,456.5 C804.9219,456.5 805.2813,456.2188 805.2813,455.6563 C805.2813,455.375 805.1719,455.125 804.9375,454.9531 C804.7656,454.8281 804.625,454.7969 804.1719,454.7969 L802.4531,454.7969 L802.4531,448.2813 Z " fill="#000000"/><text fill="#000000" font-family="sans-serif" font-size="14" font-style="italic" lengthAdjust="spacing" textLength="121" x="815.5" y="456.3467">WalletRepository</text><line style="stroke:#181818;stroke-width:0.5;" x1="787.5" x2="938.5" y1="467.5" y2="467.5"/><line style="stroke:#181818;stroke-width:0.5;" x1="787.5" x2="938.5" y1="475.5" y2="475.5"/></g><!--MD5=[46be0f02d3ccb60e27af689741ef5b84]
class UserDetails--><g id="elem_UserDetails"><rect codeLine="1" fill="#F1F1F1" height="80.5938" id="UserDetails" rx="2.5" ry="2.5" style="stroke:#181818;stroke-width:0.5;" width="133" x="179.5" y="41"/><ellipse cx="203.5" cy="57" fill="#B4A7E5" rx="11" ry="11" style="stroke:#181818;stroke-width:1.0;"/><path d="M204.4531,53.7813 L206.1719,53.7813 C206.5625,53.7813 206.75,53.75 206.875,53.6719 C207.1406,53.5156 207.2813,53.2344 207.2813,52.9375 C207.2813,52.6719 207.1719,52.4063 206.9375,52.2344 C206.7656,52.125 206.625,52.0938 206.1719,52.0938 L201.0313,52.0938 C200.5938,52.0938 200.4688,52.1094 200.3125,52.2031 C200.0625,52.3594 199.9063,52.6563 199.9063,52.9375 C199.9063,53.2188 200.0469,53.4688 200.2656,53.6406 C200.4219,53.75 200.6094,53.7813 201.0313,53.7813 L202.75,53.7813 L202.75,60.2969 L201.0313,60.2969 C200.5938,60.2969 200.4688,60.3125 200.3125,60.4219 C200.0625,60.5781 199.9063,60.8594 199.9063,61.1563 C199.9063,61.4063 200.0469,61.6719 200.2656,61.8281 C200.4219,61.9531 200.625,62 201.0313,62 L206.1719,62 C206.9219,62 207.2813,61.7188 207.2813,61.1563 C207.2813,60.875 207.1719,60.625 206.9375,60.4531 C206.7656,60.3281 206.625,60.2969 206.1719,60.2969 L204.4531,60.2969 L204.4531,53.7813 Z " fill="#000000"/><text fill="#000000" font-family="sans-serif" font-size="14" font-style="italic" lengthAdjust="spacing" textLength="81" x="219.5" y="61.8467">UserDetails</text><line style="stroke:#181818;stroke-width:0.5;" x1="180.5" x2="311.5" y1="73" y2="73"/><line style="stroke:#181818;stroke-width:0.5;" x1="180.5" x2="311.5" y1="81" y2="81"/><ellipse cx="190.5" cy="92" fill="#84BE84" rx="3" ry="3" style="stroke:#038048;stroke-width:1.0;"/><text fill="#000000" font-family="sans-serif" font-size="14" lengthAdjust="spacing" textLength="101" x="199.5" y="97.9951">getPassword()</text><ellipse cx="190.5" cy="108.2969" fill="#84BE84" rx="3" ry="3" style="stroke:#038048;stroke-width:1.0;"/><text fill="#000000" font-family="sans-serif" font-size="14" lengthAdjust="spacing" textLength="107" x="199.5" y="114.292">getUserName()</text></g><!--MD5=[d56ded55cff2e72b4920954b80e938e0]
class UserDetailService--><g id="elem_UserDetailService"><rect codeLine="5" fill="#F1F1F1" height="64.2969" id="UserDetailService" rx="2.5" ry="2.5" style="stroke:#181818;stroke-width:0.5;" width="186" x="349" y="49.5"/><ellipse cx="376.15" cy="65.5" fill="#B4A7E5" rx="11" ry="11" style="stroke:#181818;stroke-width:1.0;"/><path d="M377.1031,62.2813 L378.8219,62.2813 C379.2125,62.2813 379.4,62.25 379.525,62.1719 C379.7906,62.0156 379.9313,61.7344 379.9313,61.4375 C379.9313,61.1719 379.8219,60.9063 379.5875,60.7344 C379.4156,60.625 379.275,60.5938 378.8219,60.5938 L373.6813,60.5938 C373.2438,60.5938 373.1188,60.6094 372.9625,60.7031 C372.7125,60.8594 372.5563,61.1563 372.5563,61.4375 C372.5563,61.7188 372.6969,61.9688 372.9156,62.1406 C373.0719,62.25 373.2594,62.2813 373.6813,62.2813 L375.4,62.2813 L375.4,68.7969 L373.6813,68.7969 C373.2438,68.7969 373.1188,68.8125 372.9625,68.9219 C372.7125,69.0781 372.5563,69.3594 372.5563,69.6563 C372.5563,69.9063 372.6969,70.1719 372.9156,70.3281 C373.0719,70.4531 373.275,70.5 373.6813,70.5 L378.8219,70.5 C379.5719,70.5 379.9313,70.2188 379.9313,69.6563 C379.9313,69.375 379.8219,69.125 379.5875,68.9531 C379.4156,68.8281 379.275,68.7969 378.8219,68.7969 L377.1031,68.7969 L377.1031,62.2813 Z " fill="#000000"/><text fill="#000000" font-family="sans-serif" font-size="14" font-style="italic" lengthAdjust="spacing" textLength="127" x="392.85" y="70.3467">UserDetailService</text><line style="stroke:#181818;stroke-width:0.5;" x1="350" x2="534" y1="81.5" y2="81.5"/><line style="stroke:#181818;stroke-width:0.5;" x1="350" x2="534" y1="89.5" y2="89.5"/><ellipse cx="360" cy="100.5" fill="#84BE84" rx="3" ry="3" style="stroke:#038048;stroke-width:1.0;"/><text fill="#000000" font-family="sans-serif" font-size="14" lengthAdjust="spacing" textLength="160" x="369" y="106.4951">loadUserByUsername()</text></g><!--MD5=[a22c849ed96258a4b20be860721aede8]
class WebMvcConfigurer--><g id="elem_WebMvcConfigurer"><rect codeLine="8" fill="#F1F1F1" height="64.2969" id="WebMvcConfigurer" rx="2.5" ry="2.5" style="stroke:#181818;stroke-width:0.5;" width="224" x="878" y="595.5"/><ellipse cx="918.2" cy="611.5" fill="#B4A7E5" rx="11" ry="11" style="stroke:#181818;stroke-width:1.0;"/><path d="M919.1531,608.2813 L920.8719,608.2813 C921.2625,608.2813 921.45,608.25 921.575,608.1719 C921.8406,608.0156 921.9813,607.7344 921.9813,607.4375 C921.9813,607.1719 921.8719,606.9063 921.6375,606.7344 C921.4656,606.625 921.325,606.5938 920.8719,606.5938 L915.7313,606.5938 C915.2938,606.5938 915.1688,606.6094 915.0125,606.7031 C914.7625,606.8594 914.6063,607.1563 914.6063,607.4375 C914.6063,607.7188 914.7469,607.9688 914.9656,608.1406 C915.1219,608.25 915.3094,608.2813 915.7313,608.2813 L917.45,608.2813 L917.45,614.7969 L915.7313,614.7969 C915.2938,614.7969 915.1688,614.8125 915.0125,614.9219 C914.7625,615.0781 914.6063,615.3594 914.6063,615.6563 C914.6063,615.9063 914.7469,616.1719 914.9656,616.3281 C915.1219,616.4531 915.325,616.5 915.7313,616.5 L920.8719,616.5 C921.6219,616.5 921.9813,616.2188 921.9813,615.6563 C921.9813,615.375 921.8719,615.125 921.6375,614.9531 C921.4656,614.8281 921.325,614.7969 920.8719,614.7969 L919.1531,614.7969 L919.1531,608.2813 Z " fill="#000000"/><text fill="#000000" font-family="sans-serif" font-size="14" font-style="italic" lengthAdjust="spacing" textLength="136" x="937.8" y="616.3467">WebMvcConfigurer</text><line style="stroke:#181818;stroke-width:0.5;" x1="879" x2="1101" y1="627.5" y2="627.5"/><line style="stroke:#181818;stroke-width:0.5;" x1="879" x2="1101" y1="635.5" y2="635.5"/><ellipse cx="889" cy="646.5" fill="#84BE84" rx="3" ry="3" style="stroke:#038048;stroke-width:1.0;"/><text fill="#000000" font-family="sans-serif" font-size="14" lengthAdjust="spacing" textLength="198" x="898" y="652.4951">public addViewControllers()</text></g><!--MD5=[5d9d7f361cf9aacac4ee237afb90f58a]
class JpaRepository--><g id="elem_JpaRepository"><rect codeLine="11" fill="#F1F1F1" height="64.2969" id="JpaRepository" rx="2.5" ry="2.5" style="stroke:#181818;stroke-width:0.5;" width="134" x="600" y="595.5"/><ellipse cx="616.8" cy="611.5" fill="#B4A7E5" rx="11" ry="11" style="stroke:#181818;stroke-width:1.0;"/><path d="M617.7531,608.2813 L619.4719,608.2813 C619.8625,608.2813 620.05,608.25 620.175,608.1719 C620.4406,608.0156 620.5813,607.7344 620.5813,607.4375 C620.5813,607.1719 620.4719,606.9063 620.2375,606.7344 C620.0656,606.625 619.925,606.5938 619.4719,606.5938 L614.3313,606.5938 C613.8938,606.5938 613.7688,606.6094 613.6125,606.7031 C613.3625,606.8594 613.2063,607.1563 613.2063,607.4375 C613.2063,607.7188 613.3469,607.9688 613.5656,608.1406 C613.7219,608.25 613.9094,608.2813 614.3313,608.2813 L616.05,608.2813 L616.05,614.7969 L614.3313,614.7969 C613.8938,614.7969 613.7688,614.8125 613.6125,614.9219 C613.3625,615.0781 613.2063,615.3594 613.2063,615.6563 C613.2063,615.9063 613.3469,616.1719 613.5656,616.3281 C613.7219,616.4531 613.925,616.5 614.3313,616.5 L619.4719,616.5 C620.2219,616.5 620.5813,616.2188 620.5813,615.6563 C620.5813,615.375 620.4719,615.125 620.2375,614.9531 C620.0656,614.8281 619.925,614.7969 619.4719,614.7969 L617.7531,614.7969 L617.7531,608.2813 Z " fill="#000000"/><text fill="#000000" font-family="sans-serif" font-size="14" font-style="italic" lengthAdjust="spacing" textLength="98" x="631.2" y="616.3467">JpaRepository</text><line style="stroke:#181818;stroke-width:0.5;" x1="601" x2="733" y1="627.5" y2="627.5"/><line style="stroke:#181818;stroke-width:0.5;" x1="601" x2="733" y1="635.5" y2="635.5"/><ellipse cx="611" cy="646.5" fill="#84BE84" rx="3" ry="3" style="stroke:#038048;stroke-width:1.0;"/><text fill="#000000" font-family="sans-serif" font-size="14" lengthAdjust="spacing" textLength="108" x="620" y="652.4951">CRUD methods</text></g><!--MD5=[b4b656aa6a2eed74038f2efd880f9bc1]
class space--><!--MD5=[54c79813a866b8206d079d73afa8a1f3]
reverse link WebMvcConfigurer to WebMvcConfiguration--><g id="link_WebMvcConfigurer_WebMvcConfiguration"><path d="M990,679.97 C990,720.389 990,774.771 990,805.264 " fill="none" id="WebMvcConfigurer-backto-WebMvcConfiguration" style="stroke:#181818;stroke-width:1.0;stroke-dasharray:7.0,7.0;"/><polygon fill="none" points="983,679.75,990,659.75,997,679.75,983,679.75" style="stroke:#181818;stroke-width:1.0;"/></g><!--MD5=[40500d079abad8955bebcc5e7556d08e]
reverse link UserDetailService to UserService--><g id="link_UserDetailService_UserService"><path d="M446.291,133.702 C449.18,168.186 452.853,212.018 455.061,238.357 " fill="none" id="UserDetailService-backto-UserService" style="stroke:#181818;stroke-width:1.0;stroke-dasharray:7.0,7.0;"/><polygon fill="none" points="439.307,134.194,444.613,113.679,453.259,133.025,439.307,134.194" style="stroke:#181818;stroke-width:1.0;"/></g><!--MD5=[fba60fc5472b7ff96612f119de625d14]
reverse link UserDetails to UserPrincipal--><g id="link_UserDetails_UserPrincipal"><path d="M244.665,142.248 C243.93,175.149 243.059,214.101 242.518,238.311 " fill="none" id="UserDetails-backto-UserPrincipal" style="stroke:#181818;stroke-width:1.0;stroke-dasharray:7.0,7.0;"/><polygon fill="none" points="237.667,142.064,245.112,122.226,251.664,142.377,237.667,142.064" style="stroke:#181818;stroke-width:1.0;"/></g><!--MD5=[c2c0fbd2207e409a3917dc34662f2928]
link TransferViewController to WalletService--><g id="link_TransferViewController_WalletService"><path codeLine="88" d="M742.7375,130.7354 C742.7375,130.7354 764.947,152.749 775,163 C785.444,173.649 796.421,185.068 807.026,196.22 " fill="none" id="TransferViewController-WalletService" style="stroke:#181818;stroke-width:1.0;"/><polygon fill="#181818" points="816.227,205.927,812.9392,196.6431,812.7875,202.298,807.1327,202.1463,816.227,205.927" style="stroke:#181818;stroke-width:1.0;"/><line style="stroke:#181818;stroke-width:1.0;" x1="812.7875" x2="807.2835" y1="202.298" y2="196.492"/><polygon fill="#181818" points="734.178,122.325,735.6542,129.3834,742.7375,130.7354,741.2612,123.6771,734.178,122.325" style="stroke:#181818;stroke-width:1.0;"/></g><!--MD5=[dcc81ba93d61e664aa49cdda16a92e04]
link AddContactViewController to WalletService--><g id="link_AddContactViewController_WalletService"><path codeLine="89" d="M934.096,132.8986 C934.096,132.8986 912.885,174.17 902.645,194.093 " fill="none" id="AddContactViewController-WalletService" style="stroke:#181818;stroke-width:1.0;"/><polygon fill="#181818" points="896.56,205.932,904.232,199.7562,898.8458,201.4851,897.1169,196.0989,896.56,205.932" style="stroke:#181818;stroke-width:1.0;"/><line style="stroke:#181818;stroke-width:1.0;" x1="898.8458" x2="902.5025" y1="201.4851" y2="194.37"/><polygon fill="#181818" points="939.582,122.226,933.2815,125.7336,934.096,132.8986,940.3965,129.391,939.582,122.226" style="stroke:#181818;stroke-width:1.0;"/></g><!--MD5=[9d133f4be1aa855a0f7e9812cd84d12c]
link TransferService to WalletService--><g id="link_TransferService_WalletService"><path codeLine="91" d="M769.785,262.5 C769.785,262.5 776.284,262.5 778.942,262.5 " fill="none" id="TransferService-WalletService" style="stroke:#181818;stroke-width:1.0;"/><polygon fill="#181818" points="792.227,262.5,783.227,258.5,787.227,262.5,783.227,266.5,792.227,262.5" style="stroke:#181818;stroke-width:1.0;"/><line style="stroke:#181818;stroke-width:1.0;" x1="787.227" x2="779.227" y1="262.5" y2="262.5"/><polygon fill="#181818" points="757.785,262.5,763.785,266.5,769.785,262.5,763.785,258.5,757.785,262.5" style="stroke:#181818;stroke-width:1.0;"/></g><!--MD5=[7920165c3d2c7c57eda68972ca54daec]
reverse link UserPrincipal to UserService--><g id="link_UserPrincipal_UserService"><path codeLine="92" d="M310.08,262.5 C335.237,262.5 363.736,262.5 388.895,262.5 " fill="none" id="UserPrincipal-backto-UserService" style="stroke:#181818;stroke-width:1.0;stroke-dasharray:7.0,7.0;"/><polygon fill="#181818" points="304.765,262.5,313.765,266.5,309.765,262.5,313.765,258.5,304.765,262.5" style="stroke:#181818;stroke-width:1.0;"/><text fill="#000000" font-family="sans-serif" font-size="13" lengthAdjust="spacing" textLength="48" x="322.75" y="255.5669">creates</text></g><!--MD5=[716d7c6e97d70bef18dbe3eea74a0dde]
link UserPrincipal to User--><g id="link_UserPrincipal_User"><path codeLine="93" d="M239.4805,298.6042 C239.4805,298.6042 234.675,365.532 232.375,397.557 " fill="none" id="UserPrincipal-User" style="stroke:#181818;stroke-width:1.0;"/><polygon fill="#181818" points="231.421,410.856,236.0546,402.1652,231.7787,405.8688,228.0751,401.5929,231.421,410.856" style="stroke:#181818;stroke-width:1.0;"/><line style="stroke:#181818;stroke-width:1.0;" x1="231.7787" x2="232.3515" y1="405.8688" y2="397.8895"/><polygon fill="#181818" points="240.339,286.635,235.92,292.3334,239.4805,298.6042,243.8995,292.9058,240.339,286.635" style="stroke:#181818;stroke-width:1.0;"/><text fill="#000000" font-family="sans-serif" font-size="13" lengthAdjust="spacing" textLength="4" x="235.4466" y="306.4291"></text><text fill="#000000" font-family="sans-serif" font-size="13" lengthAdjust="spacing" textLength="8" x="214.7771" y="400.0447">1</text></g><!--MD5=[c6100b592e29ab2a9436cfea8d37588a]
link User to Wallet--><g id="link_User_Wallet"><path codeLine="94" d="M225.073,521.232 C224.371,535.792 222.8706,566.9379 222.8706,566.9379 " fill="none" id="User-Wallet" style="stroke:#181818;stroke-width:1.0;"/><polygon fill="none" points="222.293,578.924,226.5772,573.1235,222.8706,566.9379,218.5864,572.7384,222.293,578.924" style="stroke:#181818;stroke-width:1.0;"/><polygon fill="#181818" points="225.708,508.069,221.2794,516.866,225.4673,513.0632,229.2702,517.2511,225.708,508.069" style="stroke:#181818;stroke-width:1.0;"/><line style="stroke:#181818;stroke-width:1.0;" x1="225.4673" x2="225.0815" y1="513.0632" y2="521.054"/><text fill="#000000" font-family="sans-serif" font-size="13" lengthAdjust="spacing" textLength="8" x="208.2607" y="528.0376">1</text><text fill="#000000" font-family="sans-serif" font-size="13" lengthAdjust="spacing" textLength="8" x="205.4548" y="567.7725">1</text></g><!--MD5=[75f4e9f67daccebfc332227ffe701565]
link Wallet to Transfer--><g id="link_Wallet_Transfer"><path codeLine="95" d="M223.644,689.235 C225.139,714.156 228.4233,768.8895 228.4233,768.8895 " fill="none" id="Wallet-Transfer" style="stroke:#181818;stroke-width:1.0;"/><polygon fill="#181818" points="229.142,780.868,232.7755,774.6392,228.4233,768.8895,224.7898,775.1183,229.142,780.868" style="stroke:#181818;stroke-width:1.0;"/><polygon fill="#181818" points="222.859,676.151,219.4052,685.3744,223.1584,681.142,227.3908,684.8953,222.859,676.151" style="stroke:#181818;stroke-width:1.0;"/><line style="stroke:#181818;stroke-width:1.0;" x1="223.1584" x2="223.638" y1="681.142" y2="689.1275"/><text fill="#000000" font-family="sans-serif" font-size="13" lengthAdjust="spacing" textLength="52" x="228" y="719.0669">sender /</text><text fill="#000000" font-family="sans-serif" font-size="13" lengthAdjust="spacing" textLength="52" x="238" y="734.1997">receiver</text><text fill="#000000" font-family="sans-serif" font-size="13" lengthAdjust="spacing" textLength="8" x="206.136" y="696.1312">2</text><text fill="#000000" font-family="sans-serif" font-size="13" lengthAdjust="spacing" textLength="23" x="195.2792" y="770.0584">0..*</text></g><!--MD5=[911b35b2ef63350d3e6ab25956d41cba]
link Wallet to Contact--><g id="link_Wallet_Contact"><path codeLine="96" d="M175.342,686.769 C160.87,705.66 144.749,726.715 130,746 C117.666,762.127 91.9229,795.839 91.9229,795.839 " fill="none" id="Wallet-Contact" style="stroke:#181818;stroke-width:1.0;"/><polygon fill="#181818" points="84.6423,805.378,91.4623,803.0354,91.9229,795.839,85.1029,798.1816,84.6423,805.378" style="stroke:#181818;stroke-width:1.0;"/><polygon fill="#181818" points="183.42,676.224,174.7715,680.9361,180.3794,680.1932,181.1222,685.8011,183.42,676.224" style="stroke:#181818;stroke-width:1.0;"/><line style="stroke:#181818;stroke-width:1.0;" x1="180.3794" x2="175.514" y1="680.1932" y2="686.544"/><text fill="#000000" font-family="sans-serif" font-size="13" lengthAdjust="spacing" textLength="8" x="157.1608" y="695.8623">2</text><text fill="#000000" font-family="sans-serif" font-size="13" lengthAdjust="spacing" textLength="23" x="53.6788" y="794.3588">0..*</text></g><!--MD5=[5fb5cea8d0ced273abb0825de5d33651]
link UserService to UserRepository--><g id="link_UserService_UserRepository"><path codeLine="97" d="M460.7755,298.5661 C460.7755,298.5661 469.511,379.674 473.242,414.319 " fill="none" id="UserService-UserRepository" style="stroke:#181818;stroke-width:1.0;"/><polygon fill="#181818" points="474.647,427.364,477.6608,417.9876,474.1119,422.3927,469.7067,418.8438,474.647,427.364" style="stroke:#181818;stroke-width:1.0;"/><line style="stroke:#181818;stroke-width:1.0;" x1="474.1119" x2="473.255" y1="422.3927" y2="414.439"/><polygon fill="#181818" points="459.491,286.635,456.1562,293.0287,460.7755,298.5661,464.1103,292.1724,459.491,286.635" style="stroke:#181818;stroke-width:1.0;"/></g><!--MD5=[c702a32cdacb65ca046b8cc70fad2ec4]
link WalletService to WalletRepository--><g id="link_WalletService_WalletRepository"><path codeLine="98" d="M866.2654,331.114 C866.2654,331.114 864.579,396.922 863.935,422.044 " fill="none" id="WalletService-WalletRepository" style="stroke:#181818;stroke-width:1.0;"/><polygon fill="#181818" points="863.594,435.339,867.8241,426.4448,863.7226,430.3407,859.8268,426.2391,863.594,435.339" style="stroke:#181818;stroke-width:1.0;"/><line style="stroke:#181818;stroke-width:1.0;" x1="863.7226" x2="863.9275" y1="430.3407" y2="422.343"/><polygon fill="#181818" points="866.574,319.118,862.421,325.0132,866.2654,331.114,870.4184,325.2189,866.574,319.118" style="stroke:#181818;stroke-width:1.0;"/></g><!--MD5=[8dbeb6a0e09c31a77de62a5b2a1eae03]
link TransferService to TransferRepository--><g id="link_TransferService_TransferRepository"><path codeLine="99" d="M661.1299,315.4219 C661.1299,315.4219 663.709,378.278 664.843,405.93 " fill="none" id="TransferService-TransferRepository" style="stroke:#181818;stroke-width:1.0;"/><polygon fill="#181818" points="665.378,418.955,669.0058,409.7986,665.1731,413.9592,661.0125,410.1265,665.378,418.955" style="stroke:#181818;stroke-width:1.0;"/><line style="stroke:#181818;stroke-width:1.0;" x1="665.1731" x2="664.8445" y1="413.9592" y2="405.9665"/><polygon fill="#181818" points="660.638,303.432,656.8873,309.5909,661.1299,315.4219,664.8806,309.263,660.638,303.432" style="stroke:#181818;stroke-width:1.0;"/></g><!--MD5=[fa4da2e1c5845a66f9239b65b96d49c7]
link repository to User--><g id="link_repository_User"><path codeLine="100" d="M364.9242,459.5 C364.7569,459.5 364.5896,459.5 364.4223,459.5 C361.745,459.5 359.0678,459.5 356.3905,459.5 C351.036,459.5 345.6815,459.5 340.327,459.5 C329.618,459.5 318.909,459.5 308.2,459.5 " fill="none" id="repository-to-User" style="stroke:#181818;stroke-width:1.0;stroke-dasharray:7.0,7.0;"/><polygon fill="#181818" points="303.049,459.5,312.049,463.5,308.049,459.5,312.049,455.5,303.049,459.5" style="stroke:#181818;stroke-width:1.0;"/></g><!--MD5=[8fe639c730721ff0ed1d2662bb0724fe]
link repository to Wallet--><g id="link_repository_Wallet"><path codeLine="101" d="M364.9293,482.8767 C364.8836,482.9899 364.8378,483.1034 364.7918,483.2172 C364.6077,483.6722 364.4207,484.1317 364.2307,484.5953 C363.4709,486.4499 362.6641,488.3714 361.8113,490.3449 C354.9888,506.1328 345.222,525.246 333,540 C322.43,552.759 309.644,564.77 296.527,575.548 " fill="none" id="repository-to-Wallet" style="stroke:#181818;stroke-width:1.0;stroke-dasharray:7.0,7.0;"/><polygon fill="#181818" points="292.448,578.853,301.9589,576.2952,296.3329,575.7054,296.9227,570.0793,292.448,578.853" style="stroke:#181818;stroke-width:1.0;"/></g><!--MD5=[8e9856e3cee86d228bdd6131930cb3f6]
link repository to Transfer--><g id="link_repository_Transfer"><path codeLine="103" d="M366.126,524.6783 C366.0734,525.0497 366.0205,525.4223 365.9672,525.796 C365.754,527.291 365.5349,528.8043 365.3096,530.3353 C364.8589,533.3974 364.3837,536.53 363.8828,539.727 C362.8809,546.121 361.7761,552.7722 360.559,559.6301 C350.822,614.4933 333.8975,682.583 305,738 C298.04,751.347 288.941,764.598 279.539,776.675 " fill="none" id="repository-to-Transfer" style="stroke:#181818;stroke-width:1.0;stroke-dasharray:7.0,7.0;"/><polygon fill="#181818" points="276.342,780.724,285.0597,776.1412,279.4414,776.8005,278.7821,771.1822,276.342,780.724" style="stroke:#181818;stroke-width:1.0;"/><text fill="#000000" font-family="sans-serif" font-size="13" lengthAdjust="spacing" textLength="99" x="358" y="632.0669">creates entities</text></g><!--MD5=[0e7528f3b6af38a8f1d02c67f27796bc]
link UserRepository to JpaRepository--><g id="link_UserRepository_JpaRepository"><path codeLine="105" d="M511.616,491.752 C527.653,506.523 547.186,524.317 565,540 C580.651,553.778 597.873,568.535 613.638,581.887 " fill="none" id="UserRepository-to-JpaRepository" style="stroke:#181818;stroke-width:1.0;"/><polygon fill="none" points="618.639,576.947,629.413,595.194,609.612,587.649,618.639,576.947" style="stroke:#181818;stroke-width:1.0;"/></g><!--MD5=[467b53136cf9303ce0df21f70747812b]
link TransferRepository to JpaRepository--><g id="link_TransferRepository_JpaRepository"><path codeLine="106" d="M667,500.261 C667,522.7 667,550.988 667,575.096 " fill="none" id="TransferRepository-to-JpaRepository" style="stroke:#181818;stroke-width:1.0;"/><polygon fill="none" points="674,575.362,667,595.362,660,575.362,674,575.362" style="stroke:#181818;stroke-width:1.0;"/></g><!--MD5=[c589b19a0a1b47a5e4ffff4c9c36e4ff]
link WalletRepository to JpaRepository--><g id="link_WalletRepository_JpaRepository"><path codeLine="107" d="M835.747,483.582 C805.651,509.071 756.493,550.705 718.977,582.479 " fill="none" id="WalletRepository-to-JpaRepository" style="stroke:#181818;stroke-width:1.0;"/><polygon fill="none" points="723.487,587.832,703.701,595.417,714.439,577.149,723.487,587.832" style="stroke:#181818;stroke-width:1.0;"/></g><!--MD5=[a87d42d7a139ebd305ae5e65bc6aa8f2]
link UserService to TransferService--><!--MD5=[5036acc05792d4804a297614c2434e11]
link UserDetails to UserDetailService--><!--MD5=[4f0d84a0a1419f405b8ef9cce96ae075]
link SpringSecurityConfig to WebMvcConfiguration--><!--MD5=[6c200bb5f30a017c98c828d567aa9440]
link JpaRepository to space--><!--MD5=[b063aab851781146aea5bf6ec97179e5]
link space to WebMvcConfigurer--><!--MD5=[029f5923e4f5bf495347b6a3774dc1cd]
@startuml
interface UserDetails {
  +getPassword()
  +getUserName()
}
interface UserDetailService {
  +loadUserByUsername()
}
interface WebMvcConfigurer {
  +public addViewControllers()
}
interface JpaRepository {
  +{method} CRUD methods
}

package configuration {
  class SpringSecurityConfig< 1 > {
    +securityFilterChain()
    +getPasswordEncoder()
  }
    class WebMvcConfiguration< 1 > implements WebMvcConfigurer{
  }
}

package controller {
  class TransferViewController< 1 > {
    +getPage()
    +postPay()
  }
  class AddContactViewController< 1 > {
    +getPage()
    +postAdd()
  }
}

package service {
  class UserService< 1 > implements UserDetailService {
  }
  class WalletService< 1 > {
    +getContacts()
    +getTransfers()
    +addContact()
    +doTransfer()
  }
  class TransferService< 1 > {
    +getTransfersForWallet()
    +addTransfer()
  }
}

package model {
  class UserPrincipal implements UserDetails {
  }
  
  entity User #e4f7e6 {
    +id : Long
    +email : String
    +password : String
  }
  
  entity Wallet #e4f7e6 {
    +id : Long
    +profileName : String
    +balanceInCents : int
  }
  
  entity Contact #e4f7e6 {
  }
  
  entity Transfer #e4f7e6 {
    +id : Long
    +amountInCents : int
    +time : Timestamp
  }
}

package repository {
  interface UserRepository {
    +findByEmail()
  }
  interface TransferRepository {
    +findBySender()
    +findByReceiver()
  }
  interface WalletRepository {
  }
}

TransferViewController *- -> WalletService
AddContactViewController *- -> WalletService

TransferService *-> WalletService
UserPrincipal <. UserService : creates
UserPrincipal " " *- -> "1  " User
User "1  " <- -o "1  " Wallet
Wallet "2  " <- -* " 0..*  " Transfer : sender /    \n receiver
Wallet "2   " <- -* " 0..*  " Contact
UserService *- -> UserRepository
WalletService *- -> WalletRepository
TransferService *- -> TransferRepository
repository ..> User
repository ..> Wallet

repository ..> Transfer : creates entities

UserRepository - -|> JpaRepository
TransferRepository - -|> JpaRepository
WalletRepository - -|> JpaRepository

UserService .[hidden]> TransferService
UserDetails .[hidden]> UserDetailService
SpringSecurityConfig .[hidden]> WebMvcConfiguration
JpaRepository .[hidden]> space
space .[hidden]> WebMvcConfigurer
hide space
@enduml

PlantUML version 1.2022.7beta2(Unknown compile time)
(GPL source distribution)
Java Runtime: Java(TM) SE Runtime Environment
JVM: Java HotSpot(TM) 64-Bit Server VM
Default Encoding: UTF-8
Language: en
Country: US
--></g></svg>