<?xml version="1.0" encoding="UTF-8" standalone="no"?>
<svg xmlns="http://www.w3.org/2000/svg" xmlns:xlink="http://www.w3.org/1999/xlink" contentStyleType="text/css" height="678px" preserveAspectRatio="none" style="width:1433px;height:678px;background:#FFFFFF;" version="1.1" viewBox="0 0 1433 678" width="1433px" zoomAndPan="magnify"><defs/><g><!--MD5=[5a55b731792d22909a2631efc8afae35]
cluster configuration--><g id="cluster_configuration"><path d="M975.5,424 L1087.5,424 A3.75,3.75 0 0 1 1090,426.5 L1097,446.2969 L1423.5,446.2969 A2.5,2.5 0 0 1 1426,448.7969 L1426,668.5 A2.5,2.5 0 0 1 1423.5,671 L975.5,671 A2.5,2.5 0 0 1 973,668.5 L973,426.5 A2.5,2.5 0 0 1 975.5,424 " style="stroke:#000000;stroke-width:1.5;fill:none;"/><line style="stroke:#000000;stroke-width:1.5;fill:none;" x1="973" x2="1097" y1="446.2969" y2="446.2969"/><text fill="#000000" font-family="sans-serif" font-size="14" font-weight="bold" lengthAdjust="spacing" textLength="111" x="977" y="438.9951">configuration</text></g><!--MD5=[10ea673caf457862023e152271927b45]
cluster controller--><g id="cluster_controller"><path d="M632.5,152 L713.5,152 A3.75,3.75 0 0 1 716,154.5 L723,174.2969 L1052.5,174.2969 A2.5,2.5 0 0 1 1055,176.7969 L1055,248.5 A2.5,2.5 0 0 1 1052.5,251 L632.5,251 A2.5,2.5 0 0 1 630,248.5 L630,154.5 A2.5,2.5 0 0 1 632.5,152 " style="stroke:#000000;stroke-width:1.5;fill:none;"/><line style="stroke:#000000;stroke-width:1.5;fill:none;" x1="630" x2="723" y1="174.2969" y2="174.2969"/><text fill="#000000" font-family="sans-serif" font-size="14" font-weight="bold" lengthAdjust="spacing" textLength="80" x="634" y="166.9951">controller</text></g><!--MD5=[5d4cd377749310b66bf14896f5cd8d9b]
cluster model--><g id="cluster_model"><path d="M8.5,6 L58.5,6 A3.75,3.75 0 0 1 61,8.5 L68,28.2969 L381.5,28.2969 A2.5,2.5 0 0 1 384,30.7969 L384,380.5 A2.5,2.5 0 0 1 381.5,383 L8.5,383 A2.5,2.5 0 0 1 6,380.5 L6,8.5 A2.5,2.5 0 0 1 8.5,6 " style="stroke:#000000;stroke-width:1.5;fill:none;"/><line style="stroke:#000000;stroke-width:1.5;fill:none;" x1="6" x2="68" y1="28.2969" y2="28.2969"/><text fill="#000000" font-family="sans-serif" font-size="14" font-weight="bold" lengthAdjust="spacing" textLength="49" x="10" y="20.9951">model</text></g><!--MD5=[bd0bd4c41e0e5269e37474fd45a6abb7]
cluster repository--><g id="cluster_repository"><path d="M181.5,564 L266.5,564 A3.75,3.75 0 0 1 269,566.5 L276,586.2969 L740.5,586.2969 A2.5,2.5 0 0 1 743,588.7969 L743,660.5 A2.5,2.5 0 0 1 740.5,663 L181.5,663 A2.5,2.5 0 0 1 179,660.5 L179,566.5 A2.5,2.5 0 0 1 181.5,564 " style="stroke:#000000;stroke-width:1.5;fill:none;"/><line style="stroke:#000000;stroke-width:1.5;fill:none;" x1="179" x2="276" y1="586.2969" y2="586.2969"/><text fill="#000000" font-family="sans-serif" font-size="14" font-weight="bold" lengthAdjust="spacing" textLength="84" x="183" y="578.9951">repository</text></g><!--MD5=[7579d5565d2521d5936cec86ed3dadee]
cluster service--><g id="cluster_service"><path d="M424.5,284 L482.5,284 A3.75,3.75 0 0 1 485,286.5 L492,306.2969 L938.5,306.2969 A2.5,2.5 0 0 1 941,308.7969 L941,528.5 A2.5,2.5 0 0 1 938.5,531 L424.5,531 A2.5,2.5 0 0 1 422,528.5 L422,286.5 A2.5,2.5 0 0 1 424.5,284 " style="stroke:#000000;stroke-width:1.5;fill:none;"/><line style="stroke:#000000;stroke-width:1.5;fill:none;" x1="422" x2="492" y1="306.2969" y2="306.2969"/><text fill="#000000" font-family="sans-serif" font-size="14" font-weight="bold" lengthAdjust="spacing" textLength="57" x="426" y="298.9951">service</text></g><!--MD5=[a7ed2df2a436b5c75096c23a0132a378]
class LocaleConfig--><g id="elem_LocaleConfig"><rect codeLine="2" fill="#F1F1F1" height="48" id="LocaleConfig" rx="2.5" ry="2.5" style="stroke:#181818;stroke-width:0.5;" width="145" x="1016.5" y="467"/><ellipse cx="1031.5" cy="483" fill="#ADD1B2" rx="11" ry="11" style="stroke:#181818;stroke-width:1.0;"/><path d="M1033.8438,478.6719 C1032.9063,478.2344 1032.3125,478.0938 1031.4375,478.0938 C1028.8125,478.0938 1026.8125,480.1719 1026.8125,482.8906 L1026.8125,484.0156 C1026.8125,486.5938 1028.9219,488.4844 1031.8125,488.4844 C1033.0313,488.4844 1034.1875,488.1875 1034.9375,487.6406 C1035.5156,487.2344 1035.8438,486.7813 1035.8438,486.3906 C1035.8438,485.9375 1035.4531,485.5469 1034.9844,485.5469 C1034.7656,485.5469 1034.5625,485.625 1034.375,485.8125 C1033.9219,486.2969 1033.9219,486.2969 1033.7344,486.3906 C1033.3125,486.6563 1032.625,486.7813 1031.8594,486.7813 C1029.8125,486.7813 1028.5156,485.6875 1028.5156,483.9844 L1028.5156,482.8906 C1028.5156,481.1094 1029.7656,479.7969 1031.5,479.7969 C1032.0781,479.7969 1032.6875,479.9531 1033.1563,480.2031 C1033.6406,480.4844 1033.8125,480.7031 1033.9063,481.1094 C1033.9688,481.5156 1034,481.6406 1034.1406,481.7656 C1034.2813,481.9063 1034.5156,482.0156 1034.7344,482.0156 C1035,482.0156 1035.2656,481.875 1035.4375,481.6563 C1035.5469,481.5 1035.5781,481.3125 1035.5781,480.8906 L1035.5781,479.4688 C1035.5781,479.0313 1035.5625,478.9063 1035.4688,478.75 C1035.3125,478.4844 1035.0313,478.3438 1034.7344,478.3438 C1034.4375,478.3438 1034.2344,478.4375 1034.0156,478.75 L1033.8438,478.6719 Z " fill="#000000"/><text fill="#000000" font-family="sans-serif" font-size="14" lengthAdjust="spacing" textLength="93" x="1045.5" y="487.8467">LocaleConfig</text><rect fill="#FFFFFF" height="15.9688" style="stroke:#000000;stroke-width:1.0;stroke-dasharray:2.0,2.0;" width="18" x="1146.5" y="464"/><text fill="#000000" font-family="sans-serif" font-size="12" font-style="italic" lengthAdjust="spacing" textLength="8" x="1151.5" y="476.1387">1</text><line style="stroke:#181818;stroke-width:0.5;" x1="1017.5" x2="1160.5" y1="499" y2="499"/><line style="stroke:#181818;stroke-width:0.5;" x1="1017.5" x2="1160.5" y1="507" y2="507"/></g><!--MD5=[f12d22dd70a79c501d3eb00951149527]
class SpringSecurityConfig--><g id="elem_SpringSecurityConfig"><rect codeLine="3" fill="#F1F1F1" height="48" id="SpringSecurityConfig" rx="2.5" ry="2.5" style="stroke:#181818;stroke-width:0.5;" width="205" x="1196.5" y="467"/><ellipse cx="1211.5" cy="483" fill="#ADD1B2" rx="11" ry="11" style="stroke:#181818;stroke-width:1.0;"/><path d="M1213.8438,478.6719 C1212.9063,478.2344 1212.3125,478.0938 1211.4375,478.0938 C1208.8125,478.0938 1206.8125,480.1719 1206.8125,482.8906 L1206.8125,484.0156 C1206.8125,486.5938 1208.9219,488.4844 1211.8125,488.4844 C1213.0313,488.4844 1214.1875,488.1875 1214.9375,487.6406 C1215.5156,487.2344 1215.8438,486.7813 1215.8438,486.3906 C1215.8438,485.9375 1215.4531,485.5469 1214.9844,485.5469 C1214.7656,485.5469 1214.5625,485.625 1214.375,485.8125 C1213.9219,486.2969 1213.9219,486.2969 1213.7344,486.3906 C1213.3125,486.6563 1212.625,486.7813 1211.8594,486.7813 C1209.8125,486.7813 1208.5156,485.6875 1208.5156,483.9844 L1208.5156,482.8906 C1208.5156,481.1094 1209.7656,479.7969 1211.5,479.7969 C1212.0781,479.7969 1212.6875,479.9531 1213.1563,480.2031 C1213.6406,480.4844 1213.8125,480.7031 1213.9063,481.1094 C1213.9688,481.5156 1214,481.6406 1214.1406,481.7656 C1214.2813,481.9063 1214.5156,482.0156 1214.7344,482.0156 C1215,482.0156 1215.2656,481.875 1215.4375,481.6563 C1215.5469,481.5 1215.5781,481.3125 1215.5781,480.8906 L1215.5781,479.4688 C1215.5781,479.0313 1215.5625,478.9063 1215.4688,478.75 C1215.3125,478.4844 1215.0313,478.3438 1214.7344,478.3438 C1214.4375,478.3438 1214.2344,478.4375 1214.0156,478.75 L1213.8438,478.6719 Z " fill="#000000"/><text fill="#000000" font-family="sans-serif" font-size="14" lengthAdjust="spacing" textLength="153" x="1225.5" y="487.8467">SpringSecurityConfig</text><rect fill="#FFFFFF" height="15.9688" style="stroke:#000000;stroke-width:1.0;stroke-dasharray:2.0,2.0;" width="18" x="1386.5" y="464"/><text fill="#000000" font-family="sans-serif" font-size="12" font-style="italic" lengthAdjust="spacing" textLength="8" x="1391.5" y="476.1387">1</text><line style="stroke:#181818;stroke-width:0.5;" x1="1197.5" x2="1400.5" y1="499" y2="499"/><line style="stroke:#181818;stroke-width:0.5;" x1="1197.5" x2="1400.5" y1="507" y2="507"/></g><!--MD5=[49f83f187a91d2c081fc3779443fea89]
class WebMvcConfiguration--><g id="elem_WebMvcConfiguration"><rect codeLine="4" fill="#F1F1F1" height="48" id="WebMvcConfiguration" rx="2.5" ry="2.5" style="stroke:#181818;stroke-width:0.5;" width="211" x="1016.5" y="599"/><ellipse cx="1031.5" cy="615" fill="#ADD1B2" rx="11" ry="11" style="stroke:#181818;stroke-width:1.0;"/><path d="M1033.8438,610.6719 C1032.9063,610.2344 1032.3125,610.0938 1031.4375,610.0938 C1028.8125,610.0938 1026.8125,612.1719 1026.8125,614.8906 L1026.8125,616.0156 C1026.8125,618.5938 1028.9219,620.4844 1031.8125,620.4844 C1033.0313,620.4844 1034.1875,620.1875 1034.9375,619.6406 C1035.5156,619.2344 1035.8438,618.7813 1035.8438,618.3906 C1035.8438,617.9375 1035.4531,617.5469 1034.9844,617.5469 C1034.7656,617.5469 1034.5625,617.625 1034.375,617.8125 C1033.9219,618.2969 1033.9219,618.2969 1033.7344,618.3906 C1033.3125,618.6563 1032.625,618.7813 1031.8594,618.7813 C1029.8125,618.7813 1028.5156,617.6875 1028.5156,615.9844 L1028.5156,614.8906 C1028.5156,613.1094 1029.7656,611.7969 1031.5,611.7969 C1032.0781,611.7969 1032.6875,611.9531 1033.1563,612.2031 C1033.6406,612.4844 1033.8125,612.7031 1033.9063,613.1094 C1033.9688,613.5156 1034,613.6406 1034.1406,613.7656 C1034.2813,613.9063 1034.5156,614.0156 1034.7344,614.0156 C1035,614.0156 1035.2656,613.875 1035.4375,613.6563 C1035.5469,613.5 1035.5781,613.3125 1035.5781,612.8906 L1035.5781,611.4688 C1035.5781,611.0313 1035.5625,610.9063 1035.4688,610.75 C1035.3125,610.4844 1035.0313,610.3438 1034.7344,610.3438 C1034.4375,610.3438 1034.2344,610.4375 1034.0156,610.75 L1033.8438,610.6719 Z " fill="#000000"/><text fill="#000000" font-family="sans-serif" font-size="14" lengthAdjust="spacing" textLength="159" x="1045.5" y="619.8467">WebMvcConfiguration</text><rect fill="#FFFFFF" height="15.9688" style="stroke:#000000;stroke-width:1.0;stroke-dasharray:2.0,2.0;" width="18" x="1212.5" y="596"/><text fill="#000000" font-family="sans-serif" font-size="12" font-style="italic" lengthAdjust="spacing" textLength="8" x="1217.5" y="608.1387">1</text><line style="stroke:#181818;stroke-width:0.5;" x1="1017.5" x2="1226.5" y1="631" y2="631"/><line style="stroke:#181818;stroke-width:0.5;" x1="1017.5" x2="1226.5" y1="639" y2="639"/></g><!--MD5=[508be52a9c19427072f7a27d6fbcc9ff]
class MockBankController--><g id="elem_MockBankController"><rect codeLine="8" fill="#F1F1F1" height="48" id="MockBankController" rx="2.5" ry="2.5" style="stroke:#181818;stroke-width:0.5;" width="199" x="839.5" y="187"/><ellipse cx="854.5" cy="203" fill="#ADD1B2" rx="11" ry="11" style="stroke:#181818;stroke-width:1.0;"/><path d="M856.8438,198.6719 C855.9063,198.2344 855.3125,198.0938 854.4375,198.0938 C851.8125,198.0938 849.8125,200.1719 849.8125,202.8906 L849.8125,204.0156 C849.8125,206.5938 851.9219,208.4844 854.8125,208.4844 C856.0313,208.4844 857.1875,208.1875 857.9375,207.6406 C858.5156,207.2344 858.8438,206.7813 858.8438,206.3906 C858.8438,205.9375 858.4531,205.5469 857.9844,205.5469 C857.7656,205.5469 857.5625,205.625 857.375,205.8125 C856.9219,206.2969 856.9219,206.2969 856.7344,206.3906 C856.3125,206.6563 855.625,206.7813 854.8594,206.7813 C852.8125,206.7813 851.5156,205.6875 851.5156,203.9844 L851.5156,202.8906 C851.5156,201.1094 852.7656,199.7969 854.5,199.7969 C855.0781,199.7969 855.6875,199.9531 856.1563,200.2031 C856.6406,200.4844 856.8125,200.7031 856.9063,201.1094 C856.9688,201.5156 857,201.6406 857.1406,201.7656 C857.2813,201.9063 857.5156,202.0156 857.7344,202.0156 C858,202.0156 858.2656,201.875 858.4375,201.6563 C858.5469,201.5 858.5781,201.3125 858.5781,200.8906 L858.5781,199.4688 C858.5781,199.0313 858.5625,198.9063 858.4688,198.75 C858.3125,198.4844 858.0313,198.3438 857.7344,198.3438 C857.4375,198.3438 857.2344,198.4375 857.0156,198.75 L856.8438,198.6719 Z " fill="#000000"/><text fill="#000000" font-family="sans-serif" font-size="14" lengthAdjust="spacing" textLength="147" x="868.5" y="207.8467">MockBankController</text><rect fill="#FFFFFF" height="15.9688" style="stroke:#000000;stroke-width:1.0;stroke-dasharray:2.0,2.0;" width="18" x="1023.5" y="184"/><text fill="#000000" font-family="sans-serif" font-size="12" font-style="italic" lengthAdjust="spacing" textLength="8" x="1028.5" y="196.1387">1</text><line style="stroke:#181818;stroke-width:0.5;" x1="840.5" x2="1037.5" y1="219" y2="219"/><line style="stroke:#181818;stroke-width:0.5;" x1="840.5" x2="1037.5" y1="227" y2="227"/></g><!--MD5=[d6e087fe1546b17e1619424c0e696687]
class WebController--><g id="elem_WebController"><rect codeLine="9" fill="#F1F1F1" height="48" id="WebController" rx="2.5" ry="2.5" style="stroke:#181818;stroke-width:0.5;" width="158" x="646" y="187"/><ellipse cx="661" cy="203" fill="#ADD1B2" rx="11" ry="11" style="stroke:#181818;stroke-width:1.0;"/><path d="M663.3438,198.6719 C662.4063,198.2344 661.8125,198.0938 660.9375,198.0938 C658.3125,198.0938 656.3125,200.1719 656.3125,202.8906 L656.3125,204.0156 C656.3125,206.5938 658.4219,208.4844 661.3125,208.4844 C662.5313,208.4844 663.6875,208.1875 664.4375,207.6406 C665.0156,207.2344 665.3438,206.7813 665.3438,206.3906 C665.3438,205.9375 664.9531,205.5469 664.4844,205.5469 C664.2656,205.5469 664.0625,205.625 663.875,205.8125 C663.4219,206.2969 663.4219,206.2969 663.2344,206.3906 C662.8125,206.6563 662.125,206.7813 661.3594,206.7813 C659.3125,206.7813 658.0156,205.6875 658.0156,203.9844 L658.0156,202.8906 C658.0156,201.1094 659.2656,199.7969 661,199.7969 C661.5781,199.7969 662.1875,199.9531 662.6563,200.2031 C663.1406,200.4844 663.3125,200.7031 663.4063,201.1094 C663.4688,201.5156 663.5,201.6406 663.6406,201.7656 C663.7813,201.9063 664.0156,202.0156 664.2344,202.0156 C664.5,202.0156 664.7656,201.875 664.9375,201.6563 C665.0469,201.5 665.0781,201.3125 665.0781,200.8906 L665.0781,199.4688 C665.0781,199.0313 665.0625,198.9063 664.9688,198.75 C664.8125,198.4844 664.5313,198.3438 664.2344,198.3438 C663.9375,198.3438 663.7344,198.4375 663.5156,198.75 L663.3438,198.6719 Z " fill="#000000"/><text fill="#000000" font-family="sans-serif" font-size="14" lengthAdjust="spacing" textLength="106" x="675" y="207.8467">WebController</text><rect fill="#FFFFFF" height="15.9688" style="stroke:#000000;stroke-width:1.0;stroke-dasharray:2.0,2.0;" width="18" x="789" y="184"/><text fill="#000000" font-family="sans-serif" font-size="12" font-style="italic" lengthAdjust="spacing" textLength="8" x="794" y="196.1387">1</text><line style="stroke:#181818;stroke-width:0.5;" x1="647" x2="803" y1="219" y2="219"/><line style="stroke:#181818;stroke-width:0.5;" x1="647" x2="803" y1="227" y2="227"/></g><!--MD5=[0e662879c277b8b4d2e70e84c63096d3]
class BillingDetails--><g id="elem_BillingDetails"><rect codeLine="13" fill="#F1F1F1" height="48" id="BillingDetails" rx="2.5" ry="2.5" style="stroke:#181818;stroke-width:0.5;" width="126" x="22" y="187"/><ellipse cx="37" cy="203" fill="#ADD1B2" rx="11" ry="11" style="stroke:#181818;stroke-width:1.0;"/><path d="M39.3438,198.6719 C38.4063,198.2344 37.8125,198.0938 36.9375,198.0938 C34.3125,198.0938 32.3125,200.1719 32.3125,202.8906 L32.3125,204.0156 C32.3125,206.5938 34.4219,208.4844 37.3125,208.4844 C38.5313,208.4844 39.6875,208.1875 40.4375,207.6406 C41.0156,207.2344 41.3438,206.7813 41.3438,206.3906 C41.3438,205.9375 40.9531,205.5469 40.4844,205.5469 C40.2656,205.5469 40.0625,205.625 39.875,205.8125 C39.4219,206.2969 39.4219,206.2969 39.2344,206.3906 C38.8125,206.6563 38.125,206.7813 37.3594,206.7813 C35.3125,206.7813 34.0156,205.6875 34.0156,203.9844 L34.0156,202.8906 C34.0156,201.1094 35.2656,199.7969 37,199.7969 C37.5781,199.7969 38.1875,199.9531 38.6563,200.2031 C39.1406,200.4844 39.3125,200.7031 39.4063,201.1094 C39.4688,201.5156 39.5,201.6406 39.6406,201.7656 C39.7813,201.9063 40.0156,202.0156 40.2344,202.0156 C40.5,202.0156 40.7656,201.875 40.9375,201.6563 C41.0469,201.5 41.0781,201.3125 41.0781,200.8906 L41.0781,199.4688 C41.0781,199.0313 41.0625,198.9063 40.9688,198.75 C40.8125,198.4844 40.5313,198.3438 40.2344,198.3438 C39.9375,198.3438 39.7344,198.4375 39.5156,198.75 L39.3438,198.6719 Z " fill="#000000"/><text fill="#000000" font-family="sans-serif" font-size="14" lengthAdjust="spacing" textLength="94" x="51" y="207.8467">BillingDetails</text><line style="stroke:#181818;stroke-width:0.5;" x1="23" x2="147" y1="219" y2="219"/><line style="stroke:#181818;stroke-width:0.5;" x1="23" x2="147" y1="227" y2="227"/></g><!--MD5=[894442645724153f40a9f7a43026dbfc]
class Invoice--><g id="elem_Invoice"><rect codeLine="14" fill="#F1F1F1" height="48" id="Invoice" rx="2.5" ry="2.5" style="stroke:#181818;stroke-width:0.5;" width="83" x="284.5" y="41"/><ellipse cx="299.5" cy="57" fill="#ADD1B2" rx="11" ry="11" style="stroke:#181818;stroke-width:1.0;"/><path d="M301.8438,52.6719 C300.9063,52.2344 300.3125,52.0938 299.4375,52.0938 C296.8125,52.0938 294.8125,54.1719 294.8125,56.8906 L294.8125,58.0156 C294.8125,60.5938 296.9219,62.4844 299.8125,62.4844 C301.0313,62.4844 302.1875,62.1875 302.9375,61.6406 C303.5156,61.2344 303.8438,60.7813 303.8438,60.3906 C303.8438,59.9375 303.4531,59.5469 302.9844,59.5469 C302.7656,59.5469 302.5625,59.625 302.375,59.8125 C301.9219,60.2969 301.9219,60.2969 301.7344,60.3906 C301.3125,60.6563 300.625,60.7813 299.8594,60.7813 C297.8125,60.7813 296.5156,59.6875 296.5156,57.9844 L296.5156,56.8906 C296.5156,55.1094 297.7656,53.7969 299.5,53.7969 C300.0781,53.7969 300.6875,53.9531 301.1563,54.2031 C301.6406,54.4844 301.8125,54.7031 301.9063,55.1094 C301.9688,55.5156 302,55.6406 302.1406,55.7656 C302.2813,55.9063 302.5156,56.0156 302.7344,56.0156 C303,56.0156 303.2656,55.875 303.4375,55.6563 C303.5469,55.5 303.5781,55.3125 303.5781,54.8906 L303.5781,53.4688 C303.5781,53.0313 303.5625,52.9063 303.4688,52.75 C303.3125,52.4844 303.0313,52.3438 302.7344,52.3438 C302.4375,52.3438 302.2344,52.4375 302.0156,52.75 L301.8438,52.6719 Z " fill="#000000"/><text fill="#000000" font-family="sans-serif" font-size="14" lengthAdjust="spacing" textLength="51" x="313.5" y="61.8467">Invoice</text><line style="stroke:#181818;stroke-width:0.5;" x1="285.5" x2="366.5" y1="73" y2="73"/><line style="stroke:#181818;stroke-width:0.5;" x1="285.5" x2="366.5" y1="81" y2="81"/></g><!--MD5=[02f52dd76b6d93c484e98adf8cb1a92d]
class Transfer--><g id="elem_Transfer"><rect codeLine="15" fill="#F1F1F1" height="48" id="Transfer" rx="2.5" ry="2.5" style="stroke:#181818;stroke-width:0.5;" width="92" x="157" y="41"/><ellipse cx="172" cy="57" fill="#ADD1B2" rx="11" ry="11" style="stroke:#181818;stroke-width:1.0;"/><path d="M170.7969,57.875 L172.25,57.875 L172.25,57.9844 C172.25,58.3906 172.2813,58.5469 172.3594,58.7031 C172.5156,58.9531 172.7969,59.1094 173.0938,59.1094 C173.3438,59.1094 173.6094,58.9688 173.7656,58.75 C173.8906,58.5938 173.9219,58.4375 173.9219,57.9844 L173.9219,56.0625 C173.9219,55.9063 173.9219,55.8594 173.9063,55.7031 C173.8438,55.2344 173.5313,54.9219 173.0781,54.9219 C172.8281,54.9219 172.5625,55.0625 172.3906,55.2813 C172.2813,55.4531 172.25,55.6094 172.25,56.0625 L172.25,56.1875 L170.7969,56.1875 L170.7969,53.7813 L174.7813,53.7813 L174.7813,54.6406 C174.7813,55.0469 174.8125,55.2188 174.8906,55.375 C175.0625,55.625 175.3438,55.7813 175.625,55.7813 C175.8906,55.7813 176.1563,55.6406 176.3281,55.4219 C176.4375,55.25 176.4688,55.1094 176.4688,54.6406 L176.4688,52.0938 L168.8438,52.0938 C168.4063,52.0938 168.2813,52.1094 168.125,52.2031 C167.875,52.3594 167.7188,52.6563 167.7188,52.9375 C167.7188,53.2188 167.8594,53.4688 168.0781,53.6406 C168.2344,53.75 168.4219,53.7813 168.8438,53.7813 L169.0938,53.7813 L169.0938,60.2969 L168.8438,60.2969 C168.4375,60.2969 168.2813,60.3125 168.125,60.4219 C167.875,60.5938 167.7188,60.8594 167.7188,61.1563 C167.7188,61.4219 167.8594,61.6719 168.0781,61.8281 C168.2188,61.9531 168.4531,62 168.8438,62 L176.8438,62 L176.8438,59.4219 C176.8438,58.9844 176.8125,58.8438 176.7344,58.6875 C176.5625,58.4375 176.2813,58.2813 176,58.2813 C175.7344,58.2813 175.4688,58.3906 175.2969,58.6406 C175.1875,58.7969 175.1563,58.9375 175.1563,59.4219 L175.1563,60.2969 L170.7969,60.2969 L170.7969,57.875 Z " fill="#000000"/><text fill="#000000" font-family="sans-serif" font-size="14" lengthAdjust="spacing" textLength="60" x="186" y="61.8467">Transfer</text><line style="stroke:#181818;stroke-width:0.5;" x1="158" x2="248" y1="73" y2="73"/><line style="stroke:#181818;stroke-width:0.5;" x1="158" x2="248" y1="81" y2="81"/></g><!--MD5=[3fd616f346a44cd59a91eb10b19e157c]
class User--><g id="elem_User"><rect codeLine="16" fill="#F1F1F1" height="48" id="User" rx="2.5" ry="2.5" style="stroke:#181818;stroke-width:0.5;" width="63" x="130.5" y="319"/><ellipse cx="145.5" cy="335" fill="#ADD1B2" rx="11" ry="11" style="stroke:#181818;stroke-width:1.0;"/><path d="M144.2969,335.875 L145.75,335.875 L145.75,335.9844 C145.75,336.3906 145.7813,336.5469 145.8594,336.7031 C146.0156,336.9531 146.2969,337.1094 146.5938,337.1094 C146.8438,337.1094 147.1094,336.9688 147.2656,336.75 C147.3906,336.5938 147.4219,336.4375 147.4219,335.9844 L147.4219,334.0625 C147.4219,333.9063 147.4219,333.8594 147.4063,333.7031 C147.3438,333.2344 147.0313,332.9219 146.5781,332.9219 C146.3281,332.9219 146.0625,333.0625 145.8906,333.2813 C145.7813,333.4531 145.75,333.6094 145.75,334.0625 L145.75,334.1875 L144.2969,334.1875 L144.2969,331.7813 L148.2813,331.7813 L148.2813,332.6406 C148.2813,333.0469 148.3125,333.2188 148.3906,333.375 C148.5625,333.625 148.8438,333.7813 149.125,333.7813 C149.3906,333.7813 149.6563,333.6406 149.8281,333.4219 C149.9375,333.25 149.9688,333.1094 149.9688,332.6406 L149.9688,330.0938 L142.3438,330.0938 C141.9063,330.0938 141.7813,330.1094 141.625,330.2031 C141.375,330.3594 141.2188,330.6563 141.2188,330.9375 C141.2188,331.2188 141.3594,331.4688 141.5781,331.6406 C141.7344,331.75 141.9219,331.7813 142.3438,331.7813 L142.5938,331.7813 L142.5938,338.2969 L142.3438,338.2969 C141.9375,338.2969 141.7813,338.3125 141.625,338.4219 C141.375,338.5938 141.2188,338.8594 141.2188,339.1563 C141.2188,339.4219 141.3594,339.6719 141.5781,339.8281 C141.7188,339.9531 141.9531,340 142.3438,340 L150.3438,340 L150.3438,337.4219 C150.3438,336.9844 150.3125,336.8438 150.2344,336.6875 C150.0625,336.4375 149.7813,336.2813 149.5,336.2813 C149.2344,336.2813 148.9688,336.3906 148.7969,336.6406 C148.6875,336.7969 148.6563,336.9375 148.6563,337.4219 L148.6563,338.2969 L144.2969,338.2969 L144.2969,335.875 Z " fill="#000000"/><text fill="#000000" font-family="sans-serif" font-size="14" lengthAdjust="spacing" textLength="31" x="159.5" y="339.8467">User</text><line style="stroke:#181818;stroke-width:0.5;" x1="131.5" x2="192.5" y1="351" y2="351"/><line style="stroke:#181818;stroke-width:0.5;" x1="131.5" x2="192.5" y1="359" y2="359"/></g><!--MD5=[9f070bf9f108c27faa2eb76515c78fb3]
class Wallet--><g id="elem_Wallet"><rect codeLine="17" fill="#F1F1F1" height="48" id="Wallet" rx="2.5" ry="2.5" style="stroke:#181818;stroke-width:0.5;" width="78" x="183" y="187"/><ellipse cx="198" cy="203" fill="#ADD1B2" rx="11" ry="11" style="stroke:#181818;stroke-width:1.0;"/><path d="M196.7969,203.875 L198.25,203.875 L198.25,203.9844 C198.25,204.3906 198.2813,204.5469 198.3594,204.7031 C198.5156,204.9531 198.7969,205.1094 199.0938,205.1094 C199.3438,205.1094 199.6094,204.9688 199.7656,204.75 C199.8906,204.5938 199.9219,204.4375 199.9219,203.9844 L199.9219,202.0625 C199.9219,201.9063 199.9219,201.8594 199.9063,201.7031 C199.8438,201.2344 199.5313,200.9219 199.0781,200.9219 C198.8281,200.9219 198.5625,201.0625 198.3906,201.2813 C198.2813,201.4531 198.25,201.6094 198.25,202.0625 L198.25,202.1875 L196.7969,202.1875 L196.7969,199.7813 L200.7813,199.7813 L200.7813,200.6406 C200.7813,201.0469 200.8125,201.2188 200.8906,201.375 C201.0625,201.625 201.3438,201.7813 201.625,201.7813 C201.8906,201.7813 202.1563,201.6406 202.3281,201.4219 C202.4375,201.25 202.4688,201.1094 202.4688,200.6406 L202.4688,198.0938 L194.8438,198.0938 C194.4063,198.0938 194.2813,198.1094 194.125,198.2031 C193.875,198.3594 193.7188,198.6563 193.7188,198.9375 C193.7188,199.2188 193.8594,199.4688 194.0781,199.6406 C194.2344,199.75 194.4219,199.7813 194.8438,199.7813 L195.0938,199.7813 L195.0938,206.2969 L194.8438,206.2969 C194.4375,206.2969 194.2813,206.3125 194.125,206.4219 C193.875,206.5938 193.7188,206.8594 193.7188,207.1563 C193.7188,207.4219 193.8594,207.6719 194.0781,207.8281 C194.2188,207.9531 194.4531,208 194.8438,208 L202.8438,208 L202.8438,205.4219 C202.8438,204.9844 202.8125,204.8438 202.7344,204.6875 C202.5625,204.4375 202.2813,204.2813 202,204.2813 C201.7344,204.2813 201.4688,204.3906 201.2969,204.6406 C201.1875,204.7969 201.1563,204.9375 201.1563,205.4219 L201.1563,206.2969 L196.7969,206.2969 L196.7969,203.875 Z " fill="#000000"/><text fill="#000000" font-family="sans-serif" font-size="14" lengthAdjust="spacing" textLength="46" x="212" y="207.8467">Wallet</text><line style="stroke:#181818;stroke-width:0.5;" x1="184" x2="260" y1="219" y2="219"/><line style="stroke:#181818;stroke-width:0.5;" x1="184" x2="260" y1="227" y2="227"/></g><!--MD5=[654d3ef673e7ea817b409bc91ff6b56e]
class UserPrincipal--><g id="elem_UserPrincipal"><rect codeLine="20" fill="#F1F1F1" height="48" id="UserPrincipal" rx="2.5" ry="2.5" style="stroke:#181818;stroke-width:0.5;" width="125" x="228.5" y="319"/><ellipse cx="243.5" cy="335" fill="#ADD1B2" rx="11" ry="11" style="stroke:#181818;stroke-width:1.0;"/><path d="M245.8438,330.6719 C244.9063,330.2344 244.3125,330.0938 243.4375,330.0938 C240.8125,330.0938 238.8125,332.1719 238.8125,334.8906 L238.8125,336.0156 C238.8125,338.5938 240.9219,340.4844 243.8125,340.4844 C245.0313,340.4844 246.1875,340.1875 246.9375,339.6406 C247.5156,339.2344 247.8438,338.7813 247.8438,338.3906 C247.8438,337.9375 247.4531,337.5469 246.9844,337.5469 C246.7656,337.5469 246.5625,337.625 246.375,337.8125 C245.9219,338.2969 245.9219,338.2969 245.7344,338.3906 C245.3125,338.6563 244.625,338.7813 243.8594,338.7813 C241.8125,338.7813 240.5156,337.6875 240.5156,335.9844 L240.5156,334.8906 C240.5156,333.1094 241.7656,331.7969 243.5,331.7969 C244.0781,331.7969 244.6875,331.9531 245.1563,332.2031 C245.6406,332.4844 245.8125,332.7031 245.9063,333.1094 C245.9688,333.5156 246,333.6406 246.1406,333.7656 C246.2813,333.9063 246.5156,334.0156 246.7344,334.0156 C247,334.0156 247.2656,333.875 247.4375,333.6563 C247.5469,333.5 247.5781,333.3125 247.5781,332.8906 L247.5781,331.4688 C247.5781,331.0313 247.5625,330.9063 247.4688,330.75 C247.3125,330.4844 247.0313,330.3438 246.7344,330.3438 C246.4375,330.3438 246.2344,330.4375 246.0156,330.75 L245.8438,330.6719 Z " fill="#000000"/><text fill="#000000" font-family="sans-serif" font-size="14" lengthAdjust="spacing" textLength="93" x="257.5" y="339.8467">UserPrincipal</text><line style="stroke:#181818;stroke-width:0.5;" x1="229.5" x2="352.5" y1="351" y2="351"/><line style="stroke:#181818;stroke-width:0.5;" x1="229.5" x2="352.5" y1="359" y2="359"/></g><!--MD5=[f11d4d4ca99735300641110a0d70624f]
class TransferRepository--><g id="elem_TransferRepository"><rect codeLine="27" fill="#F1F1F1" height="48" id="TransferRepository" rx="2.5" ry="2.5" style="stroke:#181818;stroke-width:0.5;" width="168" x="559" y="599"/><ellipse cx="574" cy="615" fill="#B4A7E5" rx="11" ry="11" style="stroke:#181818;stroke-width:1.0;"/><path d="M574.9531,611.7813 L576.6719,611.7813 C577.0625,611.7813 577.25,611.75 577.375,611.6719 C577.6406,611.5156 577.7813,611.2344 577.7813,610.9375 C577.7813,610.6719 577.6719,610.4063 577.4375,610.2344 C577.2656,610.125 577.125,610.0938 576.6719,610.0938 L571.5313,610.0938 C571.0938,610.0938 570.9688,610.1094 570.8125,610.2031 C570.5625,610.3594 570.4063,610.6563 570.4063,610.9375 C570.4063,611.2188 570.5469,611.4688 570.7656,611.6406 C570.9219,611.75 571.1094,611.7813 571.5313,611.7813 L573.25,611.7813 L573.25,618.2969 L571.5313,618.2969 C571.0938,618.2969 570.9688,618.3125 570.8125,618.4219 C570.5625,618.5781 570.4063,618.8594 570.4063,619.1563 C570.4063,619.4063 570.5469,619.6719 570.7656,619.8281 C570.9219,619.9531 571.125,620 571.5313,620 L576.6719,620 C577.4219,620 577.7813,619.7188 577.7813,619.1563 C577.7813,618.875 577.6719,618.625 577.4375,618.4531 C577.2656,618.3281 577.125,618.2969 576.6719,618.2969 L574.9531,618.2969 L574.9531,611.7813 Z " fill="#000000"/><text fill="#000000" font-family="sans-serif" font-size="14" font-style="italic" lengthAdjust="spacing" textLength="136" x="588" y="619.8467">TransferRepository</text><line style="stroke:#181818;stroke-width:0.5;" x1="560" x2="726" y1="631" y2="631"/><line style="stroke:#181818;stroke-width:0.5;" x1="560" x2="726" y1="639" y2="639"/></g><!--MD5=[093c210125347143eef5bb9199eae634]
class UserRepository--><g id="elem_UserRepository"><rect codeLine="28" fill="#F1F1F1" height="48" id="UserRepository" rx="2.5" ry="2.5" style="stroke:#181818;stroke-width:0.5;" width="140" x="195" y="599"/><ellipse cx="210" cy="615" fill="#B4A7E5" rx="11" ry="11" style="stroke:#181818;stroke-width:1.0;"/><path d="M210.9531,611.7813 L212.6719,611.7813 C213.0625,611.7813 213.25,611.75 213.375,611.6719 C213.6406,611.5156 213.7813,611.2344 213.7813,610.9375 C213.7813,610.6719 213.6719,610.4063 213.4375,610.2344 C213.2656,610.125 213.125,610.0938 212.6719,610.0938 L207.5313,610.0938 C207.0938,610.0938 206.9688,610.1094 206.8125,610.2031 C206.5625,610.3594 206.4063,610.6563 206.4063,610.9375 C206.4063,611.2188 206.5469,611.4688 206.7656,611.6406 C206.9219,611.75 207.1094,611.7813 207.5313,611.7813 L209.25,611.7813 L209.25,618.2969 L207.5313,618.2969 C207.0938,618.2969 206.9688,618.3125 206.8125,618.4219 C206.5625,618.5781 206.4063,618.8594 206.4063,619.1563 C206.4063,619.4063 206.5469,619.6719 206.7656,619.8281 C206.9219,619.9531 207.125,620 207.5313,620 L212.6719,620 C213.4219,620 213.7813,619.7188 213.7813,619.1563 C213.7813,618.875 213.6719,618.625 213.4375,618.4531 C213.2656,618.3281 213.125,618.2969 212.6719,618.2969 L210.9531,618.2969 L210.9531,611.7813 Z " fill="#000000"/><text fill="#000000" font-family="sans-serif" font-size="14" font-style="italic" lengthAdjust="spacing" textLength="108" x="224" y="619.8467">UserRepository</text><line style="stroke:#181818;stroke-width:0.5;" x1="196" x2="334" y1="631" y2="631"/><line style="stroke:#181818;stroke-width:0.5;" x1="196" x2="334" y1="639" y2="639"/></g><!--MD5=[fc70648a5dfee0e9da908f8ada3105fd]
class WalletRepository--><g id="elem_WalletRepository"><rect codeLine="29" fill="#F1F1F1" height="48" id="WalletRepository" rx="2.5" ry="2.5" style="stroke:#181818;stroke-width:0.5;" width="153" x="370.5" y="599"/><ellipse cx="385.5" cy="615" fill="#B4A7E5" rx="11" ry="11" style="stroke:#181818;stroke-width:1.0;"/><path d="M386.4531,611.7813 L388.1719,611.7813 C388.5625,611.7813 388.75,611.75 388.875,611.6719 C389.1406,611.5156 389.2813,611.2344 389.2813,610.9375 C389.2813,610.6719 389.1719,610.4063 388.9375,610.2344 C388.7656,610.125 388.625,610.0938 388.1719,610.0938 L383.0313,610.0938 C382.5938,610.0938 382.4688,610.1094 382.3125,610.2031 C382.0625,610.3594 381.9063,610.6563 381.9063,610.9375 C381.9063,611.2188 382.0469,611.4688 382.2656,611.6406 C382.4219,611.75 382.6094,611.7813 383.0313,611.7813 L384.75,611.7813 L384.75,618.2969 L383.0313,618.2969 C382.5938,618.2969 382.4688,618.3125 382.3125,618.4219 C382.0625,618.5781 381.9063,618.8594 381.9063,619.1563 C381.9063,619.4063 382.0469,619.6719 382.2656,619.8281 C382.4219,619.9531 382.625,620 383.0313,620 L388.1719,620 C388.9219,620 389.2813,619.7188 389.2813,619.1563 C389.2813,618.875 389.1719,618.625 388.9375,618.4531 C388.7656,618.3281 388.625,618.2969 388.1719,618.2969 L386.4531,618.2969 L386.4531,611.7813 Z " fill="#000000"/><text fill="#000000" font-family="sans-serif" font-size="14" font-style="italic" lengthAdjust="spacing" textLength="121" x="399.5" y="619.8467">WalletRepository</text><line style="stroke:#181818;stroke-width:0.5;" x1="371.5" x2="522.5" y1="631" y2="631"/><line style="stroke:#181818;stroke-width:0.5;" x1="371.5" x2="522.5" y1="639" y2="639"/></g><!--MD5=[04b1e2d04102ed461a696e1c1410f814]
class MockBillingService--><g id="elem_MockBillingService"><rect codeLine="33" fill="#F1F1F1" height="48" id="MockBillingService" rx="2.5" ry="2.5" style="stroke:#181818;stroke-width:0.5;" width="187" x="737.5" y="467"/><ellipse cx="752.5" cy="483" fill="#ADD1B2" rx="11" ry="11" style="stroke:#181818;stroke-width:1.0;"/><path d="M754.8438,478.6719 C753.9063,478.2344 753.3125,478.0938 752.4375,478.0938 C749.8125,478.0938 747.8125,480.1719 747.8125,482.8906 L747.8125,484.0156 C747.8125,486.5938 749.9219,488.4844 752.8125,488.4844 C754.0313,488.4844 755.1875,488.1875 755.9375,487.6406 C756.5156,487.2344 756.8438,486.7813 756.8438,486.3906 C756.8438,485.9375 756.4531,485.5469 755.9844,485.5469 C755.7656,485.5469 755.5625,485.625 755.375,485.8125 C754.9219,486.2969 754.9219,486.2969 754.7344,486.3906 C754.3125,486.6563 753.625,486.7813 752.8594,486.7813 C750.8125,486.7813 749.5156,485.6875 749.5156,483.9844 L749.5156,482.8906 C749.5156,481.1094 750.7656,479.7969 752.5,479.7969 C753.0781,479.7969 753.6875,479.9531 754.1563,480.2031 C754.6406,480.4844 754.8125,480.7031 754.9063,481.1094 C754.9688,481.5156 755,481.6406 755.1406,481.7656 C755.2813,481.9063 755.5156,482.0156 755.7344,482.0156 C756,482.0156 756.2656,481.875 756.4375,481.6563 C756.5469,481.5 756.5781,481.3125 756.5781,480.8906 L756.5781,479.4688 C756.5781,479.0313 756.5625,478.9063 756.4688,478.75 C756.3125,478.4844 756.0313,478.3438 755.7344,478.3438 C755.4375,478.3438 755.2344,478.4375 755.0156,478.75 L754.8438,478.6719 Z " fill="#000000"/><text fill="#000000" font-family="sans-serif" font-size="14" lengthAdjust="spacing" textLength="135" x="766.5" y="487.8467">MockBillingService</text><rect fill="#FFFFFF" height="15.9688" style="stroke:#000000;stroke-width:1.0;stroke-dasharray:2.0,2.0;" width="18" x="909.5" y="464"/><text fill="#000000" font-family="sans-serif" font-size="12" font-style="italic" lengthAdjust="spacing" textLength="8" x="914.5" y="476.1387">1</text><line style="stroke:#181818;stroke-width:0.5;" x1="738.5" x2="923.5" y1="499" y2="499"/><line style="stroke:#181818;stroke-width:0.5;" x1="738.5" x2="923.5" y1="507" y2="507"/></g><!--MD5=[ea56195864cf67a209d1ded74f73d515]
class BillingService--><g id="elem_BillingService"><rect fill="#F1F1F1" height="48" id="BillingService" rx="2.5" ry="2.5" style="stroke:#181818;stroke-width:0.5;" width="129" x="795.5" y="319"/><ellipse cx="810.5" cy="335" fill="#B4A7E5" rx="11" ry="11" style="stroke:#181818;stroke-width:1.0;"/><path d="M811.4531,331.7813 L813.1719,331.7813 C813.5625,331.7813 813.75,331.75 813.875,331.6719 C814.1406,331.5156 814.2813,331.2344 814.2813,330.9375 C814.2813,330.6719 814.1719,330.4063 813.9375,330.2344 C813.7656,330.125 813.625,330.0938 813.1719,330.0938 L808.0313,330.0938 C807.5938,330.0938 807.4688,330.1094 807.3125,330.2031 C807.0625,330.3594 806.9063,330.6563 806.9063,330.9375 C806.9063,331.2188 807.0469,331.4688 807.2656,331.6406 C807.4219,331.75 807.6094,331.7813 808.0313,331.7813 L809.75,331.7813 L809.75,338.2969 L808.0313,338.2969 C807.5938,338.2969 807.4688,338.3125 807.3125,338.4219 C807.0625,338.5781 806.9063,338.8594 806.9063,339.1563 C806.9063,339.4063 807.0469,339.6719 807.2656,339.8281 C807.4219,339.9531 807.625,340 808.0313,340 L813.1719,340 C813.9219,340 814.2813,339.7188 814.2813,339.1563 C814.2813,338.875 814.1719,338.625 813.9375,338.4531 C813.7656,338.3281 813.625,338.2969 813.1719,338.2969 L811.4531,338.2969 L811.4531,331.7813 Z " fill="#000000"/><text fill="#000000" font-family="sans-serif" font-size="14" font-style="italic" lengthAdjust="spacing" textLength="97" x="824.5" y="339.8467">BillingService</text><line style="stroke:#181818;stroke-width:0.5;" x1="796.5" x2="923.5" y1="351" y2="351"/><line style="stroke:#181818;stroke-width:0.5;" x1="796.5" x2="923.5" y1="359" y2="359"/></g><!--MD5=[e4ac4745f81aec2db60ad4ddae80b659]
class UserService--><g id="elem_UserService"><rect codeLine="34" fill="#F1F1F1" height="48" id="UserService" rx="2.5" ry="2.5" style="stroke:#181818;stroke-width:0.5;" width="136" x="438" y="319"/><ellipse cx="453" cy="335" fill="#ADD1B2" rx="11" ry="11" style="stroke:#181818;stroke-width:1.0;"/><path d="M455.3438,330.6719 C454.4063,330.2344 453.8125,330.0938 452.9375,330.0938 C450.3125,330.0938 448.3125,332.1719 448.3125,334.8906 L448.3125,336.0156 C448.3125,338.5938 450.4219,340.4844 453.3125,340.4844 C454.5313,340.4844 455.6875,340.1875 456.4375,339.6406 C457.0156,339.2344 457.3438,338.7813 457.3438,338.3906 C457.3438,337.9375 456.9531,337.5469 456.4844,337.5469 C456.2656,337.5469 456.0625,337.625 455.875,337.8125 C455.4219,338.2969 455.4219,338.2969 455.2344,338.3906 C454.8125,338.6563 454.125,338.7813 453.3594,338.7813 C451.3125,338.7813 450.0156,337.6875 450.0156,335.9844 L450.0156,334.8906 C450.0156,333.1094 451.2656,331.7969 453,331.7969 C453.5781,331.7969 454.1875,331.9531 454.6563,332.2031 C455.1406,332.4844 455.3125,332.7031 455.4063,333.1094 C455.4688,333.5156 455.5,333.6406 455.6406,333.7656 C455.7813,333.9063 456.0156,334.0156 456.2344,334.0156 C456.5,334.0156 456.7656,333.875 456.9375,333.6563 C457.0469,333.5 457.0781,333.3125 457.0781,332.8906 L457.0781,331.4688 C457.0781,331.0313 457.0625,330.9063 456.9688,330.75 C456.8125,330.4844 456.5313,330.3438 456.2344,330.3438 C455.9375,330.3438 455.7344,330.4375 455.5156,330.75 L455.3438,330.6719 Z " fill="#000000"/><text fill="#000000" font-family="sans-serif" font-size="14" lengthAdjust="spacing" textLength="84" x="467" y="339.8467">UserService</text><rect fill="#FFFFFF" height="15.9688" style="stroke:#000000;stroke-width:1.0;stroke-dasharray:2.0,2.0;" width="18" x="559" y="316"/><text fill="#000000" font-family="sans-serif" font-size="12" font-style="italic" lengthAdjust="spacing" textLength="8" x="564" y="328.1387">1</text><line style="stroke:#181818;stroke-width:0.5;" x1="439" x2="573" y1="351" y2="351"/><line style="stroke:#181818;stroke-width:0.5;" x1="439" x2="573" y1="359" y2="359"/></g><!--MD5=[fd19d5ad0cc08ec15ff275655ff5e7e3]
class WalletService--><g id="elem_WalletService"><rect codeLine="35" fill="#F1F1F1" height="48" id="WalletService" rx="2.5" ry="2.5" style="stroke:#181818;stroke-width:0.5;" width="151" x="609.5" y="319"/><ellipse cx="624.5" cy="335" fill="#ADD1B2" rx="11" ry="11" style="stroke:#181818;stroke-width:1.0;"/><path d="M626.8438,330.6719 C625.9063,330.2344 625.3125,330.0938 624.4375,330.0938 C621.8125,330.0938 619.8125,332.1719 619.8125,334.8906 L619.8125,336.0156 C619.8125,338.5938 621.9219,340.4844 624.8125,340.4844 C626.0313,340.4844 627.1875,340.1875 627.9375,339.6406 C628.5156,339.2344 628.8438,338.7813 628.8438,338.3906 C628.8438,337.9375 628.4531,337.5469 627.9844,337.5469 C627.7656,337.5469 627.5625,337.625 627.375,337.8125 C626.9219,338.2969 626.9219,338.2969 626.7344,338.3906 C626.3125,338.6563 625.625,338.7813 624.8594,338.7813 C622.8125,338.7813 621.5156,337.6875 621.5156,335.9844 L621.5156,334.8906 C621.5156,333.1094 622.7656,331.7969 624.5,331.7969 C625.0781,331.7969 625.6875,331.9531 626.1563,332.2031 C626.6406,332.4844 626.8125,332.7031 626.9063,333.1094 C626.9688,333.5156 627,333.6406 627.1406,333.7656 C627.2813,333.9063 627.5156,334.0156 627.7344,334.0156 C628,334.0156 628.2656,333.875 628.4375,333.6563 C628.5469,333.5 628.5781,333.3125 628.5781,332.8906 L628.5781,331.4688 C628.5781,331.0313 628.5625,330.9063 628.4688,330.75 C628.3125,330.4844 628.0313,330.3438 627.7344,330.3438 C627.4375,330.3438 627.2344,330.4375 627.0156,330.75 L626.8438,330.6719 Z " fill="#000000"/><text fill="#000000" font-family="sans-serif" font-size="14" lengthAdjust="spacing" textLength="99" x="638.5" y="339.8467">WalletService</text><rect fill="#FFFFFF" height="15.9688" style="stroke:#000000;stroke-width:1.0;stroke-dasharray:2.0,2.0;" width="18" x="745.5" y="316"/><text fill="#000000" font-family="sans-serif" font-size="12" font-style="italic" lengthAdjust="spacing" textLength="8" x="750.5" y="328.1387">1</text><line style="stroke:#181818;stroke-width:0.5;" x1="610.5" x2="759.5" y1="351" y2="351"/><line style="stroke:#181818;stroke-width:0.5;" x1="610.5" x2="759.5" y1="359" y2="359"/></g><!--MD5=[c5e906f87014b27473f35ba27de49c6c]
class TransferService--><g id="elem_TransferService"><rect codeLine="36" fill="#F1F1F1" height="48" id="TransferService" rx="2.5" ry="2.5" style="stroke:#181818;stroke-width:0.5;" width="165" x="537.5" y="467"/><ellipse cx="552.5" cy="483" fill="#ADD1B2" rx="11" ry="11" style="stroke:#181818;stroke-width:1.0;"/><path d="M554.8438,478.6719 C553.9063,478.2344 553.3125,478.0938 552.4375,478.0938 C549.8125,478.0938 547.8125,480.1719 547.8125,482.8906 L547.8125,484.0156 C547.8125,486.5938 549.9219,488.4844 552.8125,488.4844 C554.0313,488.4844 555.1875,488.1875 555.9375,487.6406 C556.5156,487.2344 556.8438,486.7813 556.8438,486.3906 C556.8438,485.9375 556.4531,485.5469 555.9844,485.5469 C555.7656,485.5469 555.5625,485.625 555.375,485.8125 C554.9219,486.2969 554.9219,486.2969 554.7344,486.3906 C554.3125,486.6563 553.625,486.7813 552.8594,486.7813 C550.8125,486.7813 549.5156,485.6875 549.5156,483.9844 L549.5156,482.8906 C549.5156,481.1094 550.7656,479.7969 552.5,479.7969 C553.0781,479.7969 553.6875,479.9531 554.1563,480.2031 C554.6406,480.4844 554.8125,480.7031 554.9063,481.1094 C554.9688,481.5156 555,481.6406 555.1406,481.7656 C555.2813,481.9063 555.5156,482.0156 555.7344,482.0156 C556,482.0156 556.2656,481.875 556.4375,481.6563 C556.5469,481.5 556.5781,481.3125 556.5781,480.8906 L556.5781,479.4688 C556.5781,479.0313 556.5625,478.9063 556.4688,478.75 C556.3125,478.4844 556.0313,478.3438 555.7344,478.3438 C555.4375,478.3438 555.2344,478.4375 555.0156,478.75 L554.8438,478.6719 Z " fill="#000000"/><text fill="#000000" font-family="sans-serif" font-size="14" lengthAdjust="spacing" textLength="113" x="566.5" y="487.8467">TransferService</text><rect fill="#FFFFFF" height="15.9688" style="stroke:#000000;stroke-width:1.0;stroke-dasharray:2.0,2.0;" width="18" x="687.5" y="464"/><text fill="#000000" font-family="sans-serif" font-size="12" font-style="italic" lengthAdjust="spacing" textLength="8" x="692.5" y="476.1387">1</text><line style="stroke:#181818;stroke-width:0.5;" x1="538.5" x2="701.5" y1="499" y2="499"/><line style="stroke:#181818;stroke-width:0.5;" x1="538.5" x2="701.5" y1="507" y2="507"/></g><!--MD5=[559b46a05ac32c4ff78d1ef796873884]
link Transfer to Wallet--><g id="link_Transfer_Wallet"><path codeLine="18" d="M207.6235,101.0328 C207.6235,101.0328 214.334,151.903 217.227,173.823 " fill="none" id="Transfer-Wallet" style="stroke:#181818;stroke-width:1.0;"/><polygon fill="#181818" points="218.955,186.921,221.7437,177.4752,218.3012,181.9639,213.8124,178.5214,218.955,186.921" style="stroke:#181818;stroke-width:1.0;"/><line style="stroke:#181818;stroke-width:1.0;" x1="218.3012" x2="217.254" y1="181.9639" y2="174.033"/><polygon fill="none" points="206.053,89.136,202.8727,95.6079,207.6235,101.0328,210.8038,94.5609,206.053,89.136" style="stroke:#181818;stroke-width:1.0;"/><text fill="#000000" font-family="sans-serif" font-size="13" lengthAdjust="spacing" textLength="100" x="213" y="132.0669">sender/receiver</text><text fill="#000000" font-family="sans-serif" font-size="13" lengthAdjust="spacing" textLength="7" x="198.944" y="108.9304">*</text><text fill="#000000" font-family="sans-serif" font-size="13" lengthAdjust="spacing" textLength="8" x="209.1497" y="175.9128">2</text></g><!--MD5=[bec73f7b66d88852d2d17cbfa914c9e4]
link Wallet to User--><g id="link_Wallet_User"><path codeLine="19" d="M205.766,247.173 C197.212,265.708 177.6624,308.0644 177.6624,308.0644 " fill="none" id="Wallet-User" style="stroke:#181818;stroke-width:1.0;"/><polygon fill="none" points="172.634,318.96,178.7801,315.1883,177.6624,308.0644,171.5163,311.836,172.634,318.96" style="stroke:#181818;stroke-width:1.0;"/><polygon fill="#181818" points="211.273,235.241,203.8694,241.7362,209.1776,239.7807,211.133,245.0889,211.273,235.241" style="stroke:#181818;stroke-width:1.0;"/><line style="stroke:#181818;stroke-width:1.0;" x1="209.1776" x2="205.8255" y1="239.7807" y2="247.045"/></g><!--MD5=[a6056826c20bd12a4427b53578633355]
link User to UserPrincipal--><g id="link_User_UserPrincipal"><path codeLine="21" d="M206.98,343 C209.758,343 216.317,343 216.317,343 " fill="none" id="User-UserPrincipal" style="stroke:#181818;stroke-width:1.0;"/><polygon fill="none" points="228.317,343,222.317,339,216.317,343,222.317,347,228.317,343" style="stroke:#181818;stroke-width:1.0;"/><polygon fill="#181818" points="193.746,343,202.746,347,198.746,343,202.746,339,193.746,343" style="stroke:#181818;stroke-width:1.0;"/><line style="stroke:#181818;stroke-width:1.0;" x1="198.746" x2="206.746" y1="343" y2="343"/></g><!--MD5=[4694440557e5a0df2804fb58b4fbd8a9]
link Wallet to Wallet--><g id="link_Wallet_Wallet"><path codeLine="22" d="M273.211,200.7046 C273.211,200.7046 296,204.971 296,211 C296,217.029 286.85,220.462 274.461,221.298 " fill="none" id="Wallet-Wallet" style="stroke:#181818;stroke-width:1.0;"/><polygon fill="#181818" points="261.211,221.269,270.2022,225.2888,266.211,221.28,270.2198,217.2888,261.211,221.269" style="stroke:#181818;stroke-width:1.0;"/><line style="stroke:#181818;stroke-width:1.0;" x1="266.211" x2="274.211" y1="221.28" y2="221.298"/><polygon fill="none" points="261.211,200.731,267.2198,204.7178,273.211,200.7046,267.2022,196.7178,261.211,200.731" style="stroke:#181818;stroke-width:1.0;"/><text fill="#000000" font-family="sans-serif" font-size="13" lengthAdjust="spacing" textLength="77" x="302" y="215.5669">connections</text><text fill="#000000" font-family="sans-serif" font-size="13" lengthAdjust="spacing" textLength="7" x="269.0858" y="218.8587">*</text></g><!--MD5=[31570ddb69bd6963f771fe68c2f6f976]
link BillingDetails to Wallet--><g id="link_BillingDetails_Wallet"><path codeLine="23" d="M161.401,211 C164.183,211 170.766,211 170.766,211 " fill="none" id="BillingDetails-Wallet" style="stroke:#181818;stroke-width:1.0;"/><polygon fill="none" points="182.766,211,176.766,207,170.766,211,176.766,215,182.766,211" style="stroke:#181818;stroke-width:1.0;"/><polygon fill="#181818" points="148.148,211,157.148,215,153.148,211,157.148,207,148.148,211" style="stroke:#181818;stroke-width:1.0;"/><line style="stroke:#181818;stroke-width:1.0;" x1="153.148" x2="161.148" y1="211" y2="211"/></g><!--MD5=[3a50cb7689b849e40ccf924019b354aa]
reverse link BillingService to MockBillingService--><g id="link_BillingService_MockBillingService"><path d="M851.484,386.874 C846.28,413.072 839.83,445.546 835.574,466.974 " fill="none" id="BillingService-backto-MockBillingService" style="stroke:#181818;stroke-width:1.0;stroke-dasharray:7.0,7.0;"/><polygon fill="none" points="844.642,385.387,855.405,367.134,858.374,388.115,844.642,385.387" style="stroke:#181818;stroke-width:1.0;"/></g><!--MD5=[8dbeb6a0e09c31a77de62a5b2a1eae03]
link TransferService to TransferRepository--><g id="link_TransferService_TransferRepository"><path codeLine="37" d="M626.2021,527.0576 C626.2021,527.0576 633.443,567.98 636.634,586.02 " fill="none" id="TransferService-TransferRepository" style="stroke:#181818;stroke-width:1.0;"/><polygon fill="#181818" points="638.924,598.9598,641.2953,589.4007,638.0531,594.0362,633.4176,590.7941,638.924,598.9598" style="stroke:#181818;stroke-width:1.0;"/><line style="stroke:#181818;stroke-width:1.0;" x1="638.0531" x2="636.6585" y1="594.0362" y2="586.1585"/><polygon fill="#181818" points="624.112,515.241,621.2182,521.846,626.2021,527.0576,629.0959,520.4526,624.112,515.241" style="stroke:#181818;stroke-width:1.0;"/></g><!--MD5=[db011f915c2c9d9ff0d84aefe2feddf6]
link WalletService to UserService--><g id="link_WalletService_UserService"><path codeLine="38" d="M597.24,343 C597.24,343 590.291,343 587.324,343 " fill="none" id="WalletService-UserService" style="stroke:#181818;stroke-width:1.0;"/><polygon fill="#181818" points="574.174,343,583.174,347,579.174,343,583.174,339,574.174,343" style="stroke:#181818;stroke-width:1.0;"/><line style="stroke:#181818;stroke-width:1.0;" x1="579.174" x2="587.174" y1="343" y2="343"/><polygon fill="#181818" points="609.24,343,603.24,339,597.24,343,603.24,347,609.24,343" style="stroke:#181818;stroke-width:1.0;"/></g><!--MD5=[1e935fea4ec8524d3ebf56578bd6c37a]
link WalletService to TransferService--><g id="link_WalletService_TransferService"><path codeLine="39" d="M669.8209,378.0969 C669.8209,378.0969 645.771,432.115 635.564,455.04 " fill="none" id="WalletService-TransferService" style="stroke:#181818;stroke-width:1.0;"/><polygon fill="#181818" points="630.251,466.974,637.5657,460.3789,632.2846,462.4062,630.2573,457.1251,630.251,466.974" style="stroke:#181818;stroke-width:1.0;"/><line style="stroke:#181818;stroke-width:1.0;" x1="632.2846" x2="635.5385" y1="462.4062" y2="455.0975"/><polygon fill="#181818" points="674.701,367.134,668.6066,370.9887,669.8209,378.0969,675.9152,374.2421,674.701,367.134" style="stroke:#181818;stroke-width:1.0;"/></g><!--MD5=[c0930c1adb143c11bb0714d83fd2930f]
link WalletService to BillingService--><g id="link_WalletService_BillingService"><path codeLine="40" d="M772.537,343 C772.537,343 779.332,343 782.111,343 " fill="none" id="WalletService-BillingService" style="stroke:#181818;stroke-width:1.0;"/><polygon fill="#181818" points="795.116,343,786.116,339,790.116,343,786.116,347,795.116,343" style="stroke:#181818;stroke-width:1.0;"/><line style="stroke:#181818;stroke-width:1.0;" x1="790.116" x2="782.116" y1="343" y2="343"/><polygon fill="#181818" points="760.537,343,766.537,347,772.537,343,766.537,339,760.537,343" style="stroke:#181818;stroke-width:1.0;"/></g><!--MD5=[6cafb11bda6b24c8b2336726b7fb5b27]
link WebController to WalletService--><g id="link_WebController_WalletService"><path codeLine="43" d="M714.3188,246.71 C714.3188,246.71 701.538,288.252 695.927,306.487 " fill="none" id="WebController-WalletService" style="stroke:#181818;stroke-width:1.0;"/><polygon fill="#181818" points="692.089,318.96,698.5589,311.5343,693.5594,314.1811,690.9127,309.1816,692.089,318.96" style="stroke:#181818;stroke-width:1.0;"/><line style="stroke:#181818;stroke-width:1.0;" x1="693.5594" x2="695.9125" y1="314.1811" y2="306.535"/><polygon fill="#181818" points="717.849,235.241,712.2609,239.7987,714.3188,246.71,719.9069,242.1522,717.849,235.241" style="stroke:#181818;stroke-width:1.0;"/></g><!--MD5=[191c39fb65fbe9f8d148fd8f74b0df2f]
link MockBankController to MockBillingService--><g id="link_MockBankController_MockBillingService"><path codeLine="44" d="M948.0029,246.9984 C948.0029,246.9984 962.6,345.024 942,391 C929.467,418.972 904.692,442.288 881.722,459.253 " fill="none" id="MockBankController-MockBillingService" style="stroke:#181818;stroke-width:1.0;"/><polygon fill="#181818" points="871.001,466.828,880.6596,464.9015,875.0846,463.9428,876.0433,458.3678,871.001,466.828" style="stroke:#181818;stroke-width:1.0;"/><line style="stroke:#181818;stroke-width:1.0;" x1="875.0846" x2="881.6175" y1="463.9428" y2="459.327"/><polygon fill="#181818" points="945.405,235.283,942.7988,242.0067,948.0029,246.9984,950.6091,240.2748,945.405,235.283" style="stroke:#181818;stroke-width:1.0;"/></g><!--MD5=[c702a32cdacb65ca046b8cc70fad2ec4]
link WalletService to WalletRepository--><g id="link_WalletService_WalletRepository"><path codeLine="46" d="M633.0888,372.587 C633.0888,372.587 604.651,386.027 591,391 C560.512,402.106 543.994,386.156 520,408 C469.011,454.421 453.625,537.895 448.991,585.715 " fill="none" id="WalletService-WalletRepository" style="stroke:#181818;stroke-width:1.0;"/><polygon fill="#181818" points="447.909,598.7646,452.6391,590.126,448.3222,593.7817,444.6665,589.4648,447.909,598.7646" style="stroke:#181818;stroke-width:1.0;"/><line style="stroke:#181818;stroke-width:1.0;" x1="448.3222" x2="448.983" y1="593.7817" y2="585.809"/><polygon fill="#181818" points="643.793,367.163,636.6329,366.3069,633.0888,372.587,640.2489,373.4431,643.793,367.163" style="stroke:#181818;stroke-width:1.0;"/></g><!--MD5=[5fb5cea8d0ced273abb0825de5d33651]
link UserService to UserRepository--><g id="link_UserService_UserRepository"><path codeLine="47" d="M476.5504,376.1371 C476.5504,376.1371 456.898,397.893 448,408 C392.314,471.253 328.641,546.359 292.99,588.671 " fill="none" id="UserService-UserRepository" style="stroke:#181818;stroke-width:1.0;"/><polygon fill="#181818" points="284.552,598.6948,293.4082,594.3858,287.7721,594.8698,287.2882,589.2337,284.552,598.6948" style="stroke:#181818;stroke-width:1.0;"/><line style="stroke:#181818;stroke-width:1.0;" x1="287.7721" x2="292.924" y1="594.8698" y2="588.7495"/><polygon fill="#181818" points="484.626,367.261,477.6295,369.0072,476.5504,376.1371,483.5469,374.3909,484.626,367.261" style="stroke:#181818;stroke-width:1.0;"/></g><!--MD5=[262fadd5e20cde3d56a311745eb20233]
reverse link Invoice to BillingService--><g id="link_Invoice_BillingService"><path codeLine="49" d="M351.101,93.171 C393.453,136.966 483.931,221.991 580,259 C662.42,290.751 696.032,243.101 778,276 C801.404,285.394 823.404,303.838 838.713,318.847 " fill="none" id="Invoice-backto-BillingService" style="stroke:#181818;stroke-width:1.0;stroke-dasharray:7.0,7.0;"/><polygon fill="#181818" points="347.399,89.321,350.7537,98.5809,350.8646,92.9251,356.5203,93.036,347.399,89.321" style="stroke:#181818;stroke-width:1.0;"/><text fill="#000000" font-family="sans-serif" font-size="13" lengthAdjust="spacing" textLength="48" x="581" y="215.5669">creates</text></g><!--MD5=[75cb660c16d65fb02abc2cd907971ec4]
reverse link User to UserRepository--><g id="link_User_UserRepository"><path codeLine="50" d="M172.378,372.011 C192.718,426.91 237.483,547.732 256.347,598.6466 " fill="none" id="User-backto-UserRepository" style="stroke:#181818;stroke-width:1.0;stroke-dasharray:7.0,7.0;"/><polygon fill="#181818" points="170.605,367.224,169.9836,377.0532,172.3434,371.9121,177.4846,374.2718,170.605,367.224" style="stroke:#181818;stroke-width:1.0;"/><text fill="#000000" font-family="sans-serif" font-size="13" lengthAdjust="spacing" textLength="48" x="236" y="495.5669">creates</text></g><!--MD5=[7920165c3d2c7c57eda68972ca54daec]
reverse link UserPrincipal to UserService--><g id="link_UserPrincipal_UserService"><path codeLine="51" d="M359.08,343 C384.237,343 412.736,343 437.895,343 " fill="none" id="UserPrincipal-backto-UserService" style="stroke:#181818;stroke-width:1.0;stroke-dasharray:7.0,7.0;"/><polygon fill="#181818" points="353.765,343,362.765,347,358.765,343,362.765,339,353.765,343" style="stroke:#181818;stroke-width:1.0;"/><text fill="#000000" font-family="sans-serif" font-size="13" lengthAdjust="spacing" textLength="48" x="371.75" y="359.0669">creates</text></g><!--MD5=[ce90bf34000e08a80b59d002d1d13310]
link MockBillingService to configuration--><!--MD5=[a83470dfce4d62693c83cd5b01bbd31e]
@startuml
package configuration {
  class LocaleConfig< 1 >
  class SpringSecurityConfig< 1 >
  class WebMvcConfiguration< 1 >
}

package controller {
  class MockBankController< 1 >
  class WebController< 1 >
}

package model {
  class BillingDetails
  class Invoice
  entity Transfer
  entity User
  entity Wallet
  Transfer "*" o- -> "2" Wallet : sender/receiver
  User o-up-> Wallet
  class UserPrincipal
  UserPrincipal o-left-> User
  Wallet o-> "*" Wallet : connections
  Wallet o-left-> BillingDetails
}

package repository {
  interface TransferRepository
  interface UserRepository
  interface WalletRepository
}

package service {
  class MockBillingService< 1 > implements BillingService
  class UserService< 1 >
  class WalletService< 1 >
  class TransferService< 1 >
  TransferService *- -> TransferRepository
  WalletService *-> UserService
  WalletService *- -> TransferService
  WalletService *-> BillingService
}

WebController *- -> WalletService
MockBankController *- -> MockBillingService

WalletService *- -> WalletRepository
UserService *- -> UserRepository

BillingService .left.> Invoice : creates
UserRepository .left.> User : creates
UserService .left.> UserPrincipal : creates

''' layout helpers
MockBillingService -[hidden]>configuration
@enduml

@startuml
package configuration {
  class LocaleConfig< 1 >
  class SpringSecurityConfig< 1 >
  class WebMvcConfiguration< 1 >
}

package controller {
  class MockBankController< 1 >
  class WebController< 1 >
}

package model {
  class BillingDetails
  class Invoice
  entity Transfer
  entity User
  entity Wallet
  Transfer "*" o- -> "2" Wallet : sender/receiver
  User o-up-> Wallet
  class UserPrincipal
  UserPrincipal o-left-> User
  Wallet o-> "*" Wallet : connections
  Wallet o-left-> BillingDetails
}

package repository {
  interface TransferRepository
  interface UserRepository
  interface WalletRepository
}

package service {
  class MockBillingService< 1 > implements BillingService
  class UserService< 1 >
  class WalletService< 1 >
  class TransferService< 1 >
  TransferService *- -> TransferRepository
  WalletService *-> UserService
  WalletService *- -> TransferService
  WalletService *-> BillingService
}

WebController *- -> WalletService
MockBankController *- -> MockBillingService

WalletService *- -> WalletRepository
UserService *- -> UserRepository

BillingService .left.> Invoice : creates
UserRepository .left.> User : creates
UserService .left.> UserPrincipal : creates

MockBillingService -[hidden]>configuration
@enduml

PlantUML version 1.2022.7beta2(Unknown compile time)
(GPL source distribution)
Java Runtime: Java(TM) SE Runtime Environment
JVM: Java HotSpot(TM) 64-Bit Server VM
Default Encoding: UTF-8
Language: en
Country: US
--></g></svg>