<?xml version="1.0" encoding="UTF-8" standalone="no"?>
<svg xmlns="http://www.w3.org/2000/svg" xmlns:xlink="http://www.w3.org/1999/xlink" contentStyleType="text/css" height="934px" preserveAspectRatio="none" style="width:1087px;height:934px;background:#FFFFFF;" version="1.1" viewBox="0 0 1087 934" width="1087px" zoomAndPan="magnify"><defs/><g><!--MD5=[5a55b731792d22909a2631efc8afae35]
cluster configuration--><g id="cluster_configuration"><path d="M570.5,787 L682.5,787 A3.75,3.75 0 0 1 685,789.5 L692,809.2969 L1049.5,809.2969 A2.5,2.5 0 0 1 1052,811.7969 L1052,916.5 A2.5,2.5 0 0 1 1049.5,919 L570.5,919 A2.5,2.5 0 0 1 568,916.5 L568,789.5 A2.5,2.5 0 0 1 570.5,787 " style="stroke:#000000;stroke-width:1.5;fill:none;"/><line style="stroke:#000000;stroke-width:1.5;fill:none;" x1="568" x2="692" y1="809.2969" y2="809.2969"/><text fill="#000000" font-family="sans-serif" font-size="14" font-weight="bold" lengthAdjust="spacing" textLength="111" x="572" y="801.9951">configuration</text></g><!--MD5=[10ea673caf457862023e152271927b45]
cluster controller--><g id="cluster_controller"><path d="M599.5,6 L680.5,6 A3.75,3.75 0 0 1 683,8.5 L690,28.2969 L798.5,28.2969 A2.5,2.5 0 0 1 801,30.7969 L801,135.5 A2.5,2.5 0 0 1 798.5,138 L599.5,138 A2.5,2.5 0 0 1 597,135.5 L597,8.5 A2.5,2.5 0 0 1 599.5,6 " style="stroke:#000000;stroke-width:1.5;fill:none;"/><line style="stroke:#000000;stroke-width:1.5;fill:none;" x1="597" x2="690" y1="28.2969" y2="28.2969"/><text fill="#000000" font-family="sans-serif" font-size="14" font-weight="bold" lengthAdjust="spacing" textLength="80" x="601" y="20.9951">controller</text></g><!--MD5=[7579d5565d2521d5936cec86ed3dadee]
cluster service--><g id="cluster_service"><path d="M321.5,171 L379.5,171 A3.75,3.75 0 0 1 382,173.5 L389,193.2969 L1077.5,193.2969 A2.5,2.5 0 0 1 1080,195.7969 L1080,365.5 A2.5,2.5 0 0 1 1077.5,368 L321.5,368 A2.5,2.5 0 0 1 319,365.5 L319,173.5 A2.5,2.5 0 0 1 321.5,171 " style="stroke:#000000;stroke-width:1.5;fill:none;"/><line style="stroke:#000000;stroke-width:1.5;fill:none;" x1="319" x2="389" y1="193.2969" y2="193.2969"/><text fill="#000000" font-family="sans-serif" font-size="14" font-weight="bold" lengthAdjust="spacing" textLength="57" x="323" y="185.9951">service</text></g><!--MD5=[5d4cd377749310b66bf14896f5cd8d9b]
cluster model--><g id="cluster_model"><path d="M8.5,220 L58.5,220 A3.75,3.75 0 0 1 61,222.5 L68,242.2969 L292.5,242.2969 A2.5,2.5 0 0 1 295,244.7969 L295,924.5 A2.5,2.5 0 0 1 292.5,927 L8.5,927 A2.5,2.5 0 0 1 6,924.5 L6,222.5 A2.5,2.5 0 0 1 8.5,220 " style="stroke:#000000;stroke-width:1.5;fill:none;"/><line style="stroke:#000000;stroke-width:1.5;fill:none;" x1="6" x2="68" y1="242.2969" y2="242.2969"/><text fill="#000000" font-family="sans-serif" font-size="14" font-weight="bold" lengthAdjust="spacing" textLength="49" x="10" y="234.9951">model</text></g><!--MD5=[bd0bd4c41e0e5269e37474fd45a6abb7]
cluster repository--><g id="cluster_repository"><path d="M338.5,409 L423.5,409 A3.75,3.75 0 0 1 426,411.5 L433,431.2969 L932.5,431.2969 A2.5,2.5 0 0 1 935,433.7969 L935,554.5 A2.5,2.5 0 0 1 932.5,557 L338.5,557 A2.5,2.5 0 0 1 336,554.5 L336,411.5 A2.5,2.5 0 0 1 338.5,409 " style="stroke:#000000;stroke-width:1.5;fill:none;"/><line style="stroke:#000000;stroke-width:1.5;fill:none;" x1="336" x2="433" y1="431.2969" y2="431.2969"/><text fill="#000000" font-family="sans-serif" font-size="14" font-weight="bold" lengthAdjust="spacing" textLength="84" x="340" y="423.9951">repository</text></g><!--MD5=[f12d22dd70a79c501d3eb00951149527]
class SpringSecurityConfig--><g id="elem_SpringSecurityConfig"><rect codeLine="16" fill="#F1F1F1" height="80.5938" id="SpringSecurityConfig" rx="2.5" ry="2.5" style="stroke:#181818;stroke-width:0.5;" width="205" x="584.5" y="822"/><ellipse cx="599.5" cy="838" fill="#ADD1B2" rx="11" ry="11" style="stroke:#181818;stroke-width:1.0;"/><path d="M601.8438,833.6719 C600.9063,833.2344 600.3125,833.0938 599.4375,833.0938 C596.8125,833.0938 594.8125,835.1719 594.8125,837.8906 L594.8125,839.0156 C594.8125,841.5938 596.9219,843.4844 599.8125,843.4844 C601.0313,843.4844 602.1875,843.1875 602.9375,842.6406 C603.5156,842.2344 603.8438,841.7813 603.8438,841.3906 C603.8438,840.9375 603.4531,840.5469 602.9844,840.5469 C602.7656,840.5469 602.5625,840.625 602.375,840.8125 C601.9219,841.2969 601.9219,841.2969 601.7344,841.3906 C601.3125,841.6563 600.625,841.7813 599.8594,841.7813 C597.8125,841.7813 596.5156,840.6875 596.5156,838.9844 L596.5156,837.8906 C596.5156,836.1094 597.7656,834.7969 599.5,834.7969 C600.0781,834.7969 600.6875,834.9531 601.1563,835.2031 C601.6406,835.4844 601.8125,835.7031 601.9063,836.1094 C601.9688,836.5156 602,836.6406 602.1406,836.7656 C602.2813,836.9063 602.5156,837.0156 602.7344,837.0156 C603,837.0156 603.2656,836.875 603.4375,836.6563 C603.5469,836.5 603.5781,836.3125 603.5781,835.8906 L603.5781,834.4688 C603.5781,834.0313 603.5625,833.9063 603.4688,833.75 C603.3125,833.4844 603.0313,833.3438 602.7344,833.3438 C602.4375,833.3438 602.2344,833.4375 602.0156,833.75 L601.8438,833.6719 Z " fill="#000000"/><text fill="#000000" font-family="sans-serif" font-size="14" lengthAdjust="spacing" textLength="153" x="613.5" y="842.8467">SpringSecurityConfig</text><rect fill="#FFFFFF" height="15.9688" style="stroke:#000000;stroke-width:1.0;stroke-dasharray:2.0,2.0;" width="18" x="774.5" y="819"/><text fill="#000000" font-family="sans-serif" font-size="12" font-style="italic" lengthAdjust="spacing" textLength="8" x="779.5" y="831.1387">1</text><line style="stroke:#181818;stroke-width:0.5;" x1="585.5" x2="788.5" y1="854" y2="854"/><line style="stroke:#181818;stroke-width:0.5;" x1="585.5" x2="788.5" y1="862" y2="862"/><ellipse cx="595.5" cy="873" fill="#84BE84" rx="3" ry="3" style="stroke:#038048;stroke-width:1.0;"/><text fill="#000000" font-family="sans-serif" font-size="14" lengthAdjust="spacing" textLength="145" x="604.5" y="878.9951">securityFilterChain()</text><ellipse cx="595.5" cy="889.2969" fill="#84BE84" rx="3" ry="3" style="stroke:#038048;stroke-width:1.0;"/><text fill="#000000" font-family="sans-serif" font-size="14" lengthAdjust="spacing" textLength="160" x="604.5" y="895.292">getPasswordEncoder()</text></g><!--MD5=[49f83f187a91d2c081fc3779443fea89]
class WebMvcConfiguration--><g id="elem_WebMvcConfiguration"><rect codeLine="20" fill="#F1F1F1" height="48" id="WebMvcConfiguration" rx="2.5" ry="2.5" style="stroke:#181818;stroke-width:0.5;" width="211" x="824.5" y="838.5"/><ellipse cx="839.5" cy="854.5" fill="#ADD1B2" rx="11" ry="11" style="stroke:#181818;stroke-width:1.0;"/><path d="M841.8438,850.1719 C840.9063,849.7344 840.3125,849.5938 839.4375,849.5938 C836.8125,849.5938 834.8125,851.6719 834.8125,854.3906 L834.8125,855.5156 C834.8125,858.0938 836.9219,859.9844 839.8125,859.9844 C841.0313,859.9844 842.1875,859.6875 842.9375,859.1406 C843.5156,858.7344 843.8438,858.2813 843.8438,857.8906 C843.8438,857.4375 843.4531,857.0469 842.9844,857.0469 C842.7656,857.0469 842.5625,857.125 842.375,857.3125 C841.9219,857.7969 841.9219,857.7969 841.7344,857.8906 C841.3125,858.1563 840.625,858.2813 839.8594,858.2813 C837.8125,858.2813 836.5156,857.1875 836.5156,855.4844 L836.5156,854.3906 C836.5156,852.6094 837.7656,851.2969 839.5,851.2969 C840.0781,851.2969 840.6875,851.4531 841.1563,851.7031 C841.6406,851.9844 841.8125,852.2031 841.9063,852.6094 C841.9688,853.0156 842,853.1406 842.1406,853.2656 C842.2813,853.4063 842.5156,853.5156 842.7344,853.5156 C843,853.5156 843.2656,853.375 843.4375,853.1563 C843.5469,853 843.5781,852.8125 843.5781,852.3906 L843.5781,850.9688 C843.5781,850.5313 843.5625,850.4063 843.4688,850.25 C843.3125,849.9844 843.0313,849.8438 842.7344,849.8438 C842.4375,849.8438 842.2344,849.9375 842.0156,850.25 L841.8438,850.1719 Z " fill="#000000"/><text fill="#000000" font-family="sans-serif" font-size="14" lengthAdjust="spacing" textLength="159" x="853.5" y="859.3467">WebMvcConfiguration</text><rect fill="#FFFFFF" height="15.9688" style="stroke:#000000;stroke-width:1.0;stroke-dasharray:2.0,2.0;" width="18" x="1020.5" y="835.5"/><text fill="#000000" font-family="sans-serif" font-size="12" font-style="italic" lengthAdjust="spacing" textLength="8" x="1025.5" y="847.6387">1</text><line style="stroke:#181818;stroke-width:0.5;" x1="825.5" x2="1034.5" y1="870.5" y2="870.5"/><line style="stroke:#181818;stroke-width:0.5;" x1="825.5" x2="1034.5" y1="878.5" y2="878.5"/></g><!--MD5=[578b131cd62493b9bb7d16399b138938]
class WalletController--><g id="elem_WalletController"><rect codeLine="25" fill="#F1F1F1" height="80.5938" id="WalletController" rx="2.5" ry="2.5" style="stroke:#181818;stroke-width:0.5;" width="171" x="613.5" y="41"/><ellipse cx="628.5" cy="57" fill="#ADD1B2" rx="11" ry="11" style="stroke:#181818;stroke-width:1.0;"/><path d="M630.8438,52.6719 C629.9063,52.2344 629.3125,52.0938 628.4375,52.0938 C625.8125,52.0938 623.8125,54.1719 623.8125,56.8906 L623.8125,58.0156 C623.8125,60.5938 625.9219,62.4844 628.8125,62.4844 C630.0313,62.4844 631.1875,62.1875 631.9375,61.6406 C632.5156,61.2344 632.8438,60.7813 632.8438,60.3906 C632.8438,59.9375 632.4531,59.5469 631.9844,59.5469 C631.7656,59.5469 631.5625,59.625 631.375,59.8125 C630.9219,60.2969 630.9219,60.2969 630.7344,60.3906 C630.3125,60.6563 629.625,60.7813 628.8594,60.7813 C626.8125,60.7813 625.5156,59.6875 625.5156,57.9844 L625.5156,56.8906 C625.5156,55.1094 626.7656,53.7969 628.5,53.7969 C629.0781,53.7969 629.6875,53.9531 630.1563,54.2031 C630.6406,54.4844 630.8125,54.7031 630.9063,55.1094 C630.9688,55.5156 631,55.6406 631.1406,55.7656 C631.2813,55.9063 631.5156,56.0156 631.7344,56.0156 C632,56.0156 632.2656,55.875 632.4375,55.6563 C632.5469,55.5 632.5781,55.3125 632.5781,54.8906 L632.5781,53.4688 C632.5781,53.0313 632.5625,52.9063 632.4688,52.75 C632.3125,52.4844 632.0313,52.3438 631.7344,52.3438 C631.4375,52.3438 631.2344,52.4375 631.0156,52.75 L630.8438,52.6719 Z " fill="#000000"/><text fill="#000000" font-family="sans-serif" font-size="14" lengthAdjust="spacing" textLength="119" x="642.5" y="61.8467">WalletController</text><rect fill="#FFFFFF" height="15.9688" style="stroke:#000000;stroke-width:1.0;stroke-dasharray:2.0,2.0;" width="18" x="769.5" y="38"/><text fill="#000000" font-family="sans-serif" font-size="12" font-style="italic" lengthAdjust="spacing" textLength="8" x="774.5" y="50.1387">1</text><line style="stroke:#181818;stroke-width:0.5;" x1="614.5" x2="783.5" y1="73" y2="73"/><line style="stroke:#181818;stroke-width:0.5;" x1="614.5" x2="783.5" y1="81" y2="81"/><ellipse cx="624.5" cy="92" fill="#84BE84" rx="3" ry="3" style="stroke:#038048;stroke-width:1.0;"/><text fill="#000000" font-family="sans-serif" font-size="14" lengthAdjust="spacing" textLength="95" x="633.5" y="97.9951">getTransfer()</text><ellipse cx="624.5" cy="108.2969" fill="#84BE84" rx="3" ry="3" style="stroke:#038048;stroke-width:1.0;"/><text fill="#000000" font-family="sans-serif" font-size="14" lengthAdjust="spacing" textLength="68" x="633.5" y="114.292">postPay()</text></g><!--MD5=[e4ac4745f81aec2db60ad4ddae80b659]
class UserService--><g id="elem_UserService"><rect codeLine="32" fill="#F1F1F1" height="64.2969" id="UserService" rx="2.5" ry="2.5" style="stroke:#181818;stroke-width:0.5;" width="196" x="335" y="247"/><ellipse cx="377" cy="263" fill="#ADD1B2" rx="11" ry="11" style="stroke:#181818;stroke-width:1.0;"/><path d="M379.3438,258.6719 C378.4063,258.2344 377.8125,258.0938 376.9375,258.0938 C374.3125,258.0938 372.3125,260.1719 372.3125,262.8906 L372.3125,264.0156 C372.3125,266.5938 374.4219,268.4844 377.3125,268.4844 C378.5313,268.4844 379.6875,268.1875 380.4375,267.6406 C381.0156,267.2344 381.3438,266.7813 381.3438,266.3906 C381.3438,265.9375 380.9531,265.5469 380.4844,265.5469 C380.2656,265.5469 380.0625,265.625 379.875,265.8125 C379.4219,266.2969 379.4219,266.2969 379.2344,266.3906 C378.8125,266.6563 378.125,266.7813 377.3594,266.7813 C375.3125,266.7813 374.0156,265.6875 374.0156,263.9844 L374.0156,262.8906 C374.0156,261.1094 375.2656,259.7969 377,259.7969 C377.5781,259.7969 378.1875,259.9531 378.6563,260.2031 C379.1406,260.4844 379.3125,260.7031 379.4063,261.1094 C379.4688,261.5156 379.5,261.6406 379.6406,261.7656 C379.7813,261.9063 380.0156,262.0156 380.2344,262.0156 C380.5,262.0156 380.7656,261.875 380.9375,261.6563 C381.0469,261.5 381.0781,261.3125 381.0781,260.8906 L381.0781,259.4688 C381.0781,259.0313 381.0625,258.9063 380.9688,258.75 C380.8125,258.4844 380.5313,258.3438 380.2344,258.3438 C379.9375,258.3438 379.7344,258.4375 379.5156,258.75 L379.3438,258.6719 Z " fill="#000000"/><text fill="#000000" font-family="sans-serif" font-size="14" lengthAdjust="spacing" textLength="84" x="397" y="267.8467">UserService</text><rect fill="#FFFFFF" height="15.9688" style="stroke:#000000;stroke-width:1.0;stroke-dasharray:2.0,2.0;" width="18" x="516" y="244"/><text fill="#000000" font-family="sans-serif" font-size="12" font-style="italic" lengthAdjust="spacing" textLength="8" x="521" y="256.1387">1</text><line style="stroke:#181818;stroke-width:0.5;" x1="336" x2="530" y1="279" y2="279"/><line style="stroke:#181818;stroke-width:0.5;" x1="336" x2="530" y1="287" y2="287"/><ellipse cx="346" cy="298" fill="#84BE84" rx="3" ry="3" style="stroke:#038048;stroke-width:1.0;"/><text fill="#000000" font-family="sans-serif" font-size="14" lengthAdjust="spacing" textLength="170" x="355" y="303.9951">getAuthenticatedUser()</text></g><!--MD5=[fd19d5ad0cc08ec15ff275655ff5e7e3]
class WalletService--><g id="elem_WalletService"><rect codeLine="35" fill="#F1F1F1" height="145.7813" id="WalletService" rx="2.5" ry="2.5" style="stroke:#181818;stroke-width:0.5;" width="265" x="566.5" y="206"/><ellipse cx="635.25" cy="222" fill="#ADD1B2" rx="11" ry="11" style="stroke:#181818;stroke-width:1.0;"/><path d="M637.5938,217.6719 C636.6563,217.2344 636.0625,217.0938 635.1875,217.0938 C632.5625,217.0938 630.5625,219.1719 630.5625,221.8906 L630.5625,223.0156 C630.5625,225.5938 632.6719,227.4844 635.5625,227.4844 C636.7813,227.4844 637.9375,227.1875 638.6875,226.6406 C639.2656,226.2344 639.5938,225.7813 639.5938,225.3906 C639.5938,224.9375 639.2031,224.5469 638.7344,224.5469 C638.5156,224.5469 638.3125,224.625 638.125,224.8125 C637.6719,225.2969 637.6719,225.2969 637.4844,225.3906 C637.0625,225.6563 636.375,225.7813 635.6094,225.7813 C633.5625,225.7813 632.2656,224.6875 632.2656,222.9844 L632.2656,221.8906 C632.2656,220.1094 633.5156,218.7969 635.25,218.7969 C635.8281,218.7969 636.4375,218.9531 636.9063,219.2031 C637.3906,219.4844 637.5625,219.7031 637.6563,220.1094 C637.7188,220.5156 637.75,220.6406 637.8906,220.7656 C638.0313,220.9063 638.2656,221.0156 638.4844,221.0156 C638.75,221.0156 639.0156,220.875 639.1875,220.6563 C639.2969,220.5 639.3281,220.3125 639.3281,219.8906 L639.3281,218.4688 C639.3281,218.0313 639.3125,217.9063 639.2188,217.75 C639.0625,217.4844 638.7813,217.3438 638.4844,217.3438 C638.1875,217.3438 637.9844,217.4375 637.7656,217.75 L637.5938,217.6719 Z " fill="#000000"/><text fill="#000000" font-family="sans-serif" font-size="14" lengthAdjust="spacing" textLength="99" x="655.75" y="226.8467">WalletService</text><rect fill="#FFFFFF" height="15.9688" style="stroke:#000000;stroke-width:1.0;stroke-dasharray:2.0,2.0;" width="18" x="816.5" y="203"/><text fill="#000000" font-family="sans-serif" font-size="12" font-style="italic" lengthAdjust="spacing" textLength="8" x="821.5" y="215.1387">1</text><line style="stroke:#181818;stroke-width:0.5;" x1="567.5" x2="830.5" y1="238" y2="238"/><line style="stroke:#181818;stroke-width:0.5;" x1="567.5" x2="830.5" y1="246" y2="246"/><ellipse cx="577.5" cy="257" fill="#84BE84" rx="3" ry="3" style="stroke:#038048;stroke-width:1.0;"/><text fill="#000000" font-family="sans-serif" font-size="14" lengthAdjust="spacing" textLength="135" x="586.5" y="262.9951">getWalletForUser()</text><ellipse cx="577.5" cy="273.2969" fill="#84BE84" rx="3" ry="3" style="stroke:#038048;stroke-width:1.0;"/><text fill="#000000" font-family="sans-serif" font-size="14" lengthAdjust="spacing" textLength="239" x="586.5" y="279.292">getWalletForAuthenticatedUser()</text><ellipse cx="577.5" cy="289.5938" fill="#84BE84" rx="3" ry="3" style="stroke:#038048;stroke-width:1.0;"/><text fill="#000000" font-family="sans-serif" font-size="14" lengthAdjust="spacing" textLength="100" x="586.5" y="295.5889">getContacts()</text><ellipse cx="577.5" cy="305.8906" fill="#84BE84" rx="3" ry="3" style="stroke:#038048;stroke-width:1.0;"/><text fill="#000000" font-family="sans-serif" font-size="14" lengthAdjust="spacing" textLength="102" x="586.5" y="311.8857">getTransfers()</text><ellipse cx="577.5" cy="322.1875" fill="#84BE84" rx="3" ry="3" style="stroke:#038048;stroke-width:1.0;"/><text fill="#000000" font-family="sans-serif" font-size="14" lengthAdjust="spacing" textLength="94" x="586.5" y="328.1826">addContact()</text><ellipse cx="577.5" cy="338.4844" fill="#84BE84" rx="3" ry="3" style="stroke:#038048;stroke-width:1.0;"/><text fill="#000000" font-family="sans-serif" font-size="14" lengthAdjust="spacing" textLength="88" x="586.5" y="344.4795">doTransfer()</text></g><!--MD5=[c5e906f87014b27473f35ba27de49c6c]
class TransferService--><g id="elem_TransferService"><rect codeLine="43" fill="#F1F1F1" height="80.5938" id="TransferService" rx="2.5" ry="2.5" style="stroke:#181818;stroke-width:0.5;" width="197" x="866.5" y="238.5"/><ellipse cx="895.9" cy="254.5" fill="#ADD1B2" rx="11" ry="11" style="stroke:#181818;stroke-width:1.0;"/><path d="M898.2438,250.1719 C897.3063,249.7344 896.7125,249.5938 895.8375,249.5938 C893.2125,249.5938 891.2125,251.6719 891.2125,254.3906 L891.2125,255.5156 C891.2125,258.0938 893.3219,259.9844 896.2125,259.9844 C897.4313,259.9844 898.5875,259.6875 899.3375,259.1406 C899.9156,258.7344 900.2438,258.2813 900.2438,257.8906 C900.2438,257.4375 899.8531,257.0469 899.3844,257.0469 C899.1656,257.0469 898.9625,257.125 898.775,257.3125 C898.3219,257.7969 898.3219,257.7969 898.1344,257.8906 C897.7125,258.1563 897.025,258.2813 896.2594,258.2813 C894.2125,258.2813 892.9156,257.1875 892.9156,255.4844 L892.9156,254.3906 C892.9156,252.6094 894.1656,251.2969 895.9,251.2969 C896.4781,251.2969 897.0875,251.4531 897.5563,251.7031 C898.0406,251.9844 898.2125,252.2031 898.3063,252.6094 C898.3688,253.0156 898.4,253.1406 898.5406,253.2656 C898.6813,253.4063 898.9156,253.5156 899.1344,253.5156 C899.4,253.5156 899.6656,253.375 899.8375,253.1563 C899.9469,253 899.9781,252.8125 899.9781,252.3906 L899.9781,250.9688 C899.9781,250.5313 899.9625,250.4063 899.8688,250.25 C899.7125,249.9844 899.4313,249.8438 899.1344,249.8438 C898.8375,249.8438 898.6344,249.9375 898.4156,250.25 L898.2438,250.1719 Z " fill="#000000"/><text fill="#000000" font-family="sans-serif" font-size="14" lengthAdjust="spacing" textLength="113" x="913.1" y="259.3467">TransferService</text><rect fill="#FFFFFF" height="15.9688" style="stroke:#000000;stroke-width:1.0;stroke-dasharray:2.0,2.0;" width="18" x="1048.5" y="235.5"/><text fill="#000000" font-family="sans-serif" font-size="12" font-style="italic" lengthAdjust="spacing" textLength="8" x="1053.5" y="247.6387">1</text><line style="stroke:#181818;stroke-width:0.5;" x1="867.5" x2="1062.5" y1="270.5" y2="270.5"/><line style="stroke:#181818;stroke-width:0.5;" x1="867.5" x2="1062.5" y1="278.5" y2="278.5"/><ellipse cx="877.5" cy="289.5" fill="#84BE84" rx="3" ry="3" style="stroke:#038048;stroke-width:1.0;"/><text fill="#000000" font-family="sans-serif" font-size="14" lengthAdjust="spacing" textLength="171" x="886.5" y="295.4951">getTransfersForWallet()</text><ellipse cx="877.5" cy="305.7969" fill="#84BE84" rx="3" ry="3" style="stroke:#038048;stroke-width:1.0;"/><text fill="#000000" font-family="sans-serif" font-size="14" lengthAdjust="spacing" textLength="96" x="886.5" y="311.792">addTransfer()</text></g><!--MD5=[654d3ef673e7ea817b409bc91ff6b56e]
class UserPrincipal--><g id="elem_UserPrincipal"><rect codeLine="50" fill="#F1F1F1" height="48" id="UserPrincipal" rx="2.5" ry="2.5" style="stroke:#181818;stroke-width:0.5;" width="125" x="125.5" y="255"/><ellipse cx="140.5" cy="271" fill="#ADD1B2" rx="11" ry="11" style="stroke:#181818;stroke-width:1.0;"/><path d="M142.8438,266.6719 C141.9063,266.2344 141.3125,266.0938 140.4375,266.0938 C137.8125,266.0938 135.8125,268.1719 135.8125,270.8906 L135.8125,272.0156 C135.8125,274.5938 137.9219,276.4844 140.8125,276.4844 C142.0313,276.4844 143.1875,276.1875 143.9375,275.6406 C144.5156,275.2344 144.8438,274.7813 144.8438,274.3906 C144.8438,273.9375 144.4531,273.5469 143.9844,273.5469 C143.7656,273.5469 143.5625,273.625 143.375,273.8125 C142.9219,274.2969 142.9219,274.2969 142.7344,274.3906 C142.3125,274.6563 141.625,274.7813 140.8594,274.7813 C138.8125,274.7813 137.5156,273.6875 137.5156,271.9844 L137.5156,270.8906 C137.5156,269.1094 138.7656,267.7969 140.5,267.7969 C141.0781,267.7969 141.6875,267.9531 142.1563,268.2031 C142.6406,268.4844 142.8125,268.7031 142.9063,269.1094 C142.9688,269.5156 143,269.6406 143.1406,269.7656 C143.2813,269.9063 143.5156,270.0156 143.7344,270.0156 C144,270.0156 144.2656,269.875 144.4375,269.6563 C144.5469,269.5 144.5781,269.3125 144.5781,268.8906 L144.5781,267.4688 C144.5781,267.0313 144.5625,266.9063 144.4688,266.75 C144.3125,266.4844 144.0313,266.3438 143.7344,266.3438 C143.4375,266.3438 143.2344,266.4375 143.0156,266.75 L142.8438,266.6719 Z " fill="#000000"/><text fill="#000000" font-family="sans-serif" font-size="14" lengthAdjust="spacing" textLength="93" x="154.5" y="275.8467">UserPrincipal</text><line style="stroke:#181818;stroke-width:0.5;" x1="126.5" x2="249.5" y1="287" y2="287"/><line style="stroke:#181818;stroke-width:0.5;" x1="126.5" x2="249.5" y1="295" y2="295"/></g><!--MD5=[3fd616f346a44cd59a91eb10b19e157c]
class User--><g id="elem_User"><rect codeLine="53" fill="#E4F7E6" height="96.8906" id="User" rx="2.5" ry="2.5" style="stroke:#181818;stroke-width:0.5;" width="150" x="113" y="444"/><ellipse cx="168.25" cy="460" fill="#ADD1B2" rx="11" ry="11" style="stroke:#181818;stroke-width:1.0;"/><path d="M167.0469,460.875 L168.5,460.875 L168.5,460.9844 C168.5,461.3906 168.5313,461.5469 168.6094,461.7031 C168.7656,461.9531 169.0469,462.1094 169.3438,462.1094 C169.5938,462.1094 169.8594,461.9688 170.0156,461.75 C170.1406,461.5938 170.1719,461.4375 170.1719,460.9844 L170.1719,459.0625 C170.1719,458.9063 170.1719,458.8594 170.1563,458.7031 C170.0938,458.2344 169.7813,457.9219 169.3281,457.9219 C169.0781,457.9219 168.8125,458.0625 168.6406,458.2813 C168.5313,458.4531 168.5,458.6094 168.5,459.0625 L168.5,459.1875 L167.0469,459.1875 L167.0469,456.7813 L171.0313,456.7813 L171.0313,457.6406 C171.0313,458.0469 171.0625,458.2188 171.1406,458.375 C171.3125,458.625 171.5938,458.7813 171.875,458.7813 C172.1406,458.7813 172.4063,458.6406 172.5781,458.4219 C172.6875,458.25 172.7188,458.1094 172.7188,457.6406 L172.7188,455.0938 L165.0938,455.0938 C164.6563,455.0938 164.5313,455.1094 164.375,455.2031 C164.125,455.3594 163.9688,455.6563 163.9688,455.9375 C163.9688,456.2188 164.1094,456.4688 164.3281,456.6406 C164.4844,456.75 164.6719,456.7813 165.0938,456.7813 L165.3438,456.7813 L165.3438,463.2969 L165.0938,463.2969 C164.6875,463.2969 164.5313,463.3125 164.375,463.4219 C164.125,463.5938 163.9688,463.8594 163.9688,464.1563 C163.9688,464.4219 164.1094,464.6719 164.3281,464.8281 C164.4688,464.9531 164.7031,465 165.0938,465 L173.0938,465 L173.0938,462.4219 C173.0938,461.9844 173.0625,461.8438 172.9844,461.6875 C172.8125,461.4375 172.5313,461.2813 172.25,461.2813 C171.9844,461.2813 171.7188,461.3906 171.5469,461.6406 C171.4375,461.7969 171.4063,461.9375 171.4063,462.4219 L171.4063,463.2969 L167.0469,463.2969 L167.0469,460.875 Z " fill="#000000"/><text fill="#000000" font-family="sans-serif" font-size="14" lengthAdjust="spacing" textLength="31" x="188.75" y="464.8467">User</text><line style="stroke:#181818;stroke-width:0.5;" x1="114" x2="262" y1="476" y2="476"/><ellipse cx="124" cy="487" fill="none" rx="3" ry="3" style="stroke:#038048;stroke-width:1.0;"/><text fill="#000000" font-family="sans-serif" font-size="14" lengthAdjust="spacing" textLength="61" x="133" y="492.9951">id : Long</text><ellipse cx="124" cy="503.2969" fill="none" rx="3" ry="3" style="stroke:#038048;stroke-width:1.0;"/><text fill="#000000" font-family="sans-serif" font-size="14" lengthAdjust="spacing" textLength="96" x="133" y="509.292">email : String</text><ellipse cx="124" cy="519.5938" fill="none" rx="3" ry="3" style="stroke:#038048;stroke-width:1.0;"/><text fill="#000000" font-family="sans-serif" font-size="14" lengthAdjust="spacing" textLength="124" x="133" y="525.5889">password : String</text><line style="stroke:#181818;stroke-width:0.5;" x1="114" x2="262" y1="532.8906" y2="532.8906"/></g><!--MD5=[9f070bf9f108c27faa2eb76515c78fb3]
class Wallet--><g id="elem_Wallet"><rect codeLine="59" fill="#E4F7E6" height="96.8906" id="Wallet" rx="2.5" ry="2.5" style="stroke:#181818;stroke-width:0.5;" width="172" x="22" y="612"/><ellipse cx="80.75" cy="628" fill="#ADD1B2" rx="11" ry="11" style="stroke:#181818;stroke-width:1.0;"/><path d="M79.5469,628.875 L81,628.875 L81,628.9844 C81,629.3906 81.0313,629.5469 81.1094,629.7031 C81.2656,629.9531 81.5469,630.1094 81.8438,630.1094 C82.0938,630.1094 82.3594,629.9688 82.5156,629.75 C82.6406,629.5938 82.6719,629.4375 82.6719,628.9844 L82.6719,627.0625 C82.6719,626.9063 82.6719,626.8594 82.6563,626.7031 C82.5938,626.2344 82.2813,625.9219 81.8281,625.9219 C81.5781,625.9219 81.3125,626.0625 81.1406,626.2813 C81.0313,626.4531 81,626.6094 81,627.0625 L81,627.1875 L79.5469,627.1875 L79.5469,624.7813 L83.5313,624.7813 L83.5313,625.6406 C83.5313,626.0469 83.5625,626.2188 83.6406,626.375 C83.8125,626.625 84.0938,626.7813 84.375,626.7813 C84.6406,626.7813 84.9063,626.6406 85.0781,626.4219 C85.1875,626.25 85.2188,626.1094 85.2188,625.6406 L85.2188,623.0938 L77.5938,623.0938 C77.1563,623.0938 77.0313,623.1094 76.875,623.2031 C76.625,623.3594 76.4688,623.6563 76.4688,623.9375 C76.4688,624.2188 76.6094,624.4688 76.8281,624.6406 C76.9844,624.75 77.1719,624.7813 77.5938,624.7813 L77.8438,624.7813 L77.8438,631.2969 L77.5938,631.2969 C77.1875,631.2969 77.0313,631.3125 76.875,631.4219 C76.625,631.5938 76.4688,631.8594 76.4688,632.1563 C76.4688,632.4219 76.6094,632.6719 76.8281,632.8281 C76.9688,632.9531 77.2031,633 77.5938,633 L85.5938,633 L85.5938,630.4219 C85.5938,629.9844 85.5625,629.8438 85.4844,629.6875 C85.3125,629.4375 85.0313,629.2813 84.75,629.2813 C84.4844,629.2813 84.2188,629.3906 84.0469,629.6406 C83.9375,629.7969 83.9063,629.9375 83.9063,630.4219 L83.9063,631.2969 L79.5469,631.2969 L79.5469,628.875 Z " fill="#000000"/><text fill="#000000" font-family="sans-serif" font-size="14" lengthAdjust="spacing" textLength="46" x="101.25" y="632.8467">Wallet</text><line style="stroke:#181818;stroke-width:0.5;" x1="23" x2="193" y1="644" y2="644"/><ellipse cx="33" cy="655" fill="none" rx="3" ry="3" style="stroke:#038048;stroke-width:1.0;"/><text fill="#000000" font-family="sans-serif" font-size="14" lengthAdjust="spacing" textLength="61" x="42" y="660.9951">id : Long</text><ellipse cx="33" cy="671.2969" fill="none" rx="3" ry="3" style="stroke:#038048;stroke-width:1.0;"/><text fill="#000000" font-family="sans-serif" font-size="14" lengthAdjust="spacing" textLength="146" x="42" y="677.292">profileName : String</text><ellipse cx="33" cy="687.5938" fill="none" rx="3" ry="3" style="stroke:#038048;stroke-width:1.0;"/><text fill="#000000" font-family="sans-serif" font-size="14" lengthAdjust="spacing" textLength="144" x="42" y="693.5889">balanceInCents : int</text><line style="stroke:#181818;stroke-width:0.5;" x1="23" x2="193" y1="700.8906" y2="700.8906"/></g><!--MD5=[02f52dd76b6d93c484e98adf8cb1a92d]
class Transfer--><g id="elem_Transfer"><rect codeLine="65" fill="#E4F7E6" height="96.8906" id="Transfer" rx="2.5" ry="2.5" style="stroke:#181818;stroke-width:0.5;" width="169" x="87.5" y="814"/><ellipse cx="137.75" cy="830" fill="#ADD1B2" rx="11" ry="11" style="stroke:#181818;stroke-width:1.0;"/><path d="M136.5469,830.875 L138,830.875 L138,830.9844 C138,831.3906 138.0313,831.5469 138.1094,831.7031 C138.2656,831.9531 138.5469,832.1094 138.8438,832.1094 C139.0938,832.1094 139.3594,831.9688 139.5156,831.75 C139.6406,831.5938 139.6719,831.4375 139.6719,830.9844 L139.6719,829.0625 C139.6719,828.9063 139.6719,828.8594 139.6563,828.7031 C139.5938,828.2344 139.2813,827.9219 138.8281,827.9219 C138.5781,827.9219 138.3125,828.0625 138.1406,828.2813 C138.0313,828.4531 138,828.6094 138,829.0625 L138,829.1875 L136.5469,829.1875 L136.5469,826.7813 L140.5313,826.7813 L140.5313,827.6406 C140.5313,828.0469 140.5625,828.2188 140.6406,828.375 C140.8125,828.625 141.0938,828.7813 141.375,828.7813 C141.6406,828.7813 141.9063,828.6406 142.0781,828.4219 C142.1875,828.25 142.2188,828.1094 142.2188,827.6406 L142.2188,825.0938 L134.5938,825.0938 C134.1563,825.0938 134.0313,825.1094 133.875,825.2031 C133.625,825.3594 133.4688,825.6563 133.4688,825.9375 C133.4688,826.2188 133.6094,826.4688 133.8281,826.6406 C133.9844,826.75 134.1719,826.7813 134.5938,826.7813 L134.8438,826.7813 L134.8438,833.2969 L134.5938,833.2969 C134.1875,833.2969 134.0313,833.3125 133.875,833.4219 C133.625,833.5938 133.4688,833.8594 133.4688,834.1563 C133.4688,834.4219 133.6094,834.6719 133.8281,834.8281 C133.9688,834.9531 134.2031,835 134.5938,835 L142.5938,835 L142.5938,832.4219 C142.5938,831.9844 142.5625,831.8438 142.4844,831.6875 C142.3125,831.4375 142.0313,831.2813 141.75,831.2813 C141.4844,831.2813 141.2188,831.3906 141.0469,831.6406 C140.9375,831.7969 140.9063,831.9375 140.9063,832.4219 L140.9063,833.2969 L136.5469,833.2969 L136.5469,830.875 Z " fill="#000000"/><text fill="#000000" font-family="sans-serif" font-size="14" lengthAdjust="spacing" textLength="60" x="158.25" y="834.8467">Transfer</text><line style="stroke:#181818;stroke-width:0.5;" x1="88.5" x2="255.5" y1="846" y2="846"/><ellipse cx="98.5" cy="857" fill="none" rx="3" ry="3" style="stroke:#038048;stroke-width:1.0;"/><text fill="#000000" font-family="sans-serif" font-size="14" lengthAdjust="spacing" textLength="61" x="107.5" y="862.9951">id : Long</text><ellipse cx="98.5" cy="873.2969" fill="none" rx="3" ry="3" style="stroke:#038048;stroke-width:1.0;"/><text fill="#000000" font-family="sans-serif" font-size="14" lengthAdjust="spacing" textLength="143" x="107.5" y="879.292">amountInCents : int</text><ellipse cx="98.5" cy="889.5938" fill="none" rx="3" ry="3" style="stroke:#038048;stroke-width:1.0;"/><text fill="#000000" font-family="sans-serif" font-size="14" lengthAdjust="spacing" textLength="129" x="107.5" y="895.5889">time : Timestamp</text><line style="stroke:#181818;stroke-width:0.5;" x1="88.5" x2="255.5" y1="902.8906" y2="902.8906"/></g><!--MD5=[093c210125347143eef5bb9199eae634]
class UserRepository--><g id="elem_UserRepository"><rect codeLine="73" fill="#F1F1F1" height="64.2969" id="UserRepository" rx="2.5" ry="2.5" style="stroke:#181818;stroke-width:0.5;" width="140" x="379" y="460.5"/><ellipse cx="394" cy="476.5" fill="#B4A7E5" rx="11" ry="11" style="stroke:#181818;stroke-width:1.0;"/><path d="M394.9531,473.2813 L396.6719,473.2813 C397.0625,473.2813 397.25,473.25 397.375,473.1719 C397.6406,473.0156 397.7813,472.7344 397.7813,472.4375 C397.7813,472.1719 397.6719,471.9063 397.4375,471.7344 C397.2656,471.625 397.125,471.5938 396.6719,471.5938 L391.5313,471.5938 C391.0938,471.5938 390.9688,471.6094 390.8125,471.7031 C390.5625,471.8594 390.4063,472.1563 390.4063,472.4375 C390.4063,472.7188 390.5469,472.9688 390.7656,473.1406 C390.9219,473.25 391.1094,473.2813 391.5313,473.2813 L393.25,473.2813 L393.25,479.7969 L391.5313,479.7969 C391.0938,479.7969 390.9688,479.8125 390.8125,479.9219 C390.5625,480.0781 390.4063,480.3594 390.4063,480.6563 C390.4063,480.9063 390.5469,481.1719 390.7656,481.3281 C390.9219,481.4531 391.125,481.5 391.5313,481.5 L396.6719,481.5 C397.4219,481.5 397.7813,481.2188 397.7813,480.6563 C397.7813,480.375 397.6719,480.125 397.4375,479.9531 C397.2656,479.8281 397.125,479.7969 396.6719,479.7969 L394.9531,479.7969 L394.9531,473.2813 Z " fill="#000000"/><text fill="#000000" font-family="sans-serif" font-size="14" font-style="italic" lengthAdjust="spacing" textLength="108" x="408" y="481.3467">UserRepository</text><line style="stroke:#181818;stroke-width:0.5;" x1="380" x2="518" y1="492.5" y2="492.5"/><line style="stroke:#181818;stroke-width:0.5;" x1="380" x2="518" y1="500.5" y2="500.5"/><ellipse cx="390" cy="511.5" fill="#84BE84" rx="3" ry="3" style="stroke:#038048;stroke-width:1.0;"/><text fill="#000000" font-family="sans-serif" font-size="14" lengthAdjust="spacing" textLength="95" x="399" y="517.4951">findByEmail()</text></g><!--MD5=[f11d4d4ca99735300641110a0d70624f]
class TransferRepository--><g id="elem_TransferRepository"><rect codeLine="76" fill="#F1F1F1" height="80.5938" id="TransferRepository" rx="2.5" ry="2.5" style="stroke:#181818;stroke-width:0.5;" width="168" x="743" y="452"/><ellipse cx="758" cy="468" fill="#B4A7E5" rx="11" ry="11" style="stroke:#181818;stroke-width:1.0;"/><path d="M758.9531,464.7813 L760.6719,464.7813 C761.0625,464.7813 761.25,464.75 761.375,464.6719 C761.6406,464.5156 761.7813,464.2344 761.7813,463.9375 C761.7813,463.6719 761.6719,463.4063 761.4375,463.2344 C761.2656,463.125 761.125,463.0938 760.6719,463.0938 L755.5313,463.0938 C755.0938,463.0938 754.9688,463.1094 754.8125,463.2031 C754.5625,463.3594 754.4063,463.6563 754.4063,463.9375 C754.4063,464.2188 754.5469,464.4688 754.7656,464.6406 C754.9219,464.75 755.1094,464.7813 755.5313,464.7813 L757.25,464.7813 L757.25,471.2969 L755.5313,471.2969 C755.0938,471.2969 754.9688,471.3125 754.8125,471.4219 C754.5625,471.5781 754.4063,471.8594 754.4063,472.1563 C754.4063,472.4063 754.5469,472.6719 754.7656,472.8281 C754.9219,472.9531 755.125,473 755.5313,473 L760.6719,473 C761.4219,473 761.7813,472.7188 761.7813,472.1563 C761.7813,471.875 761.6719,471.625 761.4375,471.4531 C761.2656,471.3281 761.125,471.2969 760.6719,471.2969 L758.9531,471.2969 L758.9531,464.7813 Z " fill="#000000"/><text fill="#000000" font-family="sans-serif" font-size="14" font-style="italic" lengthAdjust="spacing" textLength="136" x="772" y="472.8467">TransferRepository</text><line style="stroke:#181818;stroke-width:0.5;" x1="744" x2="910" y1="484" y2="484"/><line style="stroke:#181818;stroke-width:0.5;" x1="744" x2="910" y1="492" y2="492"/><ellipse cx="754" cy="503" fill="#84BE84" rx="3" ry="3" style="stroke:#038048;stroke-width:1.0;"/><text fill="#000000" font-family="sans-serif" font-size="14" lengthAdjust="spacing" textLength="107" x="763" y="508.9951">findBySender()</text><ellipse cx="754" cy="519.2969" fill="#84BE84" rx="3" ry="3" style="stroke:#038048;stroke-width:1.0;"/><text fill="#000000" font-family="sans-serif" font-size="14" lengthAdjust="spacing" textLength="119" x="763" y="525.292">findByReceiver()</text></g><!--MD5=[fc70648a5dfee0e9da908f8ada3105fd]
class WalletRepository--><g id="elem_WalletRepository"><rect codeLine="80" fill="#F1F1F1" height="64.2969" id="WalletRepository" rx="2.5" ry="2.5" style="stroke:#181818;stroke-width:0.5;" width="153" x="554.5" y="460.5"/><ellipse cx="569.5" cy="476.5" fill="#B4A7E5" rx="11" ry="11" style="stroke:#181818;stroke-width:1.0;"/><path d="M570.4531,473.2813 L572.1719,473.2813 C572.5625,473.2813 572.75,473.25 572.875,473.1719 C573.1406,473.0156 573.2813,472.7344 573.2813,472.4375 C573.2813,472.1719 573.1719,471.9063 572.9375,471.7344 C572.7656,471.625 572.625,471.5938 572.1719,471.5938 L567.0313,471.5938 C566.5938,471.5938 566.4688,471.6094 566.3125,471.7031 C566.0625,471.8594 565.9063,472.1563 565.9063,472.4375 C565.9063,472.7188 566.0469,472.9688 566.2656,473.1406 C566.4219,473.25 566.6094,473.2813 567.0313,473.2813 L568.75,473.2813 L568.75,479.7969 L567.0313,479.7969 C566.5938,479.7969 566.4688,479.8125 566.3125,479.9219 C566.0625,480.0781 565.9063,480.3594 565.9063,480.6563 C565.9063,480.9063 566.0469,481.1719 566.2656,481.3281 C566.4219,481.4531 566.625,481.5 567.0313,481.5 L572.1719,481.5 C572.9219,481.5 573.2813,481.2188 573.2813,480.6563 C573.2813,480.375 573.1719,480.125 572.9375,479.9531 C572.7656,479.8281 572.625,479.7969 572.1719,479.7969 L570.4531,479.7969 L570.4531,473.2813 Z " fill="#000000"/><text fill="#000000" font-family="sans-serif" font-size="14" font-style="italic" lengthAdjust="spacing" textLength="121" x="583.5" y="481.3467">WalletRepository</text><line style="stroke:#181818;stroke-width:0.5;" x1="555.5" x2="706.5" y1="492.5" y2="492.5"/><line style="stroke:#181818;stroke-width:0.5;" x1="555.5" x2="706.5" y1="500.5" y2="500.5"/><ellipse cx="565.5" cy="511.5" fill="#84BE84" rx="3" ry="3" style="stroke:#038048;stroke-width:1.0;"/><text fill="#000000" font-family="sans-serif" font-size="14" lengthAdjust="spacing" textLength="87" x="574.5" y="517.4951">findByUser()</text></g><!--MD5=[46be0f02d3ccb60e27af689741ef5b84]
class UserDetails--><g id="elem_UserDetails"><rect codeLine="1" fill="#F1F1F1" height="80.5938" id="UserDetails" rx="2.5" ry="2.5" style="stroke:#181818;stroke-width:0.5;" width="133" x="131.5" y="41"/><ellipse cx="155.5" cy="57" fill="#B4A7E5" rx="11" ry="11" style="stroke:#181818;stroke-width:1.0;"/><path d="M156.4531,53.7813 L158.1719,53.7813 C158.5625,53.7813 158.75,53.75 158.875,53.6719 C159.1406,53.5156 159.2813,53.2344 159.2813,52.9375 C159.2813,52.6719 159.1719,52.4063 158.9375,52.2344 C158.7656,52.125 158.625,52.0938 158.1719,52.0938 L153.0313,52.0938 C152.5938,52.0938 152.4688,52.1094 152.3125,52.2031 C152.0625,52.3594 151.9063,52.6563 151.9063,52.9375 C151.9063,53.2188 152.0469,53.4688 152.2656,53.6406 C152.4219,53.75 152.6094,53.7813 153.0313,53.7813 L154.75,53.7813 L154.75,60.2969 L153.0313,60.2969 C152.5938,60.2969 152.4688,60.3125 152.3125,60.4219 C152.0625,60.5781 151.9063,60.8594 151.9063,61.1563 C151.9063,61.4063 152.0469,61.6719 152.2656,61.8281 C152.4219,61.9531 152.625,62 153.0313,62 L158.1719,62 C158.9219,62 159.2813,61.7188 159.2813,61.1563 C159.2813,60.875 159.1719,60.625 158.9375,60.4531 C158.7656,60.3281 158.625,60.2969 158.1719,60.2969 L156.4531,60.2969 L156.4531,53.7813 Z " fill="#000000"/><text fill="#000000" font-family="sans-serif" font-size="14" font-style="italic" lengthAdjust="spacing" textLength="81" x="171.5" y="61.8467">UserDetails</text><line style="stroke:#181818;stroke-width:0.5;" x1="132.5" x2="263.5" y1="73" y2="73"/><line style="stroke:#181818;stroke-width:0.5;" x1="132.5" x2="263.5" y1="81" y2="81"/><ellipse cx="142.5" cy="92" fill="#84BE84" rx="3" ry="3" style="stroke:#038048;stroke-width:1.0;"/><text fill="#000000" font-family="sans-serif" font-size="14" lengthAdjust="spacing" textLength="101" x="151.5" y="97.9951">getPassword()</text><ellipse cx="142.5" cy="108.2969" fill="#84BE84" rx="3" ry="3" style="stroke:#038048;stroke-width:1.0;"/><text fill="#000000" font-family="sans-serif" font-size="14" lengthAdjust="spacing" textLength="107" x="151.5" y="114.292">getUserName()</text></g><!--MD5=[d56ded55cff2e72b4920954b80e938e0]
class UserDetailService--><g id="elem_UserDetailService"><rect codeLine="5" fill="#F1F1F1" height="64.2969" id="UserDetailService" rx="2.5" ry="2.5" style="stroke:#181818;stroke-width:0.5;" width="186" x="303" y="49.5"/><ellipse cx="330.15" cy="65.5" fill="#B4A7E5" rx="11" ry="11" style="stroke:#181818;stroke-width:1.0;"/><path d="M331.1031,62.2813 L332.8219,62.2813 C333.2125,62.2813 333.4,62.25 333.525,62.1719 C333.7906,62.0156 333.9313,61.7344 333.9313,61.4375 C333.9313,61.1719 333.8219,60.9063 333.5875,60.7344 C333.4156,60.625 333.275,60.5938 332.8219,60.5938 L327.6813,60.5938 C327.2438,60.5938 327.1188,60.6094 326.9625,60.7031 C326.7125,60.8594 326.5563,61.1563 326.5563,61.4375 C326.5563,61.7188 326.6969,61.9688 326.9156,62.1406 C327.0719,62.25 327.2594,62.2813 327.6813,62.2813 L329.4,62.2813 L329.4,68.7969 L327.6813,68.7969 C327.2438,68.7969 327.1188,68.8125 326.9625,68.9219 C326.7125,69.0781 326.5563,69.3594 326.5563,69.6563 C326.5563,69.9063 326.6969,70.1719 326.9156,70.3281 C327.0719,70.4531 327.275,70.5 327.6813,70.5 L332.8219,70.5 C333.5719,70.5 333.9313,70.2188 333.9313,69.6563 C333.9313,69.375 333.8219,69.125 333.5875,68.9531 C333.4156,68.8281 333.275,68.7969 332.8219,68.7969 L331.1031,68.7969 L331.1031,62.2813 Z " fill="#000000"/><text fill="#000000" font-family="sans-serif" font-size="14" font-style="italic" lengthAdjust="spacing" textLength="127" x="346.85" y="70.3467">UserDetailService</text><line style="stroke:#181818;stroke-width:0.5;" x1="304" x2="488" y1="81.5" y2="81.5"/><line style="stroke:#181818;stroke-width:0.5;" x1="304" x2="488" y1="89.5" y2="89.5"/><ellipse cx="314" cy="100.5" fill="#84BE84" rx="3" ry="3" style="stroke:#038048;stroke-width:1.0;"/><text fill="#000000" font-family="sans-serif" font-size="14" lengthAdjust="spacing" textLength="160" x="323" y="106.4951">loadUserByUsername()</text></g><!--MD5=[a22c849ed96258a4b20be860721aede8]
class WebMvcConfigurer--><g id="elem_WebMvcConfigurer"><rect codeLine="8" fill="#F1F1F1" height="64.2969" id="WebMvcConfigurer" rx="2.5" ry="2.5" style="stroke:#181818;stroke-width:0.5;" width="176" x="842" y="628.5"/><ellipse cx="860.6" cy="644.5" fill="#B4A7E5" rx="11" ry="11" style="stroke:#181818;stroke-width:1.0;"/><path d="M861.5531,641.2813 L863.2719,641.2813 C863.6625,641.2813 863.85,641.25 863.975,641.1719 C864.2406,641.0156 864.3813,640.7344 864.3813,640.4375 C864.3813,640.1719 864.2719,639.9063 864.0375,639.7344 C863.8656,639.625 863.725,639.5938 863.2719,639.5938 L858.1313,639.5938 C857.6938,639.5938 857.5688,639.6094 857.4125,639.7031 C857.1625,639.8594 857.0063,640.1563 857.0063,640.4375 C857.0063,640.7188 857.1469,640.9688 857.3656,641.1406 C857.5219,641.25 857.7094,641.2813 858.1313,641.2813 L859.85,641.2813 L859.85,647.7969 L858.1313,647.7969 C857.6938,647.7969 857.5688,647.8125 857.4125,647.9219 C857.1625,648.0781 857.0063,648.3594 857.0063,648.6563 C857.0063,648.9063 857.1469,649.1719 857.3656,649.3281 C857.5219,649.4531 857.725,649.5 858.1313,649.5 L863.2719,649.5 C864.0219,649.5 864.3813,649.2188 864.3813,648.6563 C864.3813,648.375 864.2719,648.125 864.0375,647.9531 C863.8656,647.8281 863.725,647.7969 863.2719,647.7969 L861.5531,647.7969 L861.5531,641.2813 Z " fill="#000000"/><text fill="#000000" font-family="sans-serif" font-size="14" font-style="italic" lengthAdjust="spacing" textLength="136" x="875.4" y="649.3467">WebMvcConfigurer</text><line style="stroke:#181818;stroke-width:0.5;" x1="843" x2="1017" y1="660.5" y2="660.5"/><line style="stroke:#181818;stroke-width:0.5;" x1="843" x2="1017" y1="668.5" y2="668.5"/><ellipse cx="853" cy="679.5" fill="#84BE84" rx="3" ry="3" style="stroke:#038048;stroke-width:1.0;"/><text fill="#000000" font-family="sans-serif" font-size="14" lengthAdjust="spacing" textLength="150" x="862" y="685.4951">addViewControllers()</text></g><!--MD5=[5d9d7f361cf9aacac4ee237afb90f58a]
class JpaRepository--><g id="elem_JpaRepository"><rect codeLine="11" fill="#F1F1F1" height="64.2969" id="JpaRepository" rx="2.5" ry="2.5" style="stroke:#181818;stroke-width:0.5;" width="134" x="564" y="628.5"/><ellipse cx="580.8" cy="644.5" fill="#B4A7E5" rx="11" ry="11" style="stroke:#181818;stroke-width:1.0;"/><path d="M581.7531,641.2813 L583.4719,641.2813 C583.8625,641.2813 584.05,641.25 584.175,641.1719 C584.4406,641.0156 584.5813,640.7344 584.5813,640.4375 C584.5813,640.1719 584.4719,639.9063 584.2375,639.7344 C584.0656,639.625 583.925,639.5938 583.4719,639.5938 L578.3313,639.5938 C577.8938,639.5938 577.7688,639.6094 577.6125,639.7031 C577.3625,639.8594 577.2063,640.1563 577.2063,640.4375 C577.2063,640.7188 577.3469,640.9688 577.5656,641.1406 C577.7219,641.25 577.9094,641.2813 578.3313,641.2813 L580.05,641.2813 L580.05,647.7969 L578.3313,647.7969 C577.8938,647.7969 577.7688,647.8125 577.6125,647.9219 C577.3625,648.0781 577.2063,648.3594 577.2063,648.6563 C577.2063,648.9063 577.3469,649.1719 577.5656,649.3281 C577.7219,649.4531 577.925,649.5 578.3313,649.5 L583.4719,649.5 C584.2219,649.5 584.5813,649.2188 584.5813,648.6563 C584.5813,648.375 584.4719,648.125 584.2375,647.9531 C584.0656,647.8281 583.925,647.7969 583.4719,647.7969 L581.7531,647.7969 L581.7531,641.2813 Z " fill="#000000"/><text fill="#000000" font-family="sans-serif" font-size="14" font-style="italic" lengthAdjust="spacing" textLength="98" x="595.2" y="649.3467">JpaRepository</text><line style="stroke:#181818;stroke-width:0.5;" x1="565" x2="697" y1="660.5" y2="660.5"/><line style="stroke:#181818;stroke-width:0.5;" x1="565" x2="697" y1="668.5" y2="668.5"/><ellipse cx="575" cy="679.5" fill="#84BE84" rx="3" ry="3" style="stroke:#038048;stroke-width:1.0;"/><text fill="#000000" font-family="sans-serif" font-size="14" lengthAdjust="spacing" textLength="108" x="584" y="685.4951">CRUD methods</text></g><!--MD5=[b4b656aa6a2eed74038f2efd880f9bc1]
class space--><!--MD5=[54c79813a866b8206d079d73afa8a1f3]
reverse link WebMvcConfigurer to WebMvcConfiguration--><g id="link_WebMvcConfigurer_WebMvcConfiguration"><path d="M930,712.97 C930,753.389 930,807.771 930,838.264 " fill="none" id="WebMvcConfigurer-backto-WebMvcConfiguration" style="stroke:#181818;stroke-width:1.0;stroke-dasharray:7.0,7.0;"/><polygon fill="none" points="923,712.75,930,692.75,937,712.75,923,712.75" style="stroke:#181818;stroke-width:1.0;"/></g><!--MD5=[40500d079abad8955bebcc5e7556d08e]
reverse link UserDetailService to UserService--><g id="link_UserDetailService_UserService"><path d="M405.673,133.608 C412.48,169.575 421.37,216.547 427.131,246.99 " fill="none" id="UserDetailService-backto-UserService" style="stroke:#181818;stroke-width:1.0;stroke-dasharray:7.0,7.0;"/><polygon fill="none" points="398.786,134.863,401.945,113.91,412.542,132.26,398.786,134.863" style="stroke:#181818;stroke-width:1.0;"/></g><!--MD5=[fba60fc5472b7ff96612f119de625d14]
reverse link UserDetails to UserPrincipal--><g id="link_UserDetails_UserPrincipal"><path d="M194.941,142.3 C193.001,180.225 190.6,227.172 189.19,254.73 " fill="none" id="UserDetails-backto-UserPrincipal" style="stroke:#181818;stroke-width:1.0;stroke-dasharray:7.0,7.0;"/><polygon fill="none" points="187.964,141.679,195.976,122.062,201.945,142.394,187.964,141.679" style="stroke:#181818;stroke-width:1.0;"/></g><!--MD5=[ab923e055e0460ede83f69d6f73b9f9d]
link WalletController to WalletService--><g id="link_WalletController_WalletService"><path codeLine="85" d="M699,134.062 C699,134.062 699,173.166 699,192.661 " fill="none" id="WalletController-WalletService" style="stroke:#181818;stroke-width:1.0;"/><polygon fill="#181818" points="699,205.676,703,196.676,699,200.676,695,196.676,699,205.676" style="stroke:#181818;stroke-width:1.0;"/><line style="stroke:#181818;stroke-width:1.0;" x1="699" x2="699" y1="200.676" y2="192.676"/><polygon fill="#181818" points="699,122.062,695,128.062,699,134.062,703,128.062,699,122.062" style="stroke:#181818;stroke-width:1.0;"/></g><!--MD5=[1e935fea4ec8524d3ebf56578bd6c37a]
link WalletService to TransferService--><g id="link_WalletService_TransferService"><path codeLine="87" d="M843.74,279 C843.74,279 850.556,279 853.337,279 " fill="none" id="WalletService-TransferService" style="stroke:#181818;stroke-width:1.0;"/><polygon fill="#181818" points="866.357,279,857.357,275,861.357,279,857.357,283,866.357,279" style="stroke:#181818;stroke-width:1.0;"/><line style="stroke:#181818;stroke-width:1.0;" x1="861.357" x2="853.357" y1="279" y2="279"/><polygon fill="#181818" points="831.74,279,837.74,283,843.74,279,837.74,275,831.74,279" style="stroke:#181818;stroke-width:1.0;"/></g><!--MD5=[7e58ce59497bd82a8d06014619268955]
link UserService to WalletService--><g id="link_UserService_WalletService"><path codeLine="88" d="M544.342,279 C547.311,279 554.261,279 554.261,279 " fill="none" id="UserService-WalletService" style="stroke:#181818;stroke-width:1.0;"/><polygon fill="#181818" points="566.261,279,560.261,275,554.261,279,560.261,283,566.261,279" style="stroke:#181818;stroke-width:1.0;"/><polygon fill="#181818" points="531.191,279,540.191,283,536.191,279,540.191,275,531.191,279" style="stroke:#181818;stroke-width:1.0;"/><line style="stroke:#181818;stroke-width:1.0;" x1="536.191" x2="544.191" y1="279" y2="279"/></g><!--MD5=[7920165c3d2c7c57eda68972ca54daec]
reverse link UserPrincipal to UserService--><g id="link_UserPrincipal_UserService"><path codeLine="89" d="M255.918,279 C280.285,279 308.273,279 334.697,279 " fill="none" id="UserPrincipal-backto-UserService" style="stroke:#181818;stroke-width:1.0;stroke-dasharray:7.0,7.0;"/><polygon fill="#181818" points="250.775,279,259.775,283,255.775,279,259.775,275,250.775,279" style="stroke:#181818;stroke-width:1.0;"/><text fill="#000000" font-family="sans-serif" font-size="13" lengthAdjust="spacing" textLength="48" x="268.75" y="272.0669">creates</text></g><!--MD5=[716d7c6e97d70bef18dbe3eea74a0dde]
link UserPrincipal to User--><g id="link_UserPrincipal_User"><path codeLine="90" d="M188,315.037 C188,315.037 188,393.744 188,430.672 " fill="none" id="UserPrincipal-User" style="stroke:#181818;stroke-width:1.0;"/><polygon fill="#181818" points="188,443.827,192,434.827,188,438.827,184,434.827,188,443.827" style="stroke:#181818;stroke-width:1.0;"/><line style="stroke:#181818;stroke-width:1.0;" x1="188" x2="188" y1="438.827" y2="430.827"/><polygon fill="#181818" points="188,303.037,184,309.037,188,315.037,192,309.037,188,303.037" style="stroke:#181818;stroke-width:1.0;"/><text fill="#000000" font-family="sans-serif" font-size="13" lengthAdjust="spacing" textLength="4" x="183.4875" y="323.2023"> </text><text fill="#000000" font-family="sans-serif" font-size="13" lengthAdjust="spacing" textLength="8" x="170.875" y="433.0116">1</text></g><!--MD5=[c6100b592e29ab2a9436cfea8d37588a]
link User to Wallet--><g id="link_User_Wallet"><path codeLine="91" d="M159.394,552.857 C152.02,568.158 136.1368,601.1134 136.1368,601.1134 " fill="none" id="User-Wallet" style="stroke:#181818;stroke-width:1.0;"/><polygon fill="none" points="130.928,611.924,137.1359,608.255,136.1368,601.1134,129.9289,604.7824,130.928,611.924" style="stroke:#181818;stroke-width:1.0;"/><polygon fill="#181818" points="165.075,541.069,157.5649,547.4407,162.9047,545.5734,164.7719,550.9132,165.075,541.069" style="stroke:#181818;stroke-width:1.0;"/><line style="stroke:#181818;stroke-width:1.0;" x1="162.9047" x2="159.431" y1="545.5734" y2="552.78"/><text fill="#000000" font-family="sans-serif" font-size="13" lengthAdjust="spacing" textLength="8" x="144.7262" y="561.0376">1</text><text fill="#000000" font-family="sans-serif" font-size="13" lengthAdjust="spacing" textLength="8" x="117.1206" y="600.7725">1</text></g><!--MD5=[75f4e9f67daccebfc332227ffe701565]
link Wallet to Transfer--><g id="link_Wallet_Transfer"><path codeLine="92" d="M127.308,721.838 C135.342,746.945 153.1012,802.4387 153.1012,802.4387 " fill="none" id="Wallet-Transfer" style="stroke:#181818;stroke-width:1.0;"/><polygon fill="#181818" points="156.758,813.868,158.7394,806.9344,153.1012,802.4387,151.1199,809.3723,156.758,813.868" style="stroke:#181818;stroke-width:1.0;"/><polygon fill="#181818" points="123.248,709.151,122.1808,718.9419,124.7717,713.9132,129.8003,716.504,123.248,709.151" style="stroke:#181818;stroke-width:1.0;"/><line style="stroke:#181818;stroke-width:1.0;" x1="124.7717" x2="127.2105" y1="713.9132" y2="721.5325"/><text fill="#000000" font-family="sans-serif" font-size="13" lengthAdjust="spacing" textLength="52" x="143" y="752.0669">sender /</text><text fill="#000000" font-family="sans-serif" font-size="13" lengthAdjust="spacing" textLength="52" x="153" y="767.1997">receiver</text><text fill="#000000" font-family="sans-serif" font-size="13" lengthAdjust="spacing" textLength="8" x="108.2673" y="729.1312">2</text><text fill="#000000" font-family="sans-serif" font-size="13" lengthAdjust="spacing" textLength="23" x="121.1537" y="803.0584">0..*</text></g><!--MD5=[4694440557e5a0df2804fb58b4fbd8a9]
link Wallet to Wallet--><g id="link_Wallet_Wallet"><path codeLine="93" d="M206.1226,647.4878 C206.1226,647.4878 229,654.114 229,660.5 C229,666.886 220.349,671.181 207.296,673.384 " fill="none" id="Wallet-Wallet" style="stroke:#181818;stroke-width:1.0;"/><polygon fill="#181818" points="194.194,674.819,203.5761,677.8151,199.1643,674.2745,202.7049,669.8627,194.194,674.819" style="stroke:#181818;stroke-width:1.0;"/><line style="stroke:#181818;stroke-width:1.0;" x1="199.1643" x2="207.1165" y1="674.2745" y2="673.404"/><polygon fill="none" points="194.194,646.181,199.7227,650.8106,206.1226,647.4878,200.5939,642.8582,194.194,646.181" style="stroke:#181818;stroke-width:1.0;"/><text fill="#000000" font-family="sans-serif" font-size="13" lengthAdjust="spacing" textLength="55" x="235" y="665.0669">contacts</text><text fill="#000000" font-family="sans-serif" font-size="13" lengthAdjust="spacing" textLength="23" x="206.1331" y="688.5657">0..*</text></g><!--MD5=[5fb5cea8d0ced273abb0825de5d33651]
link UserService to UserRepository--><g id="link_UserService_UserRepository"><path codeLine="94" d="M436.2669,323.1738 C436.2669,323.1738 442.909,410.99 445.641,447.1 " fill="none" id="UserService-UserRepository" style="stroke:#181818;stroke-width:1.0;"/><polygon fill="#181818" points="446.629,460.164,449.9381,450.8877,446.2515,455.1783,441.961,451.4917,446.629,460.164" style="stroke:#181818;stroke-width:1.0;"/><line style="stroke:#181818;stroke-width:1.0;" x1="446.2515" x2="445.649" y1="455.1783" y2="447.2015"/><polygon fill="#181818" points="435.361,311.208,431.8254,317.4929,436.2669,323.1738,439.8026,316.8889,435.361,311.208" style="stroke:#181818;stroke-width:1.0;"/></g><!--MD5=[c702a32cdacb65ca046b8cc70fad2ec4]
link WalletService to WalletRepository--><g id="link_WalletService_WalletRepository"><path codeLine="95" d="M672.1141,363.6188 C672.1141,363.6188 652.759,423.824 645.062,447.762 " fill="none" id="WalletService-WalletRepository" style="stroke:#181818;stroke-width:1.0;"/><polygon fill="#181818" points="641.021,460.332,647.5836,452.9881,642.5513,455.5719,639.9674,450.5397,641.021,460.332" style="stroke:#181818;stroke-width:1.0;"/><line style="stroke:#181818;stroke-width:1.0;" x1="642.5513" x2="645.0005" y1="455.5719" y2="447.9555"/><polygon fill="#181818" points="675.788,352.195,670.1431,356.6823,672.1141,363.6188,677.759,359.1315,675.788,352.195" style="stroke:#181818;stroke-width:1.0;"/></g><!--MD5=[8dbeb6a0e09c31a77de62a5b2a1eae03]
link TransferService to TransferRepository--><g id="link_TransferService_TransferRepository"><path codeLine="96" d="M932.4861,329.8323 C932.4861,329.8323 881.907,407.348 860.219,440.589 " fill="none" id="TransferService-TransferRepository" style="stroke:#181818;stroke-width:1.0;"/><polygon fill="#181818" points="852.84,451.897,861.1082,446.5457,855.5724,447.7096,854.4085,442.1738,852.84,451.897" style="stroke:#181818;stroke-width:1.0;"/><line style="stroke:#181818;stroke-width:1.0;" x1="855.5724" x2="859.9445" y1="447.7096" y2="441.0095"/><polygon fill="#181818" points="939.043,319.782,932.4145,322.6215,932.4861,329.8323,939.1147,326.9927,939.043,319.782" style="stroke:#181818;stroke-width:1.0;"/></g><!--MD5=[fa4da2e1c5845a66f9239b65b96d49c7]
link repository to User--><g id="link_repository_User"><path codeLine="97" d="M335.7412,492.5 C335.5456,492.5 335.35,492.5 335.1544,492.5 C334.7633,492.5 334.3721,492.5 333.9809,492.5 C330.8516,492.5 327.7222,492.5 324.5929,492.5 C318.3343,492.5 312.0756,492.5 305.817,492.5 C293.2998,492.5 280.7825,492.5 268.265,492.5 " fill="none" id="repository-to-User" style="stroke:#181818;stroke-width:1.0;stroke-dasharray:7.0,7.0;"/><polygon fill="#181818" points="263.258,492.5,272.258,496.5,268.258,492.5,272.258,488.5,263.258,492.5" style="stroke:#181818;stroke-width:1.0;"/></g><!--MD5=[8fe639c730721ff0ed1d2662bb0724fe]
link repository to Wallet--><g id="link_repository_Wallet"><path codeLine="98" d="M335.914,513.0701 C334.29,516.5949 332.4309,520.4397 330.3452,524.469 C322.0028,540.5863 310.0365,559.6555 295,573 C267.46,597.441 231.833,616.212 199.075,629.921 " fill="none" id="repository-to-Wallet" style="stroke:#181818;stroke-width:1.0;stroke-dasharray:7.0,7.0;"/><polygon fill="#181818" points="194.264,631.907,204.1093,632.1713,198.8859,629.9997,201.0576,624.7763,194.264,631.907" style="stroke:#181818;stroke-width:1.0;"/></g><!--MD5=[8e9856e3cee86d228bdd6131930cb3f6]
link repository to Transfer--><g id="link_repository_Transfer"><path codeLine="100" d="M337.6081,557.5398 C337.5636,557.8537 337.5188,558.1684 337.4738,558.4839 C337.2935,559.7458 337.1086,561.0196 336.9187,562.3048 C336.5389,564.8751 336.1396,567.4908 335.7199,570.1471 C329.0038,612.6478 317.047,665.5315 296,709 C277.997,746.182 249.29,782.302 224.029,810.049 " fill="none" id="repository-to-Transfer" style="stroke:#181818;stroke-width:1.0;stroke-dasharray:7.0,7.0;"/><polygon fill="#181818" points="220.648,813.735,229.679,809.8054,224.0274,810.0499,223.7829,804.3984,220.648,813.735" style="stroke:#181818;stroke-width:1.0;"/><text fill="#000000" font-family="sans-serif" font-size="13" lengthAdjust="spacing" textLength="99" x="329" y="665.0669">creates entities</text></g><!--MD5=[5036acc05792d4804a297614c2434e11]
link UserDetails to UserDetailService--><!--MD5=[0e7528f3b6af38a8f1d02c67f27796bc]
link UserRepository to JpaRepository--><g id="link_UserRepository_JpaRepository"><path codeLine="103" d="M483.233,524.723 C511.069,550.112 550.703,586.262 581.918,614.733 " fill="none" id="UserRepository-to-JpaRepository" style="stroke:#181818;stroke-width:1.0;"/><polygon fill="none" points="586.861,609.767,596.921,628.417,577.427,620.111,586.861,609.767" style="stroke:#181818;stroke-width:1.0;"/></g><!--MD5=[467b53136cf9303ce0df21f70747812b]
link TransferRepository to JpaRepository--><g id="link_TransferRepository_JpaRepository"><path codeLine="104" d="M780.053,533.261 C750.87,557.978 713.306,589.792 683.19,615.299 " fill="none" id="TransferRepository-to-JpaRepository" style="stroke:#181818;stroke-width:1.0;"/><polygon fill="none" points="687.551,620.778,667.765,628.362,678.503,610.094,687.551,620.778" style="stroke:#181818;stroke-width:1.0;"/></g><!--MD5=[c589b19a0a1b47a5e4ffff4c9c36e4ff]
link WalletRepository to JpaRepository--><g id="link_WalletRepository_JpaRepository"><path codeLine="105" d="M631,524.723 C631,548.257 631,581.038 631,608.377 " fill="none" id="WalletRepository-to-JpaRepository" style="stroke:#181818;stroke-width:1.0;"/><polygon fill="none" points="638,608.417,631,628.417,624,608.417,638,608.417" style="stroke:#181818;stroke-width:1.0;"/></g><!--MD5=[4f0d84a0a1419f405b8ef9cce96ae075]
link SpringSecurityConfig to WebMvcConfiguration--><!--MD5=[6c200bb5f30a017c98c828d567aa9440]
link JpaRepository to space--><!--MD5=[b063aab851781146aea5bf6ec97179e5]
link space to WebMvcConfigurer--><!--MD5=[1a656a625bfaf632b5f6648065149570]
@startuml
interface UserDetails {
  +getPassword()
  +getUserName()
}
interface UserDetailService {
  +loadUserByUsername()
}
interface WebMvcConfigurer {
  +addViewControllers()
}
interface JpaRepository {
  +{method} CRUD methods
}

package configuration {
  class SpringSecurityConfig< 1 > {
    +securityFilterChain()
    +getPasswordEncoder()
  }
    class WebMvcConfiguration< 1 > implements WebMvcConfigurer{
  }
}

package controller {
  class WalletController< 1 > {
    +getTransfer()
    +postPay()
  }
}

package service {
  class UserService< 1 > implements UserDetailService {
    +getAuthenticatedUser()
  }
  class WalletService< 1 > {
    +getWalletForUser()
    +getWalletForAuthenticatedUser()
    +getContacts()
    +getTransfers()
    +addContact()
    +doTransfer()
  }
  class TransferService< 1 > {
    +getTransfersForWallet()
    +addTransfer()
  }
}

package model {
  class UserPrincipal implements UserDetails {
  }
  
  entity User #e4f7e6 {
    +id : Long
    +email : String
    +password : String
  }
  
  entity Wallet #e4f7e6 {
    +id : Long
    +profileName : String
    +balanceInCents : int
  }
  
  entity Transfer #e4f7e6 {
    +id : Long
    +amountInCents : int
    +time : Timestamp
  }
}

package repository {
  interface UserRepository {
    +findByEmail()
  }
  interface TransferRepository {
    +findBySender()
    +findByReceiver()
  }
  interface WalletRepository {
    +findByUser()
  }
}

WalletController *- -> WalletService

WalletService *-> TransferService
UserService <-* WalletService
UserPrincipal <. UserService : creates
UserPrincipal " " *- -> "1  " User
User "1  " <- -o "1  " Wallet
Wallet "2  " <- -* " 0..*  " Transfer : sender /    \n receiver
Wallet o-> " 0..*  " Wallet : contacts
UserService *- -> UserRepository
WalletService *- -> WalletRepository
TransferService *- -> TransferRepository
repository ..> User
repository ..> Wallet

repository ..> Transfer : creates entities

UserDetails -[hidden]>UserDetailService
UserRepository - -|> JpaRepository
TransferRepository - -|> JpaRepository
WalletRepository - -|> JpaRepository


SpringSecurityConfig .[hidden]> WebMvcConfiguration
JpaRepository .[hidden]> space
space .[hidden]> WebMvcConfigurer
hide space
@enduml

PlantUML version 1.2022.7beta2(Unknown compile time)
(GPL source distribution)
Java Runtime: Java(TM) SE Runtime Environment
JVM: Java HotSpot(TM) 64-Bit Server VM
Default Encoding: UTF-8
Language: en
Country: US
--></g></svg>