<?xml version="1.0" encoding="UTF-8" standalone="no"?>
<svg xmlns="http://www.w3.org/2000/svg" xmlns:xlink="http://www.w3.org/1999/xlink" contentStyleType="text/css" height="901px" preserveAspectRatio="none" style="width:1109px;height:901px;background:#FFFFFF;" version="1.1" viewBox="0 0 1109 901" width="1109px" zoomAndPan="magnify"><defs/><g><!--MD5=[5a55b731792d22909a2631efc8afae35]
cluster configuration--><g id="cluster_configuration"><path d="M568.5,754 L680.5,754 A3.75,3.75 0 0 1 683,756.5 L690,776.2969 L1047.5,776.2969 A2.5,2.5 0 0 1 1050,778.7969 L1050,883.5 A2.5,2.5 0 0 1 1047.5,886 L568.5,886 A2.5,2.5 0 0 1 566,883.5 L566,756.5 A2.5,2.5 0 0 1 568.5,754 " style="stroke:#000000;stroke-width:1.5;fill:none;"/><line style="stroke:#000000;stroke-width:1.5;fill:none;" x1="566" x2="690" y1="776.2969" y2="776.2969"/><text fill="#000000" font-family="sans-serif" font-size="14" font-weight="bold" lengthAdjust="spacing" textLength="111" x="570" y="768.9951">configuration</text></g><!--MD5=[10ea673caf457862023e152271927b45]
cluster controller--><g id="cluster_controller"><path d="M572.5,6 L653.5,6 A3.75,3.75 0 0 1 656,8.5 L663,28.2969 L1099.5,28.2969 A2.5,2.5 0 0 1 1102,30.7969 L1102,135.5 A2.5,2.5 0 0 1 1099.5,138 L572.5,138 A2.5,2.5 0 0 1 570,135.5 L570,8.5 A2.5,2.5 0 0 1 572.5,6 " style="stroke:#000000;stroke-width:1.5;fill:none;"/><line style="stroke:#000000;stroke-width:1.5;fill:none;" x1="570" x2="663" y1="28.2969" y2="28.2969"/><text fill="#000000" font-family="sans-serif" font-size="14" font-weight="bold" lengthAdjust="spacing" textLength="80" x="574" y="20.9951">controller</text></g><!--MD5=[7579d5565d2521d5936cec86ed3dadee]
cluster service--><g id="cluster_service"><path d="M341.5,171 L399.5,171 A3.75,3.75 0 0 1 402,173.5 L409,193.2969 L923.5,193.2969 A2.5,2.5 0 0 1 926,195.7969 L926,332.5 A2.5,2.5 0 0 1 923.5,335 L341.5,335 A2.5,2.5 0 0 1 339,332.5 L339,173.5 A2.5,2.5 0 0 1 341.5,171 " style="stroke:#000000;stroke-width:1.5;fill:none;"/><line style="stroke:#000000;stroke-width:1.5;fill:none;" x1="339" x2="409" y1="193.2969" y2="193.2969"/><text fill="#000000" font-family="sans-serif" font-size="14" font-weight="bold" lengthAdjust="spacing" textLength="57" x="343" y="185.9951">service</text></g><!--MD5=[5d4cd377749310b66bf14896f5cd8d9b]
cluster model--><g id="cluster_model"><path d="M8.5,203.5 L58.5,203.5 A3.75,3.75 0 0 1 61,206 L68,225.7969 L292.5,225.7969 A2.5,2.5 0 0 1 295,228.2969 L295,891.5 A2.5,2.5 0 0 1 292.5,894 L8.5,894 A2.5,2.5 0 0 1 6,891.5 L6,206 A2.5,2.5 0 0 1 8.5,203.5 " style="stroke:#000000;stroke-width:1.5;fill:none;"/><line style="stroke:#000000;stroke-width:1.5;fill:none;" x1="6" x2="68" y1="225.7969" y2="225.7969"/><text fill="#000000" font-family="sans-serif" font-size="14" font-weight="bold" lengthAdjust="spacing" textLength="49" x="10" y="218.4951">model</text></g><!--MD5=[bd0bd4c41e0e5269e37474fd45a6abb7]
cluster repository--><g id="cluster_repository"><path d="M329.5,376 L414.5,376 A3.75,3.75 0 0 1 417,378.5 L424,398.2969 L923.5,398.2969 A2.5,2.5 0 0 1 926,400.7969 L926,521.5 A2.5,2.5 0 0 1 923.5,524 L329.5,524 A2.5,2.5 0 0 1 327,521.5 L327,378.5 A2.5,2.5 0 0 1 329.5,376 " style="stroke:#000000;stroke-width:1.5;fill:none;"/><line style="stroke:#000000;stroke-width:1.5;fill:none;" x1="327" x2="424" y1="398.2969" y2="398.2969"/><text fill="#000000" font-family="sans-serif" font-size="14" font-weight="bold" lengthAdjust="spacing" textLength="84" x="331" y="390.9951">repository</text></g><!--MD5=[f12d22dd70a79c501d3eb00951149527]
class SpringSecurityConfig--><g id="elem_SpringSecurityConfig"><rect codeLine="16" fill="#F1F1F1" height="80.5938" id="SpringSecurityConfig" rx="2.5" ry="2.5" style="stroke:#181818;stroke-width:0.5;" width="205" x="582.5" y="789"/><ellipse cx="597.5" cy="805" fill="#ADD1B2" rx="11" ry="11" style="stroke:#181818;stroke-width:1.0;"/><path d="M599.8438,800.6719 C598.9063,800.2344 598.3125,800.0938 597.4375,800.0938 C594.8125,800.0938 592.8125,802.1719 592.8125,804.8906 L592.8125,806.0156 C592.8125,808.5938 594.9219,810.4844 597.8125,810.4844 C599.0313,810.4844 600.1875,810.1875 600.9375,809.6406 C601.5156,809.2344 601.8438,808.7813 601.8438,808.3906 C601.8438,807.9375 601.4531,807.5469 600.9844,807.5469 C600.7656,807.5469 600.5625,807.625 600.375,807.8125 C599.9219,808.2969 599.9219,808.2969 599.7344,808.3906 C599.3125,808.6563 598.625,808.7813 597.8594,808.7813 C595.8125,808.7813 594.5156,807.6875 594.5156,805.9844 L594.5156,804.8906 C594.5156,803.1094 595.7656,801.7969 597.5,801.7969 C598.0781,801.7969 598.6875,801.9531 599.1563,802.2031 C599.6406,802.4844 599.8125,802.7031 599.9063,803.1094 C599.9688,803.5156 600,803.6406 600.1406,803.7656 C600.2813,803.9063 600.5156,804.0156 600.7344,804.0156 C601,804.0156 601.2656,803.875 601.4375,803.6563 C601.5469,803.5 601.5781,803.3125 601.5781,802.8906 L601.5781,801.4688 C601.5781,801.0313 601.5625,800.9063 601.4688,800.75 C601.3125,800.4844 601.0313,800.3438 600.7344,800.3438 C600.4375,800.3438 600.2344,800.4375 600.0156,800.75 L599.8438,800.6719 Z " fill="#000000"/><text fill="#000000" font-family="sans-serif" font-size="14" lengthAdjust="spacing" textLength="153" x="611.5" y="809.8467">SpringSecurityConfig</text><rect fill="#FFFFFF" height="15.9688" style="stroke:#000000;stroke-width:1.0;stroke-dasharray:2.0,2.0;" width="18" x="772.5" y="786"/><text fill="#000000" font-family="sans-serif" font-size="12" font-style="italic" lengthAdjust="spacing" textLength="8" x="777.5" y="798.1387">1</text><line style="stroke:#181818;stroke-width:0.5;" x1="583.5" x2="786.5" y1="821" y2="821"/><line style="stroke:#181818;stroke-width:0.5;" x1="583.5" x2="786.5" y1="829" y2="829"/><ellipse cx="593.5" cy="840" fill="#84BE84" rx="3" ry="3" style="stroke:#038048;stroke-width:1.0;"/><text fill="#000000" font-family="sans-serif" font-size="14" lengthAdjust="spacing" textLength="145" x="602.5" y="845.9951">securityFilterChain()</text><ellipse cx="593.5" cy="856.2969" fill="#84BE84" rx="3" ry="3" style="stroke:#038048;stroke-width:1.0;"/><text fill="#000000" font-family="sans-serif" font-size="14" lengthAdjust="spacing" textLength="160" x="602.5" y="862.292">getPasswordEncoder()</text></g><!--MD5=[49f83f187a91d2c081fc3779443fea89]
class WebMvcConfiguration--><g id="elem_WebMvcConfiguration"><rect codeLine="20" fill="#F1F1F1" height="48" id="WebMvcConfiguration" rx="2.5" ry="2.5" style="stroke:#181818;stroke-width:0.5;" width="211" x="822.5" y="805.5"/><ellipse cx="837.5" cy="821.5" fill="#ADD1B2" rx="11" ry="11" style="stroke:#181818;stroke-width:1.0;"/><path d="M839.8438,817.1719 C838.9063,816.7344 838.3125,816.5938 837.4375,816.5938 C834.8125,816.5938 832.8125,818.6719 832.8125,821.3906 L832.8125,822.5156 C832.8125,825.0938 834.9219,826.9844 837.8125,826.9844 C839.0313,826.9844 840.1875,826.6875 840.9375,826.1406 C841.5156,825.7344 841.8438,825.2813 841.8438,824.8906 C841.8438,824.4375 841.4531,824.0469 840.9844,824.0469 C840.7656,824.0469 840.5625,824.125 840.375,824.3125 C839.9219,824.7969 839.9219,824.7969 839.7344,824.8906 C839.3125,825.1563 838.625,825.2813 837.8594,825.2813 C835.8125,825.2813 834.5156,824.1875 834.5156,822.4844 L834.5156,821.3906 C834.5156,819.6094 835.7656,818.2969 837.5,818.2969 C838.0781,818.2969 838.6875,818.4531 839.1563,818.7031 C839.6406,818.9844 839.8125,819.2031 839.9063,819.6094 C839.9688,820.0156 840,820.1406 840.1406,820.2656 C840.2813,820.4063 840.5156,820.5156 840.7344,820.5156 C841,820.5156 841.2656,820.375 841.4375,820.1563 C841.5469,820 841.5781,819.8125 841.5781,819.3906 L841.5781,817.9688 C841.5781,817.5313 841.5625,817.4063 841.4688,817.25 C841.3125,816.9844 841.0313,816.8438 840.7344,816.8438 C840.4375,816.8438 840.2344,816.9375 840.0156,817.25 L839.8438,817.1719 Z " fill="#000000"/><text fill="#000000" font-family="sans-serif" font-size="14" lengthAdjust="spacing" textLength="159" x="851.5" y="826.3467">WebMvcConfiguration</text><rect fill="#FFFFFF" height="15.9688" style="stroke:#000000;stroke-width:1.0;stroke-dasharray:2.0,2.0;" width="18" x="1018.5" y="802.5"/><text fill="#000000" font-family="sans-serif" font-size="12" font-style="italic" lengthAdjust="spacing" textLength="8" x="1023.5" y="814.6387">1</text><line style="stroke:#181818;stroke-width:0.5;" x1="823.5" x2="1032.5" y1="837.5" y2="837.5"/><line style="stroke:#181818;stroke-width:0.5;" x1="823.5" x2="1032.5" y1="845.5" y2="845.5"/></g><!--MD5=[82df4e216db0a7ab93a3a7ac6cfd7708]
class TransferViewController--><g id="elem_TransferViewController"><rect codeLine="25" fill="#F1F1F1" height="80.5938" id="TransferViewController" rx="2.5" ry="2.5" style="stroke:#181818;stroke-width:0.5;" width="219" x="586.5" y="41"/><ellipse cx="601.5" cy="57" fill="#ADD1B2" rx="11" ry="11" style="stroke:#181818;stroke-width:1.0;"/><path d="M603.8438,52.6719 C602.9063,52.2344 602.3125,52.0938 601.4375,52.0938 C598.8125,52.0938 596.8125,54.1719 596.8125,56.8906 L596.8125,58.0156 C596.8125,60.5938 598.9219,62.4844 601.8125,62.4844 C603.0313,62.4844 604.1875,62.1875 604.9375,61.6406 C605.5156,61.2344 605.8438,60.7813 605.8438,60.3906 C605.8438,59.9375 605.4531,59.5469 604.9844,59.5469 C604.7656,59.5469 604.5625,59.625 604.375,59.8125 C603.9219,60.2969 603.9219,60.2969 603.7344,60.3906 C603.3125,60.6563 602.625,60.7813 601.8594,60.7813 C599.8125,60.7813 598.5156,59.6875 598.5156,57.9844 L598.5156,56.8906 C598.5156,55.1094 599.7656,53.7969 601.5,53.7969 C602.0781,53.7969 602.6875,53.9531 603.1563,54.2031 C603.6406,54.4844 603.8125,54.7031 603.9063,55.1094 C603.9688,55.5156 604,55.6406 604.1406,55.7656 C604.2813,55.9063 604.5156,56.0156 604.7344,56.0156 C605,56.0156 605.2656,55.875 605.4375,55.6563 C605.5469,55.5 605.5781,55.3125 605.5781,54.8906 L605.5781,53.4688 C605.5781,53.0313 605.5625,52.9063 605.4688,52.75 C605.3125,52.4844 605.0313,52.3438 604.7344,52.3438 C604.4375,52.3438 604.2344,52.4375 604.0156,52.75 L603.8438,52.6719 Z " fill="#000000"/><text fill="#000000" font-family="sans-serif" font-size="14" lengthAdjust="spacing" textLength="167" x="615.5" y="61.8467">TransferViewController</text><rect fill="#FFFFFF" height="15.9688" style="stroke:#000000;stroke-width:1.0;stroke-dasharray:2.0,2.0;" width="18" x="790.5" y="38"/><text fill="#000000" font-family="sans-serif" font-size="12" font-style="italic" lengthAdjust="spacing" textLength="8" x="795.5" y="50.1387">1</text><line style="stroke:#181818;stroke-width:0.5;" x1="587.5" x2="804.5" y1="73" y2="73"/><line style="stroke:#181818;stroke-width:0.5;" x1="587.5" x2="804.5" y1="81" y2="81"/><ellipse cx="597.5" cy="92" fill="#84BE84" rx="3" ry="3" style="stroke:#038048;stroke-width:1.0;"/><text fill="#000000" font-family="sans-serif" font-size="14" lengthAdjust="spacing" textLength="70" x="606.5" y="97.9951">getPage()</text><ellipse cx="597.5" cy="108.2969" fill="#84BE84" rx="3" ry="3" style="stroke:#038048;stroke-width:1.0;"/><text fill="#000000" font-family="sans-serif" font-size="14" lengthAdjust="spacing" textLength="68" x="606.5" y="114.292">postPay()</text></g><!--MD5=[701628ee1aa4418f390bdb2c9905e70a]
class AddContactViewController--><g id="elem_AddContactViewController"><rect codeLine="29" fill="#F1F1F1" height="80.5938" id="AddContactViewController" rx="2.5" ry="2.5" style="stroke:#181818;stroke-width:0.5;" width="245" x="840.5" y="41"/><ellipse cx="855.5" cy="57" fill="#ADD1B2" rx="11" ry="11" style="stroke:#181818;stroke-width:1.0;"/><path d="M857.8438,52.6719 C856.9063,52.2344 856.3125,52.0938 855.4375,52.0938 C852.8125,52.0938 850.8125,54.1719 850.8125,56.8906 L850.8125,58.0156 C850.8125,60.5938 852.9219,62.4844 855.8125,62.4844 C857.0313,62.4844 858.1875,62.1875 858.9375,61.6406 C859.5156,61.2344 859.8438,60.7813 859.8438,60.3906 C859.8438,59.9375 859.4531,59.5469 858.9844,59.5469 C858.7656,59.5469 858.5625,59.625 858.375,59.8125 C857.9219,60.2969 857.9219,60.2969 857.7344,60.3906 C857.3125,60.6563 856.625,60.7813 855.8594,60.7813 C853.8125,60.7813 852.5156,59.6875 852.5156,57.9844 L852.5156,56.8906 C852.5156,55.1094 853.7656,53.7969 855.5,53.7969 C856.0781,53.7969 856.6875,53.9531 857.1563,54.2031 C857.6406,54.4844 857.8125,54.7031 857.9063,55.1094 C857.9688,55.5156 858,55.6406 858.1406,55.7656 C858.2813,55.9063 858.5156,56.0156 858.7344,56.0156 C859,56.0156 859.2656,55.875 859.4375,55.6563 C859.5469,55.5 859.5781,55.3125 859.5781,54.8906 L859.5781,53.4688 C859.5781,53.0313 859.5625,52.9063 859.4688,52.75 C859.3125,52.4844 859.0313,52.3438 858.7344,52.3438 C858.4375,52.3438 858.2344,52.4375 858.0156,52.75 L857.8438,52.6719 Z " fill="#000000"/><text fill="#000000" font-family="sans-serif" font-size="14" lengthAdjust="spacing" textLength="193" x="869.5" y="61.8467">AddContactViewController</text><rect fill="#FFFFFF" height="15.9688" style="stroke:#000000;stroke-width:1.0;stroke-dasharray:2.0,2.0;" width="18" x="1070.5" y="38"/><text fill="#000000" font-family="sans-serif" font-size="12" font-style="italic" lengthAdjust="spacing" textLength="8" x="1075.5" y="50.1387">1</text><line style="stroke:#181818;stroke-width:0.5;" x1="841.5" x2="1084.5" y1="73" y2="73"/><line style="stroke:#181818;stroke-width:0.5;" x1="841.5" x2="1084.5" y1="81" y2="81"/><ellipse cx="851.5" cy="92" fill="#84BE84" rx="3" ry="3" style="stroke:#038048;stroke-width:1.0;"/><text fill="#000000" font-family="sans-serif" font-size="14" lengthAdjust="spacing" textLength="70" x="860.5" y="97.9951">getPage()</text><ellipse cx="851.5" cy="108.2969" fill="#84BE84" rx="3" ry="3" style="stroke:#038048;stroke-width:1.0;"/><text fill="#000000" font-family="sans-serif" font-size="14" lengthAdjust="spacing" textLength="71" x="860.5" y="114.292">postAdd()</text></g><!--MD5=[e4ac4745f81aec2db60ad4ddae80b659]
class UserService--><g id="elem_UserService"><rect codeLine="36" fill="#F1F1F1" height="48" id="UserService" rx="2.5" ry="2.5" style="stroke:#181818;stroke-width:0.5;" width="136" x="355" y="238.5"/><ellipse cx="370" cy="254.5" fill="#ADD1B2" rx="11" ry="11" style="stroke:#181818;stroke-width:1.0;"/><path d="M372.3438,250.1719 C371.4063,249.7344 370.8125,249.5938 369.9375,249.5938 C367.3125,249.5938 365.3125,251.6719 365.3125,254.3906 L365.3125,255.5156 C365.3125,258.0938 367.4219,259.9844 370.3125,259.9844 C371.5313,259.9844 372.6875,259.6875 373.4375,259.1406 C374.0156,258.7344 374.3438,258.2813 374.3438,257.8906 C374.3438,257.4375 373.9531,257.0469 373.4844,257.0469 C373.2656,257.0469 373.0625,257.125 372.875,257.3125 C372.4219,257.7969 372.4219,257.7969 372.2344,257.8906 C371.8125,258.1563 371.125,258.2813 370.3594,258.2813 C368.3125,258.2813 367.0156,257.1875 367.0156,255.4844 L367.0156,254.3906 C367.0156,252.6094 368.2656,251.2969 370,251.2969 C370.5781,251.2969 371.1875,251.4531 371.6563,251.7031 C372.1406,251.9844 372.3125,252.2031 372.4063,252.6094 C372.4688,253.0156 372.5,253.1406 372.6406,253.2656 C372.7813,253.4063 373.0156,253.5156 373.2344,253.5156 C373.5,253.5156 373.7656,253.375 373.9375,253.1563 C374.0469,253 374.0781,252.8125 374.0781,252.3906 L374.0781,250.9688 C374.0781,250.5313 374.0625,250.4063 373.9688,250.25 C373.8125,249.9844 373.5313,249.8438 373.2344,249.8438 C372.9375,249.8438 372.7344,249.9375 372.5156,250.25 L372.3438,250.1719 Z " fill="#000000"/><text fill="#000000" font-family="sans-serif" font-size="14" lengthAdjust="spacing" textLength="84" x="384" y="259.3467">UserService</text><rect fill="#FFFFFF" height="15.9688" style="stroke:#000000;stroke-width:1.0;stroke-dasharray:2.0,2.0;" width="18" x="476" y="235.5"/><text fill="#000000" font-family="sans-serif" font-size="12" font-style="italic" lengthAdjust="spacing" textLength="8" x="481" y="247.6387">1</text><line style="stroke:#181818;stroke-width:0.5;" x1="356" x2="490" y1="270.5" y2="270.5"/><line style="stroke:#181818;stroke-width:0.5;" x1="356" x2="490" y1="278.5" y2="278.5"/></g><!--MD5=[fd19d5ad0cc08ec15ff275655ff5e7e3]
class WalletService--><g id="elem_WalletService"><rect codeLine="38" fill="#F1F1F1" height="113.1875" id="WalletService" rx="2.5" ry="2.5" style="stroke:#181818;stroke-width:0.5;" width="151" x="758.5" y="206"/><ellipse cx="773.5" cy="222" fill="#ADD1B2" rx="11" ry="11" style="stroke:#181818;stroke-width:1.0;"/><path d="M775.8438,217.6719 C774.9063,217.2344 774.3125,217.0938 773.4375,217.0938 C770.8125,217.0938 768.8125,219.1719 768.8125,221.8906 L768.8125,223.0156 C768.8125,225.5938 770.9219,227.4844 773.8125,227.4844 C775.0313,227.4844 776.1875,227.1875 776.9375,226.6406 C777.5156,226.2344 777.8438,225.7813 777.8438,225.3906 C777.8438,224.9375 777.4531,224.5469 776.9844,224.5469 C776.7656,224.5469 776.5625,224.625 776.375,224.8125 C775.9219,225.2969 775.9219,225.2969 775.7344,225.3906 C775.3125,225.6563 774.625,225.7813 773.8594,225.7813 C771.8125,225.7813 770.5156,224.6875 770.5156,222.9844 L770.5156,221.8906 C770.5156,220.1094 771.7656,218.7969 773.5,218.7969 C774.0781,218.7969 774.6875,218.9531 775.1563,219.2031 C775.6406,219.4844 775.8125,219.7031 775.9063,220.1094 C775.9688,220.5156 776,220.6406 776.1406,220.7656 C776.2813,220.9063 776.5156,221.0156 776.7344,221.0156 C777,221.0156 777.2656,220.875 777.4375,220.6563 C777.5469,220.5 777.5781,220.3125 777.5781,219.8906 L777.5781,218.4688 C777.5781,218.0313 777.5625,217.9063 777.4688,217.75 C777.3125,217.4844 777.0313,217.3438 776.7344,217.3438 C776.4375,217.3438 776.2344,217.4375 776.0156,217.75 L775.8438,217.6719 Z " fill="#000000"/><text fill="#000000" font-family="sans-serif" font-size="14" lengthAdjust="spacing" textLength="99" x="787.5" y="226.8467">WalletService</text><rect fill="#FFFFFF" height="15.9688" style="stroke:#000000;stroke-width:1.0;stroke-dasharray:2.0,2.0;" width="18" x="894.5" y="203"/><text fill="#000000" font-family="sans-serif" font-size="12" font-style="italic" lengthAdjust="spacing" textLength="8" x="899.5" y="215.1387">1</text><line style="stroke:#181818;stroke-width:0.5;" x1="759.5" x2="908.5" y1="238" y2="238"/><line style="stroke:#181818;stroke-width:0.5;" x1="759.5" x2="908.5" y1="246" y2="246"/><ellipse cx="769.5" cy="257" fill="#84BE84" rx="3" ry="3" style="stroke:#038048;stroke-width:1.0;"/><text fill="#000000" font-family="sans-serif" font-size="14" lengthAdjust="spacing" textLength="100" x="778.5" y="262.9951">getContacts()</text><ellipse cx="769.5" cy="273.2969" fill="#84BE84" rx="3" ry="3" style="stroke:#038048;stroke-width:1.0;"/><text fill="#000000" font-family="sans-serif" font-size="14" lengthAdjust="spacing" textLength="102" x="778.5" y="279.292">getTransfers()</text><ellipse cx="769.5" cy="289.5938" fill="#84BE84" rx="3" ry="3" style="stroke:#038048;stroke-width:1.0;"/><text fill="#000000" font-family="sans-serif" font-size="14" lengthAdjust="spacing" textLength="94" x="778.5" y="295.5889">addContact()</text><ellipse cx="769.5" cy="305.8906" fill="#84BE84" rx="3" ry="3" style="stroke:#038048;stroke-width:1.0;"/><text fill="#000000" font-family="sans-serif" font-size="14" lengthAdjust="spacing" textLength="88" x="778.5" y="311.8857">doTransfer()</text></g><!--MD5=[c5e906f87014b27473f35ba27de49c6c]
class TransferService--><g id="elem_TransferService"><rect codeLine="44" fill="#F1F1F1" height="80.5938" id="TransferService" rx="2.5" ry="2.5" style="stroke:#181818;stroke-width:0.5;" width="197" x="526.5" y="222"/><ellipse cx="555.9" cy="238" fill="#ADD1B2" rx="11" ry="11" style="stroke:#181818;stroke-width:1.0;"/><path d="M558.2438,233.6719 C557.3063,233.2344 556.7125,233.0938 555.8375,233.0938 C553.2125,233.0938 551.2125,235.1719 551.2125,237.8906 L551.2125,239.0156 C551.2125,241.5938 553.3219,243.4844 556.2125,243.4844 C557.4313,243.4844 558.5875,243.1875 559.3375,242.6406 C559.9156,242.2344 560.2438,241.7813 560.2438,241.3906 C560.2438,240.9375 559.8531,240.5469 559.3844,240.5469 C559.1656,240.5469 558.9625,240.625 558.775,240.8125 C558.3219,241.2969 558.3219,241.2969 558.1344,241.3906 C557.7125,241.6563 557.025,241.7813 556.2594,241.7813 C554.2125,241.7813 552.9156,240.6875 552.9156,238.9844 L552.9156,237.8906 C552.9156,236.1094 554.1656,234.7969 555.9,234.7969 C556.4781,234.7969 557.0875,234.9531 557.5563,235.2031 C558.0406,235.4844 558.2125,235.7031 558.3063,236.1094 C558.3688,236.5156 558.4,236.6406 558.5406,236.7656 C558.6813,236.9063 558.9156,237.0156 559.1344,237.0156 C559.4,237.0156 559.6656,236.875 559.8375,236.6563 C559.9469,236.5 559.9781,236.3125 559.9781,235.8906 L559.9781,234.4688 C559.9781,234.0313 559.9625,233.9063 559.8688,233.75 C559.7125,233.4844 559.4313,233.3438 559.1344,233.3438 C558.8375,233.3438 558.6344,233.4375 558.4156,233.75 L558.2438,233.6719 Z " fill="#000000"/><text fill="#000000" font-family="sans-serif" font-size="14" lengthAdjust="spacing" textLength="113" x="573.1" y="242.8467">TransferService</text><rect fill="#FFFFFF" height="15.9688" style="stroke:#000000;stroke-width:1.0;stroke-dasharray:2.0,2.0;" width="18" x="708.5" y="219"/><text fill="#000000" font-family="sans-serif" font-size="12" font-style="italic" lengthAdjust="spacing" textLength="8" x="713.5" y="231.1387">1</text><line style="stroke:#181818;stroke-width:0.5;" x1="527.5" x2="722.5" y1="254" y2="254"/><line style="stroke:#181818;stroke-width:0.5;" x1="527.5" x2="722.5" y1="262" y2="262"/><ellipse cx="537.5" cy="273" fill="#84BE84" rx="3" ry="3" style="stroke:#038048;stroke-width:1.0;"/><text fill="#000000" font-family="sans-serif" font-size="14" lengthAdjust="spacing" textLength="171" x="546.5" y="278.9951">getTransfersForWallet()</text><ellipse cx="537.5" cy="289.2969" fill="#84BE84" rx="3" ry="3" style="stroke:#038048;stroke-width:1.0;"/><text fill="#000000" font-family="sans-serif" font-size="14" lengthAdjust="spacing" textLength="96" x="546.5" y="295.292">addTransfer()</text></g><!--MD5=[654d3ef673e7ea817b409bc91ff6b56e]
class UserPrincipal--><g id="elem_UserPrincipal"><rect codeLine="51" fill="#F1F1F1" height="48" id="UserPrincipal" rx="2.5" ry="2.5" style="stroke:#181818;stroke-width:0.5;" width="125" x="145.5" y="238.5"/><ellipse cx="160.5" cy="254.5" fill="#ADD1B2" rx="11" ry="11" style="stroke:#181818;stroke-width:1.0;"/><path d="M162.8438,250.1719 C161.9063,249.7344 161.3125,249.5938 160.4375,249.5938 C157.8125,249.5938 155.8125,251.6719 155.8125,254.3906 L155.8125,255.5156 C155.8125,258.0938 157.9219,259.9844 160.8125,259.9844 C162.0313,259.9844 163.1875,259.6875 163.9375,259.1406 C164.5156,258.7344 164.8438,258.2813 164.8438,257.8906 C164.8438,257.4375 164.4531,257.0469 163.9844,257.0469 C163.7656,257.0469 163.5625,257.125 163.375,257.3125 C162.9219,257.7969 162.9219,257.7969 162.7344,257.8906 C162.3125,258.1563 161.625,258.2813 160.8594,258.2813 C158.8125,258.2813 157.5156,257.1875 157.5156,255.4844 L157.5156,254.3906 C157.5156,252.6094 158.7656,251.2969 160.5,251.2969 C161.0781,251.2969 161.6875,251.4531 162.1563,251.7031 C162.6406,251.9844 162.8125,252.2031 162.9063,252.6094 C162.9688,253.0156 163,253.1406 163.1406,253.2656 C163.2813,253.4063 163.5156,253.5156 163.7344,253.5156 C164,253.5156 164.2656,253.375 164.4375,253.1563 C164.5469,253 164.5781,252.8125 164.5781,252.3906 L164.5781,250.9688 C164.5781,250.5313 164.5625,250.4063 164.4688,250.25 C164.3125,249.9844 164.0313,249.8438 163.7344,249.8438 C163.4375,249.8438 163.2344,249.9375 163.0156,250.25 L162.8438,250.1719 Z " fill="#000000"/><text fill="#000000" font-family="sans-serif" font-size="14" lengthAdjust="spacing" textLength="93" x="174.5" y="259.3467">UserPrincipal</text><line style="stroke:#181818;stroke-width:0.5;" x1="146.5" x2="269.5" y1="270.5" y2="270.5"/><line style="stroke:#181818;stroke-width:0.5;" x1="146.5" x2="269.5" y1="278.5" y2="278.5"/></g><!--MD5=[3fd616f346a44cd59a91eb10b19e157c]
class User--><g id="elem_User"><rect codeLine="54" fill="#E4F7E6" height="96.8906" id="User" rx="2.5" ry="2.5" style="stroke:#181818;stroke-width:0.5;" width="150" x="115" y="411"/><ellipse cx="170.25" cy="427" fill="#ADD1B2" rx="11" ry="11" style="stroke:#181818;stroke-width:1.0;"/><path d="M169.0469,427.875 L170.5,427.875 L170.5,427.9844 C170.5,428.3906 170.5313,428.5469 170.6094,428.7031 C170.7656,428.9531 171.0469,429.1094 171.3438,429.1094 C171.5938,429.1094 171.8594,428.9688 172.0156,428.75 C172.1406,428.5938 172.1719,428.4375 172.1719,427.9844 L172.1719,426.0625 C172.1719,425.9063 172.1719,425.8594 172.1563,425.7031 C172.0938,425.2344 171.7813,424.9219 171.3281,424.9219 C171.0781,424.9219 170.8125,425.0625 170.6406,425.2813 C170.5313,425.4531 170.5,425.6094 170.5,426.0625 L170.5,426.1875 L169.0469,426.1875 L169.0469,423.7813 L173.0313,423.7813 L173.0313,424.6406 C173.0313,425.0469 173.0625,425.2188 173.1406,425.375 C173.3125,425.625 173.5938,425.7813 173.875,425.7813 C174.1406,425.7813 174.4063,425.6406 174.5781,425.4219 C174.6875,425.25 174.7188,425.1094 174.7188,424.6406 L174.7188,422.0938 L167.0938,422.0938 C166.6563,422.0938 166.5313,422.1094 166.375,422.2031 C166.125,422.3594 165.9688,422.6563 165.9688,422.9375 C165.9688,423.2188 166.1094,423.4688 166.3281,423.6406 C166.4844,423.75 166.6719,423.7813 167.0938,423.7813 L167.3438,423.7813 L167.3438,430.2969 L167.0938,430.2969 C166.6875,430.2969 166.5313,430.3125 166.375,430.4219 C166.125,430.5938 165.9688,430.8594 165.9688,431.1563 C165.9688,431.4219 166.1094,431.6719 166.3281,431.8281 C166.4688,431.9531 166.7031,432 167.0938,432 L175.0938,432 L175.0938,429.4219 C175.0938,428.9844 175.0625,428.8438 174.9844,428.6875 C174.8125,428.4375 174.5313,428.2813 174.25,428.2813 C173.9844,428.2813 173.7188,428.3906 173.5469,428.6406 C173.4375,428.7969 173.4063,428.9375 173.4063,429.4219 L173.4063,430.2969 L169.0469,430.2969 L169.0469,427.875 Z " fill="#000000"/><text fill="#000000" font-family="sans-serif" font-size="14" lengthAdjust="spacing" textLength="31" x="190.75" y="431.8467">User</text><line style="stroke:#181818;stroke-width:0.5;" x1="116" x2="264" y1="443" y2="443"/><ellipse cx="126" cy="454" fill="none" rx="3" ry="3" style="stroke:#038048;stroke-width:1.0;"/><text fill="#000000" font-family="sans-serif" font-size="14" lengthAdjust="spacing" textLength="61" x="135" y="459.9951">id : Long</text><ellipse cx="126" cy="470.2969" fill="none" rx="3" ry="3" style="stroke:#038048;stroke-width:1.0;"/><text fill="#000000" font-family="sans-serif" font-size="14" lengthAdjust="spacing" textLength="96" x="135" y="476.292">email : String</text><ellipse cx="126" cy="486.5938" fill="none" rx="3" ry="3" style="stroke:#038048;stroke-width:1.0;"/><text fill="#000000" font-family="sans-serif" font-size="14" lengthAdjust="spacing" textLength="124" x="135" y="492.5889">password : String</text><line style="stroke:#181818;stroke-width:0.5;" x1="116" x2="264" y1="499.8906" y2="499.8906"/></g><!--MD5=[9f070bf9f108c27faa2eb76515c78fb3]
class Wallet--><g id="elem_Wallet"><rect codeLine="60" fill="#E4F7E6" height="96.8906" id="Wallet" rx="2.5" ry="2.5" style="stroke:#181818;stroke-width:0.5;" width="172" x="22" y="579"/><ellipse cx="80.75" cy="595" fill="#ADD1B2" rx="11" ry="11" style="stroke:#181818;stroke-width:1.0;"/><path d="M79.5469,595.875 L81,595.875 L81,595.9844 C81,596.3906 81.0313,596.5469 81.1094,596.7031 C81.2656,596.9531 81.5469,597.1094 81.8438,597.1094 C82.0938,597.1094 82.3594,596.9688 82.5156,596.75 C82.6406,596.5938 82.6719,596.4375 82.6719,595.9844 L82.6719,594.0625 C82.6719,593.9063 82.6719,593.8594 82.6563,593.7031 C82.5938,593.2344 82.2813,592.9219 81.8281,592.9219 C81.5781,592.9219 81.3125,593.0625 81.1406,593.2813 C81.0313,593.4531 81,593.6094 81,594.0625 L81,594.1875 L79.5469,594.1875 L79.5469,591.7813 L83.5313,591.7813 L83.5313,592.6406 C83.5313,593.0469 83.5625,593.2188 83.6406,593.375 C83.8125,593.625 84.0938,593.7813 84.375,593.7813 C84.6406,593.7813 84.9063,593.6406 85.0781,593.4219 C85.1875,593.25 85.2188,593.1094 85.2188,592.6406 L85.2188,590.0938 L77.5938,590.0938 C77.1563,590.0938 77.0313,590.1094 76.875,590.2031 C76.625,590.3594 76.4688,590.6563 76.4688,590.9375 C76.4688,591.2188 76.6094,591.4688 76.8281,591.6406 C76.9844,591.75 77.1719,591.7813 77.5938,591.7813 L77.8438,591.7813 L77.8438,598.2969 L77.5938,598.2969 C77.1875,598.2969 77.0313,598.3125 76.875,598.4219 C76.625,598.5938 76.4688,598.8594 76.4688,599.1563 C76.4688,599.4219 76.6094,599.6719 76.8281,599.8281 C76.9688,599.9531 77.2031,600 77.5938,600 L85.5938,600 L85.5938,597.4219 C85.5938,596.9844 85.5625,596.8438 85.4844,596.6875 C85.3125,596.4375 85.0313,596.2813 84.75,596.2813 C84.4844,596.2813 84.2188,596.3906 84.0469,596.6406 C83.9375,596.7969 83.9063,596.9375 83.9063,597.4219 L83.9063,598.2969 L79.5469,598.2969 L79.5469,595.875 Z " fill="#000000"/><text fill="#000000" font-family="sans-serif" font-size="14" lengthAdjust="spacing" textLength="46" x="101.25" y="599.8467">Wallet</text><line style="stroke:#181818;stroke-width:0.5;" x1="23" x2="193" y1="611" y2="611"/><ellipse cx="33" cy="622" fill="none" rx="3" ry="3" style="stroke:#038048;stroke-width:1.0;"/><text fill="#000000" font-family="sans-serif" font-size="14" lengthAdjust="spacing" textLength="61" x="42" y="627.9951">id : Long</text><ellipse cx="33" cy="638.2969" fill="none" rx="3" ry="3" style="stroke:#038048;stroke-width:1.0;"/><text fill="#000000" font-family="sans-serif" font-size="14" lengthAdjust="spacing" textLength="146" x="42" y="644.292">profileName : String</text><ellipse cx="33" cy="654.5938" fill="none" rx="3" ry="3" style="stroke:#038048;stroke-width:1.0;"/><text fill="#000000" font-family="sans-serif" font-size="14" lengthAdjust="spacing" textLength="144" x="42" y="660.5889">balanceInCents : int</text><line style="stroke:#181818;stroke-width:0.5;" x1="23" x2="193" y1="667.8906" y2="667.8906"/></g><!--MD5=[02f52dd76b6d93c484e98adf8cb1a92d]
class Transfer--><g id="elem_Transfer"><rect codeLine="66" fill="#E4F7E6" height="96.8906" id="Transfer" rx="2.5" ry="2.5" style="stroke:#181818;stroke-width:0.5;" width="169" x="87.5" y="781"/><ellipse cx="137.75" cy="797" fill="#ADD1B2" rx="11" ry="11" style="stroke:#181818;stroke-width:1.0;"/><path d="M136.5469,797.875 L138,797.875 L138,797.9844 C138,798.3906 138.0313,798.5469 138.1094,798.7031 C138.2656,798.9531 138.5469,799.1094 138.8438,799.1094 C139.0938,799.1094 139.3594,798.9688 139.5156,798.75 C139.6406,798.5938 139.6719,798.4375 139.6719,797.9844 L139.6719,796.0625 C139.6719,795.9063 139.6719,795.8594 139.6563,795.7031 C139.5938,795.2344 139.2813,794.9219 138.8281,794.9219 C138.5781,794.9219 138.3125,795.0625 138.1406,795.2813 C138.0313,795.4531 138,795.6094 138,796.0625 L138,796.1875 L136.5469,796.1875 L136.5469,793.7813 L140.5313,793.7813 L140.5313,794.6406 C140.5313,795.0469 140.5625,795.2188 140.6406,795.375 C140.8125,795.625 141.0938,795.7813 141.375,795.7813 C141.6406,795.7813 141.9063,795.6406 142.0781,795.4219 C142.1875,795.25 142.2188,795.1094 142.2188,794.6406 L142.2188,792.0938 L134.5938,792.0938 C134.1563,792.0938 134.0313,792.1094 133.875,792.2031 C133.625,792.3594 133.4688,792.6563 133.4688,792.9375 C133.4688,793.2188 133.6094,793.4688 133.8281,793.6406 C133.9844,793.75 134.1719,793.7813 134.5938,793.7813 L134.8438,793.7813 L134.8438,800.2969 L134.5938,800.2969 C134.1875,800.2969 134.0313,800.3125 133.875,800.4219 C133.625,800.5938 133.4688,800.8594 133.4688,801.1563 C133.4688,801.4219 133.6094,801.6719 133.8281,801.8281 C133.9688,801.9531 134.2031,802 134.5938,802 L142.5938,802 L142.5938,799.4219 C142.5938,798.9844 142.5625,798.8438 142.4844,798.6875 C142.3125,798.4375 142.0313,798.2813 141.75,798.2813 C141.4844,798.2813 141.2188,798.3906 141.0469,798.6406 C140.9375,798.7969 140.9063,798.9375 140.9063,799.4219 L140.9063,800.2969 L136.5469,800.2969 L136.5469,797.875 Z " fill="#000000"/><text fill="#000000" font-family="sans-serif" font-size="14" lengthAdjust="spacing" textLength="60" x="158.25" y="801.8467">Transfer</text><line style="stroke:#181818;stroke-width:0.5;" x1="88.5" x2="255.5" y1="813" y2="813"/><ellipse cx="98.5" cy="824" fill="none" rx="3" ry="3" style="stroke:#038048;stroke-width:1.0;"/><text fill="#000000" font-family="sans-serif" font-size="14" lengthAdjust="spacing" textLength="61" x="107.5" y="829.9951">id : Long</text><ellipse cx="98.5" cy="840.2969" fill="none" rx="3" ry="3" style="stroke:#038048;stroke-width:1.0;"/><text fill="#000000" font-family="sans-serif" font-size="14" lengthAdjust="spacing" textLength="143" x="107.5" y="846.292">amountInCents : int</text><ellipse cx="98.5" cy="856.5938" fill="none" rx="3" ry="3" style="stroke:#038048;stroke-width:1.0;"/><text fill="#000000" font-family="sans-serif" font-size="14" lengthAdjust="spacing" textLength="129" x="107.5" y="862.5889">time : Timestamp</text><line style="stroke:#181818;stroke-width:0.5;" x1="88.5" x2="255.5" y1="869.8906" y2="869.8906"/></g><!--MD5=[093c210125347143eef5bb9199eae634]
class UserRepository--><g id="elem_UserRepository"><rect codeLine="74" fill="#F1F1F1" height="64.2969" id="UserRepository" rx="2.5" ry="2.5" style="stroke:#181818;stroke-width:0.5;" width="140" x="370" y="427.5"/><ellipse cx="385" cy="443.5" fill="#B4A7E5" rx="11" ry="11" style="stroke:#181818;stroke-width:1.0;"/><path d="M385.9531,440.2813 L387.6719,440.2813 C388.0625,440.2813 388.25,440.25 388.375,440.1719 C388.6406,440.0156 388.7813,439.7344 388.7813,439.4375 C388.7813,439.1719 388.6719,438.9063 388.4375,438.7344 C388.2656,438.625 388.125,438.5938 387.6719,438.5938 L382.5313,438.5938 C382.0938,438.5938 381.9688,438.6094 381.8125,438.7031 C381.5625,438.8594 381.4063,439.1563 381.4063,439.4375 C381.4063,439.7188 381.5469,439.9688 381.7656,440.1406 C381.9219,440.25 382.1094,440.2813 382.5313,440.2813 L384.25,440.2813 L384.25,446.7969 L382.5313,446.7969 C382.0938,446.7969 381.9688,446.8125 381.8125,446.9219 C381.5625,447.0781 381.4063,447.3594 381.4063,447.6563 C381.4063,447.9063 381.5469,448.1719 381.7656,448.3281 C381.9219,448.4531 382.125,448.5 382.5313,448.5 L387.6719,448.5 C388.4219,448.5 388.7813,448.2188 388.7813,447.6563 C388.7813,447.375 388.6719,447.125 388.4375,446.9531 C388.2656,446.8281 388.125,446.7969 387.6719,446.7969 L385.9531,446.7969 L385.9531,440.2813 Z " fill="#000000"/><text fill="#000000" font-family="sans-serif" font-size="14" font-style="italic" lengthAdjust="spacing" textLength="108" x="399" y="448.3467">UserRepository</text><line style="stroke:#181818;stroke-width:0.5;" x1="371" x2="509" y1="459.5" y2="459.5"/><line style="stroke:#181818;stroke-width:0.5;" x1="371" x2="509" y1="467.5" y2="467.5"/><ellipse cx="381" cy="478.5" fill="#84BE84" rx="3" ry="3" style="stroke:#038048;stroke-width:1.0;"/><text fill="#000000" font-family="sans-serif" font-size="14" lengthAdjust="spacing" textLength="95" x="390" y="484.4951">findByEmail()</text></g><!--MD5=[f11d4d4ca99735300641110a0d70624f]
class TransferRepository--><g id="elem_TransferRepository"><rect codeLine="77" fill="#F1F1F1" height="80.5938" id="TransferRepository" rx="2.5" ry="2.5" style="stroke:#181818;stroke-width:0.5;" width="168" x="545" y="419"/><ellipse cx="560" cy="435" fill="#B4A7E5" rx="11" ry="11" style="stroke:#181818;stroke-width:1.0;"/><path d="M560.9531,431.7813 L562.6719,431.7813 C563.0625,431.7813 563.25,431.75 563.375,431.6719 C563.6406,431.5156 563.7813,431.2344 563.7813,430.9375 C563.7813,430.6719 563.6719,430.4063 563.4375,430.2344 C563.2656,430.125 563.125,430.0938 562.6719,430.0938 L557.5313,430.0938 C557.0938,430.0938 556.9688,430.1094 556.8125,430.2031 C556.5625,430.3594 556.4063,430.6563 556.4063,430.9375 C556.4063,431.2188 556.5469,431.4688 556.7656,431.6406 C556.9219,431.75 557.1094,431.7813 557.5313,431.7813 L559.25,431.7813 L559.25,438.2969 L557.5313,438.2969 C557.0938,438.2969 556.9688,438.3125 556.8125,438.4219 C556.5625,438.5781 556.4063,438.8594 556.4063,439.1563 C556.4063,439.4063 556.5469,439.6719 556.7656,439.8281 C556.9219,439.9531 557.125,440 557.5313,440 L562.6719,440 C563.4219,440 563.7813,439.7188 563.7813,439.1563 C563.7813,438.875 563.6719,438.625 563.4375,438.4531 C563.2656,438.3281 563.125,438.2969 562.6719,438.2969 L560.9531,438.2969 L560.9531,431.7813 Z " fill="#000000"/><text fill="#000000" font-family="sans-serif" font-size="14" font-style="italic" lengthAdjust="spacing" textLength="136" x="574" y="439.8467">TransferRepository</text><line style="stroke:#181818;stroke-width:0.5;" x1="546" x2="712" y1="451" y2="451"/><line style="stroke:#181818;stroke-width:0.5;" x1="546" x2="712" y1="459" y2="459"/><ellipse cx="556" cy="470" fill="#84BE84" rx="3" ry="3" style="stroke:#038048;stroke-width:1.0;"/><text fill="#000000" font-family="sans-serif" font-size="14" lengthAdjust="spacing" textLength="107" x="565" y="475.9951">findBySender()</text><ellipse cx="556" cy="486.2969" fill="#84BE84" rx="3" ry="3" style="stroke:#038048;stroke-width:1.0;"/><text fill="#000000" font-family="sans-serif" font-size="14" lengthAdjust="spacing" textLength="119" x="565" y="492.292">findByReceiver()</text></g><!--MD5=[fc70648a5dfee0e9da908f8ada3105fd]
class WalletRepository--><g id="elem_WalletRepository"><rect codeLine="81" fill="#F1F1F1" height="48" id="WalletRepository" rx="2.5" ry="2.5" style="stroke:#181818;stroke-width:0.5;" width="153" x="748.5" y="435.5"/><ellipse cx="763.5" cy="451.5" fill="#B4A7E5" rx="11" ry="11" style="stroke:#181818;stroke-width:1.0;"/><path d="M764.4531,448.2813 L766.1719,448.2813 C766.5625,448.2813 766.75,448.25 766.875,448.1719 C767.1406,448.0156 767.2813,447.7344 767.2813,447.4375 C767.2813,447.1719 767.1719,446.9063 766.9375,446.7344 C766.7656,446.625 766.625,446.5938 766.1719,446.5938 L761.0313,446.5938 C760.5938,446.5938 760.4688,446.6094 760.3125,446.7031 C760.0625,446.8594 759.9063,447.1563 759.9063,447.4375 C759.9063,447.7188 760.0469,447.9688 760.2656,448.1406 C760.4219,448.25 760.6094,448.2813 761.0313,448.2813 L762.75,448.2813 L762.75,454.7969 L761.0313,454.7969 C760.5938,454.7969 760.4688,454.8125 760.3125,454.9219 C760.0625,455.0781 759.9063,455.3594 759.9063,455.6563 C759.9063,455.9063 760.0469,456.1719 760.2656,456.3281 C760.4219,456.4531 760.625,456.5 761.0313,456.5 L766.1719,456.5 C766.9219,456.5 767.2813,456.2188 767.2813,455.6563 C767.2813,455.375 767.1719,455.125 766.9375,454.9531 C766.7656,454.8281 766.625,454.7969 766.1719,454.7969 L764.4531,454.7969 L764.4531,448.2813 Z " fill="#000000"/><text fill="#000000" font-family="sans-serif" font-size="14" font-style="italic" lengthAdjust="spacing" textLength="121" x="777.5" y="456.3467">WalletRepository</text><line style="stroke:#181818;stroke-width:0.5;" x1="749.5" x2="900.5" y1="467.5" y2="467.5"/><line style="stroke:#181818;stroke-width:0.5;" x1="749.5" x2="900.5" y1="475.5" y2="475.5"/></g><!--MD5=[46be0f02d3ccb60e27af689741ef5b84]
class UserDetails--><g id="elem_UserDetails"><rect codeLine="1" fill="#F1F1F1" height="80.5938" id="UserDetails" rx="2.5" ry="2.5" style="stroke:#181818;stroke-width:0.5;" width="133" x="147.5" y="41"/><ellipse cx="171.5" cy="57" fill="#B4A7E5" rx="11" ry="11" style="stroke:#181818;stroke-width:1.0;"/><path d="M172.4531,53.7813 L174.1719,53.7813 C174.5625,53.7813 174.75,53.75 174.875,53.6719 C175.1406,53.5156 175.2813,53.2344 175.2813,52.9375 C175.2813,52.6719 175.1719,52.4063 174.9375,52.2344 C174.7656,52.125 174.625,52.0938 174.1719,52.0938 L169.0313,52.0938 C168.5938,52.0938 168.4688,52.1094 168.3125,52.2031 C168.0625,52.3594 167.9063,52.6563 167.9063,52.9375 C167.9063,53.2188 168.0469,53.4688 168.2656,53.6406 C168.4219,53.75 168.6094,53.7813 169.0313,53.7813 L170.75,53.7813 L170.75,60.2969 L169.0313,60.2969 C168.5938,60.2969 168.4688,60.3125 168.3125,60.4219 C168.0625,60.5781 167.9063,60.8594 167.9063,61.1563 C167.9063,61.4063 168.0469,61.6719 168.2656,61.8281 C168.4219,61.9531 168.625,62 169.0313,62 L174.1719,62 C174.9219,62 175.2813,61.7188 175.2813,61.1563 C175.2813,60.875 175.1719,60.625 174.9375,60.4531 C174.7656,60.3281 174.625,60.2969 174.1719,60.2969 L172.4531,60.2969 L172.4531,53.7813 Z " fill="#000000"/><text fill="#000000" font-family="sans-serif" font-size="14" font-style="italic" lengthAdjust="spacing" textLength="81" x="187.5" y="61.8467">UserDetails</text><line style="stroke:#181818;stroke-width:0.5;" x1="148.5" x2="279.5" y1="73" y2="73"/><line style="stroke:#181818;stroke-width:0.5;" x1="148.5" x2="279.5" y1="81" y2="81"/><ellipse cx="158.5" cy="92" fill="#84BE84" rx="3" ry="3" style="stroke:#038048;stroke-width:1.0;"/><text fill="#000000" font-family="sans-serif" font-size="14" lengthAdjust="spacing" textLength="101" x="167.5" y="97.9951">getPassword()</text><ellipse cx="158.5" cy="108.2969" fill="#84BE84" rx="3" ry="3" style="stroke:#038048;stroke-width:1.0;"/><text fill="#000000" font-family="sans-serif" font-size="14" lengthAdjust="spacing" textLength="107" x="167.5" y="114.292">getUserName()</text></g><!--MD5=[d56ded55cff2e72b4920954b80e938e0]
class UserDetailService--><g id="elem_UserDetailService"><rect codeLine="5" fill="#F1F1F1" height="64.2969" id="UserDetailService" rx="2.5" ry="2.5" style="stroke:#181818;stroke-width:0.5;" width="186" x="318" y="49.5"/><ellipse cx="345.15" cy="65.5" fill="#B4A7E5" rx="11" ry="11" style="stroke:#181818;stroke-width:1.0;"/><path d="M346.1031,62.2813 L347.8219,62.2813 C348.2125,62.2813 348.4,62.25 348.525,62.1719 C348.7906,62.0156 348.9313,61.7344 348.9313,61.4375 C348.9313,61.1719 348.8219,60.9063 348.5875,60.7344 C348.4156,60.625 348.275,60.5938 347.8219,60.5938 L342.6813,60.5938 C342.2438,60.5938 342.1188,60.6094 341.9625,60.7031 C341.7125,60.8594 341.5563,61.1563 341.5563,61.4375 C341.5563,61.7188 341.6969,61.9688 341.9156,62.1406 C342.0719,62.25 342.2594,62.2813 342.6813,62.2813 L344.4,62.2813 L344.4,68.7969 L342.6813,68.7969 C342.2438,68.7969 342.1188,68.8125 341.9625,68.9219 C341.7125,69.0781 341.5563,69.3594 341.5563,69.6563 C341.5563,69.9063 341.6969,70.1719 341.9156,70.3281 C342.0719,70.4531 342.275,70.5 342.6813,70.5 L347.8219,70.5 C348.5719,70.5 348.9313,70.2188 348.9313,69.6563 C348.9313,69.375 348.8219,69.125 348.5875,68.9531 C348.4156,68.8281 348.275,68.7969 347.8219,68.7969 L346.1031,68.7969 L346.1031,62.2813 Z " fill="#000000"/><text fill="#000000" font-family="sans-serif" font-size="14" font-style="italic" lengthAdjust="spacing" textLength="127" x="361.85" y="70.3467">UserDetailService</text><line style="stroke:#181818;stroke-width:0.5;" x1="319" x2="503" y1="81.5" y2="81.5"/><line style="stroke:#181818;stroke-width:0.5;" x1="319" x2="503" y1="89.5" y2="89.5"/><ellipse cx="329" cy="100.5" fill="#84BE84" rx="3" ry="3" style="stroke:#038048;stroke-width:1.0;"/><text fill="#000000" font-family="sans-serif" font-size="14" lengthAdjust="spacing" textLength="160" x="338" y="106.4951">loadUserByUsername()</text></g><!--MD5=[a22c849ed96258a4b20be860721aede8]
class WebMvcConfigurer--><g id="elem_WebMvcConfigurer"><rect codeLine="8" fill="#F1F1F1" height="64.2969" id="WebMvcConfigurer" rx="2.5" ry="2.5" style="stroke:#181818;stroke-width:0.5;" width="176" x="840" y="595.5"/><ellipse cx="858.6" cy="611.5" fill="#B4A7E5" rx="11" ry="11" style="stroke:#181818;stroke-width:1.0;"/><path d="M859.5531,608.2813 L861.2719,608.2813 C861.6625,608.2813 861.85,608.25 861.975,608.1719 C862.2406,608.0156 862.3813,607.7344 862.3813,607.4375 C862.3813,607.1719 862.2719,606.9063 862.0375,606.7344 C861.8656,606.625 861.725,606.5938 861.2719,606.5938 L856.1313,606.5938 C855.6938,606.5938 855.5688,606.6094 855.4125,606.7031 C855.1625,606.8594 855.0063,607.1563 855.0063,607.4375 C855.0063,607.7188 855.1469,607.9688 855.3656,608.1406 C855.5219,608.25 855.7094,608.2813 856.1313,608.2813 L857.85,608.2813 L857.85,614.7969 L856.1313,614.7969 C855.6938,614.7969 855.5688,614.8125 855.4125,614.9219 C855.1625,615.0781 855.0063,615.3594 855.0063,615.6563 C855.0063,615.9063 855.1469,616.1719 855.3656,616.3281 C855.5219,616.4531 855.725,616.5 856.1313,616.5 L861.2719,616.5 C862.0219,616.5 862.3813,616.2188 862.3813,615.6563 C862.3813,615.375 862.2719,615.125 862.0375,614.9531 C861.8656,614.8281 861.725,614.7969 861.2719,614.7969 L859.5531,614.7969 L859.5531,608.2813 Z " fill="#000000"/><text fill="#000000" font-family="sans-serif" font-size="14" font-style="italic" lengthAdjust="spacing" textLength="136" x="873.4" y="616.3467">WebMvcConfigurer</text><line style="stroke:#181818;stroke-width:0.5;" x1="841" x2="1015" y1="627.5" y2="627.5"/><line style="stroke:#181818;stroke-width:0.5;" x1="841" x2="1015" y1="635.5" y2="635.5"/><ellipse cx="851" cy="646.5" fill="#84BE84" rx="3" ry="3" style="stroke:#038048;stroke-width:1.0;"/><text fill="#000000" font-family="sans-serif" font-size="14" lengthAdjust="spacing" textLength="150" x="860" y="652.4951">addViewControllers()</text></g><!--MD5=[5d9d7f361cf9aacac4ee237afb90f58a]
class JpaRepository--><g id="elem_JpaRepository"><rect codeLine="11" fill="#F1F1F1" height="64.2969" id="JpaRepository" rx="2.5" ry="2.5" style="stroke:#181818;stroke-width:0.5;" width="134" x="562" y="595.5"/><ellipse cx="578.8" cy="611.5" fill="#B4A7E5" rx="11" ry="11" style="stroke:#181818;stroke-width:1.0;"/><path d="M579.7531,608.2813 L581.4719,608.2813 C581.8625,608.2813 582.05,608.25 582.175,608.1719 C582.4406,608.0156 582.5813,607.7344 582.5813,607.4375 C582.5813,607.1719 582.4719,606.9063 582.2375,606.7344 C582.0656,606.625 581.925,606.5938 581.4719,606.5938 L576.3313,606.5938 C575.8938,606.5938 575.7688,606.6094 575.6125,606.7031 C575.3625,606.8594 575.2063,607.1563 575.2063,607.4375 C575.2063,607.7188 575.3469,607.9688 575.5656,608.1406 C575.7219,608.25 575.9094,608.2813 576.3313,608.2813 L578.05,608.2813 L578.05,614.7969 L576.3313,614.7969 C575.8938,614.7969 575.7688,614.8125 575.6125,614.9219 C575.3625,615.0781 575.2063,615.3594 575.2063,615.6563 C575.2063,615.9063 575.3469,616.1719 575.5656,616.3281 C575.7219,616.4531 575.925,616.5 576.3313,616.5 L581.4719,616.5 C582.2219,616.5 582.5813,616.2188 582.5813,615.6563 C582.5813,615.375 582.4719,615.125 582.2375,614.9531 C582.0656,614.8281 581.925,614.7969 581.4719,614.7969 L579.7531,614.7969 L579.7531,608.2813 Z " fill="#000000"/><text fill="#000000" font-family="sans-serif" font-size="14" font-style="italic" lengthAdjust="spacing" textLength="98" x="593.2" y="616.3467">JpaRepository</text><line style="stroke:#181818;stroke-width:0.5;" x1="563" x2="695" y1="627.5" y2="627.5"/><line style="stroke:#181818;stroke-width:0.5;" x1="563" x2="695" y1="635.5" y2="635.5"/><ellipse cx="573" cy="646.5" fill="#84BE84" rx="3" ry="3" style="stroke:#038048;stroke-width:1.0;"/><text fill="#000000" font-family="sans-serif" font-size="14" lengthAdjust="spacing" textLength="108" x="582" y="652.4951">CRUD methods</text></g><!--MD5=[b4b656aa6a2eed74038f2efd880f9bc1]
class space--><!--MD5=[54c79813a866b8206d079d73afa8a1f3]
reverse link WebMvcConfigurer to WebMvcConfiguration--><g id="link_WebMvcConfigurer_WebMvcConfiguration"><path d="M928,679.97 C928,720.389 928,774.771 928,805.264 " fill="none" id="WebMvcConfigurer-backto-WebMvcConfiguration" style="stroke:#181818;stroke-width:1.0;stroke-dasharray:7.0,7.0;"/><polygon fill="none" points="921,679.75,928,659.75,935,679.75,921,679.75" style="stroke:#181818;stroke-width:1.0;"/></g><!--MD5=[40500d079abad8955bebcc5e7556d08e]
reverse link UserDetailService to UserService--><g id="link_UserDetailService_UserService"><path d="M414.433,133.702 C416.744,168.186 419.683,212.018 421.448,238.357 " fill="none" id="UserDetailService-backto-UserService" style="stroke:#181818;stroke-width:1.0;stroke-dasharray:7.0,7.0;"/><polygon fill="none" points="407.444,134.103,413.09,113.679,421.412,133.166,407.444,134.103" style="stroke:#181818;stroke-width:1.0;"/></g><!--MD5=[fba60fc5472b7ff96612f119de625d14]
reverse link UserDetails to UserPrincipal--><g id="link_UserDetails_UserPrincipal"><path d="M211.997,142.248 C210.894,175.149 209.589,214.101 208.777,238.311 " fill="none" id="UserDetails-backto-UserPrincipal" style="stroke:#181818;stroke-width:1.0;stroke-dasharray:7.0,7.0;"/><polygon fill="none" points="205.002,141.98,212.668,122.226,218.994,142.449,205.002,141.98" style="stroke:#181818;stroke-width:1.0;"/></g><!--MD5=[c2c0fbd2207e409a3917dc34662f2928]
link TransferViewController to WalletService--><g id="link_TransferViewController_WalletService"><path codeLine="85" d="M733.9544,131.7291 C733.9544,131.7291 767.162,174.805 783.18,195.582 " fill="none" id="TransferViewController-WalletService" style="stroke:#181818;stroke-width:1.0;"/><polygon fill="#181818" points="791.16,205.932,788.833,196.362,788.1073,201.9721,782.4971,201.2464,791.16,205.932" style="stroke:#181818;stroke-width:1.0;"/><line style="stroke:#181818;stroke-width:1.0;" x1="788.1073" x2="783.2225" y1="201.9721" y2="195.637"/><polygon fill="#181818" points="726.627,122.226,727.123,129.42,733.9544,131.7291,733.4584,124.5351,726.627,122.226" style="stroke:#181818;stroke-width:1.0;"/></g><!--MD5=[dcc81ba93d61e664aa49cdda16a92e04]
link AddContactViewController to WalletService--><g id="link_AddContactViewController_WalletService"><path codeLine="86" d="M927.3542,131.9607 C927.3542,131.9607 896.523,174.744 881.675,195.346 " fill="none" id="AddContactViewController-WalletService" style="stroke:#181818;stroke-width:1.0;"/><polygon fill="#181818" points="874.046,205.932,882.5528,200.9686,876.9691,201.8754,876.0623,196.2917,874.046,205.932" style="stroke:#181818;stroke-width:1.0;"/><line style="stroke:#181818;stroke-width:1.0;" x1="876.9691" x2="881.6465" y1="201.8754" y2="195.386"/><polygon fill="#181818" points="934.371,122.226,927.6177,124.7544,927.3542,131.9607,934.1075,129.4323,934.371,122.226" style="stroke:#181818;stroke-width:1.0;"/></g><!--MD5=[9d133f4be1aa855a0f7e9812cd84d12c]
link TransferService to WalletService--><g id="link_TransferService_WalletService"><path codeLine="88" d="M735.785,262.5 C735.785,262.5 742.284,262.5 744.942,262.5 " fill="none" id="TransferService-WalletService" style="stroke:#181818;stroke-width:1.0;"/><polygon fill="#181818" points="758.227,262.5,749.227,258.5,753.227,262.5,749.227,266.5,758.227,262.5" style="stroke:#181818;stroke-width:1.0;"/><line style="stroke:#181818;stroke-width:1.0;" x1="753.227" x2="745.227" y1="262.5" y2="262.5"/><polygon fill="#181818" points="723.785,262.5,729.785,266.5,735.785,262.5,729.785,258.5,723.785,262.5" style="stroke:#181818;stroke-width:1.0;"/></g><!--MD5=[7920165c3d2c7c57eda68972ca54daec]
reverse link UserPrincipal to UserService--><g id="link_UserPrincipal_UserService"><path codeLine="89" d="M276.08,262.5 C301.237,262.5 329.736,262.5 354.895,262.5 " fill="none" id="UserPrincipal-backto-UserService" style="stroke:#181818;stroke-width:1.0;stroke-dasharray:7.0,7.0;"/><polygon fill="#181818" points="270.765,262.5,279.765,266.5,275.765,262.5,279.765,258.5,270.765,262.5" style="stroke:#181818;stroke-width:1.0;"/><text fill="#000000" font-family="sans-serif" font-size="13" lengthAdjust="spacing" textLength="48" x="288.75" y="255.5669">creates</text></g><!--MD5=[716d7c6e97d70bef18dbe3eea74a0dde]
link UserPrincipal to User--><g id="link_UserPrincipal_User"><path codeLine="90" d="M204.7615,298.5842 C204.7615,298.5842 198.582,365.532 195.626,397.557 " fill="none" id="UserPrincipal-User" style="stroke:#181818;stroke-width:1.0;"/><polygon fill="#181818" points="194.398,410.856,199.2079,402.2615,194.8573,405.8771,191.2417,401.5266,194.398,410.856" style="stroke:#181818;stroke-width:1.0;"/><line style="stroke:#181818;stroke-width:1.0;" x1="194.8573" x2="195.593" y1="405.8771" y2="397.911"/><polygon fill="#181818" points="205.864,286.635,201.3297,292.2421,204.7615,298.5842,209.2958,292.9771,205.864,286.635" style="stroke:#181818;stroke-width:1.0;"/><text fill="#000000" font-family="sans-serif" font-size="13" lengthAdjust="spacing" textLength="4" x="200.8559" y="306.4291"></text><text fill="#000000" font-family="sans-serif" font-size="13" lengthAdjust="spacing" textLength="8" x="177.8915" y="400.0447">1</text></g><!--MD5=[c6100b592e29ab2a9436cfea8d37588a]
link User to Wallet--><g id="link_User_Wallet"><path codeLine="91" d="M160.679,519.857 C153.121,535.158 136.8169,568.1657 136.8169,568.1657 " fill="none" id="User-Wallet" style="stroke:#181818;stroke-width:1.0;"/><polygon fill="none" points="131.501,578.924,137.745,575.3168,136.8169,568.1657,130.5728,571.7729,131.501,578.924" style="stroke:#181818;stroke-width:1.0;"/><polygon fill="#181818" points="166.502,508.069,158.9293,514.3662,164.2873,512.5517,166.1017,517.9097,166.502,508.069" style="stroke:#181818;stroke-width:1.0;"/><line style="stroke:#181818;stroke-width:1.0;" x1="164.2873" x2="160.7445" y1="512.5517" y2="519.7245"/><text fill="#000000" font-family="sans-serif" font-size="13" lengthAdjust="spacing" textLength="8" x="146.0726" y="528.0376">1</text><text fill="#000000" font-family="sans-serif" font-size="13" lengthAdjust="spacing" textLength="8" x="117.7777" y="567.7725">1</text></g><!--MD5=[75f4e9f67daccebfc332227ffe701565]
link Wallet to Transfer--><g id="link_Wallet_Transfer"><path codeLine="92" d="M127.308,688.838 C135.342,713.945 153.1012,769.4387 153.1012,769.4387 " fill="none" id="Wallet-Transfer" style="stroke:#181818;stroke-width:1.0;"/><polygon fill="#181818" points="156.758,780.868,158.7394,773.9344,153.1012,769.4387,151.1199,776.3723,156.758,780.868" style="stroke:#181818;stroke-width:1.0;"/><polygon fill="#181818" points="123.248,676.151,122.1808,685.9419,124.7717,680.9132,129.8003,683.504,123.248,676.151" style="stroke:#181818;stroke-width:1.0;"/><line style="stroke:#181818;stroke-width:1.0;" x1="124.7717" x2="127.2105" y1="680.9132" y2="688.5325"/><text fill="#000000" font-family="sans-serif" font-size="13" lengthAdjust="spacing" textLength="52" x="143" y="719.0669">sender /</text><text fill="#000000" font-family="sans-serif" font-size="13" lengthAdjust="spacing" textLength="52" x="153" y="734.1997">receiver</text><text fill="#000000" font-family="sans-serif" font-size="13" lengthAdjust="spacing" textLength="8" x="108.2673" y="696.1312">2</text><text fill="#000000" font-family="sans-serif" font-size="13" lengthAdjust="spacing" textLength="23" x="121.1537" y="770.0584">0..*</text></g><!--MD5=[4694440557e5a0df2804fb58b4fbd8a9]
link Wallet to Wallet--><g id="link_Wallet_Wallet"><path codeLine="93" d="M206.1226,614.4878 C206.1226,614.4878 229,621.114 229,627.5 C229,633.886 220.349,638.181 207.296,640.384 " fill="none" id="Wallet-Wallet" style="stroke:#181818;stroke-width:1.0;"/><polygon fill="#181818" points="194.194,641.819,203.5761,644.8151,199.1643,641.2745,202.7049,636.8627,194.194,641.819" style="stroke:#181818;stroke-width:1.0;"/><line style="stroke:#181818;stroke-width:1.0;" x1="199.1643" x2="207.1165" y1="641.2745" y2="640.404"/><polygon fill="none" points="194.194,613.181,199.7227,617.8106,206.1226,614.4878,200.5939,609.8582,194.194,613.181" style="stroke:#181818;stroke-width:1.0;"/><text fill="#000000" font-family="sans-serif" font-size="13" lengthAdjust="spacing" textLength="55" x="235" y="632.0669">contacts</text><text fill="#000000" font-family="sans-serif" font-size="13" lengthAdjust="spacing" textLength="23" x="206.1331" y="655.5657">0..*</text></g><!--MD5=[5fb5cea8d0ced273abb0825de5d33651]
link UserService to UserRepository--><g id="link_UserService_UserRepository"><path codeLine="94" d="M426.06,298.5896 C426.06,298.5896 433.128,379.674 436.148,414.319 " fill="none" id="UserService-UserRepository" style="stroke:#181818;stroke-width:1.0;"/><polygon fill="#181818" points="437.286,427.364,440.4895,418.0507,436.8519,422.3829,432.5197,418.7453,437.286,427.364" style="stroke:#181818;stroke-width:1.0;"/><line style="stroke:#181818;stroke-width:1.0;" x1="436.8519" x2="436.1565" y1="422.3829" y2="414.413"/><polygon fill="#181818" points="425.017,286.635,421.5537,292.96,426.06,298.5896,429.5234,292.2646,425.017,286.635" style="stroke:#181818;stroke-width:1.0;"/></g><!--MD5=[c702a32cdacb65ca046b8cc70fad2ec4]
link WalletService to WalletRepository--><g id="link_WalletService_WalletRepository"><path codeLine="95" d="M830.8805,331.1053 C830.8805,331.1053 827.842,396.922 826.683,422.044 " fill="none" id="WalletService-WalletRepository" style="stroke:#181818;stroke-width:1.0;"/><polygon fill="#181818" points="826.069,435.339,830.4791,426.5327,826.2992,430.3443,822.4876,426.1644,826.069,435.339" style="stroke:#181818;stroke-width:1.0;"/><line style="stroke:#181818;stroke-width:1.0;" x1="826.2992" x2="826.6685" y1="430.3443" y2="422.3525"/><polygon fill="#181818" points="831.433,319.118,827.161,324.9275,830.8805,331.1053,835.1525,325.2958,831.433,319.118" style="stroke:#181818;stroke-width:1.0;"/></g><!--MD5=[8dbeb6a0e09c31a77de62a5b2a1eae03]
link TransferService to TransferRepository--><g id="link_TransferService_TransferRepository"><path codeLine="96" d="M626.0643,315.4295 C626.0643,315.4295 627.354,378.278 627.922,405.93 " fill="none" id="TransferService-TransferRepository" style="stroke:#181818;stroke-width:1.0;"/><polygon fill="#181818" points="628.189,418.955,632.0042,409.8751,628.0868,413.956,624.0059,410.0386,628.189,418.955" style="stroke:#181818;stroke-width:1.0;"/><line style="stroke:#181818;stroke-width:1.0;" x1="628.0868" x2="627.922" y1="413.956" y2="405.958"/><polygon fill="#181818" points="625.819,303.432,621.9425,309.5125,626.0643,315.4295,629.9408,309.349,625.819,303.432" style="stroke:#181818;stroke-width:1.0;"/></g><!--MD5=[fa4da2e1c5845a66f9239b65b96d49c7]
link repository to User--><g id="link_repository_User"><path codeLine="97" d="M326.9242,459.5 C326.7569,459.5 326.5896,459.5 326.4223,459.5 C323.745,459.5 321.0678,459.5 318.3905,459.5 C313.036,459.5 307.6815,459.5 302.327,459.5 C291.618,459.5 280.909,459.5 270.2,459.5 " fill="none" id="repository-to-User" style="stroke:#181818;stroke-width:1.0;stroke-dasharray:7.0,7.0;"/><polygon fill="#181818" points="265.049,459.5,274.049,463.5,270.049,459.5,274.049,455.5,265.049,459.5" style="stroke:#181818;stroke-width:1.0;"/></g><!--MD5=[8fe639c730721ff0ed1d2662bb0724fe]
link repository to Wallet--><g id="link_repository_Wallet"><path codeLine="98" d="M326.9101,486.6746 C326.8649,486.7952 326.8195,486.916 326.7739,487.0371 C326.5915,487.5212 326.4058,488.0091 326.2169,488.5003 C325.8392,489.4828 325.4484,490.479 325.0446,491.4866 C318.5835,507.609 308.7685,526.6775 295,540 C268.294,565.842 232.466,584.955 199.319,598.545 " fill="none" id="repository-to-Wallet" style="stroke:#181818;stroke-width:1.0;stroke-dasharray:7.0,7.0;"/><polygon fill="#181818" points="194.449,600.51,204.2919,600.8511,199.0856,598.6388,201.298,593.4325,194.449,600.51" style="stroke:#181818;stroke-width:1.0;"/></g><!--MD5=[8e9856e3cee86d228bdd6131930cb3f6]
link repository to Transfer--><g id="link_repository_Transfer"><path codeLine="100" d="M331.8206,524.4983 C331.791,524.8121 331.7611,525.1267 331.731,525.442 C331.6104,526.7034 331.4853,527.9767 331.3557,529.2614 C331.0965,531.8307 330.8189,534.4455 330.5219,537.1009 C325.7688,579.5873 316.0085,632.472 296,676 C278.885,713.235 250.539,749.095 225.266,776.677 " fill="none" id="repository-to-Transfer" style="stroke:#181818;stroke-width:1.0;stroke-dasharray:7.0,7.0;"/><polygon fill="#181818" points="221.561,780.685,230.6062,776.7882,224.9538,777.0122,224.7298,771.3598,221.561,780.685" style="stroke:#181818;stroke-width:1.0;"/><text fill="#000000" font-family="sans-serif" font-size="13" lengthAdjust="spacing" textLength="99" x="326" y="632.0669">creates entities</text></g><!--MD5=[0e7528f3b6af38a8f1d02c67f27796bc]
link UserRepository to JpaRepository--><g id="link_UserRepository_JpaRepository"><path codeLine="102" d="M473.616,491.752 C489.653,506.523 509.186,524.317 527,540 C542.651,553.778 559.873,568.535 575.638,581.887 " fill="none" id="UserRepository-to-JpaRepository" style="stroke:#181818;stroke-width:1.0;"/><polygon fill="none" points="580.639,576.947,591.413,595.194,571.612,587.649,580.639,576.947" style="stroke:#181818;stroke-width:1.0;"/></g><!--MD5=[467b53136cf9303ce0df21f70747812b]
link TransferRepository to JpaRepository--><g id="link_TransferRepository_JpaRepository"><path codeLine="103" d="M629,500.261 C629,522.7 629,550.988 629,575.096 " fill="none" id="TransferRepository-to-JpaRepository" style="stroke:#181818;stroke-width:1.0;"/><polygon fill="none" points="636,575.362,629,595.362,622,575.362,636,575.362" style="stroke:#181818;stroke-width:1.0;"/></g><!--MD5=[c589b19a0a1b47a5e4ffff4c9c36e4ff]
link WalletRepository to JpaRepository--><g id="link_WalletRepository_JpaRepository"><path codeLine="104" d="M797.747,483.582 C767.651,509.071 718.493,550.705 680.977,582.479 " fill="none" id="WalletRepository-to-JpaRepository" style="stroke:#181818;stroke-width:1.0;"/><polygon fill="none" points="685.487,587.832,665.701,595.417,676.439,577.149,685.487,587.832" style="stroke:#181818;stroke-width:1.0;"/></g><!--MD5=[a87d42d7a139ebd305ae5e65bc6aa8f2]
link UserService to TransferService--><!--MD5=[5036acc05792d4804a297614c2434e11]
link UserDetails to UserDetailService--><!--MD5=[4f0d84a0a1419f405b8ef9cce96ae075]
link SpringSecurityConfig to WebMvcConfiguration--><!--MD5=[6c200bb5f30a017c98c828d567aa9440]
link JpaRepository to space--><!--MD5=[b063aab851781146aea5bf6ec97179e5]
link space to WebMvcConfigurer--><!--MD5=[22986fd8ed9166a666c883adc65483bf]
@startuml
interface UserDetails {
  +getPassword()
  +getUserName()
}
interface UserDetailService {
  +loadUserByUsername()
}
interface WebMvcConfigurer {
  +addViewControllers()
}
interface JpaRepository {
  +{method} CRUD methods
}

package configuration {
  class SpringSecurityConfig< 1 > {
    +securityFilterChain()
    +getPasswordEncoder()
  }
    class WebMvcConfiguration< 1 > implements WebMvcConfigurer{
  }
}

package controller {
  class TransferViewController< 1 > {
    +getPage()
    +postPay()
  }
  class AddContactViewController< 1 > {
    +getPage()
    +postAdd()
  }
}

package service {
  class UserService< 1 > implements UserDetailService {
  }
  class WalletService< 1 > {
    +getContacts()
    +getTransfers()
    +addContact()
    +doTransfer()
  }
  class TransferService< 1 > {
    +getTransfersForWallet()
    +addTransfer()
  }
}

package model {
  class UserPrincipal implements UserDetails {
  }
  
  entity User #e4f7e6 {
    +id : Long
    +email : String
    +password : String
  }
  
  entity Wallet #e4f7e6 {
    +id : Long
    +profileName : String
    +balanceInCents : int
  }
  
  entity Transfer #e4f7e6 {
    +id : Long
    +amountInCents : int
    +time : Timestamp
  }
}

package repository {
  interface UserRepository {
    +findByEmail()
  }
  interface TransferRepository {
    +findBySender()
    +findByReceiver()
  }
  interface WalletRepository {
  }
}

TransferViewController *- -> WalletService
AddContactViewController *- -> WalletService

TransferService *-> WalletService
UserPrincipal <. UserService : creates
UserPrincipal " " *- -> "1  " User
User "1  " <- -o "1  " Wallet
Wallet "2  " <- -* " 0..*  " Transfer : sender /    \n receiver
Wallet o-> " 0..*  " Wallet : contacts
UserService *- -> UserRepository
WalletService *- -> WalletRepository
TransferService *- -> TransferRepository
repository ..> User
repository ..> Wallet

repository ..> Transfer : creates entities

UserRepository - -|> JpaRepository
TransferRepository - -|> JpaRepository
WalletRepository - -|> JpaRepository

UserService .[hidden]> TransferService
UserDetails .[hidden]> UserDetailService
SpringSecurityConfig .[hidden]> WebMvcConfiguration
JpaRepository .[hidden]> space
space .[hidden]> WebMvcConfigurer
hide space
@enduml

PlantUML version 1.2022.7beta2(Unknown compile time)
(GPL source distribution)
Java Runtime: Java(TM) SE Runtime Environment
JVM: Java HotSpot(TM) 64-Bit Server VM
Default Encoding: UTF-8
Language: en
Country: US
--></g></svg>